<?xml version="1.0" encoding="UTF-8" standalone="no"?>
<!-- Created with Inkscape (http://www.inkscape.org/) -->

<svg
   xmlns:dc="http://purl.org/dc/elements/1.1/"
   xmlns:cc="http://creativecommons.org/ns#"
   xmlns:rdf="http://www.w3.org/1999/02/22-rdf-syntax-ns#"
   xmlns:svg="http://www.w3.org/2000/svg"
   xmlns="http://www.w3.org/2000/svg"
   xmlns:sodipodi="http://sodipodi.sourceforge.net/DTD/sodipodi-0.dtd"
   xmlns:inkscape="http://www.inkscape.org/namespaces/inkscape"
   width="50mm"
   height="75mm"
   viewBox="0 0 702 1070"
   version="1.1"
   id="svg8"
   inkscape:version="0.92.2 (5c3e80d, 2017-08-06)"
   sodipodi:docname="drawing.svg">
  <defs
     id="defs2" />
  <sodipodi:namedview
     id="base"
     pagecolor="#ffffff"
     bordercolor="#666666"
     borderopacity="1.0"
     inkscape:pageopacity="0.0"
     inkscape:pageshadow="2"
     inkscape:zoom="0.12374369"
     inkscape:cx="1530.263"
     inkscape:cy="1874.7116"
     inkscape:document-units="mm"
     inkscape:current-layer="layer1"
     showgrid="false"
     inkscape:window-width="1920"
     inkscape:window-height="1057"
     inkscape:window-x="-8"
     inkscape:window-y="-8"
     inkscape:window-maximized="1" />
  <metadata
     id="metadata5">
    <rdf:RDF>
      <cc:Work
         rdf:about="">
        <dc:format>image/svg+xml</dc:format>
        <dc:type
           rdf:resource="http://purl.org/dc/dcmitype/StillImage" />
        <dc:title></dc:title>
      </cc:Work>
    </rdf:RDF>
  </metadata>
  <g
     inkscape:label="Layer 1"
     inkscape:groupmode="layer"
     id="layer1"
     transform="translate(0,405)">
    <circle
       style="opacity:1;fill:#f00a0a;fill-opacity:1;fill-rule:nonzero;stroke:none;stroke-width:315.81494141;stroke-linecap:round;stroke-linejoin:round;stroke-miterlimit:4;stroke-dasharray:none;stroke-opacity:1;paint-order:stroke fill markers"
       id="path815"
       cx="351"
       cy="-54"
       r="350" />
    <circle
       cy="-54"
       cx="351"
       id="circle817"
       style="opacity:1;fill:#ffffff;fill-opacity:1;fill-rule:nonzero;stroke:none;stroke-width:225.58209229;stroke-linecap:round;stroke-linejoin:round;stroke-miterlimit:4;stroke-dasharray:none;stroke-opacity:1;paint-order:stroke fill markers"
       r="250" />

    <rect
        width="30"
        height="100"
        style="fill:rgb(0,0,0);"
        x="331"
        y="295"
    />
    <rect
        width="500"
        height="250"
        style="fill:rgb(255,255,255);stroke-width:15;stroke:rgb(0,0,0)"
        x="101"
        y="394"
    />

    <path
      style="opacity:1;fill:#000000;fill-opacity:1;fill-rule:nonzero;stroke:none;stroke-width:79.9848938;stroke-linecap:round;stroke-linejoin:round;stroke-miterlimit:4;stroke-dasharray:none;stroke-opacity:1;paint-order:stroke fill markers"
      d="m 295,440 c -5.12356,0.0207 -14.09952,3.90088 -15.66659,12.26483 l -9.55554,57.86872 c -5.41789,-0.006 -12.53526,6.88921 -12.55566,10.70392 v 32.33505 c 1.4985,3.92172 4.33569,6.95436 7.33346,9.47749 v 26.20235 c 0,4.0151 5.97135,7.24764 13.38881,7.24764 7.41744,0 13.38877,-3.23254 13.38877,-7.24764 v -26.20235 c 18.20063,2.16246 36.06178,3.68647 53.38896,3.67956 17.32718,0.007 35.18834,-1.5171 53.38895,-3.67956 v 26.20235 c 0,4.0151 5.97136,7.24764 13.38879,7.24764 7.41745,0 13.3888,-3.23254 13.3888,-7.24764 v -26.20235 c 2.99772,-2.52313 5.83497,-5.55577 7.33346,-9.47749 v -32.33505 c -0.0206,-3.81471 -7.13747,-10.70994 -12.55538,-10.70392 l -9.55553,-57.86872 c -1.56707,-8.36395 -10.54326,-12.24416 -15.66687,-12.26483 z m 11.13082,10.53654 h 38.5914 38.5914 c 8.75545,0.006 18.10595,5.08984 19.45561,11.70736 l 5.76652,34.5652 c 0.13283,0.85798 -0.42623,2.63121 -1.05535,3.62367 -1.27912,1.70465 -3.50411,2.67891 -6.77794,2.67613 -1.25562,0 -7.8887,-0.50187 -7.8887,-0.50187 -23.76546,-1.36586 -31.14226,-1.31014 -48.09155,-1.5609 -16.94922,0.25076 -24.3258,0.19504 -48.09125,1.5609 0,0 -6.63337,0.50187 -7.88898,0.50187 -3.27378,0.003 -5.49883,-0.97148 -6.77794,-2.67613 -0.62912,-0.99246 -1.18818,-2.76569 -1.05535,-3.62367 l 5.76652,-34.5652 c 1.34966,-6.61752 10.70016,-11.70156 19.45561,-11.70736 z m 23.64686,66.50987 h 29.88908 l 29.9999,2.67613 -0.0109,5.79793 h -89.878 v -5.79793 z m -50.33316,1.11494 a 12.222226,12.265001 0 0 1 12.22206,12.26511 12.222226,12.265001 0 0 1 -12.22206,12.26483 12.222226,12.265001 0 0 1 -12.22234,-12.26483 12.222226,12.265001 0 0 1 12.22234,-12.26511 z m 130.55568,0 a 12.222226,12.265001 0 0 1 12.22204,12.26511 12.222226,12.265001 0 0 1 -12.22204,12.26483 12.222226,12.265001 0 0 1 -12.22235,-12.26483 12.222226,12.265001 0 0 1 12.22235,-12.26511 z m -110.21123,13.26855 h 89.87769 v 8.47406 h -89.88889 z m -0.0112,14.38349 h 89.87797 l 0.0109,5.79793 -29.9999,2.67613 h -29.88909 l -29.9999,-2.67613 z"
    />
  </g>
</svg>
