<?xml version="1.0" encoding="UTF-8" standalone="no"?>
<!-- Created with Inkscape (http://www.inkscape.org/) -->

<svg
   xmlns:dc="http://purl.org/dc/elements/1.1/"
   xmlns:cc="http://creativecommons.org/ns#"
   xmlns:rdf="http://www.w3.org/1999/02/22-rdf-syntax-ns#"
   xmlns:svg="http://www.w3.org/2000/svg"
   xmlns="http://www.w3.org/2000/svg"
   xmlns:sodipodi="http://sodipodi.sourceforge.net/DTD/sodipodi-0.dtd"
   xmlns:inkscape="http://www.inkscape.org/namespaces/inkscape"
   width="50mm"
   height="75mm"
   viewBox="0 0 702 1070"
   version="1.1"
   id="svg8"
   inkscape:version="0.92.2 (5c3e80d, 2017-08-06)"
   sodipodi:docname="drawing.svg">
  <defs
     id="defs2" />
  <sodipodi:namedview
     id="base"
     pagecolor="#ffffff"
     bordercolor="#666666"
     borderopacity="1.0"
     inkscape:pageopacity="0.0"
     inkscape:pageshadow="2"
     inkscape:zoom="0.12374369"
     inkscape:cx="1530.263"
     inkscape:cy="1874.7116"
     inkscape:document-units="mm"
     inkscape:current-layer="layer1"
     showgrid="false"
     inkscape:window-width="1920"
     inkscape:window-height="1057"
     inkscape:window-x="-8"
     inkscape:window-y="-8"
     inkscape:window-maximized="1" />
  <metadata
     id="metadata5">
    <rdf:RDF>
      <cc:Work
         rdf:about="">
        <dc:format>image/svg+xml</dc:format>
        <dc:type
           rdf:resource="http://purl.org/dc/dcmitype/StillImage" />
        <dc:title></dc:title>
      </cc:Work>
    </rdf:RDF>
  </metadata>
  <g
     inkscape:label="Layer 1"
     inkscape:groupmode="layer"
     id="layer1"
     transform="translate(0,405)">
    <circle
       style="opacity:1;fill:#f00a0a;fill-opacity:1;fill-rule:nonzero;stroke:none;stroke-width:315.81494141;stroke-linecap:round;stroke-linejoin:round;stroke-miterlimit:4;stroke-dasharray:none;stroke-opacity:1;paint-order:stroke fill markers"
       id="path815"
       cx="351"
       cy="-54"
       r="350" />
    <circle
       cy="-54"
       cx="351"
       id="circle817"
       style="opacity:1;fill:#ffffff;fill-opacity:1;fill-rule:nonzero;stroke:none;stroke-width:225.58209229;stroke-linecap:round;stroke-linejoin:round;stroke-miterlimit:4;stroke-dasharray:none;stroke-opacity:1;paint-order:stroke fill markers"
       r="250" />

    <rect
        width="30"
        height="100"
        style="fill:rgb(0,0,0);"
        x="331"
        y="295"
    />
    <rect
        width="500"
        height="250"
        style="fill:rgb(255,255,255);stroke-width:15;stroke:rgb(0,0,0)"
        x="101"
        y="394"
    />

    <path
      style="opacity:1;fill:#000000;fill-opacity:1;fill-rule:nonzero;stroke:none;stroke-width:79.9848938;stroke-linecap:round;stroke-linejoin:round;stroke-miterlimit:4;stroke-dasharray:none;stroke-opacity:1;paint-order:stroke fill markers"
      d="m 355,440 c -3.55134,0.024 -8.00816,1.23728 -8.94894,8.06032 l -0.50565,0.56458 1.56401,4.2524 3.16329,0.57659 1.61104,2.7148 -1.10539,2.67876 v 0.56459 l 3.65719,2.10216 v 1.12917 l 3.66894,3.74787 9.00773,-6.9792 0.4939,-0.56459 1.05835,-5.39356 c -0.74085,-8.82911 -5.49166,-13.42986 -13.66447,-13.45389 z m 15.76941,21.56226 -8.44328,7.49573 -0.99954,0.56458 c -0.49392,8.00026 -1.11715,10.11444 -2.6694,13.51396 -0.9878,1.7538 -4.49211,4.2644 -5.22119,4.31244 -1.39937,0.0961 -3.85711,-1.12917 -5.32703,-1.59764 -2.59884,-0.70874 -8.9019,-3.6758 -15.11088,-3.85599 -3.9982,0.0361 -8.38448,0.973 -11.11267,3.74787 h -0.99955 l -25.89427,36.097256 c -16.28681,-7.92819 -29.50442,-6.49871 -41.33441,-0.51654 l 3.17505,3.23134 c 16.18097,-7.08732 27.07021,-3.0031 35.7134,0.57659 l -5.8562,8.31258 c -5.29175,-3.20731 -11.32433,-4.90106 -17.47452,-4.91307 -19.02677,0 -34.4434,15.74825 -34.4434,35.184315 0,19.43607 15.41663,35.18432 34.4434,35.18432 19.02677,0 34.44338,-15.74825 34.44338,-35.18432 -0.0118,-11.003365 -5.06831,-21.370055 -13.66446,-28.000905 l 6.16194,-8.54082 c 18.90917,11.88027 21.15522,21.24994 24.73009,30.30729 h 4.77434 l 4.11579,11.796185 h 46.55563 c 2.68114,17.06961 17.08645,29.62257 33.99652,29.62257 19.02677,0 34.44337,-15.74825 34.44337,-35.18432 0,-19.424045 -15.4166,-35.184315 -34.44337,-35.184315 -7.25559,0.012 -14.33475,2.37846 -20.20272,6.73896 l -3.44552,-5.21338 c 6.18546,-4.19233 13.61744,-6.63085 21.59033,-6.63085 6.93807,0.0121 13.74678,1.92198 19.7206,5.50168 l -0.55271,-3.79592 c -5.73862,-5.09325 -12.30039,-7.18341 -19.43836,-7.03926 l -2.56355,-8.06032 -2.65764,-1.081116 c -0.79963,2.594676 -3.66894,3.771886 -4.72728,3.807926 -5.73861,0.012 -6.55001,-5.225386 -6.83225,-10.330656 v -5.85004 c -0.10583,-1.59764 -0.99954,-3.79592 -0.99954,-3.79592 -3.13978,-12.63703 -8.69023,-22.12683 -19.4501,-31.22021 z m -36.54834,26.33117 c 2.25781,0.15616 4.04525,1.83789 4.99777,2.16223 l 17.8861,5.95815 6.27954,-5.95815 10.55997,16.74528 v 2.15022 l -23.67174,6.979196 -22.5546,-13.501926 H 332.9407 l 7.7377,-10.66701 3.16329,-1.70576 1.61104,2.72681 3.2221,-2.72681 0.44684,-1.02105 c 0,0 3.37496,-1.14118 3.89237,-1.14118 z m -16.00459,37.238426 h 20.4967 l 2.11669,6.46267 -13.11177,0.51653 1.55225,13.44188 -1.61103,4.31245 z m 64.90032,7.63988 3.56311,5.39357 c -6.79694,6.55877 -10.68932,15.66417 -10.78339,25.214025 h -6.78519 c 0.0117,-12.288685 5.45638,-23.280025 14.00547,-30.607595 z m -113.90188,5.40559 c 4.15107,0.012 8.21983,1.0691 11.86526,3.08718 l -9.83089,13.71816 c -4.52738,0.10811 -8.13753,3.88001 -8.14928,8.504785 0,4.70886 3.7395,8.51679 8.33744,8.51679 4.59793,0 8.33744,-3.80793 8.33744,-8.51679 -0.0118,-3.171275 -1.72864,-6.078275 -4.48035,-7.543795 l 9.09004,-12.50491 c 6.18546,4.82899 9.83089,12.32472 9.83089,20.276935 0,14.10256 -11.19498,25.53836 -25.00055,25.53836 -13.80559,0 -25.00057,-11.4358 -25.00057,-25.53836 0,-14.102555 11.19498,-25.538355 25.00057,-25.538355 z m 141.11323,0 c 13.80559,0 25.00056,11.4358 25.00056,25.538355 0,14.10256 -11.19497,25.53836 -25.00056,25.53836 -11.70065,-0.012 -21.82552,-8.31258 -24.37732,-19.97661 h 11.94761 c 2.09316,3.91603 6.11489,6.35455 10.48941,6.35455 6.59703,0 11.94757,-5.45362 11.94757,-12.19258 0,-6.738965 -5.35055,-12.204605 -11.94757,-12.204605 -2.28134,0 -4.52739,0.6727 -6.44416,1.93399 l -6.53827,-9.89821 c 4.30396,-3.2914 9.54865,-5.08124 14.92273,-5.09325 z m -18.27416,8.14441 6.62054,10.03034 c -1.43464,2.04211 -2.21075,4.50466 -2.23428,7.027255 h -11.10091 c 0.0941,-6.342535 2.48125,-12.420815 6.71465,-17.057595 z"
    />

  </g>
</svg>
