<?xml version="1.0" encoding="UTF-8" standalone="no"?>
<!-- Created with Inkscape (http://www.inkscape.org/) -->

<svg
   xmlns:dc="http://purl.org/dc/elements/1.1/"
   xmlns:cc="http://creativecommons.org/ns#"
   xmlns:rdf="http://www.w3.org/1999/02/22-rdf-syntax-ns#"
   xmlns:svg="http://www.w3.org/2000/svg"
   xmlns="http://www.w3.org/2000/svg"
   xmlns:sodipodi="http://sodipodi.sourceforge.net/DTD/sodipodi-0.dtd"
   xmlns:inkscape="http://www.inkscape.org/namespaces/inkscape"
   width="702mm"
   height="702mm"
   viewBox="0 0 701.99998 702"
   version="1.1"
   id="svg8"
   inkscape:version="0.92.2 (5c3e80d, 2017-08-06)"
   sodipodi:docname="11.svg">
  <defs
     id="defs2" />
  <sodipodi:namedview
     id="base"
     pagecolor="#ffffff"
     bordercolor="#666666"
     borderopacity="1.0"
     inkscape:pageopacity="0.0"
     inkscape:pageshadow="2"
     inkscape:zoom="0.16899514"
     inkscape:cx="1110.5804"
     inkscape:cy="1082.0815"
     inkscape:document-units="mm"
     inkscape:current-layer="layer1"
     showgrid="false"
     inkscape:window-width="1920"
     inkscape:window-height="1057"
     inkscape:window-x="-8"
     inkscape:window-y="-8"
     inkscape:window-maximized="1"
     inkscape:measure-start="0,0"
     inkscape:measure-end="0,0"
     fit-margin-top="0"
     fit-margin-left="0"
     fit-margin-right="0"
     fit-margin-bottom="0"
     showguides="false"
     inkscape:snap-global="false" />
  <metadata
     id="metadata5">
    <rdf:RDF>
      <cc:Work
         rdf:about="">
        <dc:format>image/svg+xml</dc:format>
        <dc:type
           rdf:resource="http://purl.org/dc/dcmitype/StillImage" />
        <dc:title></dc:title>
      </cc:Work>
    </rdf:RDF>
  </metadata>
  <g
     inkscape:label="Layer 1"
     inkscape:groupmode="layer"
     id="layer1"
     transform="translate(-42.564505,571.69995)">
    <circle
       style="opacity:1;fill:#f00a0a;fill-opacity:1;fill-rule:nonzero;stroke:none;stroke-width:315.81494141;stroke-linecap:round;stroke-linejoin:round;stroke-miterlimit:4;stroke-dasharray:none;stroke-opacity:1;paint-order:stroke fill markers"
       id="path815"
       cx="393.56451"
       cy="-220.69995"
       r="350" />
    <circle
       cy="-220.69995"
       cx="393.56451"
       id="circle817"
       style="opacity:1;fill:#ffffff;fill-opacity:1;fill-rule:nonzero;stroke:none;stroke-width:225.58209229;stroke-linecap:round;stroke-linejoin:round;stroke-miterlimit:4;stroke-dasharray:none;stroke-opacity:1;paint-order:stroke fill markers"
       r="250" />
    <rect
       y="-217.76636"
       x="409.35049"
       height="680"
       width="50"
       id="rect818"
       style="opacity:1;fill:#f00a0a;fill-opacity:1;fill-rule:nonzero;stroke:none;stroke-width:72.09967804;stroke-linecap:round;stroke-linejoin:round;stroke-miterlimit:4;stroke-dasharray:none;stroke-opacity:1;paint-order:stroke fill markers"
       transform="rotate(-45)" />
    <g
       id="g52419"
       transform="matrix(7.9425543,0,0,-7.9253439,128.90786,-51.467607)"
       style="fill:#ff6600;stroke:none" />
    <g
       id="g52423"
       transform="matrix(7.9425543,0,0,-7.9253439,128.90786,-51.467607)"
       style="fill:#ff6600;stroke:none" />
    <g
       id="g52447"
       transform="matrix(7.9425543,0,0,-7.9253439,127.96271,-50.524507)"
       style="fill:#ff6600;stroke:none" />
    <g
       id="g52519"
       transform="matrix(7.9425543,0,0,-7.9253439,127.96271,-48.630437)"
       style="fill:#ff6600;stroke:none" />
    <g
       id="g52523"
       transform="matrix(7.9425543,0,0,-7.9253439,143.14096,-48.630437)"
       style="fill:#ff6600;stroke:none" />
    <g
       id="g57667"
       transform="matrix(7.9425543,0,0,-7.9253439,226.64097,81.067853)"
       style="fill:#ff6600;stroke:none" />
    <g
       id="g57711"
       transform="matrix(7.9425543,0,0,-7.9253439,226.64097,82.018823)"
       style="fill:#ff6600;stroke:none" />
    <g
       id="g58019"
       transform="matrix(7.9425543,0,0,-7.9253439,226.64097,88.644363)"
       style="fill:#ff6600;stroke:none" />
    <path
       style="opacity:1;fill:#000000;fill-opacity:1;fill-rule:nonzero;stroke:none;stroke-width:0.05739834;stroke-linecap:round;stroke-linejoin:miter;stroke-miterlimit:10;stroke-dasharray:none;stroke-opacity:1;paint-order:stroke fill markers"
       d="m 337.56449,-336.1998 c -5.0052,0.0403 -11.1976,-0.006 -13.2002,0.99994 l -27.5999,14.19966 -1.7999,2.80035 v 14.19963 l 0.8,3.80029 v 14.20016 l -1.7999,1.79991 c -0.4533,0.50712 -1.1505,0.9889 -1.9999,0.99994 -0.9767,-0.0407 -2.7316,-0.45593 -3.8003,-0.99994 l -8,-4.80023 -9.2997,23.80009 6.8998,0.99994 7.6001,-3.79976 4.7997,1.99988 -8.1887,21.00233 c -5.6316,-1.43732 -11.5319,-2.2025 -17.6113,-2.20244 -39.21224,7e-5 -70.99995,31.78804 -70.99979,71.0003 1.2e-4,39.21207 31.78775,70.99969 70.99979,70.9998 39.2123,1.8e-4 71.0002,-31.78755 71.0003,-70.9998 2e-4,-27.25817 -15.3632,-50.92407 -37.9005,-62.82304 l 3.1006,-6.17739 h 7.6 l 61.7999,52.00045 v 28.39981 l 7.4,9.39994 v 13.20022 l -7.6,0.99994 0.9999,1.99988 12.3998,0.79994 h 8.6 v -0.79994 c 0,0 0.6487,-0.75036 0.8005,-1.99988 0.1817,-2.29272 -1.9922,-3.74362 -3.6003,-3.80029 h -1 c -0.3794,-0.013 -0.9353,-0.40471 -0.9999,-1.79988 v -2.79983 c 0.034,-2.86289 1.1402,-4.69352 1.7999,-4.80022 l 57.1174,-3.37757 a 71,71 0 0 0 68.4827,52.57766 71,71 0 0 0 68.201,-51.36896 c 4.0779,0.31514 6.2969,1.43623 8.7989,3.1688 1.7361,-5.34191 2.3374,-13.80214 2.3999,-20.79976 0.029,-13.262 -4.2351,-26.73504 -10.3999,-38.00026 -4.7516,-8.79138 -11.5303,-17.98679 -23.8001,-26.49968 -9.8243,-6.86967 -40.6782,-23.73977 -76.8,-9.40046 l -14.1996,-26.49966 -2.8004,-0.99994 -0.9999,-0.99994 v -3.80029 l 1.7999,-2.79982 c 6.1282,0.0513 19.0126,-2.59697 19.0004,-9.39996 v -2.80035 c 0.068,-4.68027 -6.4787,-8.41867 -11.4004,-8.59999 h -43.3999 c -2.3468,0.0861 -3.9847,1.08135 -3.9998,4.80023 v 3.59979 c 0.2708,6.09361 20.8075,12.30593 23.7996,12.40028 v 7.60005 l -2.9998,0.99994 -34.2,61.39986 c -1.5416,1.90315 -4.2841,2.96387 -8.9999,3.00033 -12.3202,-0.47146 -22.4277,-7.12192 -29.8003,-15.2001 l -44.5999,-68.19998 -17,-2.80035 -8.5999,-15.19957 c 0.013,0.0161 28.4711,-14.18625 28.5998,-14.20019 h 8.4 v 3.79979 h 4.8002 c 4.3766,-0.0525 6.0621,-5.60068 3.6938,-9.38033 -1.884,-2.46017 -5.0983,-4.81298 -12.2938,-4.81933 z m 118.6,81.39967 8.6,14.80013 v 1.39994 c -10.1779,6.79391 -24.9027,19.29212 -31.4002,44.39986 l -8.4,-0.99994 v -6.60011 z m -191.8002,27.19991 c 4.1563,0 8.196,0.49654 12.0665,1.42782 l -11.9208,39.97687 c -0.049,0 -0.097,-0.005 -0.1457,-0.005 -1.8672,0.003 -3.6965,0.52697 -5.2808,1.51514 l -29.93616,-28.90829 c 9.52632,-8.98425 22.12242,-13.99395 35.21696,-14.00638 z m 250.0003,0 a 51.4,51.4 0 0 1 51.3643,50.40002 h -34.5643 l -8.6,-9.39995 h -15.2001 l -14.5211,-36.21122 a 51.4,51.4 0 0 1 21.5212,-4.78885 z m -222.8138,7.7747 c 14.5388,9.07968 24.2136,25.22159 24.2135,43.62577 0,28.38741 -23.0126,51.39994 -51.4,51.39997 -28.38739,-3e-5 -51.39993,-23.01256 -51.39995,-51.39997 0.009,-12.30218 4.42975,-24.19324 12.45971,-33.51319 l 30.02917,28.99873 c -0.71216,1.39854 -1.08516,2.94505 -1.08882,4.51446 5e-5,5.52278 4.47709,9.99984 9.99989,9.9999 5.523,2.4e-4 10.0004,-4.47694 10.0004,-9.9999 1e-4,-1.63388 -0.395,-3.17416 -1.0898,-4.53615 z m 236.8139,50.22537 h 36.9213 a 51.4,51.4 0 0 1 -50.9214,44.80037 51.4,51.4 0 0 1 -43.4646,-24.00009 h 27.0645 v -12.20029 h 23.6001 z"
       id="path71935"
       inkscape:connector-curvature="0" />
  </g>
</svg>
