<?xml version="1.0" encoding="UTF-8" standalone="no"?>
<!-- Created with Inkscape (http://www.inkscape.org/) -->

<svg
   xmlns:dc="http://purl.org/dc/elements/1.1/"
   xmlns:cc="http://creativecommons.org/ns#"
   xmlns:rdf="http://www.w3.org/1999/02/22-rdf-syntax-ns#"
   xmlns:svg="http://www.w3.org/2000/svg"
   xmlns="http://www.w3.org/2000/svg"
   xmlns:sodipodi="http://sodipodi.sourceforge.net/DTD/sodipodi-0.dtd"
   xmlns:inkscape="http://www.inkscape.org/namespaces/inkscape"
   width="50mm"
   height="75mm"
   viewBox="0 0 702 1070"
   version="1.1"
   id="svg8"
   inkscape:version="0.92.2 (5c3e80d, 2017-08-06)"
   sodipodi:docname="11.svg">
  <defs>
    <style>
      @import url("https://fonts.googleapis.com/css2?family=Oswald")
    </style>
  </defs>


  <sodipodi:namedview
     id="base"
     pagecolor="#ffffff"
     bordercolor="#666666"
     borderopacity="1.0"
     inkscape:pageopacity="0.0"
     inkscape:pageshadow="2"
     inkscape:zoom="0.125"
     inkscape:cx="1689.3696"
     inkscape:cy="-351.11605"
     inkscape:document-units="mm"
     inkscape:current-layer="layer1"
     showgrid="false"
     inkscape:window-width="1920"
     inkscape:window-height="1057"
     inkscape:window-x="-8"
     inkscape:window-y="-8"
     inkscape:window-maximized="1"
     inkscape:snap-global="false" />
  <metadata
     id="metadata5">
    <rdf:RDF>
      <cc:Work
         rdf:about="">
        <dc:format>image/svg+xml</dc:format>
        <dc:type
           rdf:resource="http://purl.org/dc/dcmitype/StillImage" />
        <dc:title></dc:title>
      </cc:Work>
    </rdf:RDF>
  </metadata>
  <g
     inkscape:label="Layer 1"
     inkscape:groupmode="layer"
     id="layer1"
     transform="translate(0,405)">
    <circle
       style="opacity:1;fill:#ffffff;fill-opacity:1;fill-rule:nonzero;stroke:none;stroke-width:6.93524742;stroke-linecap:round;stroke-linejoin:miter;stroke-miterlimit:4;stroke-dasharray:none;stroke-opacity:1;paint-order:stroke fill markers"
       id="path40100"
       cx="350.99988"
       cy="-54.000004"
       r="340" />
    <circle
       style="opacity:1;fill:#000000;fill-opacity:0.96984923;fill-rule:nonzero;stroke:none;stroke-width:0.05510236;stroke-linecap:round;stroke-linejoin:miter;stroke-miterlimit:10;stroke-dasharray:none;stroke-opacity:1;paint-order:stroke fill markers"
       id="path10444"
       cx="174.09996"
       cy="-18.700016"
       r="34.700001" />
    <path
       style="opacity:1;fill:#000000;fill-opacity:0.96984923;fill-rule:nonzero;stroke:none;stroke-width:0.04206875;stroke-linecap:round;stroke-linejoin:miter;stroke-miterlimit:10;stroke-dasharray:none;stroke-opacity:1;paint-order:stroke fill markers"
       d="M 101,-124.00019 81,-124 v 7.6 l 20,-1.4e-4 58.8,1.90013 -1.7999,33.49977 L 101,-79.9998 81,-80 v 76.7 l 20,-8e-5 h 68 l 79.9997,-32.49983 -1.7999,-30.80017 -41.8,-48.80012 c -3.3863,-3.40474 -5.4467,-6.06166 -13.3997,-6.59961 0,0 -37.4277,-1.96151 -81.6002,-2.00038 z m 62.5998,9.60043 31.4001,2.79982 17,23.00015 -3.7998,6.79958 -46.4002,0.80047 z"
       id="rect10446"
       inkscape:connector-curvature="0"
       sodipodi:nodetypes="ccccccccccccccccccccccc" />
    <circle
       style="opacity:1;fill:#000000;fill-opacity:1;fill-rule:nonzero;stroke:none;stroke-width:0.06465767;stroke-linecap:round;stroke-linejoin:miter;stroke-miterlimit:10;stroke-dasharray:none;stroke-opacity:1;paint-order:stroke fill markers"
       id="path10637"
       cx="-466"
       cy="-17.000004"
       r="33"
       transform="scale(-1,1)" />
    <path
       style="opacity:1;fill:#000000;fill-opacity:1;fill-rule:nonzero;stroke:none;stroke-width:0.04206875;stroke-linecap:round;stroke-linejoin:miter;stroke-miterlimit:10;stroke-dasharray:none;stroke-opacity:1;paint-order:stroke fill markers"
       d="M 621.0001,-77 H 538.4 l 44.6001,-32.6 h 38 v -5.8 h -40.8 l -56.0001,34.6 -111,20 c -11.0087,2.35145 -17.1778,16.85532 -17.2,28.8 0.024,8.14777 0.7399,15.60405 3.8,23 l 51.2,1 v 6.6 h 170.0001 z"
       id="rect10639"
       inkscape:connector-curvature="0"
       sodipodi:nodetypes="cccccccccccccc" />
    <path
       id="path10737"
       d="M 350.9998,-404.00015 A 349.99998,349.99998 0 0 0 1,-53.99983 349.99998,349.99998 0 0 0 350.9998,296 349.99998,349.99998 0 0 0 701.0001,-53.99983 349.99998,349.99998 0 0 0 350.9998,-404.00015 Z m 0,100.00009 A 250,250 0 0 1 601,-53.99983 250,250 0 0 1 350.9998,195.99991 250,250 0 0 1 101,-53.99983 250,250 0 0 1 350.9998,-304.00006 Z"
       style="opacity:1;fill:#f00a0a;fill-opacity:1;fill-rule:nonzero;stroke:none;stroke-width:5.43728924;stroke-linecap:round;stroke-linejoin:miter;stroke-miterlimit:4;stroke-dasharray:none;stroke-opacity:1;paint-order:stroke fill markers"
       inkscape:connector-curvature="0" />
    <g
       aria-label="80 m"
       style="font-style:normal;font-variant:normal;font-weight:bold;font-stretch:normal;font-size:154.67877197px;line-height:0;font-family:Giaothong1;-inkscape-font-specification:'Giaothong1 Bold';letter-spacing:0px;word-spacing:0px;fill:#000000;fill-opacity:1;stroke:none;stroke-width:0.80561858"
       id="text10759"
       transform="translate(247.05701,-421)">
      <path
         d="m 175.07099,229.00778 q 2.94555,-3.70081 6.4953,-5.58898 3.54976,-1.9637 8.08136,-1.9637 7.55268,0 12.38639,5.3624 4.90924,5.28687 4.90924,12.91507 V 296 h -14.87877 v -52.11345 q 0,-3.54976 -1.81264,-5.81556 -1.73712,-2.26581 -5.43793,-2.26581 -3.09659,0 -5.21134,2.41686 -2.03922,2.41686 -2.03922,5.66451 V 296 h -14.87877 v -52.11345 q 0,-3.39871 -2.03923,-5.74004 -1.96369,-2.34133 -5.36239,-2.34133 -3.0966,0 -5.21135,2.41686 -2.03922,2.41686 -2.03922,5.66451 V 296 h -14.87877 v -73.63858 h 14.87877 v 6.64636 q 5.06029,-7.55268 13.89692,-7.55268 4.15397,0 7.47715,1.9637 3.32317,1.88817 5.6645,5.58898 z"
         style="fill:#000000;fill-opacity:1;stroke:none;stroke-width:0.80561858"
         id="path10785"
         inkscape:connector-curvature="0" />
    </g>
    <g
       aria-label="20 "
       style="font-style:normal;font-variant:normal;font-weight:bold;font-stretch:normal;font-size:414.86404419px;line-height:0;font-family:Giaothong1;-inkscape-font-specification:'Giaothong1 Bold';letter-spacing:0px;word-spacing:0px;fill:#000000;fill-opacity:1;stroke:none;stroke-width:2.16075015"
       id="text874"
       transform="matrix(-0.37277545,0,0,0.37285717,410.63781,-314.33722)">
      <rect
         style="opacity:1;fill:#000000;fill-opacity:1;fill-rule:nonzero;stroke:none;stroke-width:0.06008112;stroke-linecap:round;stroke-linejoin:miter;stroke-miterlimit:10;stroke-dasharray:none;stroke-opacity:1;paint-order:stroke fill markers"
         id="rect984"
         width="118"
         height="280"
         x="-272.61807"
         y="228.87379"
         rx="59"
         ry="58.987068"
         transform="scale(-1,1)" />
      <rect
         rx="19.002728"
         y="268.86227"
         x="-232.62074"
         height="200.02299"
         width="38.005455"
         id="rect988"
         style="opacity:1;fill:#ffffff;fill-opacity:1;fill-rule:nonzero;stroke:none;stroke-width:0.02881914;stroke-linecap:round;stroke-linejoin:miter;stroke-miterlimit:10;stroke-dasharray:none;stroke-opacity:1;paint-order:stroke fill markers"
         ry="18.998564"
         transform="scale(-1,1)" />
    </g>
    <g
       aria-label="80"
       style="font-style:normal;font-variant:normal;font-weight:bold;font-stretch:normal;font-size:412.47674561px;line-height:0;font-family:Giaothong1;-inkscape-font-specification:'Giaothong1 Bold';letter-spacing:0px;word-spacing:0px;fill:#000000;fill-opacity:1;stroke:none;stroke-width:2.14831638"
       id="text823"
       transform="matrix(0.37500003,0,0,0.37500003,153.28831,-94.112516)">
      <rect
         style="opacity:1;fill:#000000;fill-opacity:1;fill-rule:nonzero;stroke:none;stroke-width:0.04347451;stroke-linecap:round;stroke-linejoin:miter;stroke-miterlimit:10;stroke-dasharray:none;stroke-opacity:1;paint-order:stroke fill markers"
         id="rect848"
         width="117.6"
         height="166"
         x="252.5645"
         y="-245.69995"
         rx="60"
         ry="60" />
      <rect
         rx="60"
         y="-359.59991"
         x="252.5645"
         height="149"
         width="117.6"
         id="rect863"
         style="opacity:1;fill:#000000;fill-opacity:1;fill-rule:nonzero;stroke:none;stroke-width:0.04118836;stroke-linecap:round;stroke-linejoin:miter;stroke-miterlimit:10;stroke-dasharray:none;stroke-opacity:1;paint-order:stroke fill markers"
         ry="60" />
      <rect
         ry="21"
         rx="21"
         y="-211.89996"
         x="291.56451"
         height="93.199997"
         width="39.599998"
         id="rect896"
         style="opacity:1;fill:#ffffff;fill-opacity:1;fill-rule:nonzero;stroke:none;stroke-width:0.03006508;stroke-linecap:round;stroke-linejoin:miter;stroke-miterlimit:10;stroke-dasharray:none;stroke-opacity:1;paint-order:stroke fill markers" />
      <rect
         style="opacity:1;fill:#ffffff;fill-opacity:1;fill-rule:nonzero;stroke:none;stroke-width:0.02755721;stroke-linecap:round;stroke-linejoin:miter;stroke-miterlimit:10;stroke-dasharray:none;stroke-opacity:1;paint-order:stroke fill markers"
         id="rect898"
         width="39.599998"
         height="78.300003"
         x="291.56451"
         y="-320.59998"
         rx="21"
         ry="21" />
    </g>


    <rect
      width="30"
      height="100"
      style="fill:rgb(0,0,0);"
      x="331"
      y="295"
    />
    <rect
      width="500"
      height="250"
      style="fill:rgb(255,255,255);stroke-width:15;stroke:rgb(0,0,0)"
      x="101"
      y="394"
    />
    <text x="200" y="574" font-size="125" fill="black" font-family="Oswald">200 m</text>
  </g>
</svg>
