<?xml version="1.0" encoding="UTF-8" standalone="no"?>
<!-- Created with Inkscape (http://www.inkscape.org/) -->

<svg
   xmlns:dc="http://purl.org/dc/elements/1.1/"
   xmlns:cc="http://creativecommons.org/ns#"
   xmlns:rdf="http://www.w3.org/1999/02/22-rdf-syntax-ns#"
   xmlns:svg="http://www.w3.org/2000/svg"
   xmlns="http://www.w3.org/2000/svg"
   xmlns:sodipodi="http://sodipodi.sourceforge.net/DTD/sodipodi-0.dtd"
   xmlns:inkscape="http://www.inkscape.org/namespaces/inkscape"
   width="702mm"
   height="702mm"
   viewBox="0 0 702 702"
   version="1.1"
   id="svg8"
   inkscape:version="0.92.2 (5c3e80d, 2017-08-06)"
   sodipodi:docname="11.svg">
  <defs
     id="defs2" />
  <sodipodi:namedview
     id="base"
     pagecolor="#ffffff"
     bordercolor="#666666"
     borderopacity="1.0"
     inkscape:pageopacity="0.0"
     inkscape:pageshadow="2"
     inkscape:zoom="0.24748737"
     inkscape:cx="1583.7703"
     inkscape:cy="1044.0256"
     inkscape:document-units="mm"
     inkscape:current-layer="layer1"
     showgrid="false"
     inkscape:window-width="1920"
     inkscape:window-height="1057"
     inkscape:window-x="-8"
     inkscape:window-y="-8"
     inkscape:window-maximized="1" />
  <metadata
     id="metadata5">
    <rdf:RDF>
      <cc:Work
         rdf:about="">
        <dc:format>image/svg+xml</dc:format>
        <dc:type
           rdf:resource="http://purl.org/dc/dcmitype/StillImage" />
        <dc:title></dc:title>
      </cc:Work>
    </rdf:RDF>
  </metadata>
  <g
     inkscape:label="Layer 1"
     inkscape:groupmode="layer"
     id="layer1"
     transform="translate(0,405)">
    <circle
       style="opacity:1;fill:#f00a0a;fill-opacity:1;fill-rule:nonzero;stroke:none;stroke-width:315.81494141;stroke-linecap:round;stroke-linejoin:round;stroke-miterlimit:4;stroke-dasharray:none;stroke-opacity:1;paint-order:stroke fill markers"
       id="path815"
       cx="351"
       cy="-54"
       r="350" />
    <circle
       cy="-54"
       cx="351"
       id="circle817"
       style="opacity:1;fill:#ffffff;fill-opacity:1;fill-rule:nonzero;stroke:none;stroke-width:225.58209229;stroke-linecap:round;stroke-linejoin:round;stroke-miterlimit:4;stroke-dasharray:none;stroke-opacity:1;paint-order:stroke fill markers"
       r="250" />
    <path
       style="opacity:1;fill:#f00a0a;fill-opacity:1;fill-rule:nonzero;stroke:none;stroke-width:79.80535126;stroke-linecap:round;stroke-linejoin:round;stroke-miterlimit:4;stroke-dasharray:none;stroke-opacity:1;paint-order:stroke fill markers"
       d="m 196.27777,-131.7 c -5.12356,0.0206 -14.09952,3.88339 -15.66658,12.20983 l -9.55555,57.60922 c -5.41789,-0.0061 -12.53526,6.85832 -12.55564,10.65592 v 32.19005 c 1.49849,3.90413 4.33568,6.92318 7.33345,9.4349903 V 16.48486 c 0,3.9971 5.97135,7.21514 13.3888,7.21514 7.41744,0 13.38879,-3.21804 13.38879,-7.21514 V -9.5999897 c 18.20062,2.15277 36.06177,3.66994 53.38895,3.66307 17.32717,0.007 35.18833,-1.5103 53.38895,-3.66307 V 16.48486 c 0,3.9971 5.97136,7.21514 13.3888,7.21514 7.41744,0 13.3888,-3.21804 13.3888,-7.21514 V -9.5999897 C 329.16425,-12.1118 332.0015,-15.13085 333.5,-19.03498 v -32.19005 c -0.0206,-3.7976 -7.13747,-10.66191 -12.55538,-10.65592 l -9.55553,-57.60922 c -1.56707,-8.32644 -10.54326,-12.18925 -15.66688,-12.20983 z m 11.13082,10.4893 h 38.5914 38.5914 c 8.75545,0.006 18.10595,5.06701 19.45561,11.65486 l 5.76652,34.41019 c 0.13284,0.85414 -0.42623,2.61941 -1.05535,3.60743 -1.27911,1.697 -3.50411,2.66689 -6.77794,2.66412 -1.25561,0 -7.8887,-0.49961 -7.8887,-0.49961 -23.76546,-1.35975 -31.14225,-1.30427 -48.09155,-1.55391 -16.94922,0.24964 -24.3258,0.19416 -48.09125,1.55391 0,0 -6.63337,0.49961 -7.88898,0.49961 -3.27378,0.003 -5.49883,-0.96712 -6.77794,-2.66412 -0.62912,-0.98802 -1.18818,-2.75329 -1.05535,-3.60743 l 5.76652,-34.41019 c 1.34967,-6.58785 10.70016,-11.6491 19.45561,-11.65486 z m 23.64686,66.21162 h 29.88909 l 29.9999,2.66412 -0.0109,5.77193 h -89.878 v -5.77193 z m -50.33316,1.10993 a 12.222226,12.21 0 0 1 12.22206,12.21011 12.222226,12.21 0 0 1 -12.22206,12.20983 12.222226,12.21 0 0 1 -12.22234,-12.20983 12.222226,12.21 0 0 1 12.22234,-12.21011 z m 130.55569,0 a 12.222226,12.21 0 0 1 12.22204,12.21011 12.222226,12.21 0 0 1 -12.22204,12.20983 12.222226,12.21 0 0 1 -12.22235,-12.20983 12.222226,12.21 0 0 1 12.22235,-12.21011 z M 201.06674,-40.6801 h 89.87769 v 8.43607 h -89.88889 z m -0.0112,14.319 h 89.87798 l 0.0109,5.77193 -29.9999,2.66412 h -29.8891 l -29.99991,-2.66412 z"
       id="rect10823"
       inkscape:connector-curvature="0" />
    <path
       inkscape:connector-curvature="0"
       id="path830"
       d="m 406.27778,-131.7 c -5.12356,0.0206 -14.09952,3.88339 -15.66658,12.20983 l -9.55555,57.60922 c -5.41789,-0.006 -12.53526,6.85832 -12.55565,10.65592 v 32.19005 c 1.4985,3.90413 4.33568,6.92318 7.33346,9.4349903 V 16.48486 c 0,3.9971 5.97135,7.21514 13.3888,7.21514 7.41744,0 13.38879,-3.21804 13.38879,-7.21514 V -9.5999897 c 18.20062,2.15277 36.06177,3.66994 53.38895,3.66307 17.32716,0.007 35.18832,-1.5103 53.38894,-3.66307 V 16.48486 c 0,3.9971 5.97136,7.21514 13.3888,7.21514 7.41744,0 13.3888,-3.21804 13.3888,-7.21514 V -9.5999897 C 539.16425,-12.1118 542.0015,-15.13085 543.5,-19.03498 v -32.19005 c -0.0206,-3.7976 -7.13747,-10.66191 -12.55538,-10.65592 l -9.55553,-57.60922 c -1.56707,-8.32644 -10.54326,-12.18925 -15.66688,-12.20983 z m 11.13082,10.4893 H 456 494.59139 c 8.75545,0.006 18.10595,5.06701 19.45561,11.65486 l 5.76652,34.41019 c 0.13284,0.85414 -0.42623,2.61941 -1.05535,3.60743 -1.27911,1.697 -3.50411,2.66689 -6.77794,2.66412 -1.25561,0 -7.8887,-0.49961 -7.8887,-0.49961 -23.76546,-1.35975 -31.14225,-1.30427 -48.09154,-1.55391 -16.94922,0.24964 -24.3258,0.19416 -48.09125,1.55391 0,0 -6.63337,0.49961 -7.88899,0.49961 -3.27377,0.003 -5.49883,-0.96712 -6.77793,-2.66412 -0.62912,-0.98802 -1.18819,-2.75329 -1.05535,-3.60743 l 5.76652,-34.41019 c 1.34966,-6.58785 10.70016,-11.6491 19.45561,-11.65486 z m 23.64686,66.21162 h 29.88908 l 29.9999,2.66412 -0.0109,5.77193 h -89.87799 v -5.77193 z m -50.33316,1.10993 a 12.222226,12.21 0 0 1 12.22206,12.21011 12.222226,12.21 0 0 1 -12.22206,12.20983 12.222226,12.21 0 0 1 -12.22234,-12.20983 12.222226,12.21 0 0 1 12.22234,-12.21011 z m 130.55568,0 a 12.222226,12.21 0 0 1 12.22204,12.21011 12.222226,12.21 0 0 1 -12.22204,12.20983 12.222226,12.21 0 0 1 -12.22235,-12.20983 12.222226,12.21 0 0 1 12.22235,-12.21011 z M 411.06675,-40.6801 h 89.87768 v 8.43607 h -89.88888 z m -0.0112,14.319 h 89.87797 l 0.0109,5.77193 -29.9999,2.66412 h -29.88909 l -29.99991,-2.66412 z"
       style="opacity:1;fill:#000000;fill-opacity:1;fill-rule:nonzero;stroke:none;stroke-width:79.80535126;stroke-linecap:round;stroke-linejoin:round;stroke-miterlimit:4;stroke-dasharray:none;stroke-opacity:1;paint-order:stroke fill markers" />
  </g>
</svg>
