<?xml version="1.0" encoding="UTF-8" standalone="no"?>
<!-- Created with Inkscape (http://www.inkscape.org/) -->

<svg
   xmlns:dc="http://purl.org/dc/elements/1.1/"
   xmlns:cc="http://creativecommons.org/ns#"
   xmlns:rdf="http://www.w3.org/1999/02/22-rdf-syntax-ns#"
   xmlns:svg="http://www.w3.org/2000/svg"
   xmlns="http://www.w3.org/2000/svg"
   xmlns:sodipodi="http://sodipodi.sourceforge.net/DTD/sodipodi-0.dtd"
   xmlns:inkscape="http://www.inkscape.org/namespaces/inkscape"
   width="702mm"
   height="702mm"
   viewBox="0 0 702 702"
   version="1.1"
   id="svg8"
   inkscape:version="0.92.2 (5c3e80d, 2017-08-06)"
   sodipodi:docname="11.svg">
  <defs
     id="defs2" />
  <sodipodi:namedview
     id="base"
     pagecolor="#ffffff"
     bordercolor="#666666"
     borderopacity="1.0"
     inkscape:pageopacity="0.0"
     inkscape:pageshadow="2"
     inkscape:zoom="0.175"
     inkscape:cx="1833.8762"
     inkscape:cy="1451.4894"
     inkscape:document-units="mm"
     inkscape:current-layer="layer1"
     showgrid="false"
     inkscape:window-width="1920"
     inkscape:window-height="1057"
     inkscape:window-x="-8"
     inkscape:window-y="-8"
     inkscape:window-maximized="1" />
  <metadata
     id="metadata5">
    <rdf:RDF>
      <cc:Work
         rdf:about="">
        <dc:format>image/svg+xml</dc:format>
        <dc:type
           rdf:resource="http://purl.org/dc/dcmitype/StillImage" />
        <dc:title></dc:title>
      </cc:Work>
    </rdf:RDF>
  </metadata>
  <g
     inkscape:label="Layer 1"
     inkscape:groupmode="layer"
     id="layer1"
     transform="translate(0,405)">
    <circle
       style="opacity:1;fill:#f00a0a;fill-opacity:1;fill-rule:nonzero;stroke:none;stroke-width:315.81494141;stroke-linecap:round;stroke-linejoin:round;stroke-miterlimit:4;stroke-dasharray:none;stroke-opacity:1;paint-order:stroke fill markers"
       id="path815"
       cx="351"
       cy="-54"
       r="350" />
    <circle
       cy="-54"
       cx="351"
       id="circle817"
       style="opacity:1;fill:#ffffff;fill-opacity:1;fill-rule:nonzero;stroke:none;stroke-width:225.58209229;stroke-linecap:round;stroke-linejoin:round;stroke-miterlimit:4;stroke-dasharray:none;stroke-opacity:1;paint-order:stroke fill markers"
       r="250" />
    <path
       inkscape:connector-curvature="0"
       id="path830"
       d="m 423.7778,-93.9 c -5.1236,0.0206 -14.0995,3.88339 -15.6666,12.20983 l -9.5555,57.60922 c -5.4179,-0.006 -12.5353,6.85832 -12.5557,10.65592 v 32.19005 c 1.4985,3.90413 4.3357,6.92318 7.3335,9.43499 v 26.08485 c 0,3.9971 5.9713,7.21514 13.3888,7.21514 7.4174,0 13.3888,-3.21804 13.3888,-7.21514 V 28.20001 c 18.2006,2.15277 36.0617,3.66994 53.3889,3.66307 17.3272,0.007 35.1883,-1.5103 53.389,-3.66307 v 26.08485 c 0,3.9971 5.9713,7.21514 13.3888,7.21514 7.4174,0 13.3888,-3.21804 13.3888,-7.21514 V 28.20001 c 2.9977,-2.51181 5.8349,-5.53086 7.3334,-9.43499 v -32.19005 c -0.021,-3.7976 -7.1375,-10.66191 -12.5554,-10.65592 l -9.5555,-57.60922 C 537.322,-90.01661 528.3458,-93.87942 523.2222,-93.9 Z m 11.1308,10.4893 H 473.5 512.0914 c 8.7555,0.006 18.106,5.06701 19.4556,11.65486 l 5.7665,34.41019 c 0.1329,0.85414 -0.4262,2.61941 -1.0553,3.60743 -1.2791,1.697 -3.5041,2.66689 -6.778,2.66412 -1.2556,0 -7.8887,-0.49961 -7.8887,-0.49961 -23.7654,-1.35975 -31.1422,-1.30427 -48.0915,-1.55391 -16.9492,0.24964 -24.3258,0.19416 -48.0912,1.55391 0,0 -6.6334,0.49961 -7.889,0.49961 -3.2738,0.003 -5.4989,-0.96712 -6.778,-2.66412 -0.6291,-0.98802 -1.1882,-2.75329 -1.0553,-3.60743 l 5.7665,-34.41019 c 1.3497,-6.58785 10.7002,-11.6491 19.4556,-11.65486 z m 23.6469,66.21162 h 29.8891 l 29.9999,2.66412 -0.011,5.7719302 h -89.878 V -14.53496 Z m -50.3332,1.10993 A 12.222226,12.21 0 0 1 420.4444,-3.8790398 12.222226,12.21 0 0 1 408.2223,8.33079 12.222226,12.21 0 0 1 396,-3.8790398 12.222226,12.21 0 0 1 408.2223,-16.08915 Z m 130.5557,0 A 12.222226,12.21 0 0 1 551,-3.8790398 12.222226,12.21 0 0 1 538.778,8.33079 12.222226,12.21 0 0 1 526.5556,-3.8790398 12.222226,12.21 0 0 1 538.778,-16.08915 Z M 428.5668,-2.8800998 h 89.8776 v 8.43607 H 428.5556 Z M 428.5558,11.4389 h 89.8779 l 0.011,5.77193 -29.9999,2.66412 h -29.8891 l -29.9999,-2.66412 z"
       style="opacity:1;fill:#000000;fill-opacity:1;fill-rule:nonzero;stroke:none;stroke-width:79.80535126;stroke-linecap:round;stroke-linejoin:round;stroke-miterlimit:4;stroke-dasharray:none;stroke-opacity:1;paint-order:stroke fill markers" />
    <path
       style="opacity:1;fill:#f00a0a;fill-opacity:1;fill-rule:nonzero;stroke:none;stroke-width:2.71882319;stroke-linecap:round;stroke-linejoin:miter;stroke-miterlimit:10;stroke-dasharray:none;stroke-opacity:1;paint-order:stroke fill markers"
       d="m 168.6002,-194.00016 c -8.30996,0 -15.00008,6.69012 -15.00008,15.00013 V 27.50001 c 0,8.31001 6.69012,15.00013 15.00008,15.00013 h 1 V 61.5 h 13.1997 V 42.50014 h 3.8003 V 61.5 h 13.1997 V 42.50014 H 304.8002 V 61.5 h 13.1997 V 42.50014 h 3.8003 V 61.5 h 13.1997 V 42.50014 h 1.0005 c 8.31,0 14.9996,-6.69012 14.9996,-15.00013 v -206.50004 c 0,-8.31001 -6.6896,-15.00013 -14.9996,-15.00013 z"
       id="rect20642"
       inkscape:connector-curvature="0" />
  </g>
</svg>
