<?xml version="1.0" encoding="UTF-8" standalone="no"?>
<!-- Created with Inkscape (http://www.inkscape.org/) -->

<svg
   xmlns:dc="http://purl.org/dc/elements/1.1/"
   xmlns:cc="http://creativecommons.org/ns#"
   xmlns:rdf="http://www.w3.org/1999/02/22-rdf-syntax-ns#"
   xmlns:svg="http://www.w3.org/2000/svg"
   xmlns="http://www.w3.org/2000/svg"
   xmlns:sodipodi="http://sodipodi.sourceforge.net/DTD/sodipodi-0.dtd"
   xmlns:inkscape="http://www.inkscape.org/namespaces/inkscape"
   width="702mm"
   height="702mm"
   viewBox="0 0 701.99998 702"
   version="1.1"
   id="svg8"
   inkscape:version="0.92.2 (5c3e80d, 2017-08-06)"
   sodipodi:docname="11.svg">
  <defs
     id="defs2" />
  <sodipodi:namedview
     id="base"
     pagecolor="#ffffff"
     bordercolor="#666666"
     borderopacity="1.0"
     inkscape:pageopacity="0.0"
     inkscape:pageshadow="2"
     inkscape:zoom="0.1767767"
     inkscape:cx="1648.5629"
     inkscape:cy="985.34979"
     inkscape:document-units="mm"
     inkscape:current-layer="layer1"
     showgrid="false"
     inkscape:window-width="1920"
     inkscape:window-height="1057"
     inkscape:window-x="-8"
     inkscape:window-y="-8"
     inkscape:window-maximized="1"
     inkscape:measure-start="0,0"
     inkscape:measure-end="0,0"
     fit-margin-top="0"
     fit-margin-left="0"
     fit-margin-right="0"
     fit-margin-bottom="0"
     showguides="false"
     inkscape:snap-global="true"
     inkscape:lockguides="true" />
  <metadata
     id="metadata5">
    <rdf:RDF>
      <cc:Work
         rdf:about="">
        <dc:format>image/svg+xml</dc:format>
        <dc:type
           rdf:resource="http://purl.org/dc/dcmitype/StillImage" />
        <dc:title></dc:title>
      </cc:Work>
    </rdf:RDF>
  </metadata>
  <g
     inkscape:label="Layer 1"
     inkscape:groupmode="layer"
     id="layer1"
     transform="translate(-42.564505,571.69995)">
    <circle
       style="opacity:1;fill:#f00a0a;fill-opacity:1;fill-rule:nonzero;stroke:none;stroke-width:315.81494141;stroke-linecap:round;stroke-linejoin:round;stroke-miterlimit:4;stroke-dasharray:none;stroke-opacity:1;paint-order:stroke fill markers"
       id="path815"
       cx="393.56451"
       cy="-220.69995"
       r="350" />
    <circle
       cy="-220.69995"
       cx="393.56451"
       id="circle817"
       style="opacity:1;fill:#ffffff;fill-opacity:1;fill-rule:nonzero;stroke:none;stroke-width:225.58209229;stroke-linecap:round;stroke-linejoin:round;stroke-miterlimit:4;stroke-dasharray:none;stroke-opacity:1;paint-order:stroke fill markers"
       r="250" />
    <g
       aria-label="20 "
       style="font-style:normal;font-variant:normal;font-weight:bold;font-stretch:normal;font-size:414.86404419px;line-height:0;font-family:Giaothong1;-inkscape-font-specification:'Giaothong1 Bold';letter-spacing:0px;word-spacing:0px;fill:#000000;fill-opacity:1;stroke:none;stroke-width:2.16075015"
       id="text874"
       transform="matrix(-0.9940678,0,0,0.99428571,1131.788,-381.72002)">
      <rect
         style="opacity:1;fill:#000000;fill-opacity:1;fill-rule:nonzero;stroke:none;stroke-width:0.06008112;stroke-linecap:round;stroke-linejoin:miter;stroke-miterlimit:10;stroke-dasharray:none;stroke-opacity:1;paint-order:stroke fill markers"
         id="rect984"
         width="118"
         height="280"
         x="-719.79346"
         y="21.140854"
         rx="59"
         ry="58.987068"
         transform="scale(-1,1)" />
      <rect
         rx="19.002728"
         y="61.129349"
         x="-679.79614"
         height="200.02299"
         width="38.005455"
         id="rect988"
         style="opacity:1;fill:#ffffff;fill-opacity:1;fill-rule:nonzero;stroke:none;stroke-width:0.02881914;stroke-linecap:round;stroke-linejoin:miter;stroke-miterlimit:10;stroke-dasharray:none;stroke-opacity:1;paint-order:stroke fill markers"
         ry="18.998564"
         transform="scale(-1,1)" />
    </g>
    <g
       aria-label="30"
       transform="translate(-181.07184,842.68339)"
       style="font-style:normal;font-variant:normal;font-weight:bold;font-stretch:normal;font-size:412.47674561px;line-height:0;font-family:Giaothong1;-inkscape-font-specification:'Giaothong1 Bold';letter-spacing:0px;word-spacing:0px;fill:#000000;fill-opacity:1;stroke:none;stroke-width:2.14831638"
       id="text824">
      <path
         d="m 552.25666,-988.83986 v 4.83371 q 0,3.02107 -0.2014,6.44495 -0.20141,3.42388 -1.61124,9.66743 -5.63933,19.73766 -21.7517,32.22475 -16.11238,12.28568 -36.65565,12.28568 -16.51518,0 -31.01632,-9.86883 -14.50114,-9.86882 -19.13344,-20.34187 -4.43091,-10.47304 -5.84074,-16.91799 -1.40983,-6.44495 -1.40983,-18.32783 v -16.11234 h 39.27391 v 12.68846 q 0,5.03512 0.2014,9.86883 0.20141,4.63231 4.2295,11.88288 4.2295,7.25056 14.90395,7.25056 10.67444,0 15.10535,-7.25056 4.6323,-7.25057 4.6323,-18.32783 v -42.49634 q 0,-10.2717 -5.03511,-14.2998 -4.83372,-4.2295 -9.66743,-5.0351 -4.6323,-1.007 -10.07023,-1.007 h -7.04916 v -34.6416 h 7.04916 q 24.77277,0 24.77277,-22.9601 v -33.0304 q 0,-5.8407 -0.60421,-8.459 -0.60422,-2.6183 -5.03512,-8.2576 -4.2295,-5.6393 -13.29271,-5.6393 -10.27163,0 -15.30675,6.2435 -4.83371,6.2436 -4.83371,16.1124 v 20.1405 h -39.27391 v -20.1405 q 0,-25.9812 16.71659,-43.5034 16.71658,-17.5222 42.69778,-17.5222 14.50114,0 27.79385,7.452 13.49411,7.2505 19.73765,17.3208 6.44495,9.8688 8.459,18.3278 2.21545,8.459 2.21545,17.925 v 32.2247 q 0,26.7869 -23.56434,40.6838 13.0913,9.0632 18.32782,18.5292 5.23652,9.2646 5.23652,24.7728 z"
         style="fill:#000000;fill-opacity:1;stroke:none;stroke-width:2.14831638"
         id="path826"
         inkscape:connector-curvature="0" />
    </g>
  </g>
</svg>
