<?xml version="1.0" encoding="UTF-8" standalone="no"?>
<!-- Created with Inkscape (http://www.inkscape.org/) -->

<svg
   xmlns:dc="http://purl.org/dc/elements/1.1/"
   xmlns:cc="http://creativecommons.org/ns#"
   xmlns:rdf="http://www.w3.org/1999/02/22-rdf-syntax-ns#"
   xmlns:svg="http://www.w3.org/2000/svg"
   xmlns="http://www.w3.org/2000/svg"
   xmlns:sodipodi="http://sodipodi.sourceforge.net/DTD/sodipodi-0.dtd"
   xmlns:inkscape="http://www.inkscape.org/namespaces/inkscape"
   width="2380mm"
   height="2520mm"
   viewBox="0 0 2379.9999 2520"
   version="1.1"
   id="svg8"
   inkscape:version="0.92.2 (5c3e80d, 2017-08-06)"
   sodipodi:docname="Vietnam_road_sign_P127b.svg">
  <defs
     id="defs2" />
  <sodipodi:namedview
     id="base"
     pagecolor="#ffffff"
     bordercolor="#666666"
     borderopacity="1.0"
     inkscape:pageopacity="0.0"
     inkscape:pageshadow="2"
     inkscape:zoom="0.082619845"
     inkscape:cx="5503.9129"
     inkscape:cy="5836.2747"
     inkscape:document-units="mm"
     inkscape:current-layer="layer1"
     showgrid="false"
     inkscape:window-width="1920"
     inkscape:window-height="1057"
     inkscape:window-x="-8"
     inkscape:window-y="-8"
     inkscape:window-maximized="1"
     inkscape:measure-start="0,0"
     inkscape:measure-end="0,0"
     fit-margin-top="0"
     fit-margin-left="0"
     fit-margin-right="0"
     fit-margin-bottom="0"
     showguides="false"
     inkscape:snap-global="false" />
  <metadata
     id="metadata5">
    <rdf:RDF>
      <cc:Work
         rdf:about="">
        <dc:format>image/svg+xml</dc:format>
        <dc:type
           rdf:resource="http://purl.org/dc/dcmitype/StillImage" />
        <dc:title></dc:title>
      </cc:Work>
    </rdf:RDF>
  </metadata>
  <g
     inkscape:label="Layer 1"
     inkscape:groupmode="layer"
     id="layer1"
     transform="translate(-42.564507,2389.7)">
    <rect
       style="opacity:1;fill:#0046aa;fill-opacity:1;fill-rule:nonzero;stroke:none;stroke-width:0.13945231;stroke-linecap:round;stroke-linejoin:miter;stroke-miterlimit:10;stroke-dasharray:none;stroke-opacity:1;paint-order:stroke fill markers"
       id="rect826"
       width="2380"
       height="2520"
       x="42.564507"
       y="-2389.7" />
    <rect
       y="-2382.7"
       x="49.564507"
       height="2506"
       width="2366"
       id="rect828"
       style="opacity:1;fill:#ffffff;fill-opacity:1;fill-rule:nonzero;stroke:none;stroke-width:0.13865478;stroke-linecap:round;stroke-linejoin:miter;stroke-miterlimit:10;stroke-dasharray:none;stroke-opacity:1;paint-order:stroke fill markers" />
    <rect
       style="opacity:1;fill:#0046aa;fill-opacity:1;fill-rule:nonzero;stroke:none;stroke-width:0.13705972;stroke-linecap:round;stroke-linejoin:miter;stroke-miterlimit:10;stroke-dasharray:none;stroke-opacity:1;paint-order:stroke fill markers"
       id="rect830"
       width="2338"
       height="2478"
       x="63.564507"
       y="-2368.7" />
    <path
       style="opacity:1;fill:#ffffff;fill-opacity:1;fill-rule:nonzero;stroke:none;stroke-width:0.04206875;stroke-linecap:round;stroke-linejoin:miter;stroke-miterlimit:10;stroke-dasharray:none;stroke-opacity:1;paint-order:stroke fill markers"
       d="m 672.56462,-1829.6999 h -140 V -79.69995 h -140 V -1829.6999 h -140 l 210,-350 z"
       id="rect832"
       inkscape:connector-curvature="0"
       sodipodi:nodetypes="cccccccc" />
    <path
       sodipodi:nodetypes="cccccccc"
       inkscape:connector-curvature="0"
       id="path835"
       d="m 1442.5646,-1829.6999 h -140 V -79.69995 h -140 V -1829.6999 h -140 l 210,-350 z"
       style="opacity:1;fill:#ffffff;fill-opacity:1;fill-rule:nonzero;stroke:none;stroke-width:0.04206875;stroke-linecap:round;stroke-linejoin:miter;stroke-miterlimit:10;stroke-dasharray:none;stroke-opacity:1;paint-order:stroke fill markers" />
    <path
       style="opacity:1;fill:#ffffff;fill-opacity:1;fill-rule:nonzero;stroke:none;stroke-width:0.04206875;stroke-linecap:round;stroke-linejoin:miter;stroke-miterlimit:10;stroke-dasharray:none;stroke-opacity:1;paint-order:stroke fill markers"
       d="m 2212.5646,-1829.6999 h -140 V -79.69995 h -140 V -1829.6999 h -140 l 210,-350 z"
       id="path837"
       inkscape:connector-curvature="0"
       sodipodi:nodetypes="cccccccc" />
    <g
       aria-label="20 "
       style="font-style:normal;font-variant:normal;font-weight:bold;font-stretch:normal;font-size:414.86404419px;line-height:0;font-family:Giaothong1;-inkscape-font-specification:'Giaothong1 Bold';letter-spacing:0px;word-spacing:0px;fill:#000000;fill-opacity:1;stroke:none;stroke-width:2.16075015"
       id="text874-0"
       transform="matrix(-0.99406779,0,0,0.9942857,1502.318,-1126.0825)" />
    <g
       aria-label="60"
       style="font-style:normal;font-variant:normal;font-weight:bold;font-stretch:normal;font-size:412.47674561px;line-height:0;font-family:Giaothong1;-inkscape-font-specification:'Giaothong1 Bold';letter-spacing:0px;word-spacing:0px;fill:#000000;fill-opacity:1;stroke:none;stroke-width:2.14831638"
       id="text822"
       transform="translate(1050.0001,-1120.0006)" />
    <circle
       style="opacity:1;fill:#ffffff;fill-opacity:1;fill-rule:nonzero;stroke:none;stroke-width:0.03144862;stroke-linecap:round;stroke-linejoin:miter;stroke-miterlimit:10;stroke-dasharray:none;stroke-opacity:1;paint-order:stroke fill markers"
       id="path113411"
       cx="462.56451"
       cy="-1129.7"
       r="350" />
    <g
       transform="matrix(-0.99406779,0,0,0.9942857,756.2652,-1497.2662)"
       id="g113458"
       style="font-style:normal;font-variant:normal;font-weight:bold;font-stretch:normal;font-size:414.86404419px;line-height:0;font-family:Giaothong1;-inkscape-font-specification:'Giaothong1 Bold';letter-spacing:0px;word-spacing:0px;fill:#000000;fill-opacity:1;stroke:none;stroke-width:2.16075015"
       aria-label="20 ">
      <rect
         transform="scale(-1,1)"
         ry="58.987068"
         rx="59"
         y="228.87379"
         x="-272.61807"
         height="280"
         width="118"
         id="rect113454"
         style="opacity:1;fill:#000000;fill-opacity:1;fill-rule:nonzero;stroke:none;stroke-width:0.06008112;stroke-linecap:round;stroke-linejoin:miter;stroke-miterlimit:10;stroke-dasharray:none;stroke-opacity:1;paint-order:stroke fill markers" />
      <rect
         transform="scale(-1,1)"
         ry="18.998564"
         style="opacity:1;fill:#ffffff;fill-opacity:1;fill-rule:nonzero;stroke:none;stroke-width:0.02881914;stroke-linecap:round;stroke-linejoin:miter;stroke-miterlimit:10;stroke-dasharray:none;stroke-opacity:1;paint-order:stroke fill markers"
         id="rect113456"
         width="38.005455"
         height="200.02299"
         x="-232.62074"
         y="268.86227"
         rx="19.002728" />
    </g>
    <g
       transform="translate(70.000005,-910.00028)"
       id="g113468"
       style="font-style:normal;font-variant:normal;font-weight:bold;font-stretch:normal;font-size:412.47674561px;line-height:0;font-family:Giaothong1;-inkscape-font-specification:'Giaothong1 Bold';letter-spacing:0px;word-spacing:0px;fill:#000000;fill-opacity:1;stroke:none;stroke-width:2.14831638"
       aria-label="80">
      <rect
         ry="60"
         rx="60"
         y="-245.69995"
         x="252.5645"
         height="166"
         width="117.6"
         id="rect113460"
         style="opacity:1;fill:#000000;fill-opacity:1;fill-rule:nonzero;stroke:none;stroke-width:0.04347451;stroke-linecap:round;stroke-linejoin:miter;stroke-miterlimit:10;stroke-dasharray:none;stroke-opacity:1;paint-order:stroke fill markers" />
      <rect
         ry="60"
         style="opacity:1;fill:#000000;fill-opacity:1;fill-rule:nonzero;stroke:none;stroke-width:0.04118836;stroke-linecap:round;stroke-linejoin:miter;stroke-miterlimit:10;stroke-dasharray:none;stroke-opacity:1;paint-order:stroke fill markers"
         id="rect113462"
         width="117.6"
         height="149"
         x="252.5645"
         y="-359.59991"
         rx="60" />
      <rect
         style="opacity:1;fill:#ffffff;fill-opacity:1;fill-rule:nonzero;stroke:none;stroke-width:0.03006508;stroke-linecap:round;stroke-linejoin:miter;stroke-miterlimit:10;stroke-dasharray:none;stroke-opacity:1;paint-order:stroke fill markers"
         id="rect113464"
         width="39.599998"
         height="93.199997"
         x="291.56451"
         y="-211.89996"
         rx="21"
         ry="21" />
      <rect
         ry="21"
         rx="21"
         y="-320.59998"
         x="291.56451"
         height="78.300003"
         width="39.599998"
         id="rect113466"
         style="opacity:1;fill:#ffffff;fill-opacity:1;fill-rule:nonzero;stroke:none;stroke-width:0.02755721;stroke-linecap:round;stroke-linejoin:miter;stroke-miterlimit:10;stroke-dasharray:none;stroke-opacity:1;paint-order:stroke fill markers" />
    </g>
    <rect
       y="-1416.3009"
       x="-511.33627"
       height="580.79987"
       width="8.6239986"
       id="rect862"
       style="opacity:1;fill:#000000;fill-opacity:1;fill-rule:nonzero;stroke:none;stroke-width:1.80136585;stroke-linecap:round;stroke-linejoin:miter;stroke-miterlimit:4;stroke-dasharray:none;stroke-opacity:1;paint-order:stroke fill markers"
       transform="rotate(45)" />
    <rect
       style="opacity:1;fill:#000000;fill-opacity:1;fill-rule:nonzero;stroke:none;stroke-width:1.80136585;stroke-linecap:round;stroke-linejoin:miter;stroke-miterlimit:4;stroke-dasharray:none;stroke-opacity:1;paint-order:stroke fill markers"
       id="rect864"
       width="8.6239986"
       height="580.79987"
       x="-493.69223"
       y="-1416.3009"
       transform="rotate(45)" />
    <rect
       style="opacity:1;fill:#000000;fill-opacity:1;fill-rule:nonzero;stroke:none;stroke-width:1.80136585;stroke-linecap:round;stroke-linejoin:miter;stroke-miterlimit:4;stroke-dasharray:none;stroke-opacity:1;paint-order:stroke fill markers"
       id="rect866"
       width="8.6239986"
       height="580.79987"
       x="-476.04819"
       y="-1416.3009"
       transform="rotate(45)" />
    <rect
       y="-1416.3009"
       x="-458.40414"
       height="580.79987"
       width="8.6239986"
       id="rect868"
       style="opacity:1;fill:#000000;fill-opacity:1;fill-rule:nonzero;stroke:none;stroke-width:1.80136585;stroke-linecap:round;stroke-linejoin:miter;stroke-miterlimit:4;stroke-dasharray:none;stroke-opacity:1;paint-order:stroke fill markers"
       transform="rotate(45)" />
    <rect
       style="opacity:1;fill:#000000;fill-opacity:1;fill-rule:nonzero;stroke:none;stroke-width:1.80136585;stroke-linecap:round;stroke-linejoin:miter;stroke-miterlimit:4;stroke-dasharray:none;stroke-opacity:1;paint-order:stroke fill markers"
       id="rect870"
       width="8.6239986"
       height="580.79987"
       x="-440.76013"
       y="-1416.3009"
       transform="rotate(45)" />
    <path
       inkscape:connector-curvature="0"
       style="opacity:1;fill:#0046aa;fill-opacity:1;fill-rule:nonzero;stroke:none;stroke-width:277.91708374;stroke-linecap:round;stroke-linejoin:round;stroke-miterlimit:4;stroke-dasharray:none;stroke-opacity:1;paint-order:stroke fill markers"
       d="M 462.5643,-1437.7001 A 307.99993,307.99993 0 0 0 154.5645,-1129.6999 307.99993,307.99993 0 0 0 462.5643,-821.7 307.99993,307.99993 0 0 0 770.56446,-1129.6999 307.99993,307.99993 0 0 0 462.5643,-1437.7001 Z m 0,43.7363 a 264.26394,264.26394 0 0 1 264.2639,264.2639 264.26394,264.26394 0 0 1 -264.2639,264.2641 264.26394,264.26394 0 0 1 -264.264,-264.2641 264.26394,264.26394 0 0 1 264.264,-264.2639 z"
       id="path872" />
    <circle
       r="350"
       cy="-1129.7"
       cx="1232.5645"
       id="circle934"
       style="opacity:1;fill:#ffffff;fill-opacity:1;fill-rule:nonzero;stroke:none;stroke-width:0.03144862;stroke-linecap:round;stroke-linejoin:miter;stroke-miterlimit:10;stroke-dasharray:none;stroke-opacity:1;paint-order:stroke fill markers" />
    <g
       transform="matrix(-0.99406779,0,0,0.9942857,1502.3181,-1126.0826)"
       id="g989"
       style="font-style:normal;font-variant:normal;font-weight:bold;font-stretch:normal;font-size:414.86404419px;line-height:0;font-family:Giaothong1;-inkscape-font-specification:'Giaothong1 Bold';letter-spacing:0px;word-spacing:0px;fill:#000000;fill-opacity:1;stroke:none;stroke-width:2.16075015"
       aria-label="20 ">
      <rect
         transform="scale(-1,1)"
         ry="58.987068"
         rx="59"
         y="-144.44336"
         x="-248.5278"
         height="280"
         width="118"
         id="rect985"
         style="opacity:1;fill:#000000;fill-opacity:1;fill-rule:nonzero;stroke:none;stroke-width:0.06008112;stroke-linecap:round;stroke-linejoin:miter;stroke-miterlimit:10;stroke-dasharray:none;stroke-opacity:1;paint-order:stroke fill markers" />
      <rect
         transform="scale(-1,1)"
         ry="18.998564"
         style="opacity:1;fill:#ffffff;fill-opacity:1;fill-rule:nonzero;stroke:none;stroke-width:0.02881914;stroke-linecap:round;stroke-linejoin:miter;stroke-miterlimit:10;stroke-dasharray:none;stroke-opacity:1;paint-order:stroke fill markers"
         id="rect987"
         width="38.005455"
         height="200.02299"
         x="-208.53049"
         y="-104.45487"
         rx="19.002728" />
    </g>
    <g
       transform="translate(1050.0002,-1120.0007)"
       id="g993"
       style="font-style:normal;font-variant:normal;font-weight:bold;font-stretch:normal;font-size:412.47674561px;line-height:0;font-family:Giaothong1;-inkscape-font-specification:'Giaothong1 Bold';letter-spacing:0px;word-spacing:0px;fill:#000000;fill-opacity:1;stroke:none;stroke-width:2.14831638"
       aria-label="60">
      <path
         inkscape:connector-curvature="0"
         id="path991"
         style="fill:#000000;fill-opacity:1;stroke:none;stroke-width:2.14831638"
         d="m 155.14971,-12.697267 q 3.22247,5.2365212 4.2295,11.4800657 1.20843,6.2435445 1.20843,15.3067543 v 52.768021 q 0,10.271638 -2.01405,18.730634 -1.81264,8.458995 -12.28569,25.376982 -10.47304,16.918 -40.68374,19.33485 -18.529226,0 -33.43317,-8.05618 Q 57.468449,114.18767 51.426309,102.90901 45.38417,91.630347 43.974337,83.97697 42.564504,76.323593 42.564504,66.857574 V 23.555572 q 0,-9.06321 0.40281,-12.889898 0.402809,-4.0280935 2.819665,-10.67444736 L 100.36764,-147.23558 h 44.51043 l -44.51043,115.40487 q 8.25759,-2.819665 17.72361,-2.819665 h 3.62529 q 22.35591,2.819665 33.43317,21.953108 z M 117.68844,7.8460084 q -6.24354,-8.25759108 -16.51518,-8.25759108 -5.437925,0 -10.271637,3.42387928 -4.632307,3.2224745 -6.646354,7.8547814 -2.014046,4.430903 -2.014046,12.688494 v 43.302002 q 0,9.06321 4.833711,16.917992 5.035117,7.854781 16.917996,6.646353 10.67444,0 13.89692,-7.250567 3.42388,-7.250568 3.42388,-16.313778 V 23.555572 q 0,-5.437926 -0.60422,-8.861805 -0.60421,-3.625284 -3.02107,-6.8477586 z" />
    </g>
    <rect
       y="-1960.7731"
       x="33.135914"
       height="580.79987"
       width="8.6239986"
       id="rect1005"
       style="opacity:1;fill:#000000;fill-opacity:1;fill-rule:nonzero;stroke:none;stroke-width:1.80136585;stroke-linecap:round;stroke-linejoin:miter;stroke-miterlimit:4;stroke-dasharray:none;stroke-opacity:1;paint-order:stroke fill markers"
       transform="rotate(45)" />
    <rect
       style="opacity:1;fill:#000000;fill-opacity:1;fill-rule:nonzero;stroke:none;stroke-width:1.80136585;stroke-linecap:round;stroke-linejoin:miter;stroke-miterlimit:4;stroke-dasharray:none;stroke-opacity:1;paint-order:stroke fill markers"
       id="rect1007"
       width="8.6239986"
       height="580.79987"
       x="50.779957"
       y="-1960.7731"
       transform="rotate(45)" />
    <rect
       style="opacity:1;fill:#000000;fill-opacity:1;fill-rule:nonzero;stroke:none;stroke-width:1.80136585;stroke-linecap:round;stroke-linejoin:miter;stroke-miterlimit:4;stroke-dasharray:none;stroke-opacity:1;paint-order:stroke fill markers"
       id="rect1009"
       width="8.6239986"
       height="580.79987"
       x="68.424004"
       y="-1960.7731"
       transform="rotate(45)" />
    <rect
       y="-1960.7731"
       x="86.068047"
       height="580.79987"
       width="8.6239986"
       id="rect1011"
       style="opacity:1;fill:#000000;fill-opacity:1;fill-rule:nonzero;stroke:none;stroke-width:1.80136585;stroke-linecap:round;stroke-linejoin:miter;stroke-miterlimit:4;stroke-dasharray:none;stroke-opacity:1;paint-order:stroke fill markers"
       transform="rotate(45)" />
    <rect
       style="opacity:1;fill:#000000;fill-opacity:1;fill-rule:nonzero;stroke:none;stroke-width:1.80136585;stroke-linecap:round;stroke-linejoin:miter;stroke-miterlimit:4;stroke-dasharray:none;stroke-opacity:1;paint-order:stroke fill markers"
       id="rect1013"
       width="8.6239986"
       height="580.79987"
       x="103.71203"
       y="-1960.7731"
       transform="rotate(45)" />
    <path
       inkscape:connector-curvature="0"
       style="opacity:1;fill:#0046aa;fill-opacity:1;fill-rule:nonzero;stroke:none;stroke-width:277.91708374;stroke-linecap:round;stroke-linejoin:round;stroke-miterlimit:4;stroke-dasharray:none;stroke-opacity:1;paint-order:stroke fill markers"
       d="M 1232.5643,-1437.7002 A 307.99993,307.99993 0 0 0 924.56449,-1129.7 307.99993,307.99993 0 0 0 1232.5643,-821.70005 307.99993,307.99993 0 0 0 1540.5644,-1129.7 307.99993,307.99993 0 0 0 1232.5643,-1437.7002 Z m 0,43.7363 A 264.26394,264.26394 0 0 1 1496.8282,-1129.7 264.26394,264.26394 0 0 1 1232.5643,-865.43585 264.26394,264.26394 0 0 1 968.30028,-1129.7 264.26394,264.26394 0 0 1 1232.5643,-1393.9639 Z"
       id="path1015" />
    <circle
       style="opacity:1;fill:#ffffff;fill-opacity:1;fill-rule:nonzero;stroke:none;stroke-width:0.03144862;stroke-linecap:round;stroke-linejoin:miter;stroke-miterlimit:10;stroke-dasharray:none;stroke-opacity:1;paint-order:stroke fill markers"
       id="circle1058"
       cx="2002.5645"
       cy="-1129.7"
       r="350" />
    <g
       transform="matrix(-0.99406779,0,0,0.9942857,2272.3182,-1126.0824)"
       id="g1103"
       style="font-style:normal;font-variant:normal;font-weight:bold;font-stretch:normal;font-size:414.86404419px;line-height:0;font-family:Giaothong1;-inkscape-font-specification:'Giaothong1 Bold';letter-spacing:0px;word-spacing:0px;fill:#000000;fill-opacity:1;stroke:none;stroke-width:2.16075015"
       aria-label="20 ">
      <rect
         transform="scale(-1,1)"
         ry="58.987068"
         rx="59"
         y="-144.44336"
         x="-248.5278"
         height="280"
         width="118"
         id="rect1099"
         style="opacity:1;fill:#000000;fill-opacity:1;fill-rule:nonzero;stroke:none;stroke-width:0.06008112;stroke-linecap:round;stroke-linejoin:miter;stroke-miterlimit:10;stroke-dasharray:none;stroke-opacity:1;paint-order:stroke fill markers" />
      <rect
         transform="scale(-1,1)"
         ry="18.998564"
         style="opacity:1;fill:#ffffff;fill-opacity:1;fill-rule:nonzero;stroke:none;stroke-width:0.02881914;stroke-linecap:round;stroke-linejoin:miter;stroke-miterlimit:10;stroke-dasharray:none;stroke-opacity:1;paint-order:stroke fill markers"
         id="rect1101"
         width="38.005455"
         height="200.02299"
         x="-208.53049"
         y="-104.45487"
         rx="19.002728" />
    </g>
    <g
       transform="translate(1820.0002,-1120.0005)"
       id="g1107"
       style="font-style:normal;font-variant:normal;font-weight:bold;font-stretch:normal;font-size:412.47674561px;line-height:0;font-family:Giaothong1;-inkscape-font-specification:'Giaothong1 Bold';letter-spacing:0px;word-spacing:0px;fill:#000000;fill-opacity:1;stroke:none;stroke-width:2.14831638"
       aria-label="50">
      <path
         inkscape:connector-curvature="0"
         id="path1105"
         style="stroke-width:2.14831638"
         d="m 114.66737,-49.151511 q 10.47305,0 20.94609,5.840736 10.47304,5.840735 15.50816,13.494112 5.23652,7.653377 7.04916,16.112373 2.01405,8.2575908 2.01405,17.9250145 V 66.051955 q 0,9.06321 -0.60422,15.306755 -0.60421,6.042139 -4.83371,17.320801 -4.02809,11.077259 -19.93906,21.348889 -15.91097,10.27164 -34.03739,10.27164 -14.098324,0 -26.786817,-6.64635 Q 61.496544,116.80593 54.447381,106.9371 47.599622,96.866869 44.981362,86.796636 42.564506,76.726402 42.564506,66.051955 v -7.049163 h 40.079527 v 7.049163 q 0,4.028094 0.201405,8.257592 0.201405,4.028093 4.229498,10.271637 4.229498,6.243545 14.501134,6.243545 11.07726,0 14.70254,-6.04214 3.82669,-6.04214 4.2295,-9.466019 0.40281,-3.625284 0.40281,-7.653377 V 63.030886 9.4572457 q 0,-3.6252839 -0.20141,-7.6533771 -0.2014,-4.2294979 -4.6323,-10.4730424 -4.2295,-6.2435442 -14.09833,-6.2435442 -14.501135,0 -19.334847,14.50113532 H 47.599622 V -147.23558 H 160.18483 v 36.65565 H 82.644033 v 73.915508 q 14.299731,-12.487089 32.023337,-12.487089 z" />
    </g>
    <rect
       y="-2505.2454"
       x="577.60815"
       height="580.79987"
       width="8.6239986"
       id="rect1119"
       style="opacity:1;fill:#000000;fill-opacity:1;fill-rule:nonzero;stroke:none;stroke-width:1.80136585;stroke-linecap:round;stroke-linejoin:miter;stroke-miterlimit:4;stroke-dasharray:none;stroke-opacity:1;paint-order:stroke fill markers"
       transform="rotate(45)" />
    <rect
       style="opacity:1;fill:#000000;fill-opacity:1;fill-rule:nonzero;stroke:none;stroke-width:1.80136585;stroke-linecap:round;stroke-linejoin:miter;stroke-miterlimit:4;stroke-dasharray:none;stroke-opacity:1;paint-order:stroke fill markers"
       id="rect1121"
       width="8.6239986"
       height="580.79987"
       x="595.2522"
       y="-2505.2454"
       transform="rotate(45)" />
    <rect
       style="opacity:1;fill:#000000;fill-opacity:1;fill-rule:nonzero;stroke:none;stroke-width:1.80136585;stroke-linecap:round;stroke-linejoin:miter;stroke-miterlimit:4;stroke-dasharray:none;stroke-opacity:1;paint-order:stroke fill markers"
       id="rect1123"
       width="8.6239986"
       height="580.79987"
       x="612.89624"
       y="-2505.2454"
       transform="rotate(45)" />
    <rect
       y="-2505.2454"
       x="630.54028"
       height="580.79987"
       width="8.6239986"
       id="rect1125"
       style="opacity:1;fill:#000000;fill-opacity:1;fill-rule:nonzero;stroke:none;stroke-width:1.80136585;stroke-linecap:round;stroke-linejoin:miter;stroke-miterlimit:4;stroke-dasharray:none;stroke-opacity:1;paint-order:stroke fill markers"
       transform="rotate(45)" />
    <rect
       style="opacity:1;fill:#000000;fill-opacity:1;fill-rule:nonzero;stroke:none;stroke-width:1.80136585;stroke-linecap:round;stroke-linejoin:miter;stroke-miterlimit:4;stroke-dasharray:none;stroke-opacity:1;paint-order:stroke fill markers"
       id="rect1127"
       width="8.6239986"
       height="580.79987"
       x="648.1842"
       y="-2505.2454"
       transform="rotate(45)" />
    <path
       inkscape:connector-curvature="0"
       style="opacity:1;fill:#0046aa;fill-opacity:1;fill-rule:nonzero;stroke:none;stroke-width:277.91708374;stroke-linecap:round;stroke-linejoin:round;stroke-miterlimit:4;stroke-dasharray:none;stroke-opacity:1;paint-order:stroke fill markers"
       d="m 2002.5643,-1437.7003 a 307.99993,307.99993 0 0 0 -307.9998,308.0002 307.99993,307.99993 0 0 0 307.9998,308 307.99993,307.99993 0 0 0 308.0001,-308 307.99993,307.99993 0 0 0 -308.0001,-308.0002 z m 0,43.7363 a 264.26394,264.26394 0 0 1 264.2639,264.2639 264.26394,264.26394 0 0 1 -264.2639,264.2642 264.26394,264.26394 0 0 1 -264.264,-264.2642 264.26394,264.26394 0 0 1 264.264,-264.2639 z"
       id="path1129" />
  </g>
</svg>
