<?xml version="1.0" encoding="UTF-8" standalone="no"?>
<!-- Created with Inkscape (http://www.inkscape.org/) -->

<svg
   xmlns:dc="http://purl.org/dc/elements/1.1/"
   xmlns:cc="http://creativecommons.org/ns#"
   xmlns:rdf="http://www.w3.org/1999/02/22-rdf-syntax-ns#"
   xmlns:svg="http://www.w3.org/2000/svg"
   xmlns="http://www.w3.org/2000/svg"
   xmlns:sodipodi="http://sodipodi.sourceforge.net/DTD/sodipodi-0.dtd"
   xmlns:inkscape="http://www.inkscape.org/namespaces/inkscape"
   width="70mm"
   height="105mm"
   viewBox="0 0 69.999998 105"
   version="1.1"
   id="svg8"
   inkscape:version="0.92.4 (5da689c313, 2019-01-14)"
   sodipodi:docname="128-1.svg">
  <defs
     id="defs2" />
  <sodipodi:namedview
     id="base"
     pagecolor="#ffffff"
     bordercolor="#666666"
     borderopacity="1.0"
     inkscape:pageopacity="0.0"
     inkscape:pageshadow="2"
     inkscape:zoom="3.5251132"
     inkscape:cx="88.585956"
     inkscape:cy="90.608854"
     inkscape:document-units="mm"
     inkscape:current-layer="layer1"
     showgrid="false"
     inkscape:window-width="1366"
     inkscape:window-height="705"
     inkscape:window-x="-8"
     inkscape:window-y="-8"
     inkscape:window-maximized="1"
     inkscape:measure-start="0,0"
     inkscape:measure-end="0,0"
     fit-margin-top="0"
     fit-margin-left="0"
     fit-margin-right="0"
     fit-margin-bottom="0"
     showguides="false"
     inkscape:snap-global="false" />
  <metadata
     id="metadata5">
    <rdf:RDF>
      <cc:Work
         rdf:about="">
        <dc:format>image/svg+xml</dc:format>
        <dc:type
           rdf:resource="http://purl.org/dc/dcmitype/StillImage" />
        <dc:title />
      </cc:Work>
    </rdf:RDF>
  </metadata>
  <g
     inkscape:label="Layer 1"
     inkscape:groupmode="layer"
     id="layer1"
     transform="translate(-42.564505,-25.30005)">
    <circle
       style="opacity:1;fill:#f00a0a;fill-opacity:1;fill-rule:nonzero;stroke:none;stroke-width:31.57357025;stroke-linecap:round;stroke-linejoin:round;stroke-miterlimit:4;stroke-dasharray:none;stroke-opacity:1;paint-order:stroke fill markers"
       id="path815"
       cx="77.571159"
       cy="60.249321"
       r="34.991219" />
    <circle
       cy="60.249321"
       cx="77.571159"
       id="circle817"
       style="opacity:1;fill:#ffffff;fill-opacity:1;fill-rule:nonzero;stroke:none;stroke-width:22.55254936;stroke-linecap:round;stroke-linejoin:round;stroke-miterlimit:4;stroke-dasharray:none;stroke-opacity:1;paint-order:stroke fill markers"
       r="24.993727" />
    <rect
       y="63.462322"
       x="9.749011"
       height="67.982941"
       width="4.9987459"
       id="rect818"
       style="opacity:1;fill:#f00a0a;fill-opacity:1;fill-rule:nonzero;stroke:none;stroke-width:7.20815897;stroke-linecap:round;stroke-linejoin:round;stroke-miterlimit:4;stroke-dasharray:none;stroke-opacity:1;paint-order:stroke fill markers"
       transform="rotate(-45)" />
    <path
       style="opacity:1;fill:#000000;fill-opacity:1;fill-rule:nonzero;stroke:none;stroke-width:0.00543778;stroke-linecap:round;stroke-linejoin:miter;stroke-miterlimit:10;stroke-dasharray:none;stroke-opacity:1;paint-order:stroke fill markers"
       d="m 71.272745,67.197563 c 0,-1.966207 1.582918,-3.549074 3.549124,-3.549074 h 17.590686 c -0.483269,-1.642801 -2.043638,-2.83932 -3.90416,-2.83932 H 73.372203 c -4.224982,-0.0033 -8.203894,3.125538 -9.797537,7.138189 V 49.751925 c 1.764473,5.049311 7.823276,8.681135 9.797537,8.697825 h 15.396116 c 3.227199,0 5.872257,2.345797 6.251481,5.393046 l 3.54608,-0.374303 v 2.459388 l -3.573774,-0.377246 c -0.466263,2.95078 -3.06647,5.196053 -6.223788,5.196053 h -5.698529 -5.998495 -2.249426 c -1.966206,0 -3.549124,-1.582919 -3.549123,-3.549125 z m 1.699569,0 c 0,0.803098 0.646527,1.449677 1.449626,1.449677 h 2.649355 v -5.2e-5 h 11.4371 c 1.883017,0 3.458362,-1.225769 3.921006,-2.899251 H 74.42194 c -0.803099,0 -1.449626,0.646527 -1.449626,1.449626 z"
       id="rect13401"
       inkscape:connector-curvature="0"
       sodipodi:nodetypes="sscsccccsccccsccssssccscss" />
    <rect
       width="48.941967"
       height="14.155563"
       style="fill:#ffffff;stroke:#000000;stroke-width:1.11671031"
       x="54.496014"
       y="102.5066"
       id="rect142-7" />
    <rect
       width="2.1028037"
       height="7.009346"
       style="fill:#000000;stroke-width:0.07009346"
       x="77.089973"
       y="95.271561"
       id="rect140-8" />
    <path
       style="opacity:1;fill:#000000;fill-opacity:1;fill-rule:nonzero;stroke:none;stroke-width:0.03719775;stroke-linecap:round;stroke-linejoin:miter;stroke-miterlimit:10;stroke-dasharray:none;stroke-opacity:1;paint-order:stroke fill markers"
       d="m 97.776989,106.63086 h -0.997443 l 1.994897,-3.39133 1.994897,3.39133 h -0.997447 v 8.57806 h -1.994904 z"
       id="rect815"
       inkscape:connector-curvature="0"
       sodipodi:nodetypes="cccccccc" />
    <path
       style="opacity:1;fill:#000000;fill-opacity:1;fill-rule:nonzero;stroke:none;stroke-width:0.03533169;stroke-linecap:round;stroke-linejoin:miter;stroke-miterlimit:10;stroke-dasharray:none;stroke-opacity:1;paint-order:stroke fill markers"
       d="m 58.314938,106.64986 h -0.947417 l 1.894822,-3.2212 1.894834,3.2212 H 60.20976 v 8.14773 h -1.894822 z"
       id="rect815-5"
       inkscape:connector-curvature="0"
       sodipodi:nodetypes="cccccccc" />
    <g
       aria-label="30"
       transform="translate(-606.52803,1238.7971)"
       style="font-style:normal;font-variant:normal;font-weight:bold;font-stretch:normal;font-size:412.47674561px;line-height:0;font-family:Giaothong1;-inkscape-font-specification:'Giaothong1 Bold';letter-spacing:0px;word-spacing:0px;fill:#000000;fill-opacity:1;stroke:none;stroke-width:2.14831638"
       id="text824" />
    <g
       id="g257"
       transform="translate(2.22907,0.10614619)">
      <g
         transform="matrix(0.09212807,0,0,0.09212807,70.040262,86.918001)"
         id="text10759"
         style="font-style:normal;font-variant:normal;font-weight:bold;font-stretch:normal;font-size:154.67877197px;line-height:0;font-family:Giaothong1;-inkscape-font-specification:'Giaothong1 Bold';letter-spacing:0px;word-spacing:0px;fill:#000000;fill-opacity:1;stroke:none;stroke-width:0.80561858"
         aria-label="80 m">
        <path
           inkscape:connector-curvature="0"
           id="path10785"
           style="fill:#000000;fill-opacity:1;stroke:none;stroke-width:0.80561858"
           d="m 175.07099,229.00778 q 2.94555,-3.70081 6.4953,-5.58898 3.54976,-1.9637 8.08136,-1.9637 7.55268,0 12.38639,5.3624 4.90924,5.28687 4.90924,12.91507 V 296 h -14.87877 v -52.11345 q 0,-3.54976 -1.81264,-5.81556 -1.73712,-2.26581 -5.43793,-2.26581 -3.09659,0 -5.21134,2.41686 -2.03922,2.41686 -2.03922,5.66451 V 296 h -14.87877 v -52.11345 q 0,-3.39871 -2.03923,-5.74004 -1.96369,-2.34133 -5.36239,-2.34133 -3.0966,0 -5.21135,2.41686 -2.03922,2.41686 -2.03922,5.66451 V 296 h -14.87877 v -73.63858 h 14.87877 v 6.64636 q 5.06029,-7.55268 13.89692,-7.55268 4.15397,0 7.47715,1.9637 3.32317,1.88817 5.6645,5.58898 z" />
      </g>
      <g
         transform="matrix(-0.03434308,0,0,0.03435061,85.110645,96.744638)"
         id="text874"
         style="font-style:normal;font-variant:normal;font-weight:bold;font-stretch:normal;font-size:414.86404419px;line-height:0;font-family:Giaothong1;-inkscape-font-specification:'Giaothong1 Bold';letter-spacing:0px;word-spacing:0px;fill:#000000;fill-opacity:1;stroke:none;stroke-width:2.16075015"
         aria-label="20 ">
        <rect
           transform="scale(-1,1)"
           ry="58.987068"
           rx="59"
           y="228.87379"
           x="-272.61807"
           height="280"
           width="118"
           id="rect984"
           style="opacity:1;fill:#000000;fill-opacity:1;fill-rule:nonzero;stroke:none;stroke-width:0.06008112;stroke-linecap:round;stroke-linejoin:miter;stroke-miterlimit:10;stroke-dasharray:none;stroke-opacity:1;paint-order:stroke fill markers" />
        <rect
           transform="scale(-1,1)"
           ry="18.998564"
           style="opacity:1;fill:#ffffff;fill-opacity:1;fill-rule:nonzero;stroke:none;stroke-width:0.02881914;stroke-linecap:round;stroke-linejoin:miter;stroke-miterlimit:10;stroke-dasharray:none;stroke-opacity:1;paint-order:stroke fill markers"
           id="rect988"
           width="38.005455"
           height="200.02299"
           x="-232.62074"
           y="268.86227"
           rx="19.002728" />
      </g>
      <g
         transform="matrix(0.79985088,0,0,0.79985088,28.993455,29.968733)"
         id="g244">
        <g
           aria-label="20 "
           style="font-style:normal;font-variant:normal;font-weight:bold;font-stretch:normal;font-size:414.86404419px;line-height:0;font-family:Giaothong1;-inkscape-font-specification:'Giaothong1 Bold';letter-spacing:0px;word-spacing:0px;fill:#000000;fill-opacity:1;stroke:none;stroke-width:2.16075015"
           id="text874-9"
           transform="matrix(-0.04330485,0,0,0.04331435,62.600832,99.507762)">
          <rect
             style="opacity:1;fill:#000000;fill-opacity:1;fill-rule:nonzero;stroke:none;stroke-width:0.06008112;stroke-linecap:round;stroke-linejoin:miter;stroke-miterlimit:10;stroke-dasharray:none;stroke-opacity:1;paint-order:stroke fill markers"
             id="rect984-3"
             width="118"
             height="280"
             x="-248.5278"
             y="-144.44336"
             rx="59"
             ry="58.987068"
             transform="scale(-1,1)" />
          <rect
             rx="19.002728"
             y="-104.45487"
             x="-208.53049"
             height="200.02299"
             width="38.005455"
             id="rect988-1"
             style="opacity:1;fill:#ffffff;fill-opacity:1;fill-rule:nonzero;stroke:none;stroke-width:0.02881914;stroke-linecap:round;stroke-linejoin:miter;stroke-miterlimit:10;stroke-dasharray:none;stroke-opacity:1;paint-order:stroke fill markers"
             ry="18.998564"
             transform="scale(-1,1)" />
        </g>
        <g
           aria-label="50"
           style="font-style:normal;font-variant:normal;font-weight:bold;font-stretch:normal;font-size:412.47674561px;line-height:0;font-family:Giaothong1;-inkscape-font-specification:'Giaothong1 Bold';letter-spacing:0px;word-spacing:0px;fill:#000000;fill-opacity:1;stroke:none;stroke-width:2.14831638"
           id="text825"
           transform="matrix(0.04356328,0,0,0.04356328,42.896375,99.772712)">
          <path
             d="m 114.66737,-49.151511 q 10.47305,0 20.94609,5.840736 10.47304,5.840735 15.50816,13.494112 5.23652,7.653377 7.04916,16.112373 2.01405,8.2575908 2.01405,17.9250145 V 66.051955 q 0,9.06321 -0.60422,15.306755 -0.60421,6.042139 -4.83371,17.320801 -4.02809,11.077259 -19.93906,21.348889 -15.91097,10.27164 -34.03739,10.27164 -14.098324,0 -26.786817,-6.64635 Q 61.496544,116.80593 54.447381,106.9371 47.599622,96.866869 44.981362,86.796636 42.564506,76.726402 42.564506,66.051955 v -7.049163 h 40.079527 v 7.049163 q 0,4.028094 0.201405,8.257592 0.201405,4.028093 4.229498,10.271637 4.229498,6.243545 14.501134,6.243545 11.07726,0 14.70254,-6.04214 3.82669,-6.04214 4.2295,-9.466019 0.40281,-3.625284 0.40281,-7.653377 V 63.030886 9.4572457 q 0,-3.6252839 -0.20141,-7.6533771 -0.2014,-4.2294979 -4.6323,-10.4730424 -4.2295,-6.2435442 -14.09833,-6.2435442 -14.501135,0 -19.334847,14.50113532 H 47.599622 V -147.23558 H 160.18483 v 36.65565 H 82.644033 v 73.915508 q 14.299731,-12.487089 32.023337,-12.487089 z"
             style="stroke-width:2.14831638"
             id="path827"
             inkscape:connector-curvature="0" />
        </g>
      </g>
    </g>
  </g>
</svg>
