<?xml version="1.0" encoding="UTF-8" standalone="no"?>
<!-- Created with Inkscape (http://www.inkscape.org/) -->

<svg
   xmlns:dc="http://purl.org/dc/elements/1.1/"
   xmlns:cc="http://creativecommons.org/ns#"
   xmlns:rdf="http://www.w3.org/1999/02/22-rdf-syntax-ns#"
   xmlns:svg="http://www.w3.org/2000/svg"
   xmlns="http://www.w3.org/2000/svg"
   xmlns:sodipodi="http://sodipodi.sourceforge.net/DTD/sodipodi-0.dtd"
   xmlns:inkscape="http://www.inkscape.org/namespaces/inkscape"
   width="702mm"
   height="702mm"
   viewBox="0 0 702 702"
   version="1.1"
   id="svg8"
   inkscape:version="0.92.2 (5c3e80d, 2017-08-06)"
   sodipodi:docname="77.svg">
  <defs
     id="defs2" />
  <sodipodi:namedview
     id="base"
     pagecolor="#ffffff"
     bordercolor="#666666"
     borderopacity="1.0"
     inkscape:pageopacity="0.0"
     inkscape:pageshadow="2"
     inkscape:zoom="0.175"
     inkscape:cx="673.28837"
     inkscape:cy="1341.7211"
     inkscape:document-units="mm"
     inkscape:current-layer="layer1"
     showgrid="false"
     inkscape:window-width="1920"
     inkscape:window-height="1057"
     inkscape:window-x="-8"
     inkscape:window-y="-8"
     inkscape:window-maximized="1" />
  <metadata
     id="metadata5">
    <rdf:RDF>
      <cc:Work
         rdf:about="">
        <dc:format>image/svg+xml</dc:format>
        <dc:type
           rdf:resource="http://purl.org/dc/dcmitype/StillImage" />
        <dc:title></dc:title>
      </cc:Work>
    </rdf:RDF>
  </metadata>
  <g
     inkscape:label="Layer 1"
     inkscape:groupmode="layer"
     id="layer1"
     transform="translate(0,405)">
    <circle
       style="opacity:1;fill:#f00a0a;fill-opacity:1;fill-rule:nonzero;stroke:none;stroke-width:315.81494141;stroke-linecap:round;stroke-linejoin:round;stroke-miterlimit:4;stroke-dasharray:none;stroke-opacity:1;paint-order:stroke fill markers"
       id="path815"
       cx="351"
       cy="-54"
       r="350" />
    <circle
       cy="-54"
       cx="351"
       id="circle817"
       style="opacity:1;fill:#ffffff;fill-opacity:1;fill-rule:nonzero;stroke:none;stroke-width:225.58209229;stroke-linecap:round;stroke-linejoin:round;stroke-miterlimit:4;stroke-dasharray:none;stroke-opacity:1;paint-order:stroke fill markers"
       r="250" />
    <rect
       y="-129.98927"
       x="261.3782"
       height="680"
       width="50"
       id="rect818"
       style="opacity:1;fill:#f00a0a;fill-opacity:1;fill-rule:nonzero;stroke:none;stroke-width:72.09967804;stroke-linecap:round;stroke-linejoin:round;stroke-miterlimit:4;stroke-dasharray:none;stroke-opacity:1;paint-order:stroke fill markers"
       transform="rotate(-45)" />
    <path
       style="fill:#000000;fill-opacity:1;stroke:none;stroke-width:0.94617832;stroke-linecap:butt;stroke-linejoin:miter;stroke-miterlimit:10;stroke-dasharray:none;stroke-opacity:1"
       d="m 245.00041,-159.00016 v 46.99973 h -83.00017 v 33.000061 H 141 v 35.99987 h 96.00036 l 25.99997,50.0000896 h 149.60782 c 6.56342,-29.7578996 32.91893,-50.9613696 63.392,-50.9999996 32.77201,0.0302 60.39596,24.45255 64.4426,56.97377 l 20.55742,0.0262 v -90 H 268.92349 l 20.31346,-18.29332 10.7063,11.89025 5.20177,-4.68393 -26.76526,-29.725831 -5.20178,4.68394 12.04423,13.376401 -25.26563,22.75249 h -4.9563 v -82.000001 z"
       id="path8177"
       inkscape:connector-curvature="0"
       sodipodi:nodetypes="cccccccccccccccccccccccc" />
    <path
       style="opacity:1;fill:#000000;fill-opacity:1;fill-rule:nonzero;stroke:none;stroke-width:2.89844465;stroke-linecap:round;stroke-linejoin:miter;stroke-miterlimit:10;stroke-dasharray:none;stroke-opacity:1;paint-order:stroke fill markers"
       d="m 193.99987,-31.000182 a 41,41 0 0 0 -41.00008,41.0001 41,41 0 0 0 41.00008,41.00007 41,41 0 0 0 41.00008,-41.00007 41,41 0 0 0 -41.00008,-41.0001 z m 0,20.00033 a 21,21 0 0 1 21.00027,20.99977 21,21 0 0 1 -21.00027,21.00027 21,21 0 0 1 -20.99975,-21.00027 21,21 0 0 1 20.99975,-20.99977 z"
       id="path186"
       inkscape:connector-curvature="0" />
    <path
       style="opacity:1;fill:#000000;fill-opacity:1;fill-rule:nonzero;stroke:none;stroke-width:2.89844465;stroke-linecap:round;stroke-linejoin:miter;stroke-miterlimit:10;stroke-dasharray:none;stroke-opacity:1;paint-order:stroke fill markers"
       d="m 471.99992,-31.000182 a 41,41 0 0 0 -41.00004,41.0001 41,41 0 0 0 41.00004,41.00007 41,41 0 0 0 41.0001,-41.00007 41,41 0 0 0 -41.0001,-41.0001 z m 0,20.00033 a 21,21 0 0 1 21.0003,20.99977 21,21 0 0 1 -21.0003,21.00027 21,21 0 0 1 -20.9997,-21.00027 21,21 0 0 1 20.9997,-20.99977 z"
       id="circle317"
       inkscape:connector-curvature="0" />
    <path
       d="m 395.80014,-141.99998 h -61.8 v 52.200009 h 61.8 z"
       style="fill:#000000;fill-opacity:1;stroke:none;stroke-width:0.94617832;stroke-linecap:butt;stroke-linejoin:miter;stroke-miterlimit:10;stroke-dasharray:none;stroke-opacity:1"
       id="path15903"
       inkscape:connector-curvature="0"
       sodipodi:nodetypes="ccccc" />
    <path
       sodipodi:nodetypes="ccccc"
       inkscape:connector-curvature="0"
       id="path15890"
       style="fill:#000000;fill-opacity:1;stroke:none;stroke-width:0.94617832;stroke-linecap:butt;stroke-linejoin:miter;stroke-miterlimit:10;stroke-dasharray:none;stroke-opacity:1"
       d="m 478.40017,-141.99998 h -61.8 v 52.200009 h 61.8 z" />
    <path
       d="m 561.00012,-141.99998 h -61.8 v 52.200009 h 61.8 z"
       style="fill:#000000;fill-opacity:1;stroke:none;stroke-width:0.94617832;stroke-linecap:butt;stroke-linejoin:miter;stroke-miterlimit:10;stroke-dasharray:none;stroke-opacity:1"
       id="path8181"
       inkscape:connector-curvature="0"
       sodipodi:nodetypes="ccccc" />
  </g>
</svg>
