<?xml version="1.0" encoding="UTF-8" standalone="no"?>
<!-- Created with Inkscape (http://www.inkscape.org/) -->

<svg
   xmlns:dc="http://purl.org/dc/elements/1.1/"
   xmlns:cc="http://creativecommons.org/ns#"
   xmlns:rdf="http://www.w3.org/1999/02/22-rdf-syntax-ns#"
   xmlns:svg="http://www.w3.org/2000/svg"
   xmlns="http://www.w3.org/2000/svg"
   xmlns:sodipodi="http://sodipodi.sourceforge.net/DTD/sodipodi-0.dtd"
   xmlns:inkscape="http://www.inkscape.org/namespaces/inkscape"
   width="650.76001mm"
   height="573.22198mm"
   viewBox="0 0 650.76001 573.22198"
   version="1.1"
   id="svg8"
   inkscape:version="0.92.2 (5c3e80d, 2017-08-06)"
   sodipodi:docname="11.svg">
  <defs
     id="defs2" />
  <sodipodi:namedview
     id="base"
     pagecolor="#ffffff"
     bordercolor="#666666"
     borderopacity="1.0"
     inkscape:pageopacity="0.0"
     inkscape:pageshadow="2"
     inkscape:zoom="0.2428125"
     inkscape:cx="1374.4477"
     inkscape:cy="479.70239"
     inkscape:document-units="mm"
     inkscape:current-layer="layer1"
     showgrid="false"
     inkscape:snap-global="true"
     inkscape:window-width="1920"
     inkscape:window-height="1057"
     inkscape:window-x="-8"
     inkscape:window-y="-8"
     inkscape:window-maximized="1"
     fit-margin-top="0"
     fit-margin-left="0"
     fit-margin-right="0"
     fit-margin-bottom="0" />
  <metadata
     id="metadata5">
    <rdf:RDF>
      <cc:Work
         rdf:about="">
        <dc:format>image/svg+xml</dc:format>
        <dc:type
           rdf:resource="http://purl.org/dc/dcmitype/StillImage" />
        <dc:title></dc:title>
      </cc:Work>
    </rdf:RDF>
  </metadata>
  <g
     inkscape:label="Layer 1"
     inkscape:groupmode="layer"
     id="layer1"
     transform="translate(332.34691,69.35545)">
    <path
       sodipodi:nodetypes="cccc"
       inkscape:connector-curvature="0"
       id="path849"
       d="m -296.34925,467.86633 578.76479,-7e-5 L -6.9668676,-33.358654 Z"
       style="fill:none;fill-opacity:1;stroke:#f00a0a;stroke-width:70.00043488;stroke-linejoin:round;stroke-miterlimit:4;stroke-dasharray:none;stroke-opacity:1" />
    <path
       style="fill:#ffd70f;fill-opacity:1;stroke:none;stroke-width:50.82842255;stroke-linejoin:round;stroke-miterlimit:4;stroke-dasharray:none;stroke-opacity:1"
       d="M 256.95494,453.16685 -6.9666676,-3.9594242 -270.88887,453.16681 Z"
       id="path860"
       inkscape:connector-curvature="0"
       sodipodi:nodetypes="cccc" />
    <path
       style="opacity:1;fill:#000000;fill-opacity:1;fill-rule:nonzero;stroke:none;stroke-width:27.38847542;stroke-linecap:butt;stroke-linejoin:miter;stroke-miterlimit:4;stroke-dasharray:none;stroke-opacity:1;paint-order:normal"
       d="M 98.032982,407.76655 H -111.96701 v 9.1 H 98.032982 Z"
       id="rect836"
       inkscape:connector-curvature="0" />
    <path
       sodipodi:nodetypes="cssccccccccccc"
       inkscape:connector-curvature="0"
       id="path12602"
       d="m 125.33299,327.9668 c 1e-4,-47.26633 -25.21621,-90.94225 -66.150004,-114.57543 -40.9338,-23.6331 -91.3662,-23.6331 -132.2999,0 -40.933896,23.63318 -66.150096,67.3091 -66.149996,114.57543 l -13.5,-2.5e-4 23.3,41.8 23.3,-41.8 -13.5002,2.5e-4 c 0,-40.26392 21.480496,-77.46933 56.350096,-97.60127 34.8695,-20.13196 77.8305,-20.13196 112.7001,0 34.869596,20.13194 56.350104,57.33735 56.350004,97.60127 l -1e-4,18.89975 h 19.6 z"
       style="opacity:1;fill:#000000;fill-opacity:1;fill-rule:nonzero;stroke:none;stroke-width:90.4553299;stroke-linecap:butt;stroke-linejoin:miter;stroke-miterlimit:4;stroke-dasharray:none;stroke-opacity:1;paint-order:normal" />
    <g
       style="fill:#ff6600;stroke:none"
       transform="matrix(7.9185481,0,0,-7.9191552,-221.66926,494.40315)"
       id="g14347" />
    <g
       style="fill:#ff6600;stroke:none"
       transform="matrix(7.9185481,0,0,-7.9191552,13.499863,287.53653)"
       id="g14379" />
    <g
       style="fill:#ff6600;stroke:none"
       transform="matrix(7.9185481,0,0,-7.9191552,13.499863,287.53653)"
       id="g14383" />
    <path
       style="opacity:1;fill:#000000;fill-opacity:1;fill-rule:nonzero;stroke:none;stroke-width:113.61211395;stroke-linecap:butt;stroke-linejoin:miter;stroke-miterlimit:4;stroke-dasharray:none;stroke-opacity:1;paint-order:normal"
       d="m -83.590114,342.99984 96.8358,43.11407 53.6892,-120.588 -96.8358,-43.11408 z"
       id="rect15922"
       inkscape:connector-curvature="0" />
    <path
       style="opacity:1;fill:#000000;fill-opacity:1;fill-rule:nonzero;stroke:none;stroke-width:82.16307068;stroke-linecap:butt;stroke-linejoin:miter;stroke-miterlimit:4;stroke-dasharray:none;stroke-opacity:1;paint-order:normal"
       d="m -79.532214,348.63752 c -3.0367,-1.352 -6.5699,0.004 -7.9219,3.04093 l -4.1895,9.40964 c -1.352,3.03663 0,6.56991 3.041,7.9219 l 1.6442,0.73208 c 3.0367,1.35199 6.5699,-0.004 7.9219,-3.04094 -1.352,3.03663 0,6.5697 3.0405,7.92169 l 1.6447,0.7323 c 3.0367,1.35199 6.5695,-0.005 7.9215,-3.04115 l 4.1894,-9.40965 c 1.352,-3.03663 0,-6.56969 -3.0405,-7.92168 l -1.6447,-0.73229 c -3.0366,-1.35199 -6.5694,0.005 -7.9214,3.04114 1.352,-3.03663 0,-6.5699 -3.041,-7.92189 z"
       id="rect16157"
       inkscape:connector-curvature="0" />
    <path
       id="path17224"
       d="m 6.3407862,386.87065 c 3.0366,1.35199 4.3928998,4.88526 3.0409,7.92189 l -4.1894,9.40965 c -1.352,3.03663 -4.88530005,4.39292 -7.9219,3.04093 l -1.6443,-0.73208 c -3.0366,-1.35199 -4.3929,-4.88527 -3.0409,-7.92189 -1.352,3.03662 -4.8848002,4.39313 -7.9215002,3.04114 l -1.6447,-0.73229 c -3.0366,-1.352 -4.3925,-4.88506 -3.0405,-7.92168 l 4.1895,-9.40966 c 1.352,-3.03662 4.8848,-4.39313 7.9214002,-3.04114 l 1.6448,0.7323 c 3.0366,1.35199 4.3924,4.88505 3.0404,7.92167 1.352,-3.03662 4.8853,-4.39292 7.9219,-3.04092 z"
       style="opacity:1;fill:#000000;fill-opacity:1;fill-rule:nonzero;stroke:none;stroke-width:82.16307068;stroke-linecap:butt;stroke-linejoin:miter;stroke-miterlimit:4;stroke-dasharray:none;stroke-opacity:1;paint-order:normal"
       inkscape:connector-curvature="0" />
  </g>
</svg>
