<?xml version="1.0" encoding="UTF-8" standalone="no"?>
<!-- Created with Inkscape (http://www.inkscape.org/) -->

<svg
   xmlns:dc="http://purl.org/dc/elements/1.1/"
   xmlns:cc="http://creativecommons.org/ns#"
   xmlns:rdf="http://www.w3.org/1999/02/22-rdf-syntax-ns#"
   xmlns:svg="http://www.w3.org/2000/svg"
   xmlns="http://www.w3.org/2000/svg"
   xmlns:sodipodi="http://sodipodi.sourceforge.net/DTD/sodipodi-0.dtd"
   xmlns:inkscape="http://www.inkscape.org/namespaces/inkscape"
   width="650.76001mm"
   height="573.22198mm"
   viewBox="0 0 650.76001 573.22198"
   version="1.1"
   id="svg8"
   inkscape:version="0.92.2 (5c3e80d, 2017-08-06)"
   sodipodi:docname="11.svg">
  <defs
     id="defs2" />
  <sodipodi:namedview
     id="base"
     pagecolor="#ffffff"
     bordercolor="#666666"
     borderopacity="1.0"
     inkscape:pageopacity="0.0"
     inkscape:pageshadow="2"
     inkscape:zoom="0.24748737"
     inkscape:cx="1582.5405"
     inkscape:cy="626.04641"
     inkscape:document-units="mm"
     inkscape:current-layer="layer1"
     showgrid="false"
     inkscape:snap-global="false"
     inkscape:window-width="1920"
     inkscape:window-height="1057"
     inkscape:window-x="-8"
     inkscape:window-y="-8"
     inkscape:window-maximized="1"
     fit-margin-top="0"
     fit-margin-left="0"
     fit-margin-right="0"
     fit-margin-bottom="0" />
  <metadata
     id="metadata5">
    <rdf:RDF>
      <cc:Work
         rdf:about="">
        <dc:format>image/svg+xml</dc:format>
        <dc:type
           rdf:resource="http://purl.org/dc/dcmitype/StillImage" />
        <dc:title></dc:title>
      </cc:Work>
    </rdf:RDF>
  </metadata>
  <g
     inkscape:label="Layer 1"
     inkscape:groupmode="layer"
     id="layer1"
     transform="translate(0,362.82205)">
    <path
       sodipodi:nodetypes="cccc"
       inkscape:connector-curvature="0"
       id="path849"
       d="m 35.997656,174.39973 578.764784,-7e-5 -289.3824,-501.22492 z"
       style="fill:none;fill-opacity:1;stroke:#f00a0a;stroke-width:70.00043488;stroke-linejoin:round;stroke-miterlimit:4;stroke-dasharray:none;stroke-opacity:1" />
    <path
       style="fill:#ffd70f;fill-opacity:1;stroke:none;stroke-width:50.82842255;stroke-linejoin:round;stroke-miterlimit:4;stroke-dasharray:none;stroke-opacity:1"
       d="M 589.30184,159.70025 325.38022,-297.42603 61.458036,159.70021 Z"
       id="path860"
       inkscape:connector-curvature="0"
       sodipodi:nodetypes="cccc" />
    <path
       style="opacity:1;fill:#000000;fill-opacity:1;fill-rule:nonzero;stroke:none;stroke-width:1.02998459;stroke-linecap:butt;stroke-linejoin:miter;stroke-miterlimit:10;stroke-dasharray:none;stroke-opacity:1;paint-order:stroke fill markers"
       d="m 227.37979,-22.400364 -6.99957,14.2001696 v 7.0000896 H 202.88 V 12.800076 h 17.50022 v 62.99977 H 202.88 v 14.00018 h 17.50022 v 9.599927 h 13.99966 v -9.599927 h 34.99993 v 9.599927 h 14.00018 v -9.599927 h 34.99993 v 9.599927 h 14.00018 v -9.599927 h 34.99993 v 9.599927 h 14.00018 v -9.599927 h 34.99989 v 9.599927 h 13.9997 V 89.800026 H 447.88 V 75.799846 H 430.3798 V 12.800076 H 447.88 V -1.2001048 h -17.5002 v -7.0000896 l -6.9996,-14.2001696 -7.0001,14.2001696 v 7.0000896 h -34.99989 v -7.0000896 l -7.00009,-14.2001696 -7.00009,14.2001696 v 7.0000896 H 332.3801 v -7.0000896 l -7.00009,-14.2001696 -7.00009,14.2001696 v 7.0000896 h -34.99993 v -7.0000896 l -7.00009,-14.2001696 -7.00009,14.2001696 v 7.0000896 h -34.99993 v -7.0000896 z m 7.00009,35.20044 h 34.99993 v 62.99977 h -34.99993 z m 49.00011,0 h 34.99993 v 62.99977 h -34.99993 z m 49.00011,0 h 34.99993 v 62.99977 H 332.3801 Z m 49.00011,0 h 34.99989 v 62.99977 h -34.99989 z"
       id="rect6536"
       inkscape:connector-curvature="0" />
  </g>
</svg>
