<?xml version="1.0" encoding="UTF-8" standalone="no"?>
<!-- Created with Inkscape (http://www.inkscape.org/) -->

<svg
   xmlns:dc="http://purl.org/dc/elements/1.1/"
   xmlns:cc="http://creativecommons.org/ns#"
   xmlns:rdf="http://www.w3.org/1999/02/22-rdf-syntax-ns#"
   xmlns:svg="http://www.w3.org/2000/svg"
   xmlns="http://www.w3.org/2000/svg"
   xmlns:sodipodi="http://sodipodi.sourceforge.net/DTD/sodipodi-0.dtd"
   xmlns:inkscape="http://www.inkscape.org/namespaces/inkscape"
   width="650.76001mm"
   height="573.22198mm"
   viewBox="0 0 650.76001 573.22198"
   version="1.1"
   id="svg8"
   inkscape:version="0.92.2 (5c3e80d, 2017-08-06)"
   sodipodi:docname="11.svg">
  <defs
     id="defs2" />
  <sodipodi:namedview
     id="base"
     pagecolor="#ffffff"
     bordercolor="#666666"
     borderopacity="1.0"
     inkscape:pageopacity="0.0"
     inkscape:pageshadow="2"
     inkscape:zoom="0.24748737"
     inkscape:cx="1571.4852"
     inkscape:cy="845.01879"
     inkscape:document-units="mm"
     inkscape:current-layer="layer1"
     showgrid="false"
     inkscape:snap-global="false"
     inkscape:window-width="1920"
     inkscape:window-height="1057"
     inkscape:window-x="-8"
     inkscape:window-y="-8"
     inkscape:window-maximized="1" />
  <metadata
     id="metadata5">
    <rdf:RDF>
      <cc:Work
         rdf:about="">
        <dc:format>image/svg+xml</dc:format>
        <dc:type
           rdf:resource="http://purl.org/dc/dcmitype/StillImage" />
        <dc:title></dc:title>
      </cc:Work>
    </rdf:RDF>
  </metadata>
  <g
     inkscape:label="Layer 1"
     inkscape:groupmode="layer"
     id="layer1"
     transform="translate(0,276.22206)">
    <path
       sodipodi:nodetypes="cccc"
       inkscape:connector-curvature="0"
       id="path849"
       d="m 35.997656,260.99973 578.764724,-7e-5 -289.38235,-501.22492 z"
       style="fill:none;fill-opacity:1;stroke:#f00a0a;stroke-width:70.00043488;stroke-linejoin:round;stroke-miterlimit:4;stroke-dasharray:none;stroke-opacity:1" />
    <path
       style="fill:#ffd70f;fill-opacity:1;stroke:none;stroke-width:50.82842255;stroke-linejoin:round;stroke-miterlimit:4;stroke-dasharray:none;stroke-opacity:1"
       d="M 589.30188,246.30025 325.38021,-210.82603 61.458036,246.30021 Z"
       id="path860"
       inkscape:connector-curvature="0"
       sodipodi:nodetypes="cccc" />
    <g
       id="g2080"
       transform="matrix(7.9399247,0,0,-7.9399247,44.582677,166.11024)"
       style="fill:#ff6600;stroke:none" />
    <g
       id="g2084"
       transform="matrix(7.9399247,0,0,-7.9399247,44.582677,166.11024)"
       style="fill:#ff6600;stroke:none" />
    <g
       id="g2088"
       transform="matrix(7.9399247,0,0,-7.9399247,262.74023,166.11024)"
       style="fill:#ff6600;stroke:none" />
    <g
       id="g2092"
       transform="matrix(7.9399247,0,0,-7.9399247,262.74023,166.11024)"
       style="fill:#ff6600;stroke:none" />
    <g
       id="g17520"
       transform="matrix(7.9399247,0,0,-7.9399247,215.07306,-111.3324)"
       style="fill:#ff6600;stroke:none">
      <g
         id="g17524"
         transform="translate(0,-1.075)"
         style="fill:#ff6600;stroke:none">
        <g
           id="g17528"
           transform="translate(0,-2.389)"
           style="fill:#ff6600;stroke:none">
          <g
             id="g17532"
             transform="translate(0,-1.195)"
             style="fill:#ff6600;stroke:none">
            <g
               id="g17536"
               transform="translate(27.476,14.335)"
               style="fill:#ff6600;stroke:none">
              <g
                 id="g17540"
                 transform="translate(-19.113,17.56)"
                 style="fill:#ff6600;stroke:none">
                <g
                   id="g17544"
                   transform="translate(-13.857,-17.56)"
                   style="fill:#ff6600;stroke:none" />
                <path
                   style="opacity:1;fill:#000000;fill-opacity:1;fill-rule:nonzero;stroke:none;stroke-width:0.12188052;stroke-linecap:butt;stroke-linejoin:miter;stroke-miterlimit:10;stroke-dasharray:none;stroke-opacity:1;paint-order:stroke fill markers"
                   d="m 0.96495839,-35.547008 1.95925601,1.959256 15.5849946,-15.584997 -1.959256,-1.959256 z"
                   id="rect24823"
                   inkscape:connector-curvature="0" />
              </g>
            </g>
          </g>
        </g>
      </g>
    </g>
    <path
       style="opacity:1;fill:#000000;fill-opacity:1;fill-rule:nonzero;stroke:none;stroke-width:1;stroke-linecap:butt;stroke-linejoin:miter;stroke-miterlimit:10;stroke-dasharray:none;stroke-opacity:1;paint-order:stroke fill markers"
       d="M 194.97986,78.400209 150.38,209.99994 h 87.50008 v -18.1038 c 10.79418,0.49411 11.2823,8.70387 25.50026,8.70387 14.21811,0 14.70299,-8.20481 25.49766,-8.70024 10.7946,0.49387 11.28214,8.70024 25.50026,8.70024 14.21683,0 14.70957,-8.20833 25.50129,-8.70387 10.79167,0.49538 11.28337,8.70387 25.50025,8.70387 14.21821,0 14.70557,-8.20624 25.50025,-8.70024 9.82955,0.45106 11.11448,7.2925 22.00021,8.51265 v 9.58752 h 87.49957 L 455.77996,78.400209 h -42.8997 v 84.573141 c -7.96979,-1.57499 -9.42716,-8.37727 -22.00021,-8.37727 -14.21811,0 -14.21751,8.70387 -25.50025,8.70387 -11.28198,0 -11.28528,-8.70262 -25.50025,-8.70387 -14.2151,0 -14.21935,8.70387 -25.50129,8.70387 -11.28279,0 -11.28215,-8.70387 -25.50026,-8.70387 -14.21819,0 -14.21494,8.70387 -25.49766,8.70387 -11.28266,0 -11.28266,-8.70373 -25.50026,-8.70387 V 78.400209 Z m 42.90022,84.896111 c 10.79418,0.49414 11.2823,8.70387 25.50026,8.70387 14.21811,0 14.70299,-8.20478 25.49766,-8.70024 10.7946,0.49387 11.28214,8.70024 25.50026,8.70024 14.21683,0 14.70957,-8.20833 25.50129,-8.70387 10.79167,0.49541 11.28337,8.70387 25.50025,8.70387 14.21821,0 14.70557,-8.20624 25.50025,-8.70024 9.82955,0.45109 11.11448,7.292 22.00021,8.51215 v 19.76107 c -7.96974,-1.57504 -9.4272,-8.37727 -22.00021,-8.37727 -14.21811,0 -14.21751,8.70387 -25.50025,8.70387 -11.28198,0 -11.28528,-8.70262 -25.50025,-8.70387 -14.2151,0 -14.21935,8.70387 -25.50129,8.70387 -11.28279,0 -11.28215,-8.70387 -25.50026,-8.70387 -14.21819,0 -14.21494,8.70387 -25.49766,8.70387 -11.28266,0 -11.28266,-8.70374 -25.50026,-8.70387 z"
       id="rect24778"
       inkscape:connector-curvature="0" />
  </g>
</svg>
