<?xml version="1.0" encoding="UTF-8" standalone="no"?>
<!-- Created with Inkscape (http://www.inkscape.org/) -->

<svg
   xmlns:dc="http://purl.org/dc/elements/1.1/"
   xmlns:cc="http://creativecommons.org/ns#"
   xmlns:rdf="http://www.w3.org/1999/02/22-rdf-syntax-ns#"
   xmlns:svg="http://www.w3.org/2000/svg"
   xmlns="http://www.w3.org/2000/svg"
   xmlns:sodipodi="http://sodipodi.sourceforge.net/DTD/sodipodi-0.dtd"
   xmlns:inkscape="http://www.inkscape.org/namespaces/inkscape"
   width="650.76001mm"
   height="573.22198mm"
   viewBox="0 0 650.76001 573.22198"
   version="1.1"
   id="svg8"
   inkscape:version="0.92.2 (5c3e80d, 2017-08-06)"
   sodipodi:docname="11.svg">
  <defs
     id="defs2" />
  <sodipodi:namedview
     id="base"
     pagecolor="#ffffff"
     bordercolor="#666666"
     borderopacity="1.0"
     inkscape:pageopacity="0.0"
     inkscape:pageshadow="2"
     inkscape:zoom="0.175"
     inkscape:cx="1750.9127"
     inkscape:cy="982.57394"
     inkscape:document-units="mm"
     inkscape:current-layer="layer1"
     showgrid="false"
     inkscape:snap-global="false"
     inkscape:window-width="1920"
     inkscape:window-height="1057"
     inkscape:window-x="-8"
     inkscape:window-y="-8"
     inkscape:window-maximized="1" />
  <metadata
     id="metadata5">
    <rdf:RDF>
      <cc:Work
         rdf:about="">
        <dc:format>image/svg+xml</dc:format>
        <dc:type
           rdf:resource="http://purl.org/dc/dcmitype/StillImage" />
        <dc:title></dc:title>
      </cc:Work>
    </rdf:RDF>
  </metadata>
  <g
     inkscape:label="Layer 1"
     inkscape:groupmode="layer"
     id="layer1"
     transform="translate(0,276.22207)">
    <path
       sodipodi:nodetypes="cccc"
       inkscape:connector-curvature="0"
       id="path849"
       d="M 35.997656,260.99973 614.7624,260.99966 325.38,-240.22526 Z"
       style="fill:none;fill-opacity:1;stroke:#f00a0a;stroke-width:70.00043488;stroke-linejoin:round;stroke-miterlimit:4;stroke-dasharray:none;stroke-opacity:1" />
    <path
       style="fill:#ffd70f;fill-opacity:1;stroke:none;stroke-width:50.82842255;stroke-linejoin:round;stroke-miterlimit:4;stroke-dasharray:none;stroke-opacity:1"
       d="M 589.3018,246.30025 325.3802,-210.82603 61.458036,246.30021 Z"
       id="path860"
       inkscape:connector-curvature="0"
       sodipodi:nodetypes="cccc" />
    <g
       style="fill:#ff7f2a;stroke:none"
       transform="matrix(7.9444582,0,0,-7.9443003,284.7136,272.32489)"
       id="g14586" />
    <path
       style="opacity:1;fill:#000000;fill-opacity:1;fill-rule:nonzero;stroke:none;stroke-width:1;stroke-linecap:butt;stroke-linejoin:miter;stroke-miterlimit:10;stroke-dasharray:none;stroke-opacity:1;paint-order:stroke fill markers"
       d="m 205.79998,134.19995 h 293.2 l -30,52.8 c -21.5868,2.0247 -24.2404,0.45262 -37.2,-2 -6.3212,-1.32041 -20.2878,-12.00791 -39,-12.2 -2.768,0.1585 -11.4836,2.14842 -19.8,6.6 h 18 c 16.4956,0.54813 41.8239,14.18714 53,16.2 6.7354,0.93398 11.3642,1.0552 17.2,0 19.0681,-6.49315 24.0987,-8.90677 46.4,-10.5 9.1058,-0.53988 11.1979,0.94118 16.2,1.9 -6.7495,0.39661 -30.0496,3.2177 -39,8.6 -7.8227,5.19852 -22.6306,10.44667 -37,10.4 -10.2819,0.002 -25.7013,-5.90299 -35.8,-10.6 -13.024,-5.83928 -29.8175,-9.34847 -49.6,-9.4 -4.7881,-0.0454 -15.0026,1.1943 -22.4,2 -7.1566,-8.98676 -25.7422,-17.10052 -34,-17.2 h -19 c -3.1472,0.11563 -8.1724,1.34887 -12.8,3.9 13.6953,1.61891 24.8012,9.23898 30,15.7 -16.6097,-5.00155 -27.0087,-9.36692 -43.2,-9.2 -11.5887,0.3675 -39.9959,14.35834 -60.8,14.4 -16.8714,-0.0143 -28.0557,-16.09577 -50.4,-22.8 -13.63826,-3.48409 -20.81237,-1.50039 -20.79996,-3.8 v -2 c 0.0138,-2.38208 15.41796,-10.33597 28.39996,-4.8 l -12.2,-41.6 h 55 z"
       id="rect21209"
       inkscape:connector-curvature="0"
       sodipodi:nodetypes="ccccccccccccccccccccccccccccc" />
    <path
       style="opacity:1;fill:#000000;fill-opacity:1;fill-rule:nonzero;stroke:none;stroke-width:0.9997673;stroke-linecap:butt;stroke-linejoin:miter;stroke-miterlimit:10;stroke-dasharray:none;stroke-opacity:1;paint-order:stroke fill markers"
       d="m 147.99998,190.79996 c 9.9661,0.004 31.3142,8.96383 39.8,11.39469 13.2387,3.88052 15.4539,5.73232 36.1,2.7987 6.3554,-1.09753 22.6666,-12.92007 34.1,-13.19386 8.6024,0.15981 12.4893,3.70293 15.2,6.59693 l 13.4,16.99209 c -11.2236,-7.7056 -18.7637,-12.74588 -25.6,-13.19386 -6.7946,0.0493 -15.1713,4.40885 -26.7,9.39563 -14.164,5.76972 -21.866,6.98534 -37,5.7973 -12.572,-1.71475 -12.8251,-2.61052 -19.9,-5.69735 -6.6474,-3.33086 -23.8463,-11.81834 -29.4,-20.89027 z"
       id="rect21275"
       inkscape:connector-curvature="0"
       sodipodi:nodetypes="ccccccccccc" />
    <path
       style="opacity:1;fill:#000000;fill-opacity:1;fill-rule:nonzero;stroke:none;stroke-width:1.00209475;stroke-linecap:butt;stroke-linejoin:miter;stroke-miterlimit:10;stroke-dasharray:none;stroke-opacity:1;paint-order:stroke fill markers"
       d="m 384.29998,200.21513 c 2.5545,0.0622 10.8211,-0.34495 16.1225,0.92482 6.0891,2.07238 10.5125,5.20215 15.1775,7.61082 15.0787,7.5333 21.6392,6.67844 39.8,9.53984 -5.493,1.06204 -11.3945,1.92579 -18,1.90796 -9.9631,0.0332 -22.1653,-0.50485 -32.2,-4.82012 -4.5534,-2.01439 -19.0333,-8.95309 -26.6,-9.43941 -5.7749,-0.0938 -17.4949,1.38679 -30.4,4.82013 9.9026,-4.78841 24.2578,-10.54052 36.1,-10.54404 z"
       id="rect21278"
       inkscape:connector-curvature="0"
       sodipodi:nodetypes="ccccccccc" />
    <circle
       style="opacity:1;fill:#000000;fill-opacity:1;fill-rule:nonzero;stroke:none;stroke-width:1.30089951;stroke-linecap:butt;stroke-linejoin:miter;stroke-miterlimit:10;stroke-dasharray:none;stroke-opacity:1;paint-order:stroke fill markers"
       id="path22117"
       cx="254.00003"
       cy="113.79994"
       r="20.4" />
    <circle
       r="20.4"
       cy="113.79994"
       cx="409.39993"
       id="circle22119"
       style="opacity:1;fill:#000000;fill-opacity:1;fill-rule:nonzero;stroke:none;stroke-width:1.30089951;stroke-linecap:butt;stroke-linejoin:miter;stroke-miterlimit:10;stroke-dasharray:none;stroke-opacity:1;paint-order:stroke fill markers" />
    <path
       style="opacity:1;fill:#000000;fill-opacity:1;fill-rule:nonzero;stroke:none;stroke-width:1;stroke-linecap:butt;stroke-linejoin:miter;stroke-miterlimit:10;stroke-dasharray:none;stroke-opacity:1;paint-order:stroke fill markers"
       d="m 221.99998,88.599951 c 0.017,-3.0911 3.5849,-7.06261 7.6,-7.6 l 62.6,-6.6 19,-28.4 c 3.8643,-5.86605 7.2862,-11.13009 12.4,-11.4 l 64.4,-1 c 6.7386,0.0276 16.9147,5.24879 23.8,12 l 28.4,28.8 21.8,8.6 c 0.5365,0.21768 1.003,0.53372 1,0.8 v 28.600009 l -29.4,2.8 -200.2,1 c -5.1743,-0.006 -11.3543,-4.0936 -11.4,-6.6 z"
       id="rect22121"
       inkscape:connector-curvature="0"
       sodipodi:nodetypes="ccccccccccccccc" />
    <path
       style="opacity:1;fill:#ffd70f;fill-opacity:1;fill-rule:nonzero;stroke:none;stroke-width:1;stroke-linecap:butt;stroke-linejoin:miter;stroke-miterlimit:10;stroke-dasharray:none;stroke-opacity:1;paint-order:stroke fill markers"
       d="m 321.59998,44.999951 h 39.8 v 28.4 h -58.8 z"
       id="rect22468"
       inkscape:connector-curvature="0"
       sodipodi:nodetypes="ccccc" />
    <path
       style="opacity:1;fill:#ffd70f;fill-opacity:1;fill-rule:nonzero;stroke:none;stroke-width:1;stroke-linecap:butt;stroke-linejoin:miter;stroke-miterlimit:10;stroke-dasharray:none;stroke-opacity:1;paint-order:stroke fill markers"
       d="m 366.99998,44.999951 h 25.8 l 27.4,28.4 h -53.2 z"
       id="rect22471"
       inkscape:connector-curvature="0"
       sodipodi:nodetypes="ccccc" />
  </g>
</svg>
