<?xml version="1.0" encoding="UTF-8" standalone="no"?>
<!-- Created with Inkscape (http://www.inkscape.org/) -->

<svg
   xmlns:dc="http://purl.org/dc/elements/1.1/"
   xmlns:cc="http://creativecommons.org/ns#"
   xmlns:rdf="http://www.w3.org/1999/02/22-rdf-syntax-ns#"
   xmlns:svg="http://www.w3.org/2000/svg"
   xmlns="http://www.w3.org/2000/svg"
   xmlns:sodipodi="http://sodipodi.sourceforge.net/DTD/sodipodi-0.dtd"
   xmlns:inkscape="http://www.inkscape.org/namespaces/inkscape"
   width="650.76001mm"
   height="573.22198mm"
   viewBox="0 0 650.76001 573.22198"
   version="1.1"
   id="svg8"
   inkscape:version="0.92.2 (5c3e80d, 2017-08-06)"
   sodipodi:docname="11.svg">
  <defs
     id="defs2" />
  <sodipodi:namedview
     id="base"
     pagecolor="#ffffff"
     bordercolor="#666666"
     borderopacity="1.0"
     inkscape:pageopacity="0.0"
     inkscape:pageshadow="2"
     inkscape:zoom="0.24748737"
     inkscape:cx="1485.7355"
     inkscape:cy="865.53922"
     inkscape:document-units="mm"
     inkscape:current-layer="layer1"
     showgrid="false"
     inkscape:snap-global="false"
     inkscape:window-width="1920"
     inkscape:window-height="1057"
     inkscape:window-x="-8"
     inkscape:window-y="-8"
     inkscape:window-maximized="1"
     showguides="false" />
  <metadata
     id="metadata5">
    <rdf:RDF>
      <cc:Work
         rdf:about="">
        <dc:format>image/svg+xml</dc:format>
        <dc:type
           rdf:resource="http://purl.org/dc/dcmitype/StillImage" />
        <dc:title></dc:title>
      </cc:Work>
    </rdf:RDF>
  </metadata>
  <g
     inkscape:label="Layer 1"
     inkscape:groupmode="layer"
     id="layer1"
     transform="translate(0,276.22206)">
    <path
       sodipodi:nodetypes="cccc"
       inkscape:connector-curvature="0"
       id="path849"
       d="m 35.997656,260.99973 578.764704,-7e-5 -289.3824,-501.22492 z"
       style="fill:none;fill-opacity:1;stroke:#f00a0a;stroke-width:70.00043488;stroke-linejoin:round;stroke-miterlimit:4;stroke-dasharray:none;stroke-opacity:1" />
    <path
       style="fill:#ffd70f;fill-opacity:1;stroke:none;stroke-width:50.82842255;stroke-linejoin:round;stroke-miterlimit:4;stroke-dasharray:none;stroke-opacity:1"
       d="M 589.30186,246.30025 325.38016,-210.82603 61.457956,246.30021 Z"
       id="path860"
       inkscape:connector-curvature="0"
       sodipodi:nodetypes="cccc" />
    <g
       style="fill:#a05a2c;stroke:none"
       transform="matrix(7.9226032,0,0,-7.9188072,351.3873,-18.983126)"
       id="g24839" />
    <g
       style="fill:#a05a2c;stroke:none"
       transform="matrix(7.9226032,0,0,-7.9188072,351.3873,-18.983126)"
       id="g24843" />
    <g
       style="fill:#a05a2c;stroke:none"
       transform="matrix(7.9226032,0,0,-7.9188072,341.91977,-16.148286)"
       id="g24863" />
    <g
       style="fill:#a05a2c;stroke:none"
       transform="matrix(7.9226032,0,0,-7.9188072,341.91977,-16.148286)"
       id="g24867" />
    <g
       style="fill:#a05a2c;stroke:none"
       transform="matrix(7.9226032,0,0,-7.9188072,341.91977,-16.148286)"
       id="g24871" />
    <path
       style="opacity:1;fill:#000000;fill-opacity:1;fill-rule:nonzero;stroke:none;stroke-width:58.16970825;stroke-linecap:butt;stroke-linejoin:miter;stroke-miterlimit:4;stroke-dasharray:none;stroke-opacity:1;paint-order:normal"
       d="m 354.8706,-13.758711 c -25.053,-5.70295 -37.7424,-5.34827 -41.5349,-5.15583 -2.5905,0.33936 -4.8633,0.47961 -7.7938,3.48621 L 284.7569,8.0989197 C 277.3523,14.261619 270.5637,23.799069 268.8517,31.203589 l -0.7109,3.07903 c -1.8385,8.17753 -4.3447,26.46458 -4.8262,38.68535 l -4.2516,18.41574 19.8774,4.58907 4.2516,-18.41574 96.0726,22.180098 -4.2516,18.415733 19.8774,4.58907 4.2516,-18.41573 c 4.9245,-11.195051 10.6884,-28.730001 12.6208,-36.885851 l 0.7108,-3.07903 c 1.7096,-7.40508 -0.2135,-18.95377 -4.1671,-27.73874 L 399.9387,6.3648897 c -1.3159,-3.98697 -3.2971,-5.10933 -5.4768,-6.54997998 -3.3242,-1.83546002 -14.574,-7.71693002 -39.5913,-13.57362072 z"
       id="path25009"
       inkscape:connector-curvature="0"
       sodipodi:nodetypes="cccccccccccccccccccc" />
    <path
       style="opacity:1;fill:#ffd70f;fill-opacity:1;fill-rule:nonzero;stroke:none;stroke-width:58.16970825;stroke-linecap:butt;stroke-linejoin:miter;stroke-miterlimit:4;stroke-dasharray:none;stroke-opacity:1;paint-order:normal"
       d="m 353.2622,-6.7920103 c -14.9662,-3.4324207 -34.0084,-6.8205107 -38.1404,-7.2763807 -2.4752,0.0877 -3.2581,0.38307 -5.5966,2.81287 l -21.3124,25.09947 114.4691,26.42728 -8.1526,-31.9020093 c -1.0366,-3.20898 -1.6104,-3.81759 -3.7965,-4.98143 -3.9138,-1.40167 -22.5146,-6.70404 -37.4706,-10.1798 z"
       id="path25011"
       inkscape:connector-curvature="0"
       sodipodi:nodetypes="cccccccc" />
    <path
       style="opacity:1;fill:#000000;fill-opacity:1;fill-rule:nonzero;stroke:none;stroke-width:1;stroke-linecap:butt;stroke-linejoin:miter;stroke-miterlimit:10;stroke-dasharray:none;stroke-opacity:1;paint-order:stroke fill markers"
       d="m 254.1,102.09994 15.1,2.9 c -11.5996,10.06305 -15.1197,14.06524 -20.8,22.6 -3.2316,5.63785 -3.0962,9.43973 -1,12.4 3.1723,4.56782 24.6015,9.64822 44.6,11.2 10.6614,-17.5176 52.6253,-26.16427 81.4,-32.1 l 19.8,8.5 c -59.6458,15.86274 -58.4279,11.52401 -83.3,25.6 22.6936,2.81617 39.4851,4.45184 53.1,10.4 9.4248,4.62802 15.1023,11.27568 15.1,17.9 0.012,17.80607 -6.222,28.49646 -14.3,44.5 l -16.9,-6.6 c 7.1006,-15.15204 14.2498,-29.36509 13.2,-37.8 -1.3477,-7.28307 -5.9037,-9.00303 -8.5,-10.5 -14.9506,-6.74356 -30.3643,-7.92329 -49.2,-10.4 -1.1292,6.15847 4.8514,25.92644 5.64,42.6 0.3231,6.56733 -1.9841,13.41142 -7.64,22.7 h -18.9 l 8.5,-11.4 c 4.7281,-6.53094 4.5009,-14.30531 3.8,-19.8 -0.394,-3.47093 -6.5392,-21.15413 -5.6,-35 -27.1552,-6.3e-4 -60.5819,-9.29071 -60.6,-25.8 0,-13.18304 15.4074,-29.05544 26.5,-31.9 z"
       id="rect25527"
       inkscape:connector-curvature="0"
       sodipodi:nodetypes="ccccccccccccccccccccccc" />
  </g>
</svg>
