<?xml version="1.0" encoding="UTF-8" standalone="no"?>
<!-- Created with Inkscape (http://www.inkscape.org/) -->

<svg
   xmlns:dc="http://purl.org/dc/elements/1.1/"
   xmlns:cc="http://creativecommons.org/ns#"
   xmlns:rdf="http://www.w3.org/1999/02/22-rdf-syntax-ns#"
   xmlns:svg="http://www.w3.org/2000/svg"
   xmlns="http://www.w3.org/2000/svg"
   xmlns:sodipodi="http://sodipodi.sourceforge.net/DTD/sodipodi-0.dtd"
   xmlns:inkscape="http://www.inkscape.org/namespaces/inkscape"
   width="650.76001mm"
   height="573.22198mm"
   viewBox="0 0 650.76001 573.22198"
   version="1.1"
   id="svg8"
   inkscape:version="0.92.2 (5c3e80d, 2017-08-06)"
   sodipodi:docname="11.svg">
  <defs
     id="defs2" />
  <sodipodi:namedview
     id="base"
     pagecolor="#ffffff"
     bordercolor="#666666"
     borderopacity="1.0"
     inkscape:pageopacity="0.0"
     inkscape:pageshadow="2"
     inkscape:zoom="0.24748737"
     inkscape:cx="1905.6846"
     inkscape:cy="640.3653"
     inkscape:document-units="mm"
     inkscape:current-layer="layer1"
     showgrid="false"
     inkscape:snap-global="false"
     inkscape:window-width="1920"
     inkscape:window-height="1057"
     inkscape:window-x="-8"
     inkscape:window-y="-8"
     inkscape:window-maximized="1"
     showguides="false" />
  <metadata
     id="metadata5">
    <rdf:RDF>
      <cc:Work
         rdf:about="">
        <dc:format>image/svg+xml</dc:format>
        <dc:type
           rdf:resource="http://purl.org/dc/dcmitype/StillImage" />
        <dc:title></dc:title>
      </cc:Work>
    </rdf:RDF>
  </metadata>
  <g
     inkscape:label="Layer 1"
     inkscape:groupmode="layer"
     id="layer1"
     transform="translate(0,276.22208)">
    <path
       sodipodi:nodetypes="cccc"
       inkscape:connector-curvature="0"
       id="path849"
       d="m 35.997656,260.99971 578.764704,-7e-5 -289.3824,-501.22495 z"
       style="fill:none;fill-opacity:1;stroke:#f00a0a;stroke-width:70.00043488;stroke-linejoin:round;stroke-miterlimit:4;stroke-dasharray:none;stroke-opacity:1" />
    <path
       style="fill:#ffd70f;fill-opacity:1;stroke:none;stroke-width:50.82842255;stroke-linejoin:round;stroke-miterlimit:4;stroke-dasharray:none;stroke-opacity:1"
       d="M 589.30186,246.30023 325.38016,-210.82601 61.457956,246.30019 Z"
       id="path860"
       inkscape:connector-curvature="0"
       sodipodi:nodetypes="cccc" />
    <g
       style="fill:#a05a2c;stroke:none"
       transform="matrix(7.9226032,0,0,-7.9188072,351.3873,-18.983126)"
       id="g24839" />
    <g
       style="fill:#a05a2c;stroke:none"
       transform="matrix(7.9226032,0,0,-7.9188072,351.3873,-18.983126)"
       id="g24843" />
    <g
       style="fill:#a05a2c;stroke:none"
       transform="matrix(7.9226032,0,0,-7.9188072,341.91977,-16.148286)"
       id="g24863" />
    <g
       style="fill:#a05a2c;stroke:none"
       transform="matrix(7.9226032,0,0,-7.9188072,341.91977,-16.148286)"
       id="g24867" />
    <g
       style="fill:#a05a2c;stroke:none"
       transform="matrix(7.9226032,0,0,-7.9188072,341.91977,-16.148286)"
       id="g24871" />
    <g
       id="g3700"
       transform="matrix(7.9375728,0,0,-7.873816,202.72776,290.40968)"
       style="fill:#c87137;stroke:none" />
    <g
       id="g3812"
       transform="matrix(7.9375728,0,0,-7.873816,201.7751,291.34665)"
       style="fill:#c87137;stroke:none" />
    <path
       sodipodi:nodetypes="cccccccccccccccccccc"
       inkscape:connector-curvature="0"
       id="path14297"
       d="m 383.3506,50.741249 c -25.053,-5.70295 -37.7424,-5.34827 -41.5349,-5.15583 -2.5905,0.33936 -4.8633,0.47961 -7.7938,3.48621 l -20.785,23.52725 c -7.4046,6.1627 -14.1932,15.70015 -15.9052,23.10467 l -0.7109,3.07903 c -1.8385,8.177531 -4.3447,26.464581 -4.8262,38.685351 l -4.2516,18.41574 19.8774,4.58907 4.2516,-18.41574 96.0726,22.1801 -4.2516,18.41573 19.8774,4.58907 4.2516,-18.41573 c 4.9245,-11.19505 10.6884,-28.73 12.6208,-36.88585 l 0.7108,-3.07903 c 1.7096,-7.40508 -0.2135,-18.95377 -4.1671,-27.73874 l -8.3678,-30.257701 c -1.3159,-3.98697 -3.2971,-5.10933 -5.4768,-6.54998 -3.3242,-1.83546 -14.574,-7.71693 -39.5913,-13.57362 z"
       style="opacity:1;fill:#000000;fill-opacity:1;fill-rule:nonzero;stroke:none;stroke-width:58.16970825;stroke-linecap:butt;stroke-linejoin:miter;stroke-miterlimit:4;stroke-dasharray:none;stroke-opacity:1;paint-order:normal" />
    <path
       sodipodi:nodetypes="cccccccc"
       inkscape:connector-curvature="0"
       id="path14299"
       d="m 381.7422,57.707949 c -14.9662,-3.43242 -34.0084,-6.82051 -38.1404,-7.27638 -2.4752,0.0877 -3.2581,0.38307 -5.5966,2.81287 l -21.3124,25.09947 114.4691,26.427281 -8.1526,-31.902011 c -1.0366,-3.20898 -1.6104,-3.81759 -3.7965,-4.98143 -3.9138,-1.40167 -22.5146,-6.70404 -37.4706,-10.1798 z"
       style="opacity:1;fill:#ffd70f;fill-opacity:1;fill-rule:nonzero;stroke:none;stroke-width:58.16970825;stroke-linecap:butt;stroke-linejoin:miter;stroke-miterlimit:4;stroke-dasharray:none;stroke-opacity:1;paint-order:normal" />
    <path
       style="opacity:1;fill:#000000;fill-opacity:1;fill-rule:nonzero;stroke:none;stroke-width:1.25454152;stroke-linecap:butt;stroke-linejoin:miter;stroke-miterlimit:10;stroke-dasharray:none;stroke-opacity:1;paint-order:stroke fill markers"
       d="m 185.38,160.99992 h 140 v 35 h -140 z"
       id="rect14649"
       inkscape:connector-curvature="0" />
    <path
       style="opacity:1;fill:#000000;fill-opacity:1;fill-rule:nonzero;stroke:none;stroke-width:1;stroke-linecap:butt;stroke-linejoin:miter;stroke-miterlimit:10;stroke-dasharray:none;stroke-opacity:1;paint-order:stroke fill markers"
       d="m 347.38,175.29964 0.9,9e-5 0.9,0.90017 v 1.9 l -1.8,0.9 -1,-0.9 v -1.9 z"
       id="rect14661"
       inkscape:connector-curvature="0"
       sodipodi:nodetypes="cccccccc" />
    <path
       sodipodi:nodetypes="cccccccc"
       inkscape:connector-curvature="0"
       id="path14664"
       d="m 353.98,185.5999 1.9,1 v 2.8 l -1.9,1 -1,-1 h -0.9 v -1.9 z"
       style="opacity:1;fill:#000000;fill-opacity:1;fill-rule:nonzero;stroke:none;stroke-width:1;stroke-linecap:butt;stroke-linejoin:miter;stroke-miterlimit:10;stroke-dasharray:none;stroke-opacity:1;paint-order:stroke fill markers" />
    <path
       style="opacity:1;fill:#000000;fill-opacity:1;fill-rule:nonzero;stroke:none;stroke-width:1;stroke-linecap:butt;stroke-linejoin:miter;stroke-miterlimit:10;stroke-dasharray:none;stroke-opacity:1;paint-order:stroke fill markers"
       d="m 361.58,178.9999 h 1.8 l 1,1 v 1 l -1,0.9 h -1.8 l -1,-0.9 v -1 z"
       id="path14666"
       inkscape:connector-curvature="0"
       sodipodi:nodetypes="ccccccccc" />
    <path
       sodipodi:nodetypes="ccccccc"
       inkscape:connector-curvature="0"
       id="path14668"
       d="m 365.38,193.1999 h 2.8 v 1.8 l -0.9,1 h -1 l -0.9,-1 z"
       style="opacity:1;fill:#000000;fill-opacity:1;fill-rule:nonzero;stroke:none;stroke-width:1;stroke-linecap:butt;stroke-linejoin:miter;stroke-miterlimit:10;stroke-dasharray:none;stroke-opacity:1;paint-order:stroke fill markers" />
    <path
       style="opacity:1;fill:#000000;fill-opacity:1;fill-rule:nonzero;stroke:none;stroke-width:1;stroke-linecap:butt;stroke-linejoin:miter;stroke-miterlimit:10;stroke-dasharray:none;stroke-opacity:1;paint-order:stroke fill markers"
       d="m 372.98,186.5999 h 1.8 l 1,1 -1.9,1.8 -0.9,-1 z"
       id="path14670"
       inkscape:connector-curvature="0"
       sodipodi:nodetypes="cccccc" />
    <path
       sodipodi:nodetypes="cccccc"
       inkscape:connector-curvature="0"
       id="path14672"
       d="m 374.78,175.29973 1.9,1.90017 -0.9,0.9 h -1.9 v -1.9 z"
       style="opacity:1;fill:#000000;fill-opacity:1;fill-rule:nonzero;stroke:none;stroke-width:1;stroke-linecap:butt;stroke-linejoin:miter;stroke-miterlimit:10;stroke-dasharray:none;stroke-opacity:1;paint-order:stroke fill markers" />
    <path
       style="opacity:1;fill:#000000;fill-opacity:1;fill-rule:nonzero;stroke:none;stroke-width:1;stroke-linecap:butt;stroke-linejoin:miter;stroke-miterlimit:10;stroke-dasharray:none;stroke-opacity:1;paint-order:stroke fill markers"
       d="m 386.18,181.8999 h 1 v 0.9 l -1,1 h -1.9 v -1.9 l 0.97811,-1 z"
       id="path14674"
       inkscape:connector-curvature="0"
       sodipodi:nodetypes="cccccccc" />
    <path
       style="opacity:1;fill:#000000;fill-opacity:1;fill-rule:nonzero;stroke:none;stroke-width:1;stroke-linecap:butt;stroke-linejoin:miter;stroke-miterlimit:10;stroke-dasharray:none;stroke-opacity:1;paint-order:stroke fill markers"
       d="m 388.18,189.3999 h 0.9 v 0.5 l 0.9,0.5 v 1.8 l -1,1 h -0.8 l -1,-1 v -1.8 z"
       id="rect14676"
       inkscape:connector-curvature="0"
       sodipodi:nodetypes="cccccccccc" />
    <path
       style="opacity:1;fill:#000000;fill-opacity:1;fill-rule:nonzero;stroke:none;stroke-width:1;stroke-linecap:butt;stroke-linejoin:miter;stroke-miterlimit:10;stroke-dasharray:none;stroke-opacity:1;paint-order:stroke fill markers"
       d="m 401.38,188.3999 0.9,-0.9 1,1 h 0.9 v 0.9 h -0.9 l -1,1 -0.9,-1 z"
       id="rect14681"
       inkscape:connector-curvature="0"
       sodipodi:nodetypes="ccccccccc" />
    <path
       style="opacity:1;fill:#000000;fill-opacity:1;fill-rule:nonzero;stroke:none;stroke-width:1;stroke-linecap:butt;stroke-linejoin:miter;stroke-miterlimit:10;stroke-dasharray:none;stroke-opacity:1;paint-order:stroke fill markers"
       d="m 406.18,193.1999 0.9,0.9 h 0.9 v 1 l -0.9,0.9 h -1.9 v -1.9 z"
       id="rect14684"
       inkscape:connector-curvature="0"
       sodipodi:nodetypes="cccccccc" />
    <path
       style="opacity:1;fill:#000000;fill-opacity:1;fill-rule:nonzero;stroke:none;stroke-width:1;stroke-linecap:butt;stroke-linejoin:miter;stroke-miterlimit:10;stroke-dasharray:none;stroke-opacity:1;paint-order:stroke fill markers"
       d="m 411.78,185.5999 h 2.9 v 1.9 h -1 v 1 h -0.9 l -1,-1 z"
       id="rect14687"
       inkscape:connector-curvature="0"
       sodipodi:nodetypes="cccccccc" />
    <path
       style="opacity:1;fill:#000000;fill-opacity:1;fill-rule:nonzero;stroke:none;stroke-width:1;stroke-linecap:butt;stroke-linejoin:miter;stroke-miterlimit:10;stroke-dasharray:none;stroke-opacity:1;paint-order:stroke fill markers"
       d="m 421.28,190.3999 v -1 h 1 l 1.9,1.9 -1.9,1.9 h -1 v -1 l -0.9,-0.9 v -0.9 z"
       id="rect14690"
       inkscape:connector-curvature="0"
       sodipodi:nodetypes="cccccccccc" />
    <path
       style="opacity:1;fill:#000000;fill-opacity:1;fill-rule:nonzero;stroke:none;stroke-width:1;stroke-linecap:butt;stroke-linejoin:miter;stroke-miterlimit:10;stroke-dasharray:none;stroke-opacity:1;paint-order:stroke fill markers"
       d="m 428.88,184.6999 v -0.9 l 1.9,1.9 -0.95,0.9 h -0.95 l -0.95,-0.95 z"
       id="rect14693"
       inkscape:connector-curvature="0"
       sodipodi:nodetypes="ccccccc" />
  </g>
</svg>
