<?xml version="1.0" encoding="UTF-8" standalone="no"?>
<!-- Created with Inkscape (http://www.inkscape.org/) -->

<svg
   xmlns:dc="http://purl.org/dc/elements/1.1/"
   xmlns:cc="http://creativecommons.org/ns#"
   xmlns:rdf="http://www.w3.org/1999/02/22-rdf-syntax-ns#"
   xmlns:svg="http://www.w3.org/2000/svg"
   xmlns="http://www.w3.org/2000/svg"
   xmlns:sodipodi="http://sodipodi.sourceforge.net/DTD/sodipodi-0.dtd"
   xmlns:inkscape="http://www.inkscape.org/namespaces/inkscape"
   width="650.76001mm"
   height="573.22198mm"
   viewBox="0 0 650.76001 573.22198"
   version="1.1"
   id="svg8"
   inkscape:version="0.92.2 (5c3e80d, 2017-08-06)"
   sodipodi:docname="Vietnam_road_sign_W225.svg">
  <defs
     id="defs2" />
  <sodipodi:namedview
     id="base"
     pagecolor="#ffffff"
     bordercolor="#666666"
     borderopacity="1.0"
     inkscape:pageopacity="0.0"
     inkscape:pageshadow="2"
     inkscape:zoom="0.175"
     inkscape:cx="1352.2103"
     inkscape:cy="727.83518"
     inkscape:document-units="mm"
     inkscape:current-layer="layer1"
     showgrid="false"
     inkscape:snap-global="false"
     inkscape:window-width="1920"
     inkscape:window-height="1057"
     inkscape:window-x="-8"
     inkscape:window-y="-8"
     inkscape:window-maximized="1" />
  <metadata
     id="metadata5">
    <rdf:RDF>
      <cc:Work
         rdf:about="">
        <dc:format>image/svg+xml</dc:format>
        <dc:type
           rdf:resource="http://purl.org/dc/dcmitype/StillImage" />
        <dc:title></dc:title>
      </cc:Work>
    </rdf:RDF>
  </metadata>
  <g
     inkscape:label="Layer 1"
     inkscape:groupmode="layer"
     id="layer1"
     transform="translate(0,276.22208)">
    <path
       sodipodi:nodetypes="cccc"
       inkscape:connector-curvature="0"
       id="path849"
       d="m 35.997656,260.99971 578.764744,-7e-5 -289.38237,-501.22492 z"
       style="fill:none;fill-opacity:1;stroke:#f00a0a;stroke-width:70.00043488;stroke-linejoin:round;stroke-miterlimit:4;stroke-dasharray:none;stroke-opacity:1" />
    <path
       style="fill:#ffd70f;fill-opacity:1;stroke:none;stroke-width:50.82842255;stroke-linejoin:round;stroke-miterlimit:4;stroke-dasharray:none;stroke-opacity:1"
       d="M 589.30185,246.30023 325.38021,-210.82605 61.458036,246.30019 Z"
       id="path860"
       inkscape:connector-curvature="0"
       sodipodi:nodetypes="cccc" />
    <g
       id="g12408"
       transform="matrix(7.9615422,0,0,-7.9908669,97.01123,128.04904)"
       style="fill:#ff6600;stroke:none" />
    <g
       id="g12432"
       transform="matrix(7.9615422,0,0,-7.9908669,96.06382,128.99994)"
       style="fill:#ff6600;stroke:none" />
    <g
       id="g15448"
       transform="matrix(7.9615422,0,0,-7.9908669,62.7767,230.18818)"
       style="fill:#ff6600;stroke:none" />
    <path
       inkscape:connector-curvature="0"
       style="fill:#000000;fill-opacity:1;fill-rule:nonzero;stroke:none;stroke-width:1.687186"
       d="m 273.62888,39.547107 c -7.03535,-2.85715 -7.43183,-12.95397 -7.39824,-15.72058 -0.0341,-6.2831 2.37202,-23.87178999 19.60771,-23.8265199744627 C 303.24202,-0.04689297 305.35194,19.489107 305.27802,22.999117 c 0.0741,2.93468 1.24986,13.82012 -11.52403,17.21375 -0.61825,0.14869 -2.01591,1.07306 -1.72021,2.15255 0.38326,0.95668 0.81305,1.27988 2.40561,1.15707 1.48499,-0.24579 4.51554,-0.71107 5.67802,-0.8274 1.14907,-0.16136 3.02382,-0.85326 6.02071,0.989 1.45145,0.80803 21.52278,10.67215 34.57885,27.30415 0.53087,0.79509 2.3586,2.74078 1.02814,6.28958 l -9.80385,27.304153 c 0,0 -1.37752,2.74724 0.69212,3.97538 1.97554,1.36394 9.09154,4.14345 10.32122,4.4667 1.08187,0.22609 3.29259,1.0601 5.5033,-2.15255 -5.07323,7.28499 17.7195,-28.357803 25.80313,-36.075903 0.75932,-0.78861 1.43126,-2.54685 -0.34279,-3.80736 -1.81428,-1.3962 -10.47579,-7.47243 -10.49593,-17.70501 0.0195,-10.25201 7.52589,-17.1039 17.20204,-17.04573 9.56867,-0.0582 17.45745,7.03933 17.3768,18.04115 0.0805,7.38843 -5.05309,13.18669 -6.19543,14.3955 -1.16921,1.13766 -1.16921,4.09818 2.23763,3.9689 3.26567,-0.0582 8.20456,-0.48478 11.52402,0.33633 7.44529,1.5449 18.28397,5.20357 24.60033,12.07489 2.80204,3.15444 10.13309,13.99466 12.04143,18.370823 2.90961,6.63213 3.3531,18.2157 2.74831,24.82199 -0.17457,0.93079 -0.0805,1.94569 0.17457,2.65024 0.41642,0.68522 1.47831,1.37684 1.5455,4.29862 -0.0673,2.81831 -2.76172,6.24425 -7.90892,6.28952 -3.22539,-0.0469 -9.09826,-2.72782 -9.11845,-8.44207 0.0195,-2.54038 1.70676,-4.27272 2.58033,-5.29404 0.94744,-1.12475 2.08978,-4.1564 0.34279,-7.94434 -3.21872,-7.42075 -9.14532,-17.20732 -21.50258,-21.842043 0,0 -0.0941,3.568133 -0.16823,4.466643 0.0741,10.10978 9.82399,40.72356 25.4537,46.67052 l 31.82385,13.8977 c 0,0 -5.88638,26.34101 -6.18875,27.9635 -0.47055,1.52553 -1.62611,2.91531 -3.09769,2.97995 -1.41112,-0.0647 -2.76177,-1.91983 -2.92303,-3.47121 -0.0244,-1.40915 -0.98776,-10.38771 -1.03482,-11.25391 -0.14775,-0.80156 -0.63166,-3.57465 -4.81791,-4.96442 -4.28036,-1.38974 -27.08659,-8.70062 -28.55144,-9.26943 -1.6127,-0.54301 -7.47884,-2.21071 -12.55884,-7.44659 -4.93216,-5.12602 -13.68773,-14.84797 -14.27907,-16.05026 0,0 -18.00841,37.85998 -21.84528,68.01481 l -24.60032,-5.46216 c 0,0 -0.81306,-0.38136 -1.72022,0.32976 -1.02137,0.64644 -5.12701,2.6826 -6.02072,3.14155 -0.77278,0.40716 -3.01709,0.77571 -3.78309,-0.16183 -0.64511,-0.91789 -0.5846,-2.33351 -0.34279,-3.63924 l 3.26567,-17.71149 c 0,0 0.90717,-2.55333 -1.72017,-4.13703 -8.05008,-4.57654 -32.58316,-25.0288 -38.01259,-31.77084 -1.49172,-1.72588 -5.20767,-5.79826 -10.83863,-5.79179 -5.65788,-0.005 -12.72015,0.11633 -17.0341,-0.989 -4.40802,-1.11181 -7.23025,1.35746 -7.39151,5.12598 -0.69885,21.95842 -8.17769,33.46445 -11.35608,37.40103 -5.88633,7.34317 -6.53813,12.9863 -7.22353,17.20733 -0.24868,1.60312 -0.88697,7.03291 -6.02071,6.94886 -2.08306,0.084 -2.46608,-0.47184 -4.13252,-0.82736 -1.60602,-0.38793 -21.81168,-5.01612 -22.70539,-5.12602 -1.03482,-0.25847 -2.86256,-1.37037 -2.58033,-2.65029 0.2955,-1.31219 1.63957,-2.32704 3.09769,-2.48216 1.62616,-0.0328 11.81972,-0.95669 12.90159,-1.15708 4.01159,-0.61407 5.69816,-0.989 7.22353,-5.79178 0.64507,-2.06206 14.02369,-48.28005 14.45377,-52.78548 0,0 -5.94679,-0.80156 -9.11845,-3.64577 0,0 16.50996,-21.96484 23.04809,-53.780913 0,0 -11.66514,24.039813 -39.73277,36.243923 -1.86129,0.8145 -3.01704,1.18297 -4.13251,1.98448 -1.41112,0.93083 -3.59497,2.10727 -5.50331,2.15254 -1.94198,-0.0469 -7.2639,-2.02322 -7.22352,-6.78726 -0.039,-4.86095 4.51554,-6.2831 5.32859,-6.61919 5.20093,-2.14607 11.34936,-6.12145 15.8313,-9.760733 10.49592,-8.88807 16.48977,-16.42515 22.18798,-29.78637 0.93403,-2.1396 8.50693,-16.82592 9.97856,-18.37083 3.40006,-3.53586 7.96939,-6.14734 11.86672,-6.94886 1.14234,-0.2974 4.36101,-0.85325 4.30055,-1.98447 0.0605,-1.69361 -0.90717,-1.99096 -1.54551,-2.32062"
       id="path6" />
    <path
       inkscape:connector-curvature="0"
       style="fill:#ffd70f;fill-opacity:1;fill-rule:nonzero;stroke:none;stroke-width:1.68714035"
       d="m 304.42092,67.679927 15.99898,7.284741 c 0,0 6.11471,1.357361 3.78306,9.598748 -0.46371,1.848664 -1.74705,6.289306 -2.06287,7.775984 -0.45689,1.473797 -2.51309,6.043695 -3.26567,7.116667 -0.78616,1.150613 -3.21861,5.714043 -2.75494,9.101083 0.30232,3.27718 3.2522,8.70678 7.05541,9.92846 3.89726,1.2475 22.88641,7.04556 24.08246,7.27827 1.10868,0.26501 9.06451,2.85699 13.58669,-1.82283 4.46172,-4.69918 13.7614,-15.72002 13.7614,-15.72002 l 0.17456,6.45736 c 0,0 -0.36961,8.2608 -2.23753,14.39498 -1.98224,6.21172 -10.64364,40.67036 -12.38396,57.25657 -0.49722,4.98357 -3.06404,10.04478 -4.99253,10.08998 -1.92177,-0.0469 -2.49963,-1.8357 -2.06287,-3.14137 0.46371,-1.16351 3.41345,-8.81669 3.61508,-9.59881 0.30914,-0.8209 1.59248,-3.53572 -2.06961,-5.79157 -3.64868,-2.31406 -6.2827,-4.22736 -10.32107,-11.08548 -4.17276,-6.71591 -11.35583,-18.93254 -33.36868,-29.62369 0,0 3.54111,-0.5365 8.60088,-5.2939 0,0 -16.09309,-25.84881 -15.13889,-64.205173"
       id="path8" />
  </g>
</svg>
