<?xml version="1.0" encoding="UTF-8" standalone="no"?>
<!-- Created with Inkscape (http://www.inkscape.org/) -->

<svg
   xmlns:dc="http://purl.org/dc/elements/1.1/"
   xmlns:cc="http://creativecommons.org/ns#"
   xmlns:rdf="http://www.w3.org/1999/02/22-rdf-syntax-ns#"
   xmlns:svg="http://www.w3.org/2000/svg"
   xmlns="http://www.w3.org/2000/svg"
   xmlns:sodipodi="http://sodipodi.sourceforge.net/DTD/sodipodi-0.dtd"
   xmlns:inkscape="http://www.inkscape.org/namespaces/inkscape"
   width="650.76001mm"
   height="573.22198mm"
   viewBox="0 0 650.76001 573.22198"
   version="1.1"
   id="svg8"
   inkscape:version="0.92.2 (5c3e80d, 2017-08-06)"
   sodipodi:docname="11.svg">
  <defs
     id="defs2" />
  <sodipodi:namedview
     id="base"
     pagecolor="#ffffff"
     bordercolor="#666666"
     borderopacity="1.0"
     inkscape:pageopacity="0.0"
     inkscape:pageshadow="2"
     inkscape:zoom="0.24748737"
     inkscape:cx="1535.6652"
     inkscape:cy="909.25778"
     inkscape:document-units="mm"
     inkscape:current-layer="layer1"
     showgrid="false"
     inkscape:snap-global="false"
     inkscape:window-width="1920"
     inkscape:window-height="1057"
     inkscape:window-x="-8"
     inkscape:window-y="-8"
     inkscape:window-maximized="1"
     fit-margin-top="0"
     fit-margin-left="0"
     fit-margin-right="0"
     fit-margin-bottom="0"
     showguides="false" />
  <metadata
     id="metadata5">
    <rdf:RDF>
      <cc:Work
         rdf:about="">
        <dc:format>image/svg+xml</dc:format>
        <dc:type
           rdf:resource="http://purl.org/dc/dcmitype/StillImage" />
        <dc:title></dc:title>
      </cc:Work>
    </rdf:RDF>
  </metadata>
  <g
     inkscape:label="Layer 1"
     inkscape:groupmode="layer"
     id="layer1"
     transform="translate(-83.2,364.42207)">
    <path
       sodipodi:nodetypes="cccc"
       inkscape:connector-curvature="0"
       id="path849"
       d="m 119.19766,172.79972 578.7648,-7e-5 -289.3824,-501.22492 z"
       style="fill:none;fill-opacity:1;stroke:#f00a0a;stroke-width:70.00043488;stroke-linejoin:round;stroke-miterlimit:4;stroke-dasharray:none;stroke-opacity:1" />
    <path
       style="fill:#ffd70f;fill-opacity:1;stroke:none;stroke-width:50.82842255;stroke-linejoin:round;stroke-miterlimit:4;stroke-dasharray:none;stroke-opacity:1"
       d="M 672.50186,158.10024 408.58026,-299.02604 144.65804,158.1002 Z"
       id="path860"
       inkscape:connector-curvature="0"
       sodipodi:nodetypes="cccc" />
    <g
       id="g3620"
       transform="matrix(-7.9184012,0,0,-7.9416247,353.73225,48.474408)"
       style="fill:#ff9955;stroke:none" />
    <g
       id="g3624"
       transform="matrix(-7.9184012,0,0,-7.9416247,373.59953,60.807668)"
       style="fill:#ff9955;stroke:none" />
    <g
       id="g3628"
       transform="matrix(-7.9184012,0,0,-7.9416247,373.59953,60.807668)"
       style="fill:#ff9955;stroke:none" />
    <g
       id="g3632"
       transform="matrix(-7.9184012,0,0,-7.9416247,397.244,112.98414)"
       style="fill:#ff9955;stroke:none" />
    <g
       id="g3636"
       transform="matrix(-7.9184012,0,0,-7.9416247,406.70628,129.11377)"
       style="fill:#ff9955;stroke:none" />
    <g
       id="g3640"
       transform="matrix(-7.9184012,0,0,-7.9416247,397.244,112.98414)"
       style="fill:#ff9955;stroke:none" />
    <g
       id="g3644"
       transform="matrix(-7.9184012,0,0,-7.9416247,452.11045,166.11376)"
       style="fill:#ff9955;stroke:none" />
    <g
       id="g3648"
       transform="matrix(-7.9184012,0,0,-7.9416247,455.89548,182.24316)"
       style="fill:#ff9955;stroke:none" />
    <g
       id="g3652"
       transform="matrix(-7.9184012,0,0,-7.9416247,452.11045,166.11376)"
       style="fill:#ff9955;stroke:none" />
    <g
       id="g3864"
       transform="matrix(7.9185445,0,0,-7.9416247,121.04285,-82.435359)"
       style="fill:#ff9955;stroke:none" />
    <g
       id="g3872"
       transform="matrix(7.9185445,0,0,-7.9416247,120.0927,-73.898039)"
       style="fill:#ff9955;stroke:none" />
    <g
       style="fill:#ff9955;stroke:none"
       transform="matrix(7.9185445,0,0,-7.9416247,108.73734,-6.5450751)"
       id="g7280" />
    <g
       style="fill:#ff9955;stroke:none"
       transform="matrix(7.9185445,0,0,-7.9416247,108.73734,-6.5450751)"
       id="g7284" />
    <g
       style="fill:#ff9955;stroke:none"
       transform="matrix(7.9185445,0,0,-7.9416247,107.79506,-4.6471151)"
       id="g7296" />
    <g
       style="fill:#ff9955;stroke:none"
       transform="matrix(7.9185445,0,0,-7.9416247,104.96031,13.380258)"
       id="g7304" />
    <g
       style="fill:#ff9955;stroke:none"
       transform="matrix(7.9185445,0,0,-7.9416247,104.96031,13.380258)"
       id="g7308" />
    <g
       style="fill:#ff9955;stroke:none"
       transform="matrix(7.9185445,0,0,-7.9416247,96.44779,16.223478)"
       id="g7312" />
    <g
       style="fill:#ff9955;stroke:none"
       transform="matrix(7.9185445,0,0,-7.9416247,88.87778,21.917588)"
       id="g7320" />
    <g
       style="fill:#ff9955;stroke:none"
       transform="matrix(7.9185445,0,0,-7.9416247,88.87778,21.917588)"
       id="g7324" />
    <g
       style="fill:#ff9955;stroke:none"
       transform="matrix(7.9185445,0,0,-7.9416247,83.2,29.501778)"
       id="g7328" />
    <g
       style="fill:#ff9955;stroke:none"
       transform="matrix(7.9185445,0,0,-7.9416247,83.2,29.501778)"
       id="g7332" />
    <g
       style="fill:#ff9955;stroke:none"
       transform="matrix(7.9185445,0,0,-7.9416247,83.2,51.325518)"
       id="g7344" />
    <g
       style="fill:#ff9955;stroke:none"
       transform="matrix(7.9185445,0,0,-7.9416247,83.2,51.325518)"
       id="g7348" />
    <g
       style="fill:#ff9955;stroke:none"
       transform="matrix(7.9185445,0,0,-7.9416247,83.2,66.501998)"
       id="g7360" />
    <g
       style="fill:#ff9955;stroke:none"
       transform="matrix(7.9185445,0,0,-7.9416247,83.2,66.501998)"
       id="g7364" />
    <g
       style="fill:#ff9955;stroke:none"
       transform="matrix(7.9185445,0,0,-7.9416247,83.2,79.780298)"
       id="g7376" />
    <g
       style="fill:#ff9955;stroke:none"
       transform="matrix(7.9185445,0,0,-7.9416247,83.2,94.964648)"
       id="g7392" />
    <g
       style="fill:#ff9955;stroke:none"
       transform="matrix(7.9185445,0,0,-7.9416247,83.2,94.964648)"
       id="g7396" />
    <g
       style="fill:#ff9955;stroke:none"
       transform="matrix(7.9185445,0,0,-7.9416247,83.2,105.39995)"
       id="g7408" />
    <g
       style="fill:#ff9955;stroke:none"
       transform="matrix(7.9185445,0,0,-7.9416247,83.2,120.57643)"
       id="g7424" />
    <g
       style="fill:#ff9955;stroke:none"
       transform="matrix(7.9185445,0,0,-7.9416247,83.2,120.57643)"
       id="g7428" />
    <g
       style="fill:#ff9955;stroke:none"
       transform="matrix(7.9185445,0,0,-7.9416247,83.2,121.52147)"
       id="g7432" />
    <g
       style="fill:#ff9955;stroke:none"
       transform="matrix(7.9185445,0,0,-7.9416247,83.2,121.52147)"
       id="g7436" />
    <g
       style="fill:#ff9955;stroke:none"
       transform="matrix(7.9185445,0,0,-7.9416247,85.09268,127.21558)"
       id="g7440" />
    <g
       style="fill:#ff9955;stroke:none"
       transform="matrix(7.9185445,0,0,-7.9416247,85.09268,127.21558)"
       id="g7444" />
    <g
       style="fill:#ff9955;stroke:none"
       transform="matrix(7.9185445,0,0,-7.9416247,89.82008,131.95677)"
       id="g7448" />
    <g
       style="fill:#ff9955;stroke:none"
       transform="matrix(7.9185445,0,0,-7.9416247,89.82008,131.95677)"
       id="g7452" />
    <g
       style="fill:#ff9955;stroke:none"
       transform="matrix(7.9185445,0,0,-7.9416247,95.49764,134.80787)"
       id="g7456" />
    <g
       style="fill:#ff9955;stroke:none"
       transform="matrix(7.9185445,0,0,-7.9416247,150.3653,141.44702)"
       id="g7472" />
    <g
       style="fill:#ff9955;stroke:none"
       transform="matrix(7.9185445,0,0,-7.9416247,150.3653,141.44702)"
       id="g7476" />
    <g
       style="fill:#ff9955;stroke:none"
       transform="matrix(7.9185445,0,0,-7.9416247,169.28256,143.34498)"
       id="g7488" />
    <g
       style="fill:#ff9955;stroke:none"
       transform="matrix(7.9185445,0,0,-7.9416247,169.28256,143.34498)"
       id="g7492" />
    <g
       style="fill:#ff9955;stroke:none"
       transform="matrix(7.9185445,0,0,-7.9416247,197.66274,145.24317)"
       id="g7504" />
    <path
       sodipodi:nodetypes="ccccccssscccccccccccccccccccc"
       inkscape:connector-curvature="0"
       id="path15280"
       d="m 474.99012,-184.00007 c -11.5153,0.91762 -21.7389,7.59356 -25.4769,21.79964 l -17,100.600067 c -7.4451,-0.67521 -21.6834,8.59903 -21.8002,17.39997 v 89.80022 c 0,8.71526 9.3352,13.64134 12.3997,14.19967 l 10e-5,56.000203 c -10e-5,9.97196 12.2208,17.99994 27.4004,17.99994 15.1796,0 27.3998,-8.02795 27.3998,-17.99993 V 66.399647 c 54.1166,7.27539 109.1567,4.74629 142.8001,2.00037 l -13.1637,-22.80014 -113.6363,-10e-6 V 30.399726 l 104.8608,2e-5 -6.8131,-11.799819 h -98.0477 V 3.3998164 l 89.272,2e-5 -6.813,-11.80034 h -82.459 V -23.600083 l 73.6839,-10e-6 -32.3319,-56.0002 h -64.9521 c -8.7108,-0.19574 -16.3025,-9.02658 -14.2,-19.00008 l 8.6,-38.999997 c 4.5216,-11.5154 18.5516,-17.26373 25.6341,-19.79982 z"
       style="opacity:1;fill:#000000;fill-opacity:1;fill-rule:nonzero;stroke:none;stroke-width:1;stroke-linecap:butt;stroke-linejoin:miter;stroke-miterlimit:10;stroke-dasharray:none;stroke-opacity:1;paint-order:stroke fill markers" />
    <path
       sodipodi:nodetypes="cccc"
       inkscape:connector-curvature="0"
       id="path15282"
       d="m 350.11312,-26.600363 -19.7995,12.39999 85.3995,125.200013 z"
       style="opacity:1;fill:#000000;fill-opacity:1;fill-rule:nonzero;stroke:none;stroke-width:1;stroke-linecap:butt;stroke-linejoin:miter;stroke-miterlimit:10;stroke-dasharray:none;stroke-opacity:1;paint-order:stroke fill markers" />
    <path
       style="opacity:1;fill:#000000;fill-opacity:1;fill-rule:nonzero;stroke:none;stroke-width:1;stroke-linecap:butt;stroke-linejoin:miter;stroke-miterlimit:10;stroke-dasharray:none;stroke-opacity:1;paint-order:stroke fill markers"
       d="m 306.71312,37.999636 -9.6,16.200001 97.6,52.000013 z"
       id="path15284"
       inkscape:connector-curvature="0"
       sodipodi:nodetypes="cccc" />
    <path
       sodipodi:nodetypes="cccc"
       inkscape:connector-curvature="0"
       id="path15286"
       d="m 251.71312,91.199637 -3.6,16.000003 146.6,13.4 z"
       style="opacity:1;fill:#000000;fill-opacity:1;fill-rule:nonzero;stroke:none;stroke-width:1;stroke-linecap:butt;stroke-linejoin:miter;stroke-miterlimit:10;stroke-dasharray:none;stroke-opacity:1;paint-order:stroke fill markers" />
    <path
       inkscape:connector-curvature="0"
       id="path15288"
       d="m 345.51312,-71.000383 -15.2,1e-5 v 13.2 h 15.2 z"
       style="opacity:1;fill:#000000;fill-opacity:1;fill-rule:nonzero;stroke:none;stroke-width:1.19224596;stroke-linecap:butt;stroke-linejoin:miter;stroke-miterlimit:10;stroke-dasharray:none;stroke-opacity:1;paint-order:stroke fill markers" />
    <path
       style="opacity:1;fill:#000000;fill-opacity:1;fill-rule:nonzero;stroke:none;stroke-width:1.6286397;stroke-linecap:butt;stroke-linejoin:miter;stroke-miterlimit:10;stroke-dasharray:none;stroke-opacity:1;paint-order:stroke fill markers"
       d="m 229.11312,73.199647 -20.8,-1e-5 v 18 l 20.8,1e-5 z"
       id="path15290"
       inkscape:connector-curvature="0" />
    <path
       sodipodi:nodetypes="ccccccc"
       inkscape:connector-curvature="0"
       id="path15292"
       d="m 216.71312,108.19964 h -8.4 l -4.8,1.80001 -2.8,6.79999 8.6,4.6 9.4,-4.6 z"
       style="opacity:1;fill:#000000;fill-opacity:1;fill-rule:nonzero;stroke:none;stroke-width:1;stroke-linecap:butt;stroke-linejoin:miter;stroke-miterlimit:10;stroke-dasharray:none;stroke-opacity:1;paint-order:stroke fill markers" />
    <path
       sodipodi:nodetypes="ccccc"
       inkscape:connector-curvature="0"
       id="path15294"
       d="m 315.11312,-52.200363 -15,-7.60001 -9.6,10.6 14.2,12.2 z"
       style="opacity:1;fill:#000000;fill-opacity:1;fill-rule:nonzero;stroke:none;stroke-width:1;stroke-linecap:butt;stroke-linejoin:miter;stroke-miterlimit:10;stroke-dasharray:none;stroke-opacity:1;paint-order:stroke fill markers" />
    <path
       style="opacity:1;fill:#000000;fill-opacity:1;fill-rule:nonzero;stroke:none;stroke-width:1;stroke-linecap:butt;stroke-linejoin:miter;stroke-miterlimit:10;stroke-dasharray:none;stroke-opacity:1;paint-order:stroke fill markers"
       d="m 317.11312,-19.800363 -10.4,-3.00001 -10.4,12.400009 14.2,10.4000004605 z"
       id="path15296"
       inkscape:connector-curvature="0"
       sodipodi:nodetypes="ccccc" />
  </g>
</svg>
