<?xml version="1.0" encoding="UTF-8" standalone="no"?>
<!-- Created with Inkscape (http://www.inkscape.org/) -->

<svg
   xmlns:dc="http://purl.org/dc/elements/1.1/"
   xmlns:cc="http://creativecommons.org/ns#"
   xmlns:rdf="http://www.w3.org/1999/02/22-rdf-syntax-ns#"
   xmlns:svg="http://www.w3.org/2000/svg"
   xmlns="http://www.w3.org/2000/svg"
   xmlns:sodipodi="http://sodipodi.sourceforge.net/DTD/sodipodi-0.dtd"
   xmlns:inkscape="http://www.inkscape.org/namespaces/inkscape"
   width="650.76001mm"
   height="573.22198mm"
   viewBox="0 0 650.76001 573.22198"
   version="1.1"
   id="svg8"
   inkscape:version="0.92.2 (5c3e80d, 2017-08-06)"
   sodipodi:docname="11.svg">
  <defs
     id="defs2" />
  <sodipodi:namedview
     id="base"
     pagecolor="#ffffff"
     bordercolor="#666666"
     borderopacity="1.0"
     inkscape:pageopacity="0.0"
     inkscape:pageshadow="2"
     inkscape:zoom="0.24748737"
     inkscape:cx="1461.0653"
     inkscape:cy="962.18053"
     inkscape:document-units="mm"
     inkscape:current-layer="layer1"
     showgrid="false"
     inkscape:snap-global="false"
     inkscape:window-width="1920"
     inkscape:window-height="1057"
     inkscape:window-x="-8"
     inkscape:window-y="-8"
     inkscape:window-maximized="1" />
  <metadata
     id="metadata5">
    <rdf:RDF>
      <cc:Work
         rdf:about="">
        <dc:format>image/svg+xml</dc:format>
        <dc:type
           rdf:resource="http://purl.org/dc/dcmitype/StillImage" />
        <dc:title></dc:title>
      </cc:Work>
    </rdf:RDF>
  </metadata>
  <g
     inkscape:label="Layer 1"
     inkscape:groupmode="layer"
     id="layer1"
     transform="translate(0,276.22206)">
    <path
       sodipodi:nodetypes="cccc"
       inkscape:connector-curvature="0"
       id="path849"
       d="m 35.997656,260.99973 578.764744,-7e-5 -289.38237,-501.22492 z"
       style="fill:none;fill-opacity:1;stroke:#f00a0a;stroke-width:70.00043488;stroke-linejoin:round;stroke-miterlimit:4;stroke-dasharray:none;stroke-opacity:1" />
    <path
       style="fill:#ffd70f;fill-opacity:1;stroke:none;stroke-width:50.82842255;stroke-linejoin:round;stroke-miterlimit:4;stroke-dasharray:none;stroke-opacity:1"
       d="M 589.30185,246.30025 325.38021,-210.82603 61.458036,246.30021 Z"
       id="path860"
       inkscape:connector-curvature="0"
       sodipodi:nodetypes="cccc" />
    <path
       inkscape:connector-curvature="0"
       style="fill:#000000;fill-rule:nonzero;stroke:none;stroke-width:1.69731975"
       d="m 224.96467,41.999998 c 4.67297,0.01227 8.6999,4.303872 8.79927,7.580567 -0.0992,0.703118 0.0603,2.482629 2.07043,1.421321 2.205,-1.015752 9.31691,-4.737843 9.31691,-4.737843 0,0 3.66256,-1.025281 3.62327,3.316522 0.0402,3.964646 -3.68537,5.374553 -3.62327,7.580557 -0.0603,1.800381 2.12426,2.243818 3.10563,2.368899 0.96065,0.170628 82.06423,5.437161 84.3686,5.685419 25.49516,1.571079 38.99643,2.827557 64.18308,0.473816 4.64809,-0.572627 30.57392,-2.20594 37.26756,-2.368898 15.49901,0.162656 23.79868,12.117538 25.36373,20.372742 3.91643,23.24957 4.07809,18.9495 4.65842,42.16685 -0.24071,1.26213 -0.4184,2.367 1.03522,3.31647 4.434,3.48708 7.21624,5.2666 7.24648,11.8446 -0.0335,2.48262 -3.43319,17.46182 -3.62321,20.84653 -0.86335,-1.08591 -4.3471,-5.45987 -5.17606,-6.15917 -0.46735,-0.33941 -0.63096,-0.71073 -0.51764,-1.42139 0.21189,-0.47382 1.02113,-2.10737 1.03521,-5.2116 -0.0134,-8.31589 -5.76651,-7.50096 -5.69363,-14.68731 -0.073,-1.78718 1.30623,-2.23061 1.03521,-7.1068 -0.68553,-13.78148 -2.64667,-32.35383 -6.21127,-45.957084 -0.0711,-0.81683 -0.348,-0.820647 -0.51764,-0.947559 -0.45461,0.12704 -0.64101,0.536407 -0.51763,0.947559 0.19377,6.445314 0.88963,44.818084 -1.55286,52.116324 -0.41035,1.18822 -1.16663,4.55017 0.51764,6.63292 1.34057,2.26849 4.90504,5.82948 5.17606,6.15924 0.59475,0.65758 1.78136,1.74539 1.03521,5.21161 -3.82738,13.80417 -4.50071,27.73533 -3.10563,41.21926 -0.14349,1.39291 -0.30576,2.23247 -1.03522,2.84272 -0.48746,0.28049 -1.05344,0.72582 -1.55285,0.94757 -0.31112,0.14976 -1.76916,0.44558 -1.55278,1.89514 0.10728,1.44218 0.59475,5.00127 1.03521,5.68542 -0.0335,0.57816 0.24675,1.72832 -1.03521,1.89514 -5.33384,1.58999 -14.66583,2.62661 -19.67004,2.3689 -0.96273,-0.0124 -2.09737,-0.46032 -1.03521,-1.89515 1.41821,-3.10613 2.14291,-3.60265 4.65842,-5.68541 1.04353,-0.92672 6.02641,-7.97282 6.21234,-19.42517 -0.18573,-11.24005 -3.99326,-20.28748 -8.80033,-27.00572 -5.99805,7.32469 -12.36455,23.02027 -11.9049,35.06004 0.26284,1.24892 -0.18038,2.50919 -2.07043,2.84271 -1.83648,0.33327 -2.56735,0.48118 -3.10564,2.36895 -1.34579,2.78398 -1.2837,3.71824 -1.03521,5.68543 -0.24876,0.73337 -0.2092,1.34553 -1.55285,1.42132 -7.12224,0.79598 -9.4722,0.86988 -18.63375,0 -0.68949,0.006 -1.06425,-0.74478 0,-1.42132 5.4493,-4.62418 16.53644,-16.45172 16.56333,-28.42711 -0.0268,-2.87684 -0.10796,-7.91788 -4.14085,-8.05432 -3.58385,0.13626 -2.97724,4.06506 -5.17606,4.26404 -1.77017,-0.19886 -1.8509,-4.2015 -5.69364,-4.26404 -3.61287,0.0626 -3.49071,4.06506 -5.69363,4.26404 -1.76607,-0.19886 -2.49694,-3.86988 -2.58806,-4.73785 -0.55519,-0.76369 -0.84056,-1.20719 -2.07042,-1.42133 -4.61913,-2.24196 -8.98561,-6.3298 -10.8697,-9.94945 -0.61888,-0.96082 -1.14497,-1.73973 -4.14084,-1.42139 -15.6586,1.18639 -32.79341,1.72079 -48.13732,-0.4738 -3.80539,-0.76947 -5.27745,1.05368 -5.176,3.31644 -0.3252,1.21481 -0.3252,13.52371 0,14.68732 -0.1636,0.91344 -0.3252,2.84271 -1.03521,3.79028 -1.63774,2.9962 -3.50319,14.88445 -3.62327,19.42515 0.12001,0.98551 0.24205,2.06007 -1.03522,2.84278 -1.55694,0.62726 -2.36853,1.10863 -2.588,2.84265 -0.10326,1.52941 -0.38689,4.45737 -0.51764,5.21167 0.047,0.286 0.17166,1.47251 -2.07042,1.89514 -2.93378,1.22044 -12.35214,2.43143 -14.49297,2.36889 -1.33332,0.0626 -1.49485,-0.75239 -0.51763,-1.89514 0.55719,-0.85661 2.83856,-3.63868 4.14084,-4.73785 0.63364,-0.20069 0.86128,-0.60086 1.55278,-2.3689 3.67089,-9.71445 5.88628,-23.10367 2.07043,-33.1649 -0.24809,-0.68604 -0.28966,-1.33987 -1.03521,-1.42138 -0.65845,0.0816 -0.8944,0.71257 -1.03522,1.42138 -0.15086,0.17984 -2.98554,9.41311 -3.10557,9.94947 -0.0402,0.50204 -0.20316,1.05749 -0.51763,1.42132 -5.05598,3.85091 -6.98358,19.59952 -7.24648,20.84655 0.16159,1.21099 -0.0537,2.15095 -1.55285,2.84271 -1.4203,0.6936 -2.39342,0.93996 -3.10564,1.89514 -0.36678,1.22044 -1.44724,4.23562 -1.55279,5.2116 -0.002,1.10107 -0.10929,1.79284 -1.55285,2.36896 -3.39342,1.34743 -10.88833,1.45545 -13.97425,0.94751 -1.27332,0.10801 -1.59838,-0.38666 -1.03522,-1.42133 0.75775,-1.65448 3.17705,-5.24953 5.17499,-6.63298 1.22987,-0.58737 2.36445,-1.82315 3.10564,-2.84272 3.41823,-5.50915 8.36035,-14.16046 8.28169,-21.79406 0.0785,-2.97159 -0.40767,-6.75243 -0.51764,-8.05438 -0.37482,-1.66388 -0.86134,-8.41439 -1.03521,-9.94945 0.17366,-1.28115 0.12606,-4.44601 -4.14085,-4.73785 -10.27031,-0.3259 -15.32836,-14.29696 -16.04474,-16.58244 -3.18014,-14.84081 -14.789,-31.97668 -22.7746,-38.376573 -4.28789,-3.538207 -5.91316,-3.928617 -12.42255,-4.264037 -2.45349,-0.43208 -20.35844,-1.8402 -21.2218,-1.89514 -1.08283,0.0553 -1.51349,0.0307 -2.58807,-0.47381 -0.97722,-0.3885 -3.89443,-1.37591 -5.69363,-1.42139 -1.76608,0.043 -3.33542,0.5892 -4.65842,0.47382 -1.70191,0.11538 -3.59223,-1.02344 -4.65849,-1.89514 -0.55251,-1.30202 -1.20291,-2.0449 -2.07042,-2.36896 -1.29196,-0.46645 -2.4783,-1.45354 -2.588,-2.36889 0.10929,-0.96273 0.64772,-1.50671 1.55278,-1.89515 0.39359,-0.70122 28.85753,-23.592594 29.50351,-24.163016 0.81368,-0.911595 5.26719,-4.546481 5.69363,-4.737851 0.87168,-0.549918 1.92345,-1.180669 2.07043,-1.895137 -0.14685,-0.767558 -0.87577,-1.176925 -2.07043,-0.947578 -0.82815,-0.22954 -1.60038,0.144239 -3.10557,0 -8.19064,0.144239 -14.50744,-4.838319 -15.52817,-5.685411 -0.30442,-0.363957 -0.95033,-0.92106 -1.03522,-1.421385 0.0852,-0.907741 0.77432,-1.427033 1.55279,-1.42133 0.59608,-0.0064 5.37487,1.7738 11.90497,1.895137 9.47421,-0.12152 10.28165,-2.829451 16.04575,-2.842705 z"
       id="path15-7" />
  </g>
</svg>
