<?xml version="1.0" encoding="UTF-8" standalone="no"?>
<!-- Created with Inkscape (http://www.inkscape.org/) -->

<svg
   xmlns:dc="http://purl.org/dc/elements/1.1/"
   xmlns:cc="http://creativecommons.org/ns#"
   xmlns:rdf="http://www.w3.org/1999/02/22-rdf-syntax-ns#"
   xmlns:svg="http://www.w3.org/2000/svg"
   xmlns="http://www.w3.org/2000/svg"
   xmlns:sodipodi="http://sodipodi.sourceforge.net/DTD/sodipodi-0.dtd"
   xmlns:inkscape="http://www.inkscape.org/namespaces/inkscape"
   width="650.76001mm"
   height="573.22198mm"
   viewBox="0 0 650.76001 573.22198"
   version="1.1"
   id="svg8"
   inkscape:version="0.92.2 (5c3e80d, 2017-08-06)"
   sodipodi:docname="11.svg">
  <defs
     id="defs2" />
  <sodipodi:namedview
     id="base"
     pagecolor="#ffffff"
     bordercolor="#666666"
     borderopacity="1.0"
     inkscape:pageopacity="0.0"
     inkscape:pageshadow="2"
     inkscape:zoom="0.175"
     inkscape:cx="1581.1452"
     inkscape:cy="747.0689"
     inkscape:document-units="mm"
     inkscape:current-layer="layer1"
     showgrid="false"
     inkscape:snap-global="true"
     inkscape:window-width="1920"
     inkscape:window-height="1057"
     inkscape:window-x="-8"
     inkscape:window-y="-8"
     inkscape:window-maximized="1" />
  <metadata
     id="metadata5">
    <rdf:RDF>
      <cc:Work
         rdf:about="">
        <dc:format>image/svg+xml</dc:format>
        <dc:type
           rdf:resource="http://purl.org/dc/dcmitype/StillImage" />
        <dc:title></dc:title>
      </cc:Work>
    </rdf:RDF>
  </metadata>
  <g
     inkscape:label="Layer 1"
     inkscape:groupmode="layer"
     id="layer1"
     transform="translate(0,276.22206)">
    <path
       sodipodi:nodetypes="cccc"
       inkscape:connector-curvature="0"
       id="path849"
       d="M 35.997656,260.99973 H 614.7624 L 325.38003,-240.22522 Z"
       style="fill:none;fill-opacity:1;stroke:#f00a0a;stroke-width:70.00043488;stroke-linejoin:round;stroke-miterlimit:4;stroke-dasharray:none;stroke-opacity:1" />
    <path
       style="fill:#ffd70f;fill-opacity:1;stroke:none;stroke-width:50.82842255;stroke-linejoin:round;stroke-miterlimit:4;stroke-dasharray:none;stroke-opacity:1"
       d="M 589.30185,246.30033 325.38021,-210.82599 61.458036,246.30023 Z"
       id="path860"
       inkscape:connector-curvature="0"
       sodipodi:nodetypes="cccc" />
    <g
       style="fill:#000000;fill-opacity:1;stroke:none"
       transform="matrix(7.9473013,0,0,-7.9473013,513.77919,-236.66712)"
       id="g7504">
      <path
         style="fill:#000000;fill-opacity:1;fill-rule:nonzero;stroke:none;stroke-width:0.99999988"
         d="m -12.712209,-33.092114 -5.375003,-5.376041 h 4.060871 l -0.118864,-1.432997 v -0.955008 -0.358996 l -0.118994,-0.836011 v -0.835948 l -0.120033,-0.47799 -0.477991,-1.314 -0.238963,-0.477993 -0.358021,-0.836011 -0.477991,-0.835948 -0.239027,-0.358021 -0.47799,-0.95598 -0.357956,-0.597049 -0.239029,-0.835948 -0.118994,-0.358021 -0.358997,-1.434036 -0.47799,-3.703043 h 2.747973 l 0.477016,3.703043 0.240003,0.596983 0.47799,1.195074 0.477017,0.835948 0.238962,0.597049 h 0.001 l 0.477015,0.95598 h -6.6e-5 l 0.239027,0.358021 0.477991,0.835948 0.239028,0.836011 0.118993,0.239028 0.477991,1.552965 v 0.239028 0.238962 l 0.120034,0.836014 0.118993,0.836011 v 0.358997 0.955004 0.598025 l -10e-4,0.834972 h 4.0630162 z"
         id="path7502"
         inkscape:connector-curvature="0"
         sodipodi:nodetypes="cccccccccccccccccccccccccccccccccccccccccccc" />
      <path
         sodipodi:nodetypes="cccccccccccccccccccccccccccccccccccccccccccc"
         inkscape:connector-curvature="0"
         id="path14312"
         d="m -30.636688,-55.071155 -5.375003,5.376041 h 4.060871 l -0.118864,1.432997 v 0.955007 0.358997 l -0.118994,0.836011 v 0.835948 l -0.120034,0.477989 -0.477991,1.314001 -0.238962,0.477993 -0.358022,0.836011 -0.47799,0.835947 -0.239028,0.358022 -0.477989,0.955979 -0.357956,0.597049 -0.23903,0.835948 -0.118993,0.358021 -0.358997,1.434036 -0.47799,3.703044 h 2.747973 l 0.477015,-3.703044 0.240003,-0.596983 0.477991,-1.195074 0.477017,-0.835948 0.238962,-0.597049 h 10e-4 l 0.477054,-0.955979 h -6.7e-5 l 0.239028,-0.358022 0.477991,-0.835947 0.239027,-0.836011 0.118994,-0.239028 0.47799,-1.552966 v -0.239028 -0.238961 l 0.120034,-0.836015 0.118994,-0.83601 v -0.358997 -0.955004 -0.598025 l -0.001,-0.834972 h 4.063017 z"
         style="fill:#000000;fill-opacity:1;fill-rule:nonzero;stroke:none;stroke-width:0.99999988" />
    </g>
    <g
       style="stroke:none"
       transform="matrix(7.9473013,0,0,-7.9473013,186.07814,122.31815)"
       id="g7508" />
    <g
       style="stroke:none"
       transform="matrix(7.9473013,0,0,-7.9473013,170.89082,137.50548)"
       id="g7520" />
    <g
       style="stroke:none"
       transform="matrix(7.9473013,0,0,-7.9473013,170.89082,137.50548)"
       id="g7524" />
    <g
       style="stroke:none"
       transform="matrix(7.9473013,0,0,-7.9473013,156.64919,150.79327)"
       id="g7536" />
    <g
       style="stroke:none"
       transform="matrix(7.9473013,0,0,-7.9473013,156.64919,150.79327)"
       id="g7540" />
    <g
       style="stroke:none"
       transform="matrix(7.9473013,0,0,-7.9473013,152.85845,155.54596)"
       id="g7552" />
    <g
       style="stroke:none"
       transform="matrix(7.9473013,0,0,-7.9473013,152.85845,155.54596)"
       id="g7556" />
    <g
       style="stroke:none"
       transform="matrix(7.9473013,0,0,-7.9473013,145.26072,162.18985)"
       id="g7568" />
    <g
       style="stroke:none"
       transform="matrix(7.9473013,0,0,-7.9473013,145.26072,162.18985)"
       id="g7572" />
    <g
       style="stroke:none"
       transform="matrix(7.9473013,0,0,-7.9473013,143.36141,165.03489)"
       id="g7592" />
    <g
       style="stroke:none"
       transform="matrix(7.9473013,0,0,-7.9473013,143.36141,165.03489)"
       id="g7600" />
    <g
       style="stroke:none"
       transform="matrix(7.9473013,0,0,-7.9473013,197.4745,165.03489)"
       id="g7608" />
    <g
       style="stroke:none"
       transform="matrix(7.9473013,0,0,-7.9473013,142.41569,165.03489)"
       id="g7632" />
    <g
       style="stroke:none"
       transform="matrix(7.9473013,0,0,-7.9473013,142.41569,165.03489)"
       id="g7640" />
    <g
       style="stroke:none"
       transform="matrix(7.9473013,0,0,-7.9473013,142.41569,165.03489)"
       id="g7648" />
    <g
       style="stroke:none"
       transform="matrix(7.9473013,0,0,-7.9473013,175.63539,165.03489)"
       id="g7660" />
    <g
       style="stroke:none"
       transform="matrix(7.9473013,0,0,-7.9473013,175.63539,165.03489)"
       id="g7664" />
    <g
       style="stroke:none"
       transform="matrix(7.9473013,0,0,-7.9473013,174.68967,171.67901)"
       id="g7676" />
    <g
       style="stroke:none"
       transform="matrix(7.9473013,0,0,-7.9473013,174.68967,171.67901)"
       id="g7680" />
    <g
       style="stroke:none"
       transform="matrix(7.9473013,0,0,-7.9473013,174.68967,176.43147)"
       id="g7692" />
    <g
       style="stroke:none"
       transform="matrix(7.9473013,0,0,-7.9473013,174.68967,176.43147)"
       id="g7696" />
    <g
       style="stroke:none"
       transform="matrix(7.9473013,0,0,-7.9473013,174.68967,184.02108)"
       id="g7708" />
    <g
       style="stroke:none"
       transform="matrix(7.9473013,0,0,-7.9473013,174.68967,184.02108)"
       id="g7712" />
    <g
       style="stroke:none"
       transform="matrix(7.9473013,0,0,-7.9473013,174.68967,186.87422)"
       id="g7724" />
    <g
       style="stroke:none"
       transform="matrix(7.9473013,0,0,-7.9473013,174.68967,186.87422)"
       id="g7728" />
    <g
       style="stroke:none"
       transform="matrix(7.9473013,0,0,-7.9473013,173.74395,193.51812)"
       id="g7740" />
    <g
       style="stroke:none"
       transform="matrix(7.9473013,0,0,-7.9473013,173.74395,193.51812)"
       id="g7744" />
    <g
       style="stroke:none"
       transform="matrix(7.9473013,0,0,-7.9473013,173.74395,200.16201)"
       id="g7756" />
    <g
       style="stroke:none"
       transform="matrix(7.9473013,0,0,-7.9473013,173.74395,200.16201)"
       id="g7760" />
    <g
       style="stroke:none"
       transform="matrix(7.9473013,0,0,-7.9473013,172.79013,202.06155)"
       id="g7772" />
    <g
       style="stroke:none"
       transform="matrix(7.9473013,0,0,-7.9473013,172.79013,202.06155)"
       id="g7776" />
    <g
       style="stroke:none"
       transform="matrix(7.9473013,0,0,-7.9473013,172.79013,203.96087)"
       id="g7788" />
    <g
       style="stroke:none"
       transform="matrix(7.9473013,0,0,-7.9473013,172.79013,203.96087)"
       id="g7792" />
    <g
       style="stroke:none"
       transform="matrix(7.9473013,0,0,-7.9473013,168.99149,214.40363)"
       id="g7804" />
    <g
       style="stroke:none"
       transform="matrix(7.9473013,0,0,-7.9473013,168.99149,214.40363)"
       id="g7808" />
    <g
       style="stroke:none"
       transform="matrix(7.9473013,0,0,-7.9473013,168.99149,216.30294)"
       id="g7820" />
    <g
       style="stroke:none"
       transform="matrix(7.9473013,0,0,-7.9473013,168.99149,216.30294)"
       id="g7824" />
    <g
       style="stroke:none"
       transform="matrix(7.9473013,0,0,-7.9473013,167.09195,218.20249)"
       id="g7836" />
    <g
       style="stroke:none"
       transform="matrix(7.9473013,0,0,-7.9473013,167.09195,218.20249)"
       id="g7840" />
    <g
       style="stroke:none"
       transform="matrix(7.9473013,0,0,-7.9473013,164.24692,224.84638)"
       id="g7852" />
    <g
       style="stroke:none"
       transform="matrix(7.9473013,0,0,-7.9473013,164.24692,224.84638)"
       id="g7856" />
    <g
       style="stroke:none"
       transform="matrix(7.9473013,0,0,-7.9473013,160.44806,231.49028)"
       id="g7868" />
    <g
       style="stroke:none"
       transform="matrix(7.9473013,0,0,-7.9473013,160.44806,231.49028)"
       id="g7872" />
    <g
       style="stroke:none"
       transform="matrix(7.9473013,0,0,-7.9473013,158.54875,234.33531)"
       id="g7884" />
    <g
       style="stroke:none"
       transform="matrix(7.9473013,0,0,-7.9473013,158.54875,234.33531)"
       id="g7888" />
    <g
       style="stroke:none"
       transform="matrix(7.9473013,0,0,-7.9473013,154.74988,241.93303)"
       id="g7900" />
    <g
       style="stroke:none"
       transform="matrix(7.9473013,0,0,-7.9473013,154.74988,241.93303)"
       id="g7904" />
    <g
       style="stroke:none"
       transform="matrix(7.9473013,0,0,-7.9473013,151.90462,246.67761)"
       id="g7916" />
    <g
       style="stroke:none"
       transform="matrix(7.9473013,0,0,-7.9473013,151.90462,246.67761)"
       id="g7920" />
    <g
       style="stroke:none"
       transform="matrix(7.9473013,0,0,-7.9473013,150.00531,253.3215)"
       id="g7948" />
    <g
       style="stroke:none"
       transform="matrix(7.9473013,0,0,-7.9473013,150.00531,253.3215)"
       id="g7952" />
    <g
       style="stroke:none"
       transform="matrix(7.9473013,0,0,-7.9473013,149.0517,256.17464)"
       id="g7964" />
    <g
       style="stroke:none"
       transform="matrix(7.9473013,0,0,-7.9473013,149.0517,256.17464)"
       id="g7968" />
    <g
       style="stroke:none"
       transform="matrix(7.9473013,0,0,-7.9473013,146.20644,262.81854)"
       id="g7980" />
    <g
       style="stroke:none"
       transform="matrix(7.9473013,0,0,-7.9473013,146.20644,262.81854)"
       id="g7984" />
    <g
       style="stroke:none"
       transform="matrix(7.9473013,0,0,-7.9473013,146.20644,267.56311)"
       id="g7992" />
    <g
       style="stroke:none"
       transform="matrix(7.9473013,0,0,-7.9473013,146.20644,267.56311)"
       id="g7996" />
    <g
       style="stroke:none"
       transform="matrix(7.9473013,0,0,-7.9473013,142.41569,296.99184)"
       id="g8004" />
    <path
       style="opacity:1;fill:#000000;fill-opacity:1;fill-rule:nonzero;stroke:none;stroke-width:24.71872711;stroke-linecap:butt;stroke-linejoin:miter;stroke-miterlimit:4;stroke-dasharray:none;stroke-opacity:1;paint-order:stroke fill markers"
       d="M 369.13008,-18.2922 357.83775,42.16509 A 33,33 0 0 1 325.3803,69.20789 33,33 0 0 1 292.92233,42.16509 L 281.63,-18.2922 Z"
       id="rect14161"
       inkscape:connector-curvature="0" />
  </g>
</svg>
