<?xml version="1.0" encoding="UTF-8" standalone="no"?>
<!-- Created with Inkscape (http://www.inkscape.org/) -->

<svg
   xmlns:dc="http://purl.org/dc/elements/1.1/"
   xmlns:cc="http://creativecommons.org/ns#"
   xmlns:rdf="http://www.w3.org/1999/02/22-rdf-syntax-ns#"
   xmlns:svg="http://www.w3.org/2000/svg"
   xmlns="http://www.w3.org/2000/svg"
   xmlns:sodipodi="http://sodipodi.sourceforge.net/DTD/sodipodi-0.dtd"
   xmlns:inkscape="http://www.inkscape.org/namespaces/inkscape"
   width="650.76001mm"
   height="573.22198mm"
   viewBox="0 0 650.76001 573.22198"
   version="1.1"
   id="svg8"
   inkscape:version="0.92.2 (5c3e80d, 2017-08-06)"
   sodipodi:docname="11.svg">
  <defs
     id="defs2" />
  <sodipodi:namedview
     id="base"
     pagecolor="#ffffff"
     bordercolor="#666666"
     borderopacity="1.0"
     inkscape:pageopacity="0.0"
     inkscape:pageshadow="2"
     inkscape:zoom="0.24748737"
     inkscape:cx="1630.8645"
     inkscape:cy="1553.2843"
     inkscape:document-units="mm"
     inkscape:current-layer="layer1"
     showgrid="false"
     inkscape:snap-global="true"
     inkscape:window-width="1920"
     inkscape:window-height="1057"
     inkscape:window-x="-8"
     inkscape:window-y="-8"
     inkscape:window-maximized="1" />
  <metadata
     id="metadata5">
    <rdf:RDF>
      <cc:Work
         rdf:about="">
        <dc:format>image/svg+xml</dc:format>
        <dc:type
           rdf:resource="http://purl.org/dc/dcmitype/StillImage" />
        <dc:title></dc:title>
      </cc:Work>
    </rdf:RDF>
  </metadata>
  <g
     inkscape:label="Layer 1"
     inkscape:groupmode="layer"
     id="layer1"
     transform="translate(0,276.22208)">
    <path
       sodipodi:nodetypes="cccc"
       inkscape:connector-curvature="0"
       id="path849"
       d="M 35.997656,260.99971 H 614.76241 L 325.38004,-240.22524 Z"
       style="fill:none;fill-opacity:1;stroke:#f00a0a;stroke-width:70.00043488;stroke-linejoin:round;stroke-miterlimit:4;stroke-dasharray:none;stroke-opacity:1" />
    <path
       style="fill:#ffd70f;fill-opacity:1;stroke:none;stroke-width:50.82842255;stroke-linejoin:round;stroke-miterlimit:4;stroke-dasharray:none;stroke-opacity:1"
       d="M 589.30186,246.30031 325.38022,-210.82601 61.458036,246.30021 Z"
       id="path860"
       inkscape:connector-curvature="0"
       sodipodi:nodetypes="cccc" />
    <g
       style="stroke:none"
       transform="matrix(7.9473013,0,0,-7.9473013,186.07814,122.31815)"
       id="g7508" />
    <g
       style="stroke:none"
       transform="matrix(7.9473013,0,0,-7.9473013,170.89082,137.50548)"
       id="g7520" />
    <g
       style="stroke:none"
       transform="matrix(7.9473013,0,0,-7.9473013,170.89082,137.50548)"
       id="g7524" />
    <g
       style="stroke:none"
       transform="matrix(7.9473013,0,0,-7.9473013,156.64919,150.79327)"
       id="g7536" />
    <g
       style="stroke:none"
       transform="matrix(7.9473013,0,0,-7.9473013,156.64919,150.79327)"
       id="g7540" />
    <g
       style="stroke:none"
       transform="matrix(7.9473013,0,0,-7.9473013,152.85845,155.54596)"
       id="g7552" />
    <g
       style="stroke:none"
       transform="matrix(7.9473013,0,0,-7.9473013,152.85845,155.54596)"
       id="g7556" />
    <g
       style="stroke:none"
       transform="matrix(7.9473013,0,0,-7.9473013,145.26072,162.18985)"
       id="g7568" />
    <g
       style="stroke:none"
       transform="matrix(7.9473013,0,0,-7.9473013,145.26072,162.18985)"
       id="g7572" />
    <g
       style="stroke:none"
       transform="matrix(7.9473013,0,0,-7.9473013,143.36141,165.03489)"
       id="g7592" />
    <g
       style="stroke:none"
       transform="matrix(7.9473013,0,0,-7.9473013,143.36141,165.03489)"
       id="g7600" />
    <g
       style="stroke:none"
       transform="matrix(7.9473013,0,0,-7.9473013,197.4745,165.03489)"
       id="g7608" />
    <g
       style="stroke:none"
       transform="matrix(7.9473013,0,0,-7.9473013,142.41569,165.03489)"
       id="g7632" />
    <g
       style="stroke:none"
       transform="matrix(7.9473013,0,0,-7.9473013,142.41569,165.03489)"
       id="g7640" />
    <g
       style="stroke:none"
       transform="matrix(7.9473013,0,0,-7.9473013,142.41569,165.03489)"
       id="g7648" />
    <g
       style="stroke:none"
       transform="matrix(7.9473013,0,0,-7.9473013,175.63539,165.03489)"
       id="g7660" />
    <g
       style="stroke:none"
       transform="matrix(7.9473013,0,0,-7.9473013,175.63539,165.03489)"
       id="g7664" />
    <g
       style="stroke:none"
       transform="matrix(7.9473013,0,0,-7.9473013,174.68967,171.67901)"
       id="g7676" />
    <g
       style="stroke:none"
       transform="matrix(7.9473013,0,0,-7.9473013,174.68967,171.67901)"
       id="g7680" />
    <g
       style="stroke:none"
       transform="matrix(7.9473013,0,0,-7.9473013,174.68967,176.43147)"
       id="g7692" />
    <g
       style="stroke:none"
       transform="matrix(7.9473013,0,0,-7.9473013,174.68967,176.43147)"
       id="g7696" />
    <g
       style="stroke:none"
       transform="matrix(7.9473013,0,0,-7.9473013,174.68967,184.02108)"
       id="g7708" />
    <g
       style="stroke:none"
       transform="matrix(7.9473013,0,0,-7.9473013,174.68967,184.02108)"
       id="g7712" />
    <g
       style="stroke:none"
       transform="matrix(7.9473013,0,0,-7.9473013,174.68967,186.87422)"
       id="g7724" />
    <g
       style="stroke:none"
       transform="matrix(7.9473013,0,0,-7.9473013,174.68967,186.87422)"
       id="g7728" />
    <g
       style="stroke:none"
       transform="matrix(7.9473013,0,0,-7.9473013,173.74395,193.51812)"
       id="g7740" />
    <g
       style="stroke:none"
       transform="matrix(7.9473013,0,0,-7.9473013,173.74395,193.51812)"
       id="g7744" />
    <g
       style="stroke:none"
       transform="matrix(7.9473013,0,0,-7.9473013,173.74395,200.16201)"
       id="g7756" />
    <g
       style="stroke:none"
       transform="matrix(7.9473013,0,0,-7.9473013,173.74395,200.16201)"
       id="g7760" />
    <g
       style="stroke:none"
       transform="matrix(7.9473013,0,0,-7.9473013,172.79013,202.06155)"
       id="g7772" />
    <g
       style="stroke:none"
       transform="matrix(7.9473013,0,0,-7.9473013,172.79013,202.06155)"
       id="g7776" />
    <g
       style="stroke:none"
       transform="matrix(7.9473013,0,0,-7.9473013,172.79013,203.96087)"
       id="g7788" />
    <g
       style="stroke:none"
       transform="matrix(7.9473013,0,0,-7.9473013,172.79013,203.96087)"
       id="g7792" />
    <g
       style="stroke:none"
       transform="matrix(7.9473013,0,0,-7.9473013,168.99149,214.40363)"
       id="g7804" />
    <g
       style="stroke:none"
       transform="matrix(7.9473013,0,0,-7.9473013,168.99149,214.40363)"
       id="g7808" />
    <g
       style="stroke:none"
       transform="matrix(7.9473013,0,0,-7.9473013,168.99149,216.30294)"
       id="g7820" />
    <g
       style="stroke:none"
       transform="matrix(7.9473013,0,0,-7.9473013,168.99149,216.30294)"
       id="g7824" />
    <g
       style="stroke:none"
       transform="matrix(7.9473013,0,0,-7.9473013,167.09195,218.20249)"
       id="g7836" />
    <g
       style="stroke:none"
       transform="matrix(7.9473013,0,0,-7.9473013,167.09195,218.20249)"
       id="g7840" />
    <g
       style="stroke:none"
       transform="matrix(7.9473013,0,0,-7.9473013,164.24692,224.84638)"
       id="g7852" />
    <g
       style="stroke:none"
       transform="matrix(7.9473013,0,0,-7.9473013,164.24692,224.84638)"
       id="g7856" />
    <g
       style="stroke:none"
       transform="matrix(7.9473013,0,0,-7.9473013,160.44806,231.49028)"
       id="g7868" />
    <g
       style="stroke:none"
       transform="matrix(7.9473013,0,0,-7.9473013,160.44806,231.49028)"
       id="g7872" />
    <g
       style="stroke:none"
       transform="matrix(7.9473013,0,0,-7.9473013,158.54875,234.33531)"
       id="g7884" />
    <g
       style="stroke:none"
       transform="matrix(7.9473013,0,0,-7.9473013,158.54875,234.33531)"
       id="g7888" />
    <g
       style="stroke:none"
       transform="matrix(7.9473013,0,0,-7.9473013,154.74988,241.93303)"
       id="g7900" />
    <g
       style="stroke:none"
       transform="matrix(7.9473013,0,0,-7.9473013,154.74988,241.93303)"
       id="g7904" />
    <g
       style="stroke:none"
       transform="matrix(7.9473013,0,0,-7.9473013,151.90462,246.67761)"
       id="g7916" />
    <g
       style="stroke:none"
       transform="matrix(7.9473013,0,0,-7.9473013,151.90462,246.67761)"
       id="g7920" />
    <g
       style="stroke:none"
       transform="matrix(7.9473013,0,0,-7.9473013,150.00531,253.3215)"
       id="g7948" />
    <g
       style="stroke:none"
       transform="matrix(7.9473013,0,0,-7.9473013,150.00531,253.3215)"
       id="g7952" />
    <g
       style="stroke:none"
       transform="matrix(7.9473013,0,0,-7.9473013,149.0517,256.17464)"
       id="g7964" />
    <g
       style="stroke:none"
       transform="matrix(7.9473013,0,0,-7.9473013,149.0517,256.17464)"
       id="g7968" />
    <g
       style="stroke:none"
       transform="matrix(7.9473013,0,0,-7.9473013,146.20644,262.81854)"
       id="g7980" />
    <g
       style="stroke:none"
       transform="matrix(7.9473013,0,0,-7.9473013,146.20644,262.81854)"
       id="g7984" />
    <g
       style="stroke:none"
       transform="matrix(7.9473013,0,0,-7.9473013,146.20644,267.56311)"
       id="g7992" />
    <g
       style="stroke:none"
       transform="matrix(7.9473013,0,0,-7.9473013,146.20644,267.56311)"
       id="g7996" />
    <g
       style="stroke:none"
       transform="matrix(7.9473013,0,0,-7.9473013,142.41569,296.99184)"
       id="g8004" />
    <g
       style="fill:#000000;stroke:none"
       transform="matrix(7.948772,0,0,-7.9435809,354.87074,-582.52707)"
       id="g7350">
      <path
         style="fill:#000000;fill-opacity:1;fill-rule:evenodd;stroke:none;stroke-width:1"
         d="m 3.2278762,-77.789514 -5.4949955,-5.495011 h 4.0620044 l 0.4780321,-3.583972 0.35698,-1.552977 0.7170157,-1.672029 0.7170153,-1.433016 0.4779672,-0.716964 0.5970038,-1.195048 0.4780317,-1.432952 0.1189717,-0.598045 0.1200119,-2.029955 0.1189717,-2.270005 h 2.7479853 v 2.270005 l -0.2389836,2.029955 -0.4779668,2.030997 -0.3580202,1.195048 -1.1949826,2.14998 -0.9559992,1.672029 -0.2380084,0.835947 -0.2400234,0.71703 -0.4769919,3.583972 h 4.1809761 z"
         id="path7348"
         inkscape:connector-curvature="0"
         sodipodi:nodetypes="ccccccccccccccccccccccccc" />
    </g>
    <g
       style="stroke:none"
       transform="matrix(7.948772,0,0,-7.9435809,178.52172,200.2153)"
       id="g7390" />
    <g
       style="stroke:none"
       transform="matrix(7.948772,0,0,-7.9435809,181.36727,206.85609)"
       id="g7398" />
    <g
       style="stroke:none"
       transform="matrix(7.948772,0,0,-7.9435809,184.22096,216.3408)"
       id="g7406" />
    <g
       style="stroke:none"
       transform="matrix(7.948772,0,0,-7.9435809,187.06652,220.13788)"
       id="g7414" />
    <g
       style="stroke:none"
       transform="matrix(7.948772,0,0,-7.9435809,192.76575,231.5289)"
       id="g7422" />
    <g
       style="stroke:none"
       transform="matrix(7.948772,0,0,-7.9435809,196.56531,237.21653)"
       id="g7430" />
    <g
       style="stroke:none"
       transform="matrix(7.948772,0,0,-7.9435809,207.01,278.96799)"
       id="g7462" />
    <path
       inkscape:connector-curvature="0"
       id="path7509"
       d="m 369.13009,209.99987 -11.29233,-60.45729 a 33,33 0 0 0 -32.45745,-27.04281 33,33 0 0 0 -32.45796,27.04281 l -11.29233,60.45729 z"
       style="opacity:1;fill:#000000;fill-opacity:1;fill-rule:nonzero;stroke:none;stroke-width:24.71872711;stroke-linecap:butt;stroke-linejoin:miter;stroke-miterlimit:4;stroke-dasharray:none;stroke-opacity:1;paint-order:stroke fill markers" />
    <g
       id="g7571"
       transform="matrix(7.948772,0,0,7.9435809,212.42881,-407.92707)"
       style="fill:#000000;stroke:none">
      <path
         sodipodi:nodetypes="ccccccccccccccccccccccccc"
         inkscape:connector-curvature="0"
         id="path7569"
         d="m 3.2278762,77.789476 -5.4949955,-5.495011 h 4.0620044 l 0.4780321,-3.583971 0.35698,-1.552978 0.7170157,-1.672029 0.7170153,-1.433015 0.4779672,-0.716965 0.5970038,-1.195048 0.4780317,-1.432952 0.1189717,-0.598045 0.1200119,-2.029955 0.1189717,-2.270005 h 2.7479853 v 2.270005 l -0.2389836,2.029955 -0.4779668,2.030997 -0.3580202,1.195048 -1.1949826,2.14998 -0.9559992,1.672029 -0.2380084,0.835947 -0.2400234,0.717031 -0.4769919,3.583971 h 4.1809761 z"
         style="fill:#000000;fill-opacity:1;fill-rule:evenodd;stroke:none;stroke-width:1" />
    </g>
  </g>
</svg>
