<?xml version="1.0" encoding="UTF-8" standalone="no"?>
<!-- Created with Inkscape (http://www.inkscape.org/) -->

<svg
   xmlns:dc="http://purl.org/dc/elements/1.1/"
   xmlns:cc="http://creativecommons.org/ns#"
   xmlns:rdf="http://www.w3.org/1999/02/22-rdf-syntax-ns#"
   xmlns:svg="http://www.w3.org/2000/svg"
   xmlns="http://www.w3.org/2000/svg"
   xmlns:sodipodi="http://sodipodi.sourceforge.net/DTD/sodipodi-0.dtd"
   xmlns:inkscape="http://www.inkscape.org/namespaces/inkscape"
   width="650.76001mm"
   height="573.22198mm"
   viewBox="0 0 650.76001 573.22198"
   version="1.1"
   id="svg8"
   inkscape:version="0.92.2 (5c3e80d, 2017-08-06)"
   sodipodi:docname="11.svg">
  <defs
     id="defs2" />
  <sodipodi:namedview
     id="base"
     pagecolor="#ffffff"
     bordercolor="#666666"
     borderopacity="1.0"
     inkscape:pageopacity="0.0"
     inkscape:pageshadow="2"
     inkscape:zoom="0.175"
     inkscape:cx="1427.7674"
     inkscape:cy="403.6595"
     inkscape:document-units="mm"
     inkscape:current-layer="layer1"
     showgrid="false"
     inkscape:snap-global="false"
     inkscape:window-width="1920"
     inkscape:window-height="1057"
     inkscape:window-x="-8"
     inkscape:window-y="-8"
     inkscape:window-maximized="1" />
  <metadata
     id="metadata5">
    <rdf:RDF>
      <cc:Work
         rdf:about="">
        <dc:format>image/svg+xml</dc:format>
        <dc:type
           rdf:resource="http://purl.org/dc/dcmitype/StillImage" />
        <dc:title></dc:title>
      </cc:Work>
    </rdf:RDF>
  </metadata>
  <g
     inkscape:label="Layer 1"
     inkscape:groupmode="layer"
     id="layer1"
     transform="translate(0,276.22207)">
    <path
       sodipodi:nodetypes="cccc"
       inkscape:connector-curvature="0"
       id="path849"
       d="m 35.997656,260.99973 578.764734,-7e-5 -289.3824,-501.22492 z"
       style="fill:none;fill-opacity:1;stroke:#f00a0a;stroke-width:70.00043488;stroke-linejoin:round;stroke-miterlimit:4;stroke-dasharray:none;stroke-opacity:1" />
    <path
       style="fill:#ffd70f;fill-opacity:1;stroke:none;stroke-width:50.82842255;stroke-linejoin:round;stroke-miterlimit:4;stroke-dasharray:none;stroke-opacity:1"
       d="M 589.30179,246.30025 325.38019,-210.82603 61.458036,246.30021 Z"
       id="path860"
       inkscape:connector-curvature="0"
       sodipodi:nodetypes="cccc" />
    <g
       style="stroke:none"
       transform="matrix(7.94529,0,0,-7.9526457,178.26744,-226.01328)"
       id="g14809" />
    <g
       style="stroke:none"
       transform="matrix(7.94529,0,0,-7.9526457,178.26744,-226.01328)"
       id="g14813" />
    <g
       style="stroke:none"
       transform="matrix(7.94529,0,0,-7.9526457,183.9563,-217.46432)"
       id="g14841" />
    <g
       style="stroke:none"
       transform="matrix(7.94529,0,0,-7.9526457,183.9563,-217.46432)"
       id="g14845" />
    <g
       style="stroke:none"
       transform="matrix(7.94529,0,0,-7.9526457,47.281277,-189.90829)"
       id="g15389" />
    <g
       style="stroke:none"
       transform="matrix(7.94529,0,0,-7.9526457,47.281277,-189.90829)"
       id="g15393" />
    <g
       style="stroke:none"
       transform="matrix(7.94529,0,0,-7.9526457,45.390307,-187.06135)"
       id="g15421" />
    <g
       style="stroke:none"
       transform="matrix(7.94529,0,0,-7.9526457,45.390307,-187.06135)"
       id="g15425" />
    <g
       style="stroke:none"
       transform="matrix(7.94529,0,0,-7.9526457,41.592647,-183.25992)"
       id="g15453" />
    <g
       style="stroke:none"
       transform="matrix(7.94529,0,0,-7.9526457,41.592647,-183.25992)"
       id="g15457" />
    <g
       style="stroke:none"
       transform="matrix(7.94529,0,0,-7.9526457,38.740217,-171.8638)"
       id="g15485" />
    <g
       style="stroke:none"
       transform="matrix(7.94529,0,0,-7.9526457,38.740217,-166.16179)"
       id="g15525" />
    <g
       style="stroke:none"
       transform="matrix(7.94529,0,0,-7.9526457,38.740217,-166.16179)"
       id="g15529" />
    <g
       style="stroke:none"
       transform="matrix(7.94529,0,0,-7.9526457,37.794737,-160.45978)"
       id="g15549" />
    <g
       style="stroke:none"
       transform="matrix(7.94529,0,0,-7.9526457,37.794737,-160.45978)"
       id="g15553" />
    <g
       style="stroke:none"
       transform="matrix(7.94529,0,0,-7.9526457,37.794737,-159.51343)"
       id="g15573" />
    <g
       style="stroke:none"
       transform="matrix(7.94529,0,0,-7.9526457,37.794737,-159.51343)"
       id="g15577" />
    <g
       style="stroke:none"
       transform="matrix(7.94529,0,0,-7.9526457,38.740217,-148.10919)"
       id="g15597" />
    <g
       style="stroke:none"
       transform="matrix(7.94529,0,0,-7.9526457,38.740217,-148.10919)"
       id="g15601" />
    <g
       style="stroke:none"
       transform="matrix(7.94529,0,0,-7.9526457,39.693577,-140.51447)"
       id="g15629" />
    <g
       style="stroke:none"
       transform="matrix(7.94529,0,0,-7.9526457,40.639057,-137.65941)"
       id="g15653" />
    <g
       style="stroke:none"
       transform="matrix(7.94529,0,0,-7.9526457,40.639057,-137.65941)"
       id="g15657" />
    <g
       style="stroke:none"
       transform="matrix(7.94529,0,0,-7.9526457,40.639057,-136.71306)"
       id="g15677" />
    <g
       style="stroke:none"
       transform="matrix(7.94529,0,0,-7.9526457,40.639057,-136.71306)"
       id="g15681" />
    <g
       style="stroke:none"
       transform="matrix(7.94529,0,0,-7.9526457,42.538117,-117.71432)"
       id="g15701" />
    <g
       style="stroke:none"
       transform="matrix(7.94529,0,0,-7.9526457,42.538117,-117.71432)"
       id="g15705" />
    <path
       style="opacity:1;fill:#000000;fill-opacity:1;fill-rule:nonzero;stroke:none;stroke-width:70;stroke-linecap:butt;stroke-linejoin:miter;stroke-miterlimit:4;stroke-dasharray:none;stroke-opacity:1;paint-order:normal"
       d="m 283.18,15.400255 c -30.923,0.0949 -45.7046,3.94759 -50.0998,5.1997 -2.9461,1.09903 -5.5774,1.88207 -8.2,6.20014 l -18,33.20003 c -7.0148,9.22927 -12.3972,22.25585 -12.4002,31.40016 v 3.79976 c 0.059,10.084775 2.0563,32.142425 4.8002,46.600245 v 22.79965 h 24.6 v -22.79965 h 59.2998 59.2997 v 22.79965 h 24.6001 v -22.79965 c 2.7439,-14.45782 4.7417,-36.51547 4.8002,-46.600245 v -3.79976 c 0,-9.14431 -5.3854,-22.17089 -12.4003,-31.40016 l -17.9999,-33.20003 c -2.6226,-4.31807 -5.2539,-5.10111 -8.2,-6.20014 -4.3953,-1.25211 -19.1768,-5.10476 -50.0998,-5.1997 z"
       id="path29728"
       inkscape:connector-curvature="0" />
    <path
       style="opacity:1;fill:#ffd70f;fill-opacity:1;fill-rule:nonzero;stroke:none;stroke-width:70;stroke-linecap:butt;stroke-linejoin:miter;stroke-miterlimit:4;stroke-dasharray:none;stroke-opacity:1;paint-order:normal"
       d="m 283.1799,24.000255 c 18.4798,0.0268 41.7309,1.21597 46.7,1.79991 2.8788,0.77277 3.7157,1.3181 5.8002,4.7997 L 353.88,65.800295 H 212.4799 l 18.1999,-35.20043 c 2.0845,-3.4816 2.9214,-4.02693 5.8002,-4.7997 4.9691,-0.58394 28.2202,-1.77311 46.6999,-1.79991 z"
       id="path29730"
       inkscape:connector-curvature="0"
       sodipodi:nodetypes="cccccccc" />
    <path
       id="path29735"
       d="m 334.48,40.800275 c -30.923,0.0949 -45.7046,3.94758 -50.0998,5.19969 -2.9461,1.09903 -5.5774,1.88206 -8.2,6.20014 l -18,33.20003 c -7.0148,9.22927 -12.3972,22.255845 -12.4002,31.400155 v 3.79976 c 0.058,10.08478 2.0563,32.14243 4.8002,46.60026 v 22.79963 h 24.6 v -22.79963 h 59.2998 59.2997 v 22.79963 h 24.6001 v -22.79963 c 2.7439,-14.45783 4.7417,-36.51548 4.8002,-46.60026 v -3.79976 c 0,-9.14431 -5.3854,-22.170885 -12.4003,-31.400155 l -17.9999,-33.20003 c -2.6226,-4.31808 -5.2539,-5.10111 -8.2,-6.20014 -4.3952,-1.25211 -19.1768,-5.10476 -50.0998,-5.19969 z"
       style="opacity:1;fill:#000000;fill-opacity:1;fill-rule:nonzero;stroke:none;stroke-width:70;stroke-linecap:butt;stroke-linejoin:miter;stroke-miterlimit:4;stroke-dasharray:none;stroke-opacity:1;paint-order:normal"
       inkscape:connector-curvature="0" />
    <path
       sodipodi:nodetypes="cccccccc"
       inkscape:connector-curvature="0"
       id="path29737"
       d="m 334.4799,49.400265 c 18.4798,0.0268 41.7309,1.21597 46.7,1.79991 2.8788,0.77277 3.7157,1.3181 5.8002,4.7997 L 405.18,91.200305 H 263.7799 l 18.1999,-35.20043 c 2.0845,-3.4816 2.9214,-4.02693 5.8002,-4.7997 4.9691,-0.58394 28.2202,-1.77311 46.6999,-1.79991 z"
       style="opacity:1;fill:#ffd70f;fill-opacity:1;fill-rule:nonzero;stroke:none;stroke-width:70;stroke-linecap:butt;stroke-linejoin:miter;stroke-miterlimit:4;stroke-dasharray:none;stroke-opacity:1;paint-order:normal" />
    <path
       inkscape:connector-curvature="0"
       style="opacity:1;fill:#000000;fill-opacity:1;fill-rule:nonzero;stroke:none;stroke-width:70;stroke-linecap:butt;stroke-linejoin:miter;stroke-miterlimit:4;stroke-dasharray:none;stroke-opacity:1;paint-order:normal"
       d="m 385.78,66.200275 c -30.923,0.0949 -45.7046,3.94758 -50.0998,5.19969 -2.9461,1.09903 -5.5774,1.88206 -8.2,6.20014 l -18,33.200025 c -7.0148,9.22926 -12.3972,22.25584 -12.4002,31.40015 v 3.79976 c 0.058,10.08478 2.0563,32.14244 4.8002,46.60026 v 22.79964 h 24.6 V 192.6003 h 59.2998 59.2997 v 22.79964 h 24.6001 V 192.6003 c 2.7439,-14.45782 4.7417,-36.51548 4.8002,-46.60026 v -3.79976 c 0,-9.14431 -5.3854,-22.17089 -12.4003,-31.40015 L 444.0798,77.600105 c -2.6226,-4.31808 -5.2539,-5.10111 -8.2,-6.20014 -4.3952,-1.25211 -19.1768,-5.10476 -50.0998,-5.19969 z"
       id="path29739" />
    <path
       style="opacity:1;fill:#ffd70f;fill-opacity:1;fill-rule:nonzero;stroke:none;stroke-width:70;stroke-linecap:butt;stroke-linejoin:miter;stroke-miterlimit:4;stroke-dasharray:none;stroke-opacity:1;paint-order:normal"
       d="m 385.7799,74.800265 c 18.4798,0.0268 41.7309,1.21597 46.7,1.79991 2.8788,0.77277 3.7157,1.3181 5.8002,4.7997 L 456.48,116.6003 H 315.0799 l 18.1999,-35.200425 c 2.0845,-3.4816 2.9214,-4.02693 5.8002,-4.7997 4.9691,-0.58394 28.2202,-1.77311 46.6999,-1.79991 z"
       id="path29741"
       inkscape:connector-curvature="0"
       sodipodi:nodetypes="cccccccc" />
  </g>
</svg>
