<?xml version="1.0" encoding="UTF-8" standalone="no"?>
<!-- Created with Inkscape (http://www.inkscape.org/) -->

<svg
   xmlns:dc="http://purl.org/dc/elements/1.1/"
   xmlns:cc="http://creativecommons.org/ns#"
   xmlns:rdf="http://www.w3.org/1999/02/22-rdf-syntax-ns#"
   xmlns:svg="http://www.w3.org/2000/svg"
   xmlns="http://www.w3.org/2000/svg"
   xmlns:sodipodi="http://sodipodi.sourceforge.net/DTD/sodipodi-0.dtd"
   xmlns:inkscape="http://www.inkscape.org/namespaces/inkscape"
   width="650.76001mm"
   height="573.22198mm"
   viewBox="0 0 650.76001 573.22198"
   version="1.1"
   id="svg8"
   inkscape:version="0.92.2 (5c3e80d, 2017-08-06)"
   sodipodi:docname="11.svg">
  <defs
     id="defs2" />
  <sodipodi:namedview
     id="base"
     pagecolor="#ffffff"
     bordercolor="#666666"
     borderopacity="1.0"
     inkscape:pageopacity="0.0"
     inkscape:pageshadow="2"
     inkscape:zoom="0.16983677"
     inkscape:cx="2030.3875"
     inkscape:cy="447.08655"
     inkscape:document-units="mm"
     inkscape:current-layer="layer1"
     showgrid="false"
     inkscape:snap-global="false"
     inkscape:window-width="1920"
     inkscape:window-height="1057"
     inkscape:window-x="-8"
     inkscape:window-y="-8"
     inkscape:window-maximized="1" />
  <metadata
     id="metadata5">
    <rdf:RDF>
      <cc:Work
         rdf:about="">
        <dc:format>image/svg+xml</dc:format>
        <dc:type
           rdf:resource="http://purl.org/dc/dcmitype/StillImage" />
        <dc:title></dc:title>
      </cc:Work>
    </rdf:RDF>
  </metadata>
  <g
     inkscape:label="Layer 1"
     inkscape:groupmode="layer"
     id="layer1"
     transform="translate(0,276.2221)">
    <path
       sodipodi:nodetypes="cccc"
       inkscape:connector-curvature="0"
       id="path849"
       d="m 35.997656,260.99973 578.764764,-7e-5 -289.38238,-501.22492 z"
       style="fill:none;fill-opacity:1;stroke:#f00a0a;stroke-width:70.00043488;stroke-linejoin:round;stroke-miterlimit:4;stroke-dasharray:none;stroke-opacity:1" />
    <path
       style="fill:#ffd70f;fill-opacity:1;stroke:none;stroke-width:50.82842255;stroke-linejoin:round;stroke-miterlimit:4;stroke-dasharray:none;stroke-opacity:1"
       d="M 589.30182,246.30025 325.38022,-210.82603 61.458036,246.30021 Z"
       id="path860"
       inkscape:connector-curvature="0"
       sodipodi:nodetypes="cccc" />
    <path
       style="opacity:1;fill:#000000;fill-opacity:1;fill-rule:nonzero;stroke:none;stroke-width:0.99959773;stroke-linecap:butt;stroke-linejoin:miter;stroke-miterlimit:10;stroke-dasharray:none;stroke-opacity:1;paint-order:stroke fill markers"
       d="M 272.8797,8.8999742 V 140.49988 c 0,4.6536 3.74641,8.39999 8.40001,8.39999 h 18.20044 c 24.0436,0 43.39993,19.35634 43.39993,43.39993 v 35.70014 H 307.88015 V 192.2998 c 0,-4.6536 -3.7464,-8.4 -8.4,-8.4 h -18.20044 c -24.0436,0 -43.4,-19.35633 -43.4,-43.39992 V 8.8999742 l -17.4996,-2e-5 34.99997,-35.0000002 35,35.0000002 z"
       id="rect814"
       inkscape:connector-curvature="0"
       sodipodi:nodetypes="cssssccssssccccc" />
    <path
       style="opacity:1;fill:#000000;fill-opacity:1;fill-rule:nonzero;stroke:none;stroke-width:1.44574261;stroke-linecap:butt;stroke-linejoin:miter;stroke-miterlimit:10;stroke-dasharray:none;stroke-opacity:1;paint-order:stroke fill markers"
       d="m 300.91422,-10.959896 c 2.43151,11.57339063 12.63981,19.8598402 24.46587,19.8598402 11.82605,0 22.03435,-8.28644957 24.46587,-19.8598402 l 10.53412,-50.14009 -70,1e-5 z"
       id="path6754"
       inkscape:connector-curvature="0"
       sodipodi:nodetypes="cscccc" />
    <path
       sodipodi:nodetypes="cssssccssssccccc"
       inkscape:connector-curvature="0"
       id="path821"
       d="M 377.88038,8.8999742 V 140.49988 c 0,4.6536 -3.74641,8.39999 -8.40001,8.39999 h -18.20044 c -24.0436,0 -43.39993,19.35634 -43.39993,43.39993 v 35.70014 h 34.99993 V 192.2998 c 0,-4.6536 3.7464,-8.4 8.4,-8.4 h 18.20044 c 24.0436,0 43.4,-19.35633 43.4,-43.39992 V 8.8999742 l 17.4996,-2e-5 -34.99997,-35.0000002 -35,35.0000002 z"
       style="opacity:1;fill:#000000;fill-opacity:1;fill-rule:nonzero;stroke:none;stroke-width:0.99959773;stroke-linecap:butt;stroke-linejoin:miter;stroke-miterlimit:10;stroke-dasharray:none;stroke-opacity:1;paint-order:stroke fill markers" />
  </g>
</svg>
