<?xml version="1.0" encoding="UTF-8" standalone="no"?>
<!-- Created with Inkscape (http://www.inkscape.org/) -->

<svg
   xmlns:dc="http://purl.org/dc/elements/1.1/"
   xmlns:cc="http://creativecommons.org/ns#"
   xmlns:rdf="http://www.w3.org/1999/02/22-rdf-syntax-ns#"
   xmlns:svg="http://www.w3.org/2000/svg"
   xmlns="http://www.w3.org/2000/svg"
   xmlns:sodipodi="http://sodipodi.sourceforge.net/DTD/sodipodi-0.dtd"
   xmlns:inkscape="http://www.inkscape.org/namespaces/inkscape"
   width="72mm"
   height="72mm"
   viewBox="0 0 702 702"
   version="1.1"
   id="svg8"
   inkscape:version="0.92.4 (5da689c313, 2019-01-14)"
   sodipodi:docname="304.svg">
  <defs
     id="defs2" />
  <sodipodi:namedview
     id="base"
     pagecolor="#ffffff"
     bordercolor="#666666"
     borderopacity="1.0"
     inkscape:pageopacity="0.0"
     inkscape:pageshadow="2"
     inkscape:zoom="1.4142136"
     inkscape:cx="195.9876"
     inkscape:cy="157.74558"
     inkscape:document-units="mm"
     inkscape:current-layer="layer1"
     showgrid="false"
     inkscape:window-width="1366"
     inkscape:window-height="705"
     inkscape:window-x="-8"
     inkscape:window-y="-8"
     inkscape:window-maximized="1"
     inkscape:measure-start="0,0"
     inkscape:measure-end="0,0"
     fit-margin-top="0"
     fit-margin-left="0"
     fit-margin-right="0"
     fit-margin-bottom="0"
     showguides="true"
     inkscape:snap-global="false" />
  <metadata
     id="metadata5">
    <rdf:RDF>
      <cc:Work
         rdf:about="">
        <dc:format>image/svg+xml</dc:format>
        <dc:type
           rdf:resource="http://purl.org/dc/dcmitype/StillImage" />
        <dc:title />
      </cc:Work>
    </rdf:RDF>
  </metadata>
  <g
     inkscape:label="Layer 1"
     inkscape:groupmode="layer"
     id="layer1"
     transform="translate(-42.564505,571.69995)">
    <circle
       style="opacity:1;fill:#0046aa;fill-opacity:1;fill-rule:nonzero;stroke:none;stroke-width:315.81494141;stroke-linecap:round;stroke-linejoin:round;stroke-miterlimit:4;stroke-dasharray:none;stroke-opacity:1;paint-order:stroke fill markers"
       id="path815"
       cx="393.56451"
       cy="-220.69995"
       r="350" />
    <path
       style="opacity:1;fill:#ffffff;fill-opacity:1;fill-rule:nonzero;stroke:none;stroke-width:0.0397628;stroke-linecap:round;stroke-linejoin:miter;stroke-miterlimit:10;stroke-dasharray:none;stroke-opacity:1;paint-order:stroke fill markers"
       d="m 358.96715,-150.79179 c -5.888,1.3e-4 -10.66106,4.77324 -10.66115,10.66119 0.008,3.76368 1.9941,7.24586 5.2335,9.162 h -0.73564 c -6.48829,5.17908 -13.05179,13.33286 -15.82584,26.32042 -0.4581,2.49534 5.51869,5.436634 6.49687,5.497394 v 8.82885 c -0.0458,2.81569 -4.42705,6.92738 -6.33029,6.99653 h -3.99777 c -7.07008,-0.16241 -12.41195,-11.38528 -17.15843,-16.65826 -4.85277,-5.398144 -15.73739,-18.943374 -41.14591,-18.990734 -20.83462,0.064 -38.59601,8.93259 -49.47596,32.317514 -6.69078,15.15106 -20.56566,21.649789 -31.65085,21.655936 l 14.9925,51.807579 h 12.85381 c -5.72533,6.0233974 -8.92442,14.01198337 -8.93908,22.3222244 -8e-5,17.9405136 14.54365,32.4841896 32.48411,32.4841066 17.94038,-1.58e-4 32.48377,-14.543751 32.48369,-32.4841066 -0.008,-8.30614403 -3.19492,-16.294204 -8.90934,-22.3222244 h 48.25015 c -5.72534,6.0233974 -8.92442,14.01198337 -8.93909,22.3222244 -9e-5,17.9405136 14.54364,32.4841896 32.48412,32.4841066 17.94037,-1.34e-4 32.48376,-14.543751 32.48369,-32.4841066 -0.008,-8.30614403 -3.19493,-16.294204 -8.90935,-22.3222244 h 13.2407 v -13.576438 h 14.15967 c -0.10802,5.22829 2.96112,8.713883 3.99819,8.745351 h 1.49917 c 2.22032,0.0075 8.56102,-10.296085 8.66231,-11.16089 l 15.82543,-0.749805 7e-5,3.91484 -13.49332,16.7417234 c -1.16143,1.590814 0.23655,4.921227 1.66584,6.413506 v 3.998015 l 1.49926,6.330204 0.83292,9.4953226 0.83292,1.665835 c -0.64668,-0.169517 -1.6601,-0.03698 -1.66584,0.749637 v 1.582542 l -0.74963,0.832922 v 3.914732 c -0.50617,0.27887 -0.78104,0.710257 -0.75505,1.592845 h 1.56972 l 0.79145,0.798605 -0.0234,4.022053 -0.83292,1.58255 4.74765,3.998016 3.1651,-1.582551 2.33219,2.332189 h 1.58255 v -3.165102 l -4.66437,-4.747653 v -3.248402 c 0.42838,0 0.74622,0.07013 0.74963,-0.74963 v -1.58255 c 0.0125,-0.467844 0.0325,-0.836978 -0.74963,-0.832921 v -3.998016 l -0.83292,-8.3e-5 V -5.3638476 c 8.42951,-6.7733864 14.78295,-13.1140524 21.32279,-19.8235274 l 1.49927,0.832922 v 2.33218 c -3.49602,3.353234 -8.06385,9.53063 -9.32872,12.7436834 -0.76737,0.0067 -1.64877,0.208747 -1.66585,0.832939 v 3.165102 h 0.83292 c 0.015,1.778971 3.50194,5.41285797 4.66436,6.41348 h 0.83292 l 10.24498,21.4060926 v 0.832921 l -0.74962,0.74963 v 3.998014 h 0.74962 v 1.582551 h 0.74963 l 1.58255,0.832938 2.41547,-0.0833 0.74963,0.832914 h 2.41547 v -2.332163 l -1.66584,-2.415482 -0.74963,-0.832896 c -0.0625,-3.190689 0.14027,-6.105922 -0.74971,-8.745668 -3.10121,-8.6089016 -8.34971,-18.9915096 -11.82748,-23.8215566 1.40472,-0.116601 18.88916,-15.5205524 18.90732,-16.6584484 v -4.830953 l 3.08181,-0.832914 c 9.69887,5.267787 22.38293,5.783532 35.48246,3.99804 1.16425,6.777917 3.33635,14.249082 7.16312,19.9068274 v 6.330195 l -0.83292,3.248386 V 22.539049 l -1.58255,1.58255 v 2.332189 l 2.41547,2.415465 v 3.248401 l -0.83292,0.749612 -1.58255,1.582551 0.74963,0.832939 h 2.41547 l 3.91474,3.998015 h 3.99802 v -3.998015 l -1.66584,-1.582551 -1.49926,-0.832939 -0.83292,-0.749612 v -4.830953 h 2.33218 v -3.165102 l -1.49923,-0.832913 v -6.330204 l 0.74963,-1.582551 1.58255,-11.0778726 -9e-5,-3.165102 c 3.42914,-5.851899 5.28947,-11.4766024 6.3302,-17.5746374 h 1.49927 c 0.59128,2.860361 6.07358,6.8988804 11.07785,7.9127554 V 15.126047 c 0.0475,1.448292 -3.9059,3.761482 -3.91473,4.164599 v 4.830953 l -1.58255,1.582551 h -2.41547 l -1.49926,0.749638 v 1.665801 l 6.16362,11.910795 7.16312,-10.411519 v -7.079841 h 0.83292 v -7.912747 c 0.0525,-2.225899 5.49946,-11.4071436 5.49729,-13.4933456 v -6.496779 c -0.19941,-3.406751 -3.48919,-10.4892084 -7.16313,-16.6584254 0.3565,-4.499525 -0.5967,-7.947221 -1.49909,-11.161158 l 0.83292,-1.499242 v -2.415489 l 6.99654,-10.328219 v -9.578606 c -0.12594,-2.848509 -1.93212,-7.216357 -3.1651,-8.662383 0.14252,-5.215811 -0.63193,-8.266464 -1.49926,-12.660406 l -8e-5,-7.99606 c 2.12994,-2.35149 3.34401,-5.79687 3.16502,-7.99603 h 2.33218 c 0.0367,1.21626 2.1611,3.10527 3.99802,3.16511 h 6.24691 c 1.23881,-0.0216 6.65396,7.91256 7.91276,7.91275 l 5.83045,-1e-4 c 0.24629,0.009 0.19341,0.83564 0.41646,0.83292 h 7.07984 c 0.38272,-0.0119 0.83399,-0.37495 0.83291,-0.91622 v -8.66236 c -0.0158,-1.84718 -9.29898,-9.365304 -13.32674,-15.992104 -3.09255,-5.99432 -10.17606,-15.22493 -14.24296,-16.57515 l -3.91473,-3.99801 v -2.41545 l 0.74963,-0.74965 v -4.74765 c -0.69416,-0.87287 -1.23897,-2.25003 -1.58255,-3.1651 0,0 -2.04058,2.30984 -3.1651,4.74765 l -1.49927,3.1651 c -0.11918,0.26759 -0.49675,0.51935 -0.83292,0.74965 l -10.24493,6.41346 c -0.62136,0.31077 -2.65427,0.70443 -3.91473,1.58257 -8.53603,7.09315 -12.19539,9.83537 -17.32477,20.65643 -2.59805,5.510344 -13.98084,18.891394 -22.98863,19.157204 h -13.32675 c -4.54359,-0.095 -18.11038,-3.81421 -25.98716,-6.41349 -2.6785,-0.94107 -12.88962,0.26258 -16.49176,3.165 -0.85349,-1.59981 -5.20459,-4.87978 -8.66229,-5.58046 -1.39556,-0.27981 -2.23899,-0.39795 -3.9982,0 -3.52934,0.82408 -6.88051,4.80037 -8.99539,9.49515 -3.16959,6.857511 -7.85603,18.24302 -10.66164,46.144042 l -14.9925,2.498615 -2.33202,-0.832872 v -2.498614 c 0.0741,-1.752193 1.47453,-2.264856 3.16485,-2.332448 h 10.16189 v -3.164927 l -6.99653,-3.99819 v -31.817396 l -14.15967,-13.49336 c -0.18608,-0.19202 -0.79544,-0.937 -0.83325,-1.66575 v -3.83162 l 1.49958,-0.83288 1.66568,0.83288 h 0.66633 c 1.51851,1.41272 4.38284,3.41383 5.66395,3.83162 1.7035,0.53909 4.99879,1.59541 8.49572,1.66575 h 4.83103 c 0.53582,-0.0209 0.83376,-0.41071 0.83292,-0.83287 v -4.6645 c -3.96895,-1.04415 -8.66096,-3.836904 -10.32848,-3.997804 -0.81634,-0.0927 -3.94813,-0.12742 -6.99653,-0.83329 v -15.82538 c -0.15059,-3.76844 -4.51268,-9.30417 -7.99597,-12.82707 h -0.23588 c 3.2394,-1.91614 5.2285,-5.39833 5.23349,-9.16201 -8e-5,-5.88813 -4.77347,-10.6613 -10.66156,-10.66119 z m 56.14324,64.904084 c 0.50026,-0.01 0.99901,0.0573 1.49527,0.23028 1.011,0.61251 2.41514,2.49861 2.41514,2.49861 -3.17544,4.29418 -8.47115,12.443214 -8.66231,19.82361 -0.0317,5.882365 2.9508,20.473544 3.91473,23.072026 l -9.41209,1.582667 v -29.652339 c 0.19191,-5.642732 2.34609,-11.899314 3.16536,-13.326804 0.55347,-1.57369 3.79237,-3.50288 5.5804,-3.99777 0.5015,-0.13426 1.00326,-0.2206 1.5035,-0.23028 z"
       id="path57776"
       inkscape:connector-curvature="0"
       sodipodi:nodetypes="scccccccccccccccccccccccccccccccccccccccccccccccccccccccccccccccccccccccccccccccccccccccccccccccccccccccccccccccccccccccccccccccccccccccccccccccccccccccccccccccccccccccccccccccccccccccccccccccccccccsccccccccsc" />
    <path
       style="opacity:1;fill:#ffffff;fill-opacity:1;fill-rule:nonzero;stroke:none;stroke-width:0.05091785;stroke-linecap:round;stroke-linejoin:miter;stroke-miterlimit:10;stroke-dasharray:none;stroke-opacity:1;paint-order:stroke fill markers"
       d="m 455.75264,-499.93712 c 3.30564,0.0193 9.51916,2.75082 9.51991,5.11937 v 6.91498 l -4.98018,11.85472 0.0241,1.79607 15.19389,56.70401 -0.71934,0.19168 c -0.006,3.86065 0.43259,7.55118 2.48242,12.27844 9.2479,-4.48777 19.39006,-6.82873 29.66931,-6.84812 37.69532,0 68.25342,30.55806 68.25342,68.25337 0,37.69535 -30.5581,68.25341 -68.25342,68.25341 -37.6953,0 -68.25336,-30.55806 -68.25336,-68.25341 0,-23.26297 11.85144,-44.92327 31.44075,-57.47022 -2.13423,-3.24715 -3.85238,-10.89698 -4.41583,-13.78119 l -1.13425,0.30399 -1.41917,-5.29666 -79.6872,66.86576 c 1.58296,3.09835 2.40856,6.5279 2.40912,10.00716 0,12.15165 -9.85097,22.00249 -22.00257,22.00257 -3.16988,-0.004 -6.19589,-0.68447 -8.93517,-1.90787 l -8.84646,15.6482 h 5.02885 v 7.72341 h -17.96121 v -7.72341 h 7.72339 l 10.1283,-17.91577 c -4.80472,-3.47706 -8.17323,-8.85968 -8.94719,-15.13307 h -5.02891 c -2.45732,36.54065 -32.81169,64.92594 -69.43495,64.93051 -38.43941,8e-5 -69.60074,-31.16125 -69.60066,-69.60066 0,-38.43923 31.16142,-69.60025 69.60066,-69.60017 14.00384,0.015 27.05985,4.17373 37.99092,11.32705 l 33.08922,-44.71749 -1.71433,-8.81911 h 2.66713 l -3.12009,-17.69206 -8.8321,6.19701 -11.13589,-5.92736 c 0.0212,-0.0721 -2.11065,-0.70586 -3.41292,-2.69453 -0.96758,-1.52386 -2.51057,-4.36908 -2.51443,-5.92693 -0.009,-2.71451 2.34919,-4.30554 4.31094,-4.31094 5.45097,0.028 11.52078,0.18514 15.44683,1.79604 l 23.17017,-0.89802 c 4.10196,-0.14009 11.94468,2.58865 12.03387,5.92739 v 3.4129 h -15.35675 c -2.81522,0.10071 -7.92107,1.66788 -10.17289,1.79603 l 3.23102,18.32047 h 2.00255 v 3.77212 h 108.99081 l -5.67908,-21.19453 5.35468,-13.65079 c 0.21364,-0.7035 -0.36258,-2.67558 -2.69404,-2.69406 h -6.44901 c -1.54818,0.0535 -3.97937,0.92404 -5.40571,0.89802 -2.02674,-0.088 -6.10549,-2.05519 -6.10702,-4.31094 v -0.7184 c 0,-2.55381 1.84301,-4.32325 4.45899,-4.34574 3.46538,0.0648 14.69051,-0.85407 17.99283,-0.86323 z m 0.35688,53.7046 H 347.26073 l 15.79207,81.21502 c 0.2756,-0.015 0.55148,-0.0249 0.82746,-0.0291 2.99717,0.004 5.93604,0.61926 8.64696,1.78212 l 8.77548,-15.52295 h -5.02887 v -7.72339 h 17.96123 v 7.72339 h -7.72339 l -10.02624,17.73478 c 0.65592,0.46006 1.29182,0.95284 1.8986,1.48649 l 82.41747,-69.15607 z m -115.33031,8.98389 -28.68591,38.76643 c 14.76426,12.31636 24.36591,30.64476 25.00615,51.30712 h 5.18018 c 1.37578,-7.15229 6.20182,-13.1603 12.8892,-16.04595 z m -73.1723,31.60922 c -33.47939,0 -60.61989,27.14017 -60.62001,60.61956 0,33.47956 27.14046,60.62012 60.62001,60.62004 31.97492,-0.006 58.44636,-24.84836 60.48315,-56.75832 l -60.03393,-2.69405 h -1.07807 c -1.87297,-0.0316 -2.17762,-4.0873 0.61356,-8.07798 l 32.65481,-44.13043 c -9.42929,-6.05353 -20.63483,-9.56527 -32.63952,-9.57882 z m 239.3359,2.69404 c -9.61627,0.0135 -19.08485,2.36656 -27.5888,6.85602 6.98437,20.55109 9.33113,26.60837 22.9813,46.44903 1.31937,-1.02024 2.93965,-1.57451 4.6075,-1.57605 4.16633,0 7.54382,3.37745 7.54378,7.54377 0,4.16633 -3.37745,7.54382 -7.54378,7.54382 -4.16632,0 -7.54381,-3.37749 -7.54381,-7.54382 0,-1.25209 0.31293,-2.48428 0.9087,-3.58557 -8.53091,-8.66717 -20.63049,-30.89421 -27.84687,-44.56336 -15.54126,11.11566 -24.77095,29.0416 -24.79081,48.14893 -5e-5,32.73549 26.5373,59.27283 59.27279,59.27279 32.73545,4e-5 59.2728,-26.5373 59.27276,-59.27279 4e-5,-32.73546 -26.53731,-59.2728 -59.27276,-59.27277 z m -200.19911,11.69277 -31.96334,43.19574 53.34265,0.97134 c -0.60492,-17.73915 -8.79031,-33.48369 -21.37931,-44.16708 z m 57.13656,40.75462 c -4.1169,0 -7.45437,3.33732 -7.45422,7.45422 0,4.11674 3.33748,7.45391 7.45422,7.45379 4.11655,-8e-5 7.45363,-3.33721 7.45379,-7.45379 0,-4.11674 -3.33705,-7.4541 -7.45379,-7.45422 z m 143.06255,2.78408 c -2.23197,0 -4.04129,1.80935 -4.04132,4.0413 3e-5,2.23194 1.80935,4.04133 4.04132,4.04133 2.23194,0 4.0413,-1.80939 4.0413,-4.04133 0,-2.23195 -1.80936,-4.0413 -4.0413,-4.0413 z"
       id="path72930"
       inkscape:connector-curvature="0"
       sodipodi:nodetypes="cccccccccssccccccccccccccccccccccccccccccccccccccccccccccccccccccccccccccccccccccccsccccccccccccsccccccccccccccccscscs" />
    <g
       style="fill:#d38d5f;stroke:none"
       transform="matrix(78.084758,0,0,-77.585381,3836.2236,1769.9535)"
       id="g73010" />
    <rect
       id="rect697"
       width="721.02271"
       height="34.95541"
       x="29.666067"
       y="-225.86444"
       style="fill:#ffffff;stroke-width:2.20777559" />
  </g>
</svg>
