<?xml version="1.0" encoding="UTF-8" standalone="no"?>
<!-- Created with Inkscape (http://www.inkscape.org/) -->

<svg
   xmlns:dc="http://purl.org/dc/elements/1.1/"
   xmlns:cc="http://creativecommons.org/ns#"
   xmlns:rdf="http://www.w3.org/1999/02/22-rdf-syntax-ns#"
   xmlns:svg="http://www.w3.org/2000/svg"
   xmlns="http://www.w3.org/2000/svg"
   xmlns:sodipodi="http://sodipodi.sourceforge.net/DTD/sodipodi-0.dtd"
   xmlns:inkscape="http://www.inkscape.org/namespaces/inkscape"
   width="702mm"
   height="702mm"
   viewBox="0 0 701.99998 702"
   version="1.1"
   id="svg8"
   inkscape:version="0.92.2 (5c3e80d, 2017-08-06)"
   sodipodi:docname="11.svg">
  <defs
     id="defs2" />
  <sodipodi:namedview
     id="base"
     pagecolor="#ffffff"
     bordercolor="#666666"
     borderopacity="1.0"
     inkscape:pageopacity="0.0"
     inkscape:pageshadow="2"
     inkscape:zoom="0.1767767"
     inkscape:cx="1345.243"
     inkscape:cy="1010.13"
     inkscape:document-units="mm"
     inkscape:current-layer="layer1"
     showgrid="false"
     inkscape:window-width="1920"
     inkscape:window-height="1057"
     inkscape:window-x="-8"
     inkscape:window-y="-8"
     inkscape:window-maximized="1"
     inkscape:measure-start="0,0"
     inkscape:measure-end="0,0"
     fit-margin-top="0"
     fit-margin-left="0"
     fit-margin-right="0"
     fit-margin-bottom="0"
     showguides="true"
     inkscape:snap-global="false" />
  <metadata
     id="metadata5">
    <rdf:RDF>
      <cc:Work
         rdf:about="">
        <dc:format>image/svg+xml</dc:format>
        <dc:type
           rdf:resource="http://purl.org/dc/dcmitype/StillImage" />
        <dc:title></dc:title>
      </cc:Work>
    </rdf:RDF>
  </metadata>
  <g
     inkscape:label="Layer 1"
     inkscape:groupmode="layer"
     id="layer1"
     transform="translate(-42.564505,571.69995)">
    <circle
       style="opacity:1;fill:#f00a0a;fill-opacity:1;fill-rule:nonzero;stroke:none;stroke-width:315.81494141;stroke-linecap:round;stroke-linejoin:round;stroke-miterlimit:4;stroke-dasharray:none;stroke-opacity:1;paint-order:stroke fill markers"
       id="path815"
       cx="393.56451"
       cy="-220.69995"
       r="350" />
    <circle
       cy="-220.69995"
       cx="393.56451"
       id="circle817"
       style="opacity:1;fill:#ffffff;fill-opacity:1;fill-rule:nonzero;stroke:none;stroke-width:225.58209229;stroke-linecap:round;stroke-linejoin:round;stroke-miterlimit:4;stroke-dasharray:none;stroke-opacity:1;paint-order:stroke fill markers"
       r="250" />
    <rect
       y="-217.76627"
       x="409.35065"
       height="680"
       width="50"
       id="rect818"
       style="opacity:1;fill:#f00a0a;fill-opacity:1;fill-rule:nonzero;stroke:none;stroke-width:72.09967804;stroke-linecap:round;stroke-linejoin:round;stroke-miterlimit:4;stroke-dasharray:none;stroke-opacity:1;paint-order:stroke fill markers"
       transform="rotate(-45)" />
    <path
       style="opacity:1;fill:#000000;fill-opacity:1;fill-rule:nonzero;stroke:none;stroke-width:0.04773895;stroke-linecap:round;stroke-linejoin:miter;stroke-miterlimit:10;stroke-dasharray:none;stroke-opacity:1;paint-order:stroke fill markers"
       d="m 419.1648,-343.1998 c 7.0691,1.6e-4 12.7996,5.73071 12.7997,12.79975 -0.01,4.51866 -2.3941,8.69934 -6.2833,10.99984 h 0.8832 c 7.7898,6.21797 15.6699,16.00734 19.0004,31.60014 0.55,2.99587 -6.6257,6.52716 -7.8001,6.60011 v 10.59987 c 0.055,3.3805 5.3151,8.31696 7.6001,8.39999 h 4.7997 c 8.4883,-0.195 14.9017,-13.66909 20.6003,-19.9998 5.8262,-6.48097 18.8942,-22.7433 49.3995,-22.80015 25.0139,0.0768 46.3381,10.7244 59.4005,38.80019 8.0329,18.19026 24.691,25.99259 37.9998,25.99997 l -17.9999,62.19983 h -15.4322 c 6.8738,7.23165 10.7146,16.82269 10.7322,26.79991 10e-5,21.53926 -17.461,39.0003 -39.0002,39.0002 -21.5391,-1.9e-4 -38.9998,-17.46113 -38.9997,-39.0002 0.01,-9.9723 3.8358,-19.56271 10.6965,-26.79991 h -57.9288 c 6.8738,7.23165 10.7146,16.82269 10.7322,26.79991 10e-5,21.53926 -17.461,39.0003 -39.0002,39.0002 -21.5391,-1.6e-4 -38.9998,-17.46113 -38.9997,-39.0002 0.01,-9.9723 3.8358,-19.56271 10.6965,-26.79991 h -15.8967 v -16.29978 h -17 c 0.1297,6.27705 -3.5551,10.46183 -4.8002,10.49961 h -1.7999 c -2.6657,0.009 -10.2783,-12.36141 -10.3999,-13.39969 l -18.9999,-0.90021 -10e-5,4.70013 16.2,20.1 c 1.3944,1.90992 -0.284,5.90839 -2,7.70001 V -160.8 l -1.8,7.6 -1,11.40002 -1,1.99999 c 0.7764,-0.20352 1.9931,-0.0444 2,0.90001 v 1.89999 l 0.9,1 v 4.7 c 0.6077,0.33481 0.9377,0.85273 0.9065,1.91236 h -1.8846 l -0.9502,0.9588 0.028,4.82885 1,1.9 -5.7,4.79999 -3.8,-1.9 -2.8,2.80001 h -1.9 v -3.8 l 5.6,-5.7 v -3.90001 c -0.5143,0 -0.8959,0.0842 -0.9,-0.9 v -1.9 c -0.015,-0.56169 -0.039,-1.00487 0.9,-1 v -4.79999 l 1,-1e-4 v -30.59991 c -10.1204,-8.13208 -17.7483,-15.74464 -25.6,-23.79999 l -1.8,1 v 2.8 c 4.1973,4.02587 9.6814,11.44241 11.2,15.29998 0.9213,0.008 1.9795,0.25062 2,1.00002 v 3.8 h -1 c -0.018,2.13582 -4.2044,6.49864 -5.6,7.69998 h -1 l -12.3,25.70001 v 1 l 0.9,0.9 V -128.4 h -0.9 v 1.9 h -0.9 l -1.9,1.00002 -2.9,-0.10001 -0.9,0.99999 h -2.9 v -2.79998 l 2,-2.90001 0.9,-0.99997 c 0.075,-3.83072 -0.1684,-7.33073 0.9001,-10.49999 3.7233,-10.33579 10.0246,-22.80108 14.2,-28.6 -1.6865,-0.13999 -22.6782,-18.63387 -22.7,-20.00002 v -5.80001 l -3.7,-0.99999 c -11.6444,6.32447 -26.8728,6.94367 -42.6,4.80002 -1.3978,8.13752 -4.0056,17.10735 -8.6,23.9 v 7.59999 l 1,3.89999 v 21.90001 l 1.9,1.9 v 2.80001 l -2.9,2.89999 v 3.90001 l 1,0.89998 1.9,1.9 -0.9,1.00002 h -2.9 l -4.7,4.79999 h -4.8 v -4.79999 l 2,-1.9 1.8,-1.00002 1,-0.89998 v -5.80001 h -2.8 v -3.8 l 1.8,-0.99999 v -7.6 l -0.9,-1.9 -1.9,-13.30002 1e-4,-3.8 c -4.117,-7.02575 -6.3505,-13.77873 -7.6,-21.09999 h -1.8 c -0.7099,3.43413 -7.2919,8.28275 -13.3,9.5 v 28.4 c -0.057,1.73881 4.6894,4.51601 4.7,4.99999 v 5.80001 l 1.9,1.9 h 2.9 l 1.8,0.90001 V -128.4 l -7.4,14.30002 -8.6,-12.5 v -8.50001 h -1 v -9.49999 c -0.063,-2.6724 -6.6026,-13.69534 -6.6,-16.20002 v -7.79999 c 0.2394,-4.09012 4.1891,-12.59327 8.6,-19.99999 -0.428,-5.4021 0.7164,-9.54138 1.7998,-13.40001 l -1,-1.79998 v -2.90002 l -8.4,-12.39999 v -11.50001 c 0.1512,-3.4199 2.3197,-8.66391 3.8,-10.4 -0.1711,-6.26206 0.7587,-9.92466 1.8,-15.2 l 1e-4,-9.60001 c -2.5572,-2.82318 -4.0148,-6.95968 -3.7999,-9.59998 h -2.8 c -0.044,1.46024 -2.5946,3.72816 -4.8,3.8 h -7.5 c -1.4873,-0.0259 -7.9887,9.49978 -9.5,9.5 l -7,-1.1e-4 c -0.2957,0.01 -0.2322,1.00325 -0.5,0.99999 h -8.5 c -0.4595,-0.0143 -1.0013,-0.45016 -1,-1.1 v -10.39998 c 0.019,-2.21771 11.1643,-11.24392 16,-19.20002 3.7129,-7.19674 12.2173,-18.27895 17.1,-19.9 l 4.7,-4.79999 v -2.89999 l -0.9,-0.90001 v -5.7 c 0.8334,-1.04796 1.4875,-2.70137 1.9,-3.8 0,0 2.4499,2.77318 3.8,5.7 l 1.8,3.8 c 0.1431,0.32126 0.5964,0.62352 1,0.90001 l 12.3,7.69998 c 0.746,0.37309 3.1867,0.84572 4.7,1.9 10.2483,8.51599 14.6417,11.8083 20.8,24.8 3.1192,6.61567 16.7853,22.68088 27.6,23 h 16 c 5.455,-0.11409 21.7432,-4.57931 31.2,-7.69999 3.2158,-1.12985 15.4752,0.31525 19.7999,3.79987 1.0247,-1.92072 6.2486,-5.85862 10.3999,-6.69986 1.6755,-0.33594 2.6881,-0.47778 4.8002,0 4.2373,0.98938 8.2607,5.76329 10.7998,11.39981 3.8054,8.23309 9.4319,21.90245 12.8003,55.40023 l 17.9999,2.99982 2.7998,-0.99994 v -2.99982 c -0.089,-2.10367 -1.7703,-2.71917 -3.7997,-2.80032 h -12.2003 v -3.79979 l 8.4,-4.8002 v -38.19975 l 17,-16.20004 c 0.2234,-0.23053 0.955,-1.12496 1.0004,-1.99988 v -4.60023 l -1.8004,-0.99994 -1.9998,0.99994 h -0.8 c -1.8231,1.69611 -5.262,4.09863 -6.8001,4.60023 -2.0452,0.64722 -6.0015,1.91543 -10.1999,1.99988 h -5.8001 c -0.6433,-0.0251 -1.001,-0.4931 -1,-0.99994 v -5.60017 c 4.7651,-1.2536 10.3983,-4.60655 12.4003,-4.79973 0.9801,-0.11123 4.7401,-0.15298 8.4,-1.00044 v -18.99986 c 0.1808,-4.52435 5.4179,-11.17052 9.5999,-15.4001 h 0.2832 c -3.8892,-2.3005 -6.2773,-6.48118 -6.2833,-10.99984 10e-5,-7.06924 5.731,-12.79988 12.8002,-12.79975 z m -67.4052,77.92341 c -0.6006,-0.0116 -1.1994,0.0688 -1.7952,0.27647 -1.2138,0.73538 -2.8996,2.99982 -2.8996,2.99982 3.8124,5.15556 10.1704,14.93924 10.3999,23.80009 0.038,7.06233 -3.5427,24.5804 -4.7,27.70012 l 11.3001,1.90014 v -35.6004 c -0.2304,-6.77463 -2.8167,-14.28623 -3.8003,-16.00007 -0.6645,-1.88937 -4.5531,-4.20553 -6.6998,-4.7997 -0.6021,-0.16119 -1.2045,-0.26485 -1.8051,-0.27647 z"
       id="path57776"
       inkscape:connector-curvature="0"
       sodipodi:nodetypes="scccccccccccccccccccccccccccccccccccccccccccccccccccccccccccccccccccccccccccccccccccccccccccccccccccccccccccccccccccccccccccccccccccccccccccccccccccccccccccccccccccccccccccccccccccccccccccccccccccccsccccccccsc" />
  </g>
</svg>
