<?xml version="1.0" encoding="UTF-8" standalone="no"?>
<!-- Created with Inkscape (http://www.inkscape.org/) -->

<svg
   xmlns:dc="http://purl.org/dc/elements/1.1/"
   xmlns:cc="http://creativecommons.org/ns#"
   xmlns:rdf="http://www.w3.org/1999/02/22-rdf-syntax-ns#"
   xmlns:svg="http://www.w3.org/2000/svg"
   xmlns="http://www.w3.org/2000/svg"
   xmlns:sodipodi="http://sodipodi.sourceforge.net/DTD/sodipodi-0.dtd"
   xmlns:inkscape="http://www.inkscape.org/namespaces/inkscape"
   width="650.76001mm"
   height="573.22198mm"
   viewBox="0 0 650.76002 573.22198"
   version="1.1"
   id="svg8"
   inkscape:version="0.92.2 (5c3e80d, 2017-08-06)"
   sodipodi:docname="11.svg">
  <defs
     id="defs2" />
  <sodipodi:namedview
     id="base"
     pagecolor="#ffffff"
     bordercolor="#666666"
     borderopacity="1.0"
     inkscape:pageopacity="0.0"
     inkscape:pageshadow="2"
     inkscape:zoom="0.24748737"
     inkscape:cx="1661.48"
     inkscape:cy="823.46081"
     inkscape:document-units="mm"
     inkscape:current-layer="layer1"
     showgrid="false"
     inkscape:snap-global="false"
     inkscape:window-width="1920"
     inkscape:window-height="1057"
     inkscape:window-x="-8"
     inkscape:window-y="-8"
     inkscape:window-maximized="1"
     fit-margin-top="0"
     fit-margin-left="0"
     fit-margin-right="0"
     fit-margin-bottom="0"
     inkscape:measure-start="0,0"
     inkscape:measure-end="0,0" />
  <metadata
     id="metadata5">
    <rdf:RDF>
      <cc:Work
         rdf:about="">
        <dc:format>image/svg+xml</dc:format>
        <dc:type
           rdf:resource="http://purl.org/dc/dcmitype/StillImage" />
        <dc:title></dc:title>
      </cc:Work>
    </rdf:RDF>
  </metadata>
  <g
     inkscape:label="Layer 1"
     inkscape:groupmode="layer"
     id="layer1"
     transform="translate(0,321.02206)">
    <path
       sodipodi:nodetypes="cccc"
       inkscape:connector-curvature="0"
       id="path849"
       d="m 35.997656,216.19972 578.764764,-7e-5 -289.3824,-501.22494 z"
       style="fill:none;fill-opacity:1;stroke:#f00a0a;stroke-width:70.00043488;stroke-linejoin:round;stroke-miterlimit:4;stroke-dasharray:none;stroke-opacity:1" />
    <path
       style="fill:#ffd70f;fill-opacity:1;stroke:none;stroke-width:50.82842255;stroke-linejoin:round;stroke-miterlimit:4;stroke-dasharray:none;stroke-opacity:1"
       d="M 589.30182,201.50024 325.38022,-255.62604 61.458036,201.5002 Z"
       id="path860"
       inkscape:connector-curvature="0"
       sodipodi:nodetypes="cccc" />
    <path
       style="opacity:1;fill:#000000;fill-opacity:1;fill-rule:nonzero;stroke:none;stroke-width:70;stroke-linecap:butt;stroke-linejoin:miter;stroke-miterlimit:4;stroke-dasharray:none;stroke-opacity:1;paint-order:stroke fill markers"
       d="M 179.13876,71.799952 151.08,120.39957 h 45.80082 a 39.999999,39.999999 0 0 1 37.19928,-25.399998 39.999999,39.999999 0 0 1 37.23391,25.399998 h 48.36601 V 71.799952 Z"
       id="rect10535"
       inkscape:connector-curvature="0" />
    <path
       style="opacity:1;fill:#000000;fill-opacity:1;fill-rule:nonzero;stroke:none;stroke-width:80.18309784;stroke-linecap:butt;stroke-linejoin:miter;stroke-miterlimit:4;stroke-dasharray:none;stroke-opacity:1;paint-order:stroke fill markers"
       d="m 258.08,25.199802 h 61.60002 v 34.2 H 258.08 Z"
       id="rect10538"
       inkscape:connector-curvature="0" />
    <path
       id="path10570"
       d="m 206.044,25.199802 h 39.837 v 34.2 h -59.583 z"
       style="opacity:1;fill:#000000;fill-opacity:1;fill-rule:nonzero;stroke:none;stroke-width:80.18309784;stroke-linecap:butt;stroke-linejoin:miter;stroke-miterlimit:4;stroke-dasharray:none;stroke-opacity:1;paint-order:stroke fill markers"
       inkscape:connector-curvature="0"
       sodipodi:nodetypes="ccccc" />
    <path
       style="opacity:1;fill:#000000;fill-opacity:1;fill-rule:nonzero;stroke:none;stroke-width:83.90283203;stroke-linecap:butt;stroke-linejoin:miter;stroke-miterlimit:4;stroke-dasharray:none;stroke-opacity:1;paint-order:stroke fill markers"
       d="m 234.0801,100.79973 a 32.2,32.2 0 0 0 -32.2001,32.2001 32.2,32.2 0 0 0 32.2001,32.20011 32.2,32.2 0 0 0 32.2001,-32.20011 32.2,32.2 0 0 0 -32.2001,-32.2001 z m 0,19.59984 a 12.6,12.6 0 0 1 12.59975,12.60026 12.6,12.6 0 0 1 -12.59975,12.59975 12.6,12.6 0 0 1 -12.60026,-12.59975 12.6,12.6 0 0 1 12.60026,-12.60026 z"
       id="circle10615"
       inkscape:connector-curvature="0" />
    <path
       style="opacity:1;fill:#000000;fill-opacity:1;fill-rule:nonzero;stroke:none;stroke-width:70;stroke-linecap:butt;stroke-linejoin:miter;stroke-miterlimit:4;stroke-dasharray:none;stroke-opacity:1;paint-order:stroke fill markers"
       d="m 439.08002,97.599932 -65.4002,8.599988 -8.6,10.59987 -45.3998,14.40015 v 7.40007 l -12.2003,1.79989 -1.99984,13.3997 h 23.92824 a 19.899999,19.899999 0 0 1 19.572,-16.40003 19.899999,19.899999 0 0 1 17.294,10.10532 l 68.0144,-11.76414 a 17.899999,17.899999 0 0 1 17.4915,-14.14074 17.899999,17.899999 0 0 1 15.2094,8.48476 l 0.4904,-0.0847 32.2001,-9.60045 -10.3999,-8.59999 h -34.9999 z"
       id="rect10870"
       inkscape:connector-curvature="0" />
    <path
       inkscape:connector-curvature="0"
       id="path10888"
       style="fill:#000000;stroke:none;stroke-width:0.94617969;stroke-linecap:butt;stroke-linejoin:miter;stroke-miterlimit:10;stroke-dasharray:none;stroke-opacity:1"
       d="m 313.68002,122.99994 -31.00002,13.6 v 3 l 33.40002,-9"
       sodipodi:nodetypes="cccc" />
    <path
       style="opacity:1;fill:#000000;fill-opacity:1;fill-rule:nonzero;stroke:none;stroke-width:54.75669098;stroke-linecap:butt;stroke-linejoin:miter;stroke-miterlimit:4;stroke-dasharray:none;stroke-opacity:1;paint-order:stroke fill markers"
       d="m 348.18002,140.59975 a 12.3,12.3 0 0 0 -12.3,12.30003 12.3,12.3 0 0 0 12.3,12.30002 12.3,12.3 0 0 0 12.3,-12.30002 12.3,12.3 0 0 0 -12.3,-12.30003 z m 0,6.29988 a 5.9999998,5.9999998 0 0 1 6.0002,6.00015 5.9999998,5.9999998 0 0 1 -6.0002,5.99963 5.9999998,5.9999998 0 0 1 -6.0001,-5.99963 5.9999998,5.9999998 0 0 1 6.0001,-6.00015 z"
       id="path10914"
       inkscape:connector-curvature="0" />
    <path
       inkscape:connector-curvature="0"
       id="path10919"
       d="m 451.38002,126.29975 a 12.3,12.3 0 0 0 -12.3,12.30003 12.3,12.3 0 0 0 12.3,12.30002 12.3,12.3 0 0 0 12.3,-12.30002 12.3,12.3 0 0 0 -12.3,-12.30003 z m 0,6.29988 a 5.9999998,5.9999998 0 0 1 6.0002,6.00015 5.9999998,5.9999998 0 0 1 -6.0002,5.99963 5.9999998,5.9999998 0 0 1 -6.0001,-5.99963 5.9999998,5.9999998 0 0 1 6.0001,-6.00015 z"
       style="opacity:1;fill:#000000;fill-opacity:1;fill-rule:nonzero;stroke:none;stroke-width:54.75669098;stroke-linecap:butt;stroke-linejoin:miter;stroke-miterlimit:4;stroke-dasharray:none;stroke-opacity:1;paint-order:stroke fill markers" />
    <path
       style="opacity:1;fill:#ffd70f;fill-opacity:1;fill-rule:nonzero;stroke:none;stroke-width:70;stroke-linecap:butt;stroke-linejoin:miter;stroke-miterlimit:4;stroke-dasharray:none;stroke-opacity:1;paint-order:stroke fill markers"
       d="m 375.68002,109.9998 60.6,-9.6 12.2,11.4 -89.4,15.4 z"
       id="rect10927"
       inkscape:connector-curvature="0"
       sodipodi:nodetypes="ccccc" />
    <rect
       style="opacity:1;fill:#000000;fill-opacity:1;fill-rule:nonzero;stroke:none;stroke-width:74.67058563;stroke-linecap:butt;stroke-linejoin:miter;stroke-miterlimit:4;stroke-dasharray:none;stroke-opacity:1;paint-order:stroke fill markers"
       id="rect10930"
       width="3.8"
       height="22"
       x="388.87997"
       y="104.59976" />
    <rect
       y="101.19974"
       x="417.28"
       height="22"
       width="4.5999999"
       id="rect10932"
       style="opacity:1;fill:#000000;fill-opacity:1;fill-rule:nonzero;stroke:none;stroke-width:82.15550995;stroke-linecap:butt;stroke-linejoin:miter;stroke-miterlimit:4;stroke-dasharray:none;stroke-opacity:1;paint-order:stroke fill markers" />
    <path
       sodipodi:nodetypes="ccccccccccccccccc"
       d="m 362.28002,113.39994 2.8,-11.6 c 0.5396,-2.638419 -2.8475,-8.085258 -5.6,-9.599998 -3.065,-1.01084 -6.9318,-1.12304 -11.4,-1 l -11.4,-4.8 h -4.8 c -1.1857,1.1991 -2.237,2.7991 -2.8,4.8 -2.0047,8.478399 -6.2441,8.815448 -11.4,9.699998 l -5.6,16.3 c 0.023,5.7304 2.0627,13.41881 5.6,17.4 l 9.6,-2 c 1.9147,2.50923 4.9735,5.81042 8.4,7.8 3.5716,-0.64931 6.0205,-3.98949 8.6,-7.8 0.5088,-0.70538 3.8349,-1.27453 4.8,-0.8 4.0473,2.13342 7.5764,2.42774 11.3,0.8 3.1946,-1.68805 5.7242,-6.42752 5.7,-9.6 0.014,-2.5226 -0.8322,-5.78113 -3.8,-9.6 z"
       style="fill:#ffffff;fill-opacity:1;stroke:#000000;stroke-width:1;stroke-linecap:butt;stroke-linejoin:miter;stroke-miterlimit:10;stroke-dasharray:none;stroke-opacity:1"
       id="path11626"
       inkscape:connector-curvature="0" />
    <circle
       style="opacity:1;fill:#000000;fill-opacity:1;fill-rule:nonzero;stroke:none;stroke-width:0.66935331;stroke-linecap:butt;stroke-linejoin:miter;stroke-miterlimit:10;stroke-dasharray:none;stroke-opacity:1;paint-order:stroke fill markers"
       id="path22789"
       cx="325.38007"
       cy="-53.770061"
       r="8.9700003" />
    <path
       style="opacity:1;fill:#000000;fill-opacity:1;fill-rule:nonzero;stroke:none;stroke-width:0.958884;stroke-linecap:butt;stroke-linejoin:miter;stroke-miterlimit:10;stroke-dasharray:none;stroke-opacity:1;paint-order:stroke fill markers"
       d="m 325.37999,-71.470059 c -3.0735,0 -5.6583,-2.30449 -6.01,-5.35781 l -6.7556,-58.651721 a 12.85,12.85 0 0 1 5.92,-12.34498 12.85,12.85 0 0 1 13.6912,0 12.85,12.85 0 0 1 5.92,12.34498 l -6.7551,58.651721 c -0.3517,3.05332 -2.937,5.35781 -6.0105,5.35781 z"
       id="circle22793"
       inkscape:connector-curvature="0" />
    <path
       inkscape:connector-curvature="0"
       id="path33978"
       style="fill:#000000;stroke:none;stroke-width:0.94617969;stroke-linecap:butt;stroke-linejoin:miter;stroke-miterlimit:10;stroke-dasharray:none;stroke-opacity:1"
       d="m 341.48002,58.599942 c 2.1291,1.91862 2.839,2.92015 2.8,9.4 0,2.23421 -1.8778,9.1443 -6.6,23 -0.39764,1.025992 -0.71926,1.664408 -1.08002,1.999996 -0.11725,-0.551529 -0.10889,-1.130045 0.08,-1.999996 2.7174,-14.10876 1.0136,-21.81917 1,-23.9 0.1642,-3.44423 1.4198,-6.79295 3.8,-8.5 z"
       sodipodi:nodetypes="cccccccc" />
    <path
       sodipodi:nodetypes="cccccccc"
       inkscape:connector-curvature="0"
       id="path33980"
       style="fill:#000000;stroke:none;stroke-width:0.94617969;stroke-linecap:butt;stroke-linejoin:miter;stroke-miterlimit:10;stroke-dasharray:none;stroke-opacity:1"
       d="m 359.88002,98.599942 16.6458,-12.44928 c 4.8821,-3.72779 7.5598,-5.78915 7.5542,-7.55072 0,0 -0.2137,-0.99538 -1.9,-1 -3.6095,0.01 -15.6999,4.05229 -19.9,8.6 l -6.6,8.6 c -1.47211,2.2858 -2.21075,4.800809 -2.68002,7.399998 2.29334,-0.97431 4.75204,-2.16114 6.88002,-3.599998 z" />
  </g>
</svg>
