<?xml version="1.0" encoding="UTF-8" standalone="no"?>
<!-- Created with Inkscape (http://www.inkscape.org/) -->

<svg
   xmlns:dc="http://purl.org/dc/elements/1.1/"
   xmlns:cc="http://creativecommons.org/ns#"
   xmlns:rdf="http://www.w3.org/1999/02/22-rdf-syntax-ns#"
   xmlns:svg="http://www.w3.org/2000/svg"
   xmlns="http://www.w3.org/2000/svg"
   xmlns:sodipodi="http://sodipodi.sourceforge.net/DTD/sodipodi-0.dtd"
   xmlns:inkscape="http://www.inkscape.org/namespaces/inkscape"
   width="702mm"
   height="702mm"
   viewBox="0 0 701.99998 702"
   version="1.1"
   id="svg8"
   inkscape:version="0.92.2 (5c3e80d, 2017-08-06)"
   sodipodi:docname="77.svg">
  <defs
     id="defs2" />
  <sodipodi:namedview
     id="base"
     pagecolor="#ffffff"
     bordercolor="#666666"
     borderopacity="1.0"
     inkscape:pageopacity="0.0"
     inkscape:pageshadow="2"
     inkscape:zoom="0.23368421"
     inkscape:cx="1768.9377"
     inkscape:cy="1189.6394"
     inkscape:document-units="mm"
     inkscape:current-layer="layer1"
     showgrid="false"
     inkscape:window-width="1920"
     inkscape:window-height="1057"
     inkscape:window-x="-8"
     inkscape:window-y="-8"
     inkscape:window-maximized="1"
     inkscape:measure-start="0,0"
     inkscape:measure-end="0,0"
     fit-margin-top="0"
     fit-margin-left="0"
     fit-margin-right="0"
     fit-margin-bottom="0"
     showguides="false"
     inkscape:snap-global="false" />
  <metadata
     id="metadata5">
    <rdf:RDF>
      <cc:Work
         rdf:about="">
        <dc:format>image/svg+xml</dc:format>
        <dc:type
           rdf:resource="http://purl.org/dc/dcmitype/StillImage" />
        <dc:title></dc:title>
      </cc:Work>
    </rdf:RDF>
  </metadata>
  <g
     inkscape:label="Layer 1"
     inkscape:groupmode="layer"
     id="layer1"
     transform="translate(-42.564505,571.69995)">
    <circle
       style="opacity:1;fill:#f00a0a;fill-opacity:1;fill-rule:nonzero;stroke:none;stroke-width:315.81494141;stroke-linecap:round;stroke-linejoin:round;stroke-miterlimit:4;stroke-dasharray:none;stroke-opacity:1;paint-order:stroke fill markers"
       id="path815"
       cx="393.56451"
       cy="-220.69995"
       r="350" />
    <circle
       cy="-220.69995"
       cx="393.56451"
       id="circle817"
       style="opacity:1;fill:#ffffff;fill-opacity:1;fill-rule:nonzero;stroke:none;stroke-width:225.58209229;stroke-linecap:round;stroke-linejoin:round;stroke-miterlimit:4;stroke-dasharray:none;stroke-opacity:1;paint-order:stroke fill markers"
       r="250" />
    <rect
       y="-217.76634"
       x="409.35046"
       height="680"
       width="50"
       id="rect818"
       style="opacity:1;fill:#f00a0a;fill-opacity:1;fill-rule:nonzero;stroke:none;stroke-width:72.09967804;stroke-linecap:round;stroke-linejoin:round;stroke-miterlimit:4;stroke-dasharray:none;stroke-opacity:1;paint-order:stroke fill markers"
       transform="rotate(-45)" />
    <g
       id="g39565"
       transform="matrix(8.0370729,0,0,-7.9011752,87.684535,39.69732)"
       style="fill:#d4aa00;stroke:none" />
    <path
       style="opacity:1;fill:#000000;fill-opacity:1;fill-rule:nonzero;stroke:none;stroke-width:1;stroke-linecap:round;stroke-linejoin:miter;stroke-miterlimit:4;stroke-dasharray:none;stroke-opacity:1;paint-order:stroke fill markers"
       d="m 403.6646,-346.70004 -23.0002,79.19982 h -92.2 v -32.99955 l -14.3997,-6.60011 -4.8002,41.60004 h -50.8997 l 22.0999,64.19972 h -39.4002 v 22.60015 l 3.4629,2.99982 c 10.4369,-12.05492 25.5918,-18.98706 41.537,-18.99986 23.683,0.031 44.687,15.21902 52.1363,37.70003 h 126.6636 l 6.6001,-56.60017 35.5999,-33.89974 h 80.6003 l 27.9998,25.00003 10.3999,-11.80031 -28.7998,-23.59959 -16.4,-88.80028 z m 17.2,14.20016 h 40.4001 v 51 h -52.7999 z m 60.5999,0 h 40.4001 l 12.3998,51 h -52.7999 z m -76.8,70.79983 h 49.8001 l 2.1998,4.20026 -16.6,12.79972 h -35.3999 z"
       id="rect49259"
       inkscape:connector-curvature="0" />
    <path
       style="opacity:1;fill:#000000;fill-opacity:1;fill-rule:nonzero;stroke:none;stroke-width:1.42775154;stroke-linecap:round;stroke-linejoin:miter;stroke-miterlimit:4;stroke-dasharray:none;stroke-opacity:1;paint-order:stroke fill markers"
       d="m 246.0644,-184.70014 a 44.999999,44.999999 0 0 0 -44.9999,45.00036 44.999999,44.999999 0 0 0 44.9999,44.999831 44.999999,44.999999 0 0 0 45.0003,-44.999831 44.999999,44.999999 0 0 0 -45.0003,-45.00036 z m 0,30.00023 a 15,15 0 0 1 15.0001,15.00013 15,15 0 0 1 -15.0001,14.9996 15,15 0 0 1 -14.9996,-14.9996 15,15 0 0 1 14.9996,-15.00013 z"
       id="path49271"
       inkscape:connector-curvature="0" />
    <path
       style="opacity:1;fill:#000000;fill-opacity:1;fill-rule:nonzero;stroke:none;stroke-width:1.34715128;stroke-linecap:round;stroke-linejoin:miter;stroke-miterlimit:4;stroke-dasharray:none;stroke-opacity:1;paint-order:stroke fill markers"
       d="m 505.0644,-234.70018 a 69.999999,69.999999 0 0 0 -69.9999,70.00037 69.999999,69.999999 0 0 0 69.9999,69.999861 69.999999,69.999999 0 0 0 70.0004,-69.999861 69.999999,69.999999 0 0 0 -70.0004,-70.00037 z m 0,37.00032 a 33,33 0 0 1 33.0001,33.00005 33,33 0 0 1 -33.0001,33.00005 33,33 0 0 1 -33.0001,-33.00005 33,33 0 0 1 33.0001,-33.00005 z"
       id="path49279"
       inkscape:connector-curvature="0" />
  </g>
</svg>
