<?xml version="1.0" encoding="UTF-8" standalone="no"?>
<!-- Created with Inkscape (http://www.inkscape.org/) -->

<svg
   xmlns:dc="http://purl.org/dc/elements/1.1/"
   xmlns:cc="http://creativecommons.org/ns#"
   xmlns:rdf="http://www.w3.org/1999/02/22-rdf-syntax-ns#"
   xmlns:svg="http://www.w3.org/2000/svg"
   xmlns="http://www.w3.org/2000/svg"
   xmlns:sodipodi="http://sodipodi.sourceforge.net/DTD/sodipodi-0.dtd"
   xmlns:inkscape="http://www.inkscape.org/namespaces/inkscape"
   width="702mm"
   height="702mm"
   viewBox="0 0 701.99998 702.00001"
   version="1.1"
   id="svg8"
   inkscape:version="0.92.2 (5c3e80d, 2017-08-06)"
   sodipodi:docname="Vietnam_road_sign_P110b.svg">
  <defs
     id="defs2" />
  <sodipodi:namedview
     id="base"
     pagecolor="#ffffff"
     bordercolor="#666666"
     borderopacity="1.0"
     inkscape:pageopacity="0.0"
     inkscape:pageshadow="2"
     inkscape:zoom="0.11588542"
     inkscape:cx="675.91164"
     inkscape:cy="-101.10645"
     inkscape:document-units="mm"
     inkscape:current-layer="layer1"
     showgrid="false"
     inkscape:window-width="1920"
     inkscape:window-height="1057"
     inkscape:window-x="-8"
     inkscape:window-y="-8"
     inkscape:window-maximized="1"
     inkscape:measure-start="0,0"
     inkscape:measure-end="0,0"
     fit-margin-top="0"
     fit-margin-left="0"
     fit-margin-right="0"
     fit-margin-bottom="0"
     showguides="false"
     inkscape:snap-global="false" />
  <metadata
     id="metadata5">
    <rdf:RDF>
      <cc:Work
         rdf:about="">
        <dc:format>image/svg+xml</dc:format>
        <dc:type
           rdf:resource="http://purl.org/dc/dcmitype/StillImage" />
        <dc:title></dc:title>
      </cc:Work>
    </rdf:RDF>
  </metadata>
  <g
     inkscape:label="Layer 1"
     inkscape:groupmode="layer"
     id="layer1"
     transform="translate(-410.56454,876.3)">
    <circle
       style="opacity:1;fill:#f00a0a;fill-opacity:1;fill-rule:nonzero;stroke:none;stroke-width:315.81494141;stroke-linecap:round;stroke-linejoin:round;stroke-miterlimit:4;stroke-dasharray:none;stroke-opacity:1;paint-order:stroke fill markers"
       id="path815"
       cx="761.56451"
       cy="-525.29999"
       r="350" />
    <circle
       cy="-525.29999"
       cx="761.56451"
       id="circle817"
       style="opacity:1;fill:#ffffff;fill-opacity:1;fill-rule:nonzero;stroke:none;stroke-width:225.58209229;stroke-linecap:round;stroke-linejoin:round;stroke-miterlimit:4;stroke-dasharray:none;stroke-opacity:1;paint-order:stroke fill markers"
       r="250" />
    <rect
       y="-172.93578"
       x="884.95062"
       height="680"
       width="50"
       id="rect818"
       style="opacity:1;fill:#f00a0a;fill-opacity:1;fill-rule:nonzero;stroke:none;stroke-width:72.09967804;stroke-linecap:round;stroke-linejoin:round;stroke-miterlimit:4;stroke-dasharray:none;stroke-opacity:1;paint-order:stroke fill markers"
       transform="rotate(-45)" />
    <path
       style="opacity:1;fill:#000000;fill-opacity:1;fill-rule:nonzero;stroke:none;stroke-width:0.0566969;stroke-linecap:round;stroke-linejoin:miter;stroke-miterlimit:10;stroke-dasharray:none;stroke-opacity:1;paint-order:stroke fill markers"
       d="m 684.56473,-661.90028 c -3.6808,0.022 -10.5995,3.0631 -10.6003,5.7005 v 7.6997 l 5.5454,13.2003 -0.027,1.9999 -16.9184,63.1398 0.801,0.2134 c 0.01,4.2988 -0.4817,8.4082 -2.7642,13.672 -10.2975,-4.9971 -21.5908,-7.6037 -33.0367,-7.6253 -41.9737,0 -76.00004,34.0263 -76.00003,75.99996 0,41.97366 34.02633,76.00001 76.00003,76.00001 41.9736,0 76,-34.02635 76,-76.00001 0,-25.90329 -13.1966,-50.02199 -35.0092,-63.993 2.3764,-3.61566 4.2896,-12.13376 4.917,-15.34526 l 1.263,0.3384 1.5802,-5.8978 88.7316,74.45488 c -1.7627,3.45001 -2.682,7.26881 -2.6826,11.14299 2e-4,13.53082 10.969,24.49969 24.4998,24.4998 3.5297,-0.004 6.8991,-0.76214 9.9493,-2.12442 l 9.8505,17.42426 h -5.5996 v 8.59999 h 19.9998 v -8.59999 h -8.6 l -11.2779,-19.94917 c 5.3501,-3.87172 9.1009,-9.86526 9.9627,-16.85065 h 5.5997 c 2.7362,40.68792 36.5358,72.2949 77.3157,72.29998 42.8022,8e-5 77.5002,-34.69798 77.5002,-77.50018 -2e-4,-42.80202 -34.6982,-77.49969 -77.5002,-77.49969 -15.5933,0.017 -30.1311,4.6475 -42.3028,12.6127 l -36.8448,-49.7928 1.9089,-9.8201 h -2.9698 l 3.4742,-19.7001 9.8345,6.9004 12.3998,-6.6001 c -0.024,-0.08 2.3502,-0.786 3.8003,-3.0004 1.0774,-1.6968 2.7955,-4.8649 2.7998,-6.5996 0.01,-3.0226 -2.6159,-4.7942 -4.8003,-4.8002 -6.0696,0.031 -12.8283,0.2061 -17.1999,1.9999 l -25.8,-1 c -4.5675,-0.1559 -13.3004,2.8825 -13.3997,6.6002 v 3.8002 h 17.0997 c 3.1348,0.1121 8.8201,1.8572 11.3275,1.9999 l -3.5977,20.3998 h -2.2298 v 4.2003 h -121.3611 l 6.3237,-23.6001 -5.9625,-15.2002 c -0.2378,-0.7833 0.4038,-2.9792 2.9998,-2.9998 h 7.181 c 1.7239,0.06 4.431,1.0289 6.0193,1 2.2567,-0.098 6.7984,-2.2885 6.8001,-4.8003 v -0.7999 c 0,-2.8437 -2.0522,-4.8139 -4.9651,-4.839 -3.8587,0.072 -16.3578,-0.951 -20.035,-0.9612 z m -0.3973,59.8 h 121.2029 l -17.5845,90.43272 c -0.3069,-0.0167 -0.614,-0.0275 -0.9214,-0.0326 -3.3373,0.004 -6.6097,0.68957 -9.6283,1.98438 l -9.7715,-17.28474 h 5.5997 v -8.59999 h -19.9999 v 8.59999 h 8.6 l 11.1642,19.74763 c -0.7303,0.5123 -1.4384,1.06101 -2.1141,1.6552 l -91.7716,-77.00509 z m 128.42,10.0035 31.9417,43.16638 c -16.4399,13.71424 -27.1314,34.12285 -27.8443,57.13036 h -5.7681 c -1.5319,-7.96407 -6.9057,-14.65395 -14.3521,-17.86713 z m 81.4772,35.1968 c 37.2793,-10e-5 67.5002,30.22055 67.5003,67.49979 10e-5,37.27942 -30.2209,67.5004 -67.5003,67.50027 -35.604,-0.008 -65.0799,-27.66858 -67.3478,-63.20027 l 66.8476,-2.99982 h 1.2004 c 2.0856,-0.0351 2.4248,-4.5512 -0.6831,-8.9948 l -36.3611,-49.13912 c 10.4995,-6.7406 22.9768,-10.65095 36.344,-10.66605 z m -266.5,2.99985 c 10.7077,0.0151 21.251,2.63515 30.7201,7.63416 -7.7771,22.8836 -10.3902,29.62833 -25.5897,51.72088 -1.4691,-1.13602 -3.2733,-1.75319 -5.1304,-1.75494 -4.6392,0 -8.4,3.7608 -8.4,8.40001 0,4.63917 3.7608,8.4 8.4,8.4 4.6392,0 8.4,-3.76083 8.4,-8.4 -8e-4,-1.3942 -0.3484,-2.76626 -1.0118,-3.99252 9.4991,-9.65089 22.972,-34.40066 31.0074,-49.62126 17.3052,12.37728 27.5824,32.33781 27.6045,53.61378 10e-5,36.45088 -29.5492,66.00015 -66.0001,66.0001 -36.4509,5e-5 -66.00016,-29.54922 -66.0001,-66.0001 -6e-5,-36.45088 29.5492,-66.00017 66.0001,-66.00011 z m 222.9213,13.01988 35.5911,48.09835 -59.3969,1.08159 c 0.6735,-19.75252 9.788,-37.28401 23.8058,-49.17994 z m -63.6215,45.38017 c 4.5842,-1.4e-4 8.3005,3.7161 8.3003,8.30027 -10e-5,4.58397 -3.7163,8.2999 -8.3003,8.29976 -4.5837,-1.4e-4 -8.2996,-3.71599 -8.2997,-8.29976 -2e-4,-4.58397 3.7158,-8.30013 8.2997,-8.30027 z m -159.2998,3.10007 c 2.4853,0 4.5,2.01473 4.5,4.49999 0,2.48525 -2.0147,4.49998 -4.5,4.49998 -2.4853,0 -4.5,-2.01473 -4.5,-4.49998 0,-2.48526 2.0147,-4.49999 4.5,-4.49999 z"
       id="path72930"
       inkscape:connector-curvature="0"
       sodipodi:nodetypes="cccccccccssccccccccccccccccccccccccccccccccccccccccccccccccccccccccccccccccccccccccsccccccccccccsccccccccccccccccscscs" />
    <g
       style="fill:#d38d5f;stroke:none"
       transform="matrix(8.0086929,0,0,-7.9574747,306.61921,-72.169988)"
       id="g73010" />
    <rect
       style="opacity:1;fill:#000000;fill-opacity:1;fill-rule:nonzero;stroke:none;stroke-width:0.04070461;stroke-linecap:round;stroke-linejoin:miter;stroke-miterlimit:10;stroke-dasharray:none;stroke-opacity:1;paint-order:stroke fill markers"
       id="rect88092"
       width="140"
       height="100"
       x="817.56458"
       y="-587.90002" />
  </g>
</svg>
