<?xml version="1.0" encoding="UTF-8" standalone="no"?>
<!-- Created with Inkscape (http://www.inkscape.org/) -->

<svg
   xmlns:dc="http://purl.org/dc/elements/1.1/"
   xmlns:cc="http://creativecommons.org/ns#"
   xmlns:rdf="http://www.w3.org/1999/02/22-rdf-syntax-ns#"
   xmlns:svg="http://www.w3.org/2000/svg"
   xmlns="http://www.w3.org/2000/svg"
   xmlns:sodipodi="http://sodipodi.sourceforge.net/DTD/sodipodi-0.dtd"
   xmlns:inkscape="http://www.inkscape.org/namespaces/inkscape"
   width="702mm"
   height="702mm"
   viewBox="0 0 702 702.00002"
   version="1.1"
   id="svg8"
   inkscape:version="0.92.2 (5c3e80d, 2017-08-06)"
   sodipodi:docname="11.svg">
  <defs
     id="defs2" />
  <sodipodi:namedview
     id="base"
     pagecolor="#ffffff"
     bordercolor="#666666"
     borderopacity="1.0"
     inkscape:pageopacity="0.0"
     inkscape:pageshadow="2"
     inkscape:zoom="0.19077152"
     inkscape:cx="1685.675"
     inkscape:cy="1351.103"
     inkscape:document-units="mm"
     inkscape:current-layer="layer1"
     showgrid="false"
     inkscape:window-width="1920"
     inkscape:window-height="1057"
     inkscape:window-x="-8"
     inkscape:window-y="-8"
     inkscape:window-maximized="1"
     fit-margin-top="0"
     fit-margin-left="0"
     fit-margin-right="0"
     fit-margin-bottom="0" />
  <metadata
     id="metadata5">
    <rdf:RDF>
      <cc:Work
         rdf:about="">
        <dc:format>image/svg+xml</dc:format>
        <dc:type
           rdf:resource="http://purl.org/dc/dcmitype/StillImage" />
        <dc:title></dc:title>
      </cc:Work>
    </rdf:RDF>
  </metadata>
  <g
     inkscape:label="Layer 1"
     inkscape:groupmode="layer"
     id="layer1"
     transform="translate(-121.75655,484.62083)">
    <circle
       style="opacity:1;fill:#f00a0a;fill-opacity:1;fill-rule:nonzero;stroke:none;stroke-width:315.81494141;stroke-linecap:round;stroke-linejoin:round;stroke-miterlimit:4;stroke-dasharray:none;stroke-opacity:1;paint-order:stroke fill markers"
       id="path815"
       cx="472.75656"
       cy="-133.62083"
       r="350" />
    <circle
       cy="-133.62083"
       cx="472.75656"
       id="circle817"
       style="opacity:1;fill:#ffffff;fill-opacity:1;fill-rule:nonzero;stroke:none;stroke-width:225.58209229;stroke-linecap:round;stroke-linejoin:round;stroke-miterlimit:4;stroke-dasharray:none;stroke-opacity:1;paint-order:stroke fill markers"
       r="250" />
    <rect
       y="-100.19477"
       x="403.77338"
       height="680"
       width="50"
       id="rect818"
       style="opacity:1;fill:#f00a0a;fill-opacity:1;fill-rule:nonzero;stroke:none;stroke-width:72.09967804;stroke-linecap:round;stroke-linejoin:round;stroke-miterlimit:4;stroke-dasharray:none;stroke-opacity:1;paint-order:stroke fill markers"
       transform="rotate(-45)" />
    <g
       id="g7886"
       transform="matrix(7.9544118,0,0,-7.9545451,131.12758,280.83412)"
       style="fill:#ffd42a;stroke:none" />
    <g
       id="g7890"
       transform="matrix(7.9544118,0,0,-7.9545451,131.12758,280.83412)"
       style="fill:#ffd42a;stroke:none" />
    <g
       id="g7910"
       transform="matrix(7.9544118,0,0,-7.9545451,886.07832,-158.03567)"
       style="fill:#000000;stroke:none">
      <path
         style="opacity:1;fill:#000000;fill-opacity:1;fill-rule:nonzero;stroke:none;stroke-width:0.00528869;stroke-linecap:round;stroke-linejoin:round;stroke-miterlimit:10;stroke-dasharray:none;stroke-opacity:1;paint-order:stroke fill markers"
         d="m -78.361769,-11.140156 h 1.43317 v 9.3279996 h 4.2995 c 0.62338,3.16397 1.84926,6.01792 4.2995,8.59885 h 6.46182 v 3.3440004 h 36.3069 v -20.54171 h -36.3069 v -2.03657 h -16.49399 z"
         id="rect34255"
         inkscape:connector-curvature="0"
         sodipodi:nodetypes="ccccccccccccc" />
    </g>
    <g
       id="g7914"
       transform="matrix(7.9544118,0,0,-7.9545451,0,286.53749)"
       style="fill:#ffd42a;stroke:none" />
    <g
       id="g7918"
       transform="matrix(7.9543948,0,0,-7.9545451,0,266.58977)"
       style="fill:#ffd42a;stroke:none" />
    <g
       id="g7922"
       transform="matrix(7.9543948,0,0,-7.9545451,0,266.58977)"
       style="fill:#ffd42a;stroke:none" />
    <ellipse
       style="opacity:1;fill:#000000;fill-opacity:1;fill-rule:nonzero;stroke:none;stroke-width:0.05647551;stroke-linecap:round;stroke-linejoin:round;stroke-miterlimit:10;stroke-dasharray:none;stroke-opacity:1;paint-order:stroke fill markers"
       id="path34357"
       cx="353.35651"
       cy="-58.620819"
       rx="25"
       ry="30" />
    <ellipse
       ry="30"
       rx="25"
       cy="-58.620819"
       cx="592.75653"
       id="ellipse34510"
       style="opacity:1;fill:#000000;fill-opacity:1;fill-rule:nonzero;stroke:none;stroke-width:0.05647551;stroke-linecap:round;stroke-linejoin:round;stroke-miterlimit:10;stroke-dasharray:none;stroke-opacity:1;paint-order:stroke fill markers" />
    <path
       d="m 510.58792,-131.02077 h -29.6232 v -9.1791 l 18.4623,-35.8816 q 1.2524,-2.5034 1.2524,-5.1112 v -5.2153 q 0,-2.0865 -1.4615,-3.5462 -1.4615,-1.4615 -3.5465,-1.4615 -1.8775,0 -3.4422,1.3558 -1.4592,1.2524 -1.4592,3.2333 v 6.1542 h -10.0135 v -5.0068 q 0,-4.068 3.0248,-9.8049 3.1292,-5.7367 12.4126,-5.7367 5.8413,0 10.1179,4.485 4.2765,4.4854 4.2765,10.3265 v 6.3627 q 0,2.19 -0.625,4.2768 -0.5217,2.0865 -1.6684,4.2765 l -15.6461,30.562 h 17.9409 z"
       style="font-style:normal;font-variant:normal;font-weight:bold;font-stretch:normal;font-size:20px;line-height:1.25;font-family:'DIN 1451 Engschrift';-inkscape-font-specification:'DIN 1451 Engschrift Bold';letter-spacing:0px;word-spacing:0px;fill:#ffffff;fill-opacity:1;stroke:none;stroke-width:3.91151929"
       id="path15675"
       inkscape:connector-curvature="0" />
    <path
       d="m 555.00252,-176.39787 q 2.6077,0 5.2156,1.4616 2.7122,1.4593 3.964,3.4423 1.3559,1.8776 1.7741,4.0681 0.5217,2.0867 0.5217,4.4855 v 15.6469 q 0,2.2949 -0.2024,3.8597 -0.1124,1.565 -1.1468,4.3811 -1.0433,2.8163 -5.1112,5.4242 -3.964,2.6077 -8.5536,2.6077 -3.5466,0 -6.7803,-1.6685 -3.1296,-1.7741 -4.9028,-4.2767 -1.7741,-2.5036 -2.3992,-5.0069 -0.6251,-2.6079 -0.6251,-5.3199 v -1.7742 h 10.1183 v 1.7742 q 0,1.0433 0,2.0866 0.1125,1.0434 1.1468,2.6077 1.0433,1.565 3.6508,1.565 2.8165,0 3.7553,-1.4616 0.9377,-1.565 1.0434,-2.399 0.1124,-0.9376 0.1124,-1.9809 v -1.1468 -13.5607 q 0,-0.9377 -0.1124,-1.981 0,-1.0434 -1.1468,-2.6079 -1.0433,-1.565 -3.5467,-1.565 -3.6508,0 -4.9025,3.651 h -8.8666 v -37.1354 h 28.4773 v 9.2839 h -19.6107 v 18.6719 q 3.651,-3.1293 8.1362,-3.1293 z"
       style="font-style:normal;font-variant:normal;font-weight:bold;font-stretch:normal;font-size:20px;line-height:1.25;font-family:'DIN 1451 Engschrift';-inkscape-font-specification:'DIN 1451 Engschrift Bold';letter-spacing:0px;word-spacing:0px;fill:#ffffff;fill-opacity:1;stroke:none;stroke-width:3.91172028"
       id="path15679"
       inkscape:connector-curvature="0" />
    <path
       d="m 607.97812,-140.44387 h 2.278 v 9.4231 h -3.1064 q -2.7958,0 -4.9705,-0.5168 -2.1748,-0.6223 -4.2454,-2.3818 -2.0716,-1.7614 -2.8995,-3.8311 -0.829,-2.1749 -0.829,-5.281 v -29.5119 h -4.8663 v -7.7664 h 4.8669 v -14.911 h 9.9408 v 14.911 h 6.1094 v 7.7664 h -6.1094 v 27.7515 q 0,2.4852 0.6224,3.4171 0.7257,0.9324 3.2101,0.9324 z"
       style="font-style:normal;font-variant:normal;font-weight:bold;font-stretch:normal;font-size:20px;line-height:1.25;font-family:'DIN 1451 Engschrift';-inkscape-font-specification:'DIN 1451 Engschrift Bold';letter-spacing:0px;word-spacing:0px;fill:#ffffff;fill-opacity:1;stroke:none;stroke-width:3.88313317"
       id="path15681"
       inkscape:connector-curvature="0" />
    <path
       style="font-style:normal;font-variant:normal;font-weight:bold;font-stretch:normal;font-size:20px;line-height:1.25;font-family:'DIN 1451 Engschrift';-inkscape-font-specification:'DIN 1451 Engschrift Bold';letter-spacing:0px;word-spacing:0px;opacity:1;fill:#ffffff;fill-opacity:1;fill-rule:nonzero;stroke:none;stroke-width:0.9463951;stroke-linecap:round;stroke-linejoin:round;stroke-miterlimit:10;stroke-dasharray:none;stroke-opacity:1;paint-order:stroke fill markers"
       d="m 518.75652,-140.92077 h 9.9996 v 9.7597 l -9.9996,7.4403 z"
       id="rect15693"
       inkscape:connector-curvature="0"
       sodipodi:nodetypes="ccccc" />
  </g>
</svg>
