<?xml version="1.0" encoding="UTF-8" standalone="no"?>
<!-- Created with Inkscape (http://www.inkscape.org/) -->

<svg
   xmlns:osb="http://www.openswatchbook.org/uri/2009/osb"
   xmlns:dc="http://purl.org/dc/elements/1.1/"
   xmlns:cc="http://creativecommons.org/ns#"
   xmlns:rdf="http://www.w3.org/1999/02/22-rdf-syntax-ns#"
   xmlns:svg="http://www.w3.org/2000/svg"
   xmlns="http://www.w3.org/2000/svg"
   xmlns:sodipodi="http://sodipodi.sourceforge.net/DTD/sodipodi-0.dtd"
   xmlns:inkscape="http://www.inkscape.org/namespaces/inkscape"
   id="svg1890"
   sodipodi:version="0.32"
   inkscape:version="0.92.2 (5c3e80d, 2017-08-06)"
   width="470"
   height="785"
   version="1.0"
   sodipodi:docname="Japan_road_sign_323_(40)_and_570-C.svg">
  <metadata
     id="metadata1895">
    <rdf:RDF>
      <cc:Work
         rdf:about="">
        <dc:format>image/svg+xml</dc:format>
        <dc:type
           rdf:resource="http://purl.org/dc/dcmitype/StillImage" />
        <dc:title></dc:title>
      </cc:Work>
    </rdf:RDF>
  </metadata>
  <defs
     id="defs1893">
    <linearGradient
       osb:paint="solid"
       id="linearGradient15703">
      <stop
         id="stop15705"
         offset="0"
         style="stop-color:#ffffff;stop-opacity:1;" />
    </linearGradient>
  </defs>
  <sodipodi:namedview
     inkscape:window-height="1057"
     inkscape:window-width="1858"
     inkscape:pageshadow="2"
     inkscape:pageopacity="0.0"
     guidetolerance="10.0"
     gridtolerance="10.0"
     objecttolerance="10.0"
     borderopacity="1.0"
     bordercolor="#666666"
     pagecolor="#ffffff"
     id="base"
     inkscape:zoom="0.96176273"
     inkscape:cx="27.104722"
     inkscape:cy="358.26234"
     inkscape:window-x="1912"
     inkscape:window-y="-8"
     inkscape:current-layer="svg1890"
     showgrid="false"
     showguides="true"
     inkscape:snap-bbox="true"
     inkscape:bbox-paths="true"
     inkscape:bbox-nodes="true"
     inkscape:snap-bbox-edge-midpoints="true"
     inkscape:snap-bbox-midpoints="true"
     inkscape:window-maximized="1">
    <inkscape:grid
       type="xygrid"
       id="grid5126" />
  </sodipodi:namedview>
  <ellipse
     style="color:#000000;display:inline;overflow:visible;visibility:visible;opacity:1;fill:#ed1c23;fill-opacity:1;fill-rule:evenodd;stroke:#ed1c23;stroke-width:1.25;stroke-linecap:round;stroke-linejoin:miter;stroke-miterlimit:4;stroke-dasharray:none;stroke-dashoffset:0;stroke-opacity:1;marker:none;marker-start:none;marker-mid:none;marker-end:none"
     id="path1926"
     cx="236.21138"
     cy="550.25891"
     rx="225.02652"
     ry="224.29105" />
  <ellipse
     style="color:#000000;display:inline;overflow:visible;visibility:visible;opacity:1;fill:#ffffff;fill-opacity:1;fill-rule:evenodd;stroke:#ffffff;stroke-width:1.25;stroke-linecap:round;stroke-linejoin:miter;stroke-miterlimit:4;stroke-dasharray:none;stroke-dashoffset:0;stroke-opacity:1;marker:none;marker-start:none;marker-mid:none;marker-end:none"
     id="path9909"
     cx="236.21144"
     cy="550.25909"
     rx="222.77628"
     ry="222.04817" />
  <ellipse
     style="color:#000000;display:inline;overflow:visible;visibility:visible;opacity:1;fill:#ed1c23;fill-opacity:1;fill-rule:evenodd;stroke:#ed1c23;stroke-width:1.25;stroke-linecap:round;stroke-linejoin:miter;stroke-miterlimit:4;stroke-dasharray:none;stroke-dashoffset:0;stroke-opacity:1;marker:none;marker-start:none;marker-mid:none;marker-end:none"
     id="path9911"
     cx="236.21155"
     cy="550.25885"
     rx="207.64207"
     ry="206.96332" />
  <ellipse
     style="fill:#ffffff;fill-rule:evenodd;stroke:#ffffff;stroke-width:1.25;stroke-linecap:butt;stroke-linejoin:miter;stroke-miterlimit:4;stroke-dasharray:none;stroke-opacity:1"
     id="path2817"
     cx="236.21094"
     cy="550.62744"
     rx="148.59827"
     ry="148.96599" />
  <path
     style="fill:none;fill-rule:evenodd;stroke:#0066b3;stroke-width:18.60618973;stroke-linecap:butt;stroke-linejoin:miter;stroke-miterlimit:4;stroke-dasharray:none;stroke-opacity:1"
     d="m 255.60637,505.24085 c 0.90977,-10.114 8.87227,-20.80665 21.31231,-26.80391 9.35561,-3.55956 25.73569,-3.75445 37.57497,0.60918 10.63908,5.85749 18.75576,13.93061 20.22511,26.29925 l 0.79141,88.22652 c -0.81933,11.70527 -9.75768,17.87936 -17.83216,22.53965 -13.50923,5.54913 -29.72037,5.03522 -44.58051,-0.60918 -8.80389,-4.28909 -15.50473,-9.60844 -17.19536,-20.42911 z"
     id="path8243"
     sodipodi:nodetypes="ccccccccc"
     inkscape:connector-curvature="0" />
  <path
     style="fill:none;fill-rule:evenodd;stroke:#0066b3;stroke-width:18.59108543;stroke-linecap:butt;stroke-linejoin:miter;stroke-miterlimit:4;stroke-dasharray:none;stroke-opacity:1"
     d="m 224.11749,599.00859 -88.21882,0.29902 -0.0761,-11.26944 50.48652,-112.40187 8.63413,-0.0259 -0.1413,151.40817"
     id="path10025"
     sodipodi:nodetypes="cccccc"
     inkscape:connector-curvature="0" />
  <g
     id="g5123"
     transform="matrix(0.31510511,0,0,0.31510511,77.808029,8.599177)">
    <path
       id="path3854"
       d="M 1002.7001,502.7 C 1002.7001,226.5576 778.84238,2.7 502.7,2.7 226.55762,2.7 2.699976,226.5576 2.699976,502.7 c 0,276.1423 223.857644,500.0001 500.000024,500.0001 276.14238,0 500.0001,-223.8578 500.0001,-500.0001 z"
       style="fill:#ffffff;fill-opacity:1;stroke:#0066b3;stroke-width:5;stroke-miterlimit:4;stroke-dasharray:none;stroke-opacity:1"
       inkscape:connector-curvature="0" />
    <path
       id="path3854-5"
       d="M 968.075,502.7 C 968.075,759.71951 759.71951,968.075 502.7,968.075 245.68048,968.075 37.325,759.71951 37.325,502.7 37.325,245.68048 245.68048,37.325 502.7,37.325 c 257.01951,0 465.375,208.35548 465.375,465.375 z"
       style="fill:#0066b3;fill-opacity:1;stroke:none"
       inkscape:connector-curvature="0" />
    <path
       inkscape:connector-curvature="0"
       style="fill:#ffffff;fill-opacity:1;stroke:none"
       d="M 933.45,502.7 C 933.45,740.59664 740.59664,933.45 502.7,933.45 264.80335,933.45 71.95,740.59664 71.95,502.7 71.95,264.80335 264.80335,71.95 502.7,71.95 c 237.89664,0 430.75,192.85335 430.75,430.75 z"
       id="path3856" />
    <path
       style="fill:#0066b3;fill-opacity:1;stroke:none"
       d="M 617.47302,65.06045 764.17666,133.46948 387.92697,940.33954 241.22333,871.93052 Z"
       id="path3865"
       inkscape:connector-curvature="0"
       sodipodi:nodetypes="ccccc" />
  </g>
</svg>
