<?xml version="1.0" encoding="UTF-8" standalone="no"?>
<!-- Created with Inkscape (http://www.inkscape.org/) -->

<svg
   xmlns:dc="http://purl.org/dc/elements/1.1/"
   xmlns:cc="http://creativecommons.org/ns#"
   xmlns:rdf="http://www.w3.org/1999/02/22-rdf-syntax-ns#"
   xmlns:svg="http://www.w3.org/2000/svg"
   xmlns="http://www.w3.org/2000/svg"
   xmlns:sodipodi="http://sodipodi.sourceforge.net/DTD/sodipodi-0.dtd"
   xmlns:inkscape="http://www.inkscape.org/namespaces/inkscape"
   width="60.400002cm"
   height="68.861cm"
   viewBox="0 0 604.00003 688.60998"
   version="1.1"
   id="svg825"
   inkscape:version="0.92.2 (5c3e80d, 2017-08-06)"
   sodipodi:docname="88.svg">
  <defs
     id="defs819" />
  <sodipodi:namedview
     id="base"
     pagecolor="#ffffff"
     bordercolor="#666666"
     borderopacity="1.0"
     inkscape:pageopacity="0.0"
     inkscape:pageshadow="2"
     inkscape:zoom="0.22627417"
     inkscape:cx="1087.5948"
     inkscape:cy="1071.5399"
     inkscape:document-units="cm"
     inkscape:current-layer="layer1"
     showgrid="false"
     units="cm"
     fit-margin-top="0"
     fit-margin-left="0"
     fit-margin-right="0"
     fit-margin-bottom="0"
     inkscape:snap-global="false"
     inkscape:window-width="1920"
     inkscape:window-height="1057"
     inkscape:window-x="-8"
     inkscape:window-y="-8"
     inkscape:window-maximized="1" />
  <metadata
     id="metadata822">
    <rdf:RDF>
      <cc:Work
         rdf:about="">
        <dc:format>image/svg+xml</dc:format>
        <dc:type
           rdf:resource="http://purl.org/dc/dcmitype/StillImage" />
        <dc:title></dc:title>
      </cc:Work>
    </rdf:RDF>
  </metadata>
  <g
     inkscape:label="Layer 1"
     inkscape:groupmode="layer"
     id="layer1"
     transform="translate(-81.55898,1470.5322)">
    <path
       style="opacity:1;fill:none;fill-opacity:1;fill-rule:nonzero;stroke:#0064b4;stroke-width:70;stroke-linecap:butt;stroke-linejoin:round;stroke-miterlimit:4;stroke-dasharray:none;stroke-opacity:1;paint-order:fill markers stroke"
       d="m 118.55898,-983.92217 264.99998,-449.60943 265.0001,449.60943 v 164.99998 H 118.55898 Z"
       id="rect1474"
       inkscape:connector-curvature="0"
       sodipodi:nodetypes="cccccc" />
    <path
       sodipodi:nodetypes="cccccc"
       inkscape:connector-curvature="0"
       id="path872"
       d="m 118.55898,-983.92217 264.99998,-449.60943 265.0001,449.60943 v 164.99998 H 118.55898 Z"
       style="opacity:1;fill:none;fill-opacity:1;fill-rule:nonzero;stroke:#ffffff;stroke-width:42;stroke-linecap:butt;stroke-linejoin:round;stroke-miterlimit:4;stroke-dasharray:none;stroke-opacity:1;paint-order:fill markers stroke" />
    <path
       style="opacity:1;fill:#0064b4;fill-opacity:1;fill-rule:nonzero;stroke:#0064b4;stroke-width:14;stroke-linecap:butt;stroke-linejoin:round;stroke-miterlimit:4;stroke-dasharray:none;stroke-opacity:1;paint-order:fill markers stroke"
       d="m 118.55898,-983.92217 264.99998,-449.60943 265.0001,449.60943 v 164.99998 H 118.55898 Z"
       id="path885"
       inkscape:connector-curvature="0"
       sodipodi:nodetypes="cccccc" />
    <path
       style="fill:#ffffff;fill-opacity:1;fill-rule:nonzero;stroke:none;stroke-width:0.35277787"
       d="m 622.25736,-873.92233 c 2.3538,0 4.9438,1.81065 5.6999,3.99976 l 10.1141,28.10114 c 1.5976,4.37202 -0.8923,7.89924 -5.5144,7.89924 H 134.55739 c -4.62209,0 -7.11197,-3.52719 -5.51439,-7.89924 l 10.11412,-28.10114 c 0.75612,-2.18911 3.34616,-3.99976 5.69992,-3.99976 z"
       id="path1545"
       inkscape:connector-curvature="0"
       sodipodi:nodetypes="sccssccss" />
    <path
       sodipodi:nodetypes="sccssccss"
       inkscape:connector-curvature="0"
       id="path1613"
       d="m 229.33875,-913.92219 c 1.76531,0 3.70783,-1.3579 4.27492,-2.9998 l 7.58556,-21.0757 c 1.19819,-3.2791 -0.66923,-5.9245 -4.13578,-5.9245 h -67.28096 c -1.76532,0 -3.70784,1.358 -4.27493,2.9999 l -7.58556,21.0757 c -1.19818,3.279 0.66922,5.9244 4.13578,5.9244 z"
       style="fill:#ffffff;fill-opacity:1;fill-rule:nonzero;stroke:none;stroke-width:0.35277787" />
    <path
       id="path962"
       d="m 345.57501,-1331.7264 c -3.36363,0.5599 -6.80212,1.1196 -10.02777,2.239 -2.38661,0.7634 -4.55947,2.0356 -6.73193,3.3586 -0.70215,0.5089 -1.26185,0.9669 -1.68426,1.6792 -1.33323,2.0864 -1.9643,4.5799 -3.36362,6.6612 -0.70225,1.1194 -1.68436,2.0355 -2.80383,2.7988 -1.33333,0.9667 -3.29753,1.0685 -4.41701,2.239 -1.19075,1.2213 -1.89291,2.8497 -2.24414,4.4779 -0.20356,0.5599 0.20357,1.2214 0.50888,1.6793 0.77343,1.0687 1.75563,2.0355 2.80382,2.7989 1.39952,0.916 3.08378,1.323 4.48829,2.1881 0.70216,0.5088 1.39942,0.9669 1.68435,1.6793 0.63099,1.4757 0.98211,2.9513 1.11949,4.4779 0.35622,3.7148 0.55979,7.5008 0.55979,11.2206 0,3.7147 0.30529,7.5008 -0.55979,11.1493 -0.35622,1.2721 -1.68436,1.9846 -2.80384,2.7989 -0.63097,0.5087 -1.54188,0.6106 -2.24414,1.1194 -0.40714,0.5089 -0.63098,0.9159 -1.05339,1.1195 -1.11947,0.5089 -2.31532,0.7125 -3.4348,1.1195 -1.54189,0.6615 -3.01759,1.4249 -4.417,2.239 -0.50888,0.5089 -0.70226,0.8652 -1.12467,1.1196 -2.17276,1.2722 -4.76803,1.8319 -6.73174,3.3585 -2.73773,2.0356 -4.97679,4.6815 -7.22293,7.2259 -0.63087,0.7125 -0.70215,1.6284 -1.19067,2.2391 -0.25448,0.5088 -0.83973,0.6106 -1.05338,1.1194 -1.33322,2.1883 -2.17285,4.5799 -3.43491,6.7324 -0.25438,0.5088 -0.77343,0.7123 -1.05328,1.1195 -0.50887,0.6106 -0.70235,1.5267 -1.12466,2.239 -0.35612,0.5089 -0.91082,0.6107 -1.11948,1.1195 -0.83963,1.4248 -1.40441,3.0024 -2.24405,4.4781 -0.25448,0.5088 -0.83973,0.6107 -1.19075,1.1194 -0.83973,1.4249 -1.26205,3.0023 -2.17296,4.4272 -0.30531,0.5089 -0.83964,0.7125 -1.12458,1.1196 -0.70225,1.1194 -0.98209,2.2898 -1.68435,3.3585 -0.55979,0.8142 -1.61307,1.3739 -2.24414,2.239 -1.12457,1.7301 -1.75045,3.7656 -2.80384,5.6078 -0.20356,0.5087 -0.83963,0.6106 -1.05338,1.1194 -0.91081,1.4248 -1.39941,3.0024 -2.24415,4.4271 -0.35612,0.509 -0.91081,0.7125 -1.19075,1.1196 -0.40704,0.7123 -0.63088,1.6283 -1.05329,2.239 -0.35622,0.5089 -0.91091,0.7125 -1.19075,1.1196 -1.19077,2.1881 -1.96421,4.6306 -3.29744,6.7271 -0.9109,1.3231 -2.45278,2.0355 -3.36364,3.3586 -0.98212,1.374 -1.96424,2.8497 -2.24411,4.4781 -1.26199,6.5898 -1.33323,13.3932 -2.24411,20.1257 -0.15266,1.5265 -0.91088,2.9514 -1.1246,4.4781 -0.50887,4.4271 -0.55976,8.9763 -1.11951,13.3933 -0.40708,3.7148 -1.40448,7.4346 -1.61311,11.2206 -0.20355,1.8319 0.15265,3.7147 0.50886,5.5365 0.20355,0.865 0.91088,1.4248 1.12461,2.2389 0.70224,2.2391 1.54187,4.4273 1.68434,6.7324 0.0509,1.1704 -1.19074,2.1882 -1.05335,3.3586 0.0509,2.2899 0.91088,4.4781 1.61312,6.7322 0.20354,0.7634 0.63099,1.5266 1.1195,2.2391 0.63099,0.8142 1.54188,1.4247 2.24411,2.2389 0.25444,0.5089 0.20355,0.9161 0.55976,1.0687 1.54187,0.6106 3.36364,1.0687 4.97672,1.1196 1.68433,0 3.71472,0.5088 5.11873,-0.5598 1.89292,-1.4757 2.87512,-3.9184 3.85722,-6.1014 0.70226,-1.4248 0.55979,-3.0022 1.11948,-4.4779 0.98209,-2.29 2.66646,-4.3254 3.36362,-6.7324 0.77344,-2.5443 0.55969,-5.2617 1.11947,-7.8569 0.20357,-0.7634 1.05339,-1.4249 1.12457,-2.2391 0.91092,-8.7626 1.39953,-18.6499 2.24425,-27.9063 0.20347,-2.2898 0.63087,-4.4781 1.05328,-6.7323 0.35622,-1.1195 0.55979,-2.3917 1.19076,-3.3585 0.55979,-0.916 1.54179,-1.4249 2.24415,-2.239 0.50887,-0.7124 0.63097,-1.5267 1.12456,-2.2392 0.55979,-0.7632 1.68436,-1.323 2.17286,-2.188 0.98211,-1.4249 1.26205,-3.1549 2.24415,-4.478 1.26194,-1.7303 3.15495,-2.8498 4.48819,-4.4781 0.55979,-0.6106 0.63107,-1.6285 1.11947,-2.239 0.30541,-0.5089 0.84473,-0.7125 1.12467,-1.1196 0.50877,-0.7124 0.55969,-1.6284 1.19076,-2.239 0.70226,-0.9159 1.68436,-1.6283 2.73265,-2.2389 0.30521,0 1.12457,-0.5089 1.12457,0 -0.0509,1.1194 -1.33333,5.1904 -1.68436,7.8568 -0.91091,7.0122 -1.39941,14.1618 -2.17286,21.2454 -0.25448,1.8828 -1.05339,3.6638 -1.19076,5.5414 -0.0509,0.7634 0.55969,1.4758 0.55969,2.29 0,0.5089 -0.50888,0.7123 -0.55969,1.0686 -0.83963,5.2617 -1.61307,10.4472 -2.24414,15.7087 -0.83963,7.4347 -1.96421,14.864 -2.24405,22.3699 -0.0509,3.3585 0.55969,6.7323 1.19077,10.0247 0.30519,2.2391 1.40441,4.4272 1.61307,6.7323 0.15265,1.1195 -0.15276,2.2899 -0.55979,3.3586 -0.20357,0.5088 -0.83963,0.6107 -1.05328,1.1195 -1.33334,2.5442 -2.38672,5.1905 -3.43491,7.8568 -3.08378,8.1318 -5.75023,16.406 -8.97548,24.6141 -0.50887,1.4756 -1.54189,2.9514 -2.17277,4.478 -0.40723,1.0686 -0.63107,2.1881 -1.12466,3.3076 -0.9821,2.2899 -2.31533,4.4271 -3.29752,6.7324 -0.91083,1.8319 -1.68437,3.7148 -2.31534,5.6127 -0.40703,1.4249 -0.50887,3.0025 -1.11947,4.4272 -0.15275,0.509 -0.91092,0.7125 -1.05338,1.1196 -1.33314,2.9514 -2.10159,6.1013 -3.43481,8.9764 -0.15265,0.5089 -0.83963,0.6106 -1.05338,1.1195 -0.55969,1.4757 -0.55969,3.0024 -1.19076,4.478 -0.15265,0.5089 -0.77345,0.6108 -1.05339,1.1195 -0.50888,0.6107 -0.91082,1.4757 -1.19067,2.2391 -1.89303,5.5415 -3.50614,11.2205 -5.54008,16.7621 -1.68436,4.5797 -3.50612,8.9714 -5.60977,13.39339 -0.20355,0.50893 -0.91088,0.61072 -1.11952,1.11953 -1.26199,3.66393 -2.03546,7.572 -3.36361,11.22056 -0.55976,1.52664 -1.54188,2.84971 -2.24411,4.47805 -0.40709,1.06859 -0.63099,2.23906 -1.05336,3.30766 -0.70224,1.52664 -1.82174,2.95139 -2.24411,4.47804 -0.83963,2.74792 -1.40447,5.61279 -1.68436,8.41662 -0.15266,1.32306 0.0509,2.64613 0.50888,3.86742 0.3562,0.76331 1.05335,1.32306 1.75558,1.78111 0.631,0.50885 1.40449,0.55974 2.17288,0.55974 0.77348,0 1.54186,0 2.24411,-0.55974 0.70224,-0.50895 1.47063,-0.96691 1.7556,-1.78111 0.70223,-2.44256 0.40709,-5.19038 1.05336,-7.78562 1.26198,-4.88519 2.80386,-9.74491 4.48821,-14.51296 0.55975,-1.62834 1.40447,-3.10408 2.24411,-4.47805 0.25444,-0.50884 0.77348,-0.71242 1.11952,-1.11948 0.40709,-0.71242 0.63099,-1.52665 1.12459,-2.23907 0.25443,-0.50885 0.77348,-0.61064 1.1195,-1.11948 0.4071,-0.71243 0.55977,-1.52666 1.05336,-2.18809 0.98209,-1.27216 2.38658,-2.18818 3.43485,-3.46033 0.50887,-0.6615 0.55979,-1.62837 1.05338,-2.18819 1.5419,-1.8319 3.22625,-3.562 5.11916,-5.1192 0.63107,-0.5088 1.5419,-0.5598 2.24415,-1.0686 0.77354,-0.6107 1.33323,-1.6792 2.17286,-2.2391 2.17286,-1.3229 4.63076,-2.0353 6.73184,-3.3585 0.91081,-0.5597 1.40441,-1.6284 2.24404,-2.2389 0.70235,-0.509 1.54188,-0.6108 2.24424,-1.1196 0.40704,-0.5088 0.63088,-0.916 1.05329,-1.1194 5.8901,-2.4427 12.20112,-3.9184 17.95185,-6.6612 1.61308,-0.8651 2.80384,-2.5443 3.85722,-4.02 1.05338,-1.3231 1.40441,-3.0023 2.24415,-4.4272 0.35622,-0.5089 0.9821,-0.6615 1.19076,-1.1196 0.55978,-1.0685 0.63097,-2.2389 1.05338,-3.3585 1.40441,-3.0023 3.15496,-5.9639 4.48819,-8.9051 0.55968,-1.1195 0.63097,-2.3917 1.11947,-3.3587 0.20357,-0.5087 0.83963,-0.7123 1.12457,-1.1704 0.83964,-1.4246 1.39942,-3.0022 2.24405,-4.4271 0.25448,-0.5088 0.83973,-0.7124 1.11967,-1.1194 0.83953,-1.4758 1.40441,-3.1042 2.24405,-4.4781 0.25448,-0.5088 0.83963,-0.6106 1.05328,-1.1195 1.68435,-2.9515 3.08388,-5.8927 4.48829,-8.9052 0.83963,-1.8319 1.39942,-3.8674 2.24414,-5.6129 0.50887,-0.8141 1.05328,-1.6792 1.75555,-2.2389 0.55978,-0.5598 1.33322,-1.1195 2.24414,-1.1195 1.12466,0 2.17285,1.1195 3.29743,1.1195 0.83963,0 1.61307,-0.6107 2.24414,-1.1195 0.77344,-0.6107 1.39942,-1.4248 1.68435,-2.2391 0.50877,-1.4247 0.63098,-2.9514 0.63098,-4.4781 0,-1.5265 -0.25449,-3.0022 -0.63098,-4.4779 -0.20357,-1.1195 -0.63107,-2.2391 -1.11957,-3.3586 -0.20357,-0.5088 -0.77344,-0.6106 -1.12457,-1.1195 -0.40703,-0.6106 -0.70215,-1.4756 -1.11947,-2.1881 -0.50887,-0.7633 -0.91092,-1.6794 -1.61318,-2.239 -1.05338,-0.7633 -2.17286,-1.3232 -3.36361,-1.6793 -3.71465,-0.9669 -7.57347,-1.3231 -11.22003,-2.239 -0.83963,0 -1.61307,-0.5599 -2.24414,-1.1195 -1.12457,-1.1195 -2.17277,-2.4426 -2.80384,-3.9183 -0.70225,-1.7301 -1.12457,-3.7148 -1.12457,-5.6077 0,-1.8829 0.55979,-3.7657 1.12457,-5.5417 0.20367,-0.5597 0.83964,-0.7124 1.11958,-1.1195 0.40704,-0.7124 0.63097,-1.6283 1.11948,-2.2898 0.77354,-0.9668 1.54188,-2.29 2.80392,-2.748 2.31534,-0.7632 4.91051,-0.7123 7.29303,-0.5596 5.04798,0.5088 10.09745,0.9159 15.07634,1.6792 3.43481,0.5088 6.73174,1.5266 10.09787,2.239 1.4045,0.5089 2.94639,0.5598 4.41698,0.5598 1.54188,0 3.15496,0 4.48817,-0.5598 0.91097,-0.5089 1.61317,-1.323 1.75055,-2.239 0.051,-1.7301 -0.55972,-3.4603 -1.19073,-5.0377 -0.55982,-1.5268 -1.75555,-2.8498 -2.24418,-4.4782 -0.83959,-2.8495 -1.75556,-5.8926 -1.61308,-8.9765 0.20347,-6.7322 1.54179,-13.3934 2.73262,-20.1256 0.7023,-3.3585 1.54198,-6.8036 2.80391,-10.0298 0.25436,-0.6107 1.05335,-1.1705 1.68436,-1.1195 1.47069,0 2.73251,0.8141 3.92845,1.6793 1.33331,0.9159 2.17279,2.3917 3.36352,3.3584 0.63112,0.509 1.54189,0.5598 2.173,1.1197 1.33321,0.9667 2.1017,2.2899 3.43482,3.3075 0.63101,0.5597 1.54188,0.7124 2.24408,1.1704 0.35625,0.509 0.63101,0.7633 1.05335,1.0686 0.7023,0.5089 1.61318,0.6107 2.24419,1.1195 1.61307,1.4248 2.87519,3.1551 4.48827,4.4781 0.63091,0.5597 1.54188,0.6106 2.24398,1.1194 1.61307,1.3232 2.73272,3.3077 4.41698,4.4781 2.1017,1.323 4.34579,2.9007 6.73185,2.7988 3.5774,0 6.66207,-2.5952 10.09798,-3.3585 0.7735,0 1.54189,0 2.24419,0.5597 0.40694,0.5088 0.7021,0.8651 1.11944,1.1196 1.4045,0.865 3.01768,1.4248 4.41698,2.239 0.50893,0.5088 0.7022,0.8142 1.19073,1.1195 1.40451,0.7123 2.8752,1.6793 4.48827,1.6793 1.54189,0 3.15496,-0.7633 4.48817,-1.6793 0.83968,-0.6615 1.19073,-1.832 1.61318,-2.7987 0.7021,-1.6794 1.82174,-3.206 1.68436,-5.0378 -0.20357,-2.2391 -1.68436,-4.2237 -2.80391,-6.1726 -0.35625,-0.6107 -1.05345,-1.1705 -1.68426,-1.6793 -0.63111,-0.5088 -1.68446,-0.5088 -2.24429,-1.0688 -1.19073,-1.5264 -1.54178,-3.562 -2.8038,-5.0377 -5.04789,-5.7502 -10.6588,-11.0119 -16.19872,-16.1972 -0.55983,-0.6106 -1.54189,-0.6106 -2.24419,-1.2212 -1.96422,-1.6794 -3.5774,-3.8676 -5.60981,-5.6078 -0.63091,-0.5088 -1.61307,-0.5597 -2.24409,-1.0687 -1.61307,-1.323 -2.8038,-3.1549 -4.41687,-4.4779 -0.98227,-0.7634 -2.38667,-0.9161 -3.36373,-1.6794 -1.89294,-1.6284 -3.92845,-3.3584 -5.04789,-5.6128 -4.06583,-8.4827 -7.50325,-19.2098 -11.14984,-27.9063 -0.20357,-0.5598 -0.91087,-0.6106 -1.11954,-1.1704 -1.26202,-2.9006 -2.1016,-5.9639 -3.36353,-8.9103 -0.63111,-1.5267 -1.61317,-2.9514 -2.24418,-4.4781 -0.83958,-2.188 -0.91077,-4.7833 -2.24408,-6.7322 -1.89294,-2.7989 -4.69684,-4.9869 -7.29318,-7.226 -0.55972,-0.5598 -1.54178,-0.7124 -2.24408,-1.1195 -0.35615,-0.5088 -0.63102,-0.8651 -1.05336,-1.1196 -0.7022,-0.5088 -1.61307,-0.6105 -2.24398,-1.1195 -1.05345,-0.7632 -2.03551,-1.7301 -2.8752,-2.7986 -0.25446,-0.5089 -0.63101,-1.1197 -0.50883,-1.6794 0.15258,-0.9668 0.55983,-1.8828 1.11945,-2.7988 0.20347,-0.5088 0.63111,-0.8651 1.05345,-1.1194 2.94629,-1.6285 6.24122,-2.6462 8.97594,-4.4273 0.77339,-0.5597 1.4044,-1.3739 1.68426,-2.239 1.82175,-5.8876 2.8751,-11.9888 4.48817,-17.9527 0.63111,-2.2391 1.05335,-4.6817 2.24419,-6.7273 0.98206,-1.5267 2.52394,-2.6461 3.92834,-3.8675 0.7024,-0.5596 1.54189,-0.6615 2.24429,-1.1194 0.98196,-0.8142 2.03541,-1.7302 2.8038,-2.7988 0.25437,-0.5089 0.50893,-1.1196 0.50893,-1.6792 0,-0.6106 -0.20367,-1.1705 -0.50893,-1.6794 -0.77339,-1.0686 -1.75565,-2.0863 -2.8038,-2.7988 -2.8751,-1.7301 -6.03065,-2.7479 -8.97604,-4.4779 -0.7022,-0.5091 -1.33321,-0.916 -1.61307,-1.6285 -0.70231,-1.4756 -0.70231,-3.1041 -1.19074,-4.5799 -0.20357,-0.763 -0.40714,-1.6791 -1.11944,-2.1879 -1.47069,-1.2723 -3.22625,-2.1883 -4.9768,-2.7989 -2.17299,-0.7125 -4.48827,-1.1195 -6.73185,-1.1195 -3.43492,0 -6.73184,0.5598 -10.09745,1.1195"
       style="fill:#ffffff;fill-opacity:1;fill-rule:nonzero;stroke:none;stroke-width:0.35277781"
       inkscape:connector-curvature="0" />
    <path
       id="path964"
       d="m 374.67661,-1105.7837 c 0.63101,-0.5089 1.4706,-0.5598 2.24419,-0.5598 0.77349,0 1.54188,0 2.24408,0.5598 0.63101,0.5089 1.19073,0.9668 1.68436,1.6792 0.91088,1.4248 1.61308,2.8496 2.24409,4.4271 0.35615,1.1196 0.63101,2.2899 0.55972,3.3585 -0.15268,1.1705 -0.35615,2.5445 -1.19073,3.3586 -0.77339,0.9669 -2.1729,1.2721 -3.29744,1.7302 -0.7022,0 -1.47059,0.5089 -2.24408,0.5089 -0.77359,0 -1.4707,-0.5089 -2.24419,-0.5089 -1.89293,-0.7125 -3.85726,-1.3231 -5.61031,-2.2391 -0.7021,-0.5088 -1.26202,-0.9668 -1.68426,-1.6792 -0.35615,-0.7124 -0.55972,-1.4757 -0.55972,-2.2391 0,-0.7632 0.20357,-1.5265 0.55972,-2.2899 0.40704,-0.7632 0.98216,-1.6282 1.68426,-2.1881 0.98226,-0.7633 2.38157,-0.9668 3.36363,-1.6792 0.91087,-0.5598 1.33341,-1.6793 2.24418,-2.239"
       style="fill:#ffffff;fill-opacity:1;fill-rule:nonzero;stroke:none;stroke-width:0.35277781"
       inkscape:connector-curvature="0" />
    <path
       id="path966"
       d="m 384.14308,-1063.853 c 0.35635,2.3918 1.33321,4.5798 2.24419,6.7323 0.25446,0.5088 0.91077,0.6107 1.12454,1.1196 0.55982,1.0685 0.7022,2.239 1.11944,3.3584 0.63111,1.4758 1.4045,3.0025 2.24429,4.4272 0.35615,0.5088 0.98196,0.7125 1.11944,1.1704 0.91087,2.0863 1.33311,4.478 2.24408,6.6662 0.20357,0.5088 0.83958,0.7124 1.11945,1.1194 0.83968,1.4758 1.4045,3.1042 2.24418,4.4781 0.25446,0.5089 0.91077,0.6106 1.11954,1.1195 0.55972,1.0687 0.63101,2.29 1.05325,3.3586 0.35625,0.5088 0.98217,0.6107 1.19084,1.1194 0.50883,1.0688 0.55972,2.3409 1.11944,3.3077 0.25446,0.5089 0.77349,0.7124 1.11954,1.1704 0.50893,0.7125 0.63101,1.5267 1.05345,2.2391 0.35605,0.5089 0.83959,0.6106 1.19074,1.0685 0.40704,0.7125 0.50883,1.6794 1.05325,2.2391 0.63111,0.6107 1.47069,0.9159 2.24418,1.1194 0.55963,0 1.61308,0.5599 1.75566,0 0.051,-1.0685 -0.051,-5.9587 -0.55982,-8.9051 -1.26203,-6.4473 -2.73262,-12.7624 -4.48827,-19.0723 -0.50893,-1.5267 -1.75566,-2.7988 -2.24409,-4.4272 -0.7022,-2.1881 -0.35615,-4.6307 -1.12464,-6.7323 -1.11944,-3.155 -2.59514,-6.1726 -4.48817,-8.9052 -0.63101,-0.916 -1.75555,-1.4248 -2.73272,-1.7303 -1.47059,-0.5088 -3.01747,-0.5088 -4.55935,-0.5088 -1.4707,0 -2.94639,0 -4.41708,0.5088 -0.35615,0 -0.50873,0.5091 -0.63092,0.5599 -0.50892,1.1195 -1.26202,2.2389 -1.12454,3.3585"
       style="fill:#ffffff;fill-opacity:1;fill-rule:nonzero;stroke:none;stroke-width:0.35277781"
       inkscape:connector-curvature="0" />
    <path
       id="path968"
       d="m 362.40484,-1045.9714 c 0.15258,1.2722 0.98206,2.3917 1.68436,3.4604 0.20347,0.5088 0.77339,0.6105 1.05325,1.0685 0.50883,0.7124 0.63101,1.5267 1.19073,2.239 0.20358,0.509 0.91098,0.6107 1.05336,1.1197 0.98216,2.8496 1.33331,6.03 2.24418,8.9763 0.55982,1.6284 1.54178,2.9515 2.24419,4.4781 0.50872,1.0685 0.63091,2.239 1.11944,3.3076 0.7023,1.5266 1.75045,2.9006 2.24408,4.4781 1.75056,5.8927 2.66653,12.0602 4.48827,17.95288 1.89294,6.03007 4.69674,11.85155 6.66167,17.88164 0.98196,2.84961 1.4044,5.95882 2.24398,8.90519 0.25436,0.76323 0.77349,1.52655 1.11954,2.23898 0.15258,0.50885 0.35615,0.50885 0.55972,0.55974 0.70231,0.50885 1.54189,0.55974 2.24409,0.55974 0.77349,0 1.54188,0 2.31527,-0.55974 0.63112,-0.50885 1.19084,-0.9668 1.61328,-1.67923 1.26192,-2.08639 2.45265,-4.32536 3.36352,-6.6611 0.40705,-1.11948 0.55983,-2.23897 0.55983,-3.35856 0,-1.17038 -0.15278,-2.39165 -0.55983,-3.35845 -3.08366,-6.8698 -6.59187,-13.53085 -10.09798,-20.19179 -0.20347,-0.509 -0.84478,-0.6618 -1.12464,-1.0689 -0.83958,-1.4756 -1.26192,-3.155 -2.24398,-4.478 -0.50893,-0.8142 -1.68437,-1.3229 -2.1729,-2.239 -0.63101,-0.9668 -0.63101,-2.2897 -1.19073,-3.3586 -1.68436,-3.7656 -3.5774,-7.5056 -5.53962,-11.1492 -0.30526,-0.5088 -0.83958,-0.6615 -1.12454,-1.1195 -1.26203,-2.5952 -2.10171,-5.3279 -3.36363,-7.8519 -0.25447,-0.5089 -0.83958,-0.6106 -1.11954,-1.1194 -1.61308,-2.8497 -2.66643,-6.1727 -4.48817,-8.9765 -0.63101,-0.9668 -1.68437,-1.7301 -2.73772,-2.2389 -0.40714,0 -0.91087,0.5088 -1.19073,0.6105 -0.50883,0.5089 -1.19073,0.9669 -1.05345,1.6284"
       style="fill:#ffffff;fill-opacity:1;fill-rule:nonzero;stroke:none;stroke-width:0.35277781"
       inkscape:connector-curvature="0" />
    <path
       id="path970"
       d="m 270.61262,-954.17655 c -0.15275,0.76322 1.19076,1.32307 1.19076,2.23898 0,0.76331 -1.19076,1.42485 -1.19076,2.18817 0.15256,1.9846 1.05329,3.76561 1.75554,5.60766 0.20357,0.76334 0.63097,1.52665 1.05338,2.23908 0.50888,0.61063 0.9821,1.32306 1.68437,1.67923 1.40451,0.61064 2.94629,1.11948 4.48818,1.11948 1.47061,0 3.08368,-0.50884 4.48818,-1.11948 0.70227,-0.50885 1.26206,-0.9668 1.68437,-1.67923 0.35622,-0.71243 0.70225,-1.47574 0.50897,-2.23908 -0.20368,-1.52654 -0.98221,-3.00229 -1.61318,-4.47804 -0.20357,-0.50884 -0.83963,-0.61063 -1.11957,-1.11949 -0.50878,-0.71242 -0.63097,-1.52664 -1.11948,-2.18817 -0.63097,-0.91591 -1.61317,-1.47565 -2.24405,-2.23898 -0.50897,-0.71243 -0.70225,-1.52663 -1.11957,-2.28987 -0.50887,-0.76331 -0.9821,-1.62842 -1.68435,-2.18817 -0.63107,-0.55974 -1.39943,-1.11948 -2.24415,-1.11948 -0.83953,0 -1.75045,0.50885 -2.24404,1.11948 -1.05338,1.32306 -1.89292,2.79882 -2.24415,4.47804"
       style="fill:#ffffff;fill-opacity:1;fill-rule:nonzero;stroke:none;stroke-width:0.35277781"
       inkscape:connector-curvature="0" />
    <path
       id="path972"
       d="m 426.63821,-940.78318 c 0.50883,1.17039 0.63101,2.59524 0.63101,3.9183 0,1.32306 -0.20357,2.64613 -0.63101,3.86741 -0.20357,0.86501 -0.50883,1.67923 -1.05335,2.23897 -0.63091,0.66154 -1.4706,1.06869 -2.24409,1.11949 -0.63101,0 -1.19073,0 -1.68436,-0.50885 -0.50893,-0.50885 -0.7023,-0.86501 -1.12474,-1.22127 -0.7021,-0.50885 -1.61308,-0.61065 -2.24399,-1.0686 -0.63111,-0.50884 -1.19073,-1.06859 -1.68436,-1.67923 -0.50893,-0.71243 -0.63111,-1.62844 -1.11944,-2.23907 -0.55982,-0.81421 -1.68437,-1.32307 -2.24419,-2.23897 -0.35625,-0.61063 -0.50883,-1.47575 -0.50883,-2.23907 0,-0.76332 0.20348,-1.52665 0.50883,-2.23898 0.15278,0 0.35625,-0.50894 0.55982,-0.55983 1.89284,-0.50886 3.71468,-0.55975 5.61012,-0.55975 1.82184,0 3.92864,0 5.53962,0.55975 1.05345,0.50895 1.4045,1.83201 1.68436,2.79881 m 29.10161,-19.07241 c -0.25436,-0.96681 0.051,-2.39167 -0.55962,-3.30758 -0.25447,-0.50894 -1.11964,0 -1.68436,0 -0.7736,0 -1.75056,0.50885 -2.24429,1.11949 -1.82164,2.74792 -3.08367,5.88765 -4.41688,8.97646 -0.50873,1.06859 -0.63101,2.23898 -1.11944,3.30757 -0.98216,2.28997 -2.38667,4.42716 -3.36363,6.73238 -0.55982,1.42485 -0.91097,2.9514 -1.12474,4.47803 -0.35605,2.95141 -0.91077,8.06559 -0.55962,8.9052 0.55962,1.11948 3.01757,0 4.48817,-0.50884 1.61317,-0.55975 3.08376,-1.32306 4.48827,-2.23907 1.47059,-1.11948 2.73251,-2.54434 3.85715,-3.91831 0.55973,-0.71242 0.70231,-1.52655 1.19074,-2.23898 0.20357,-0.50883 0.83968,-0.61063 1.05335,-1.11948 0.63101,-1.47574 0.91087,-2.95149 1.19083,-4.47803 0.25447,-2.23908 0.55972,-4.47805 0.55972,-6.73238 0,-2.18809 -0.20357,-4.47804 -0.55972,-6.66111 -0.20347,-0.81411 -0.91087,-1.47564 -1.19083,-2.28986 m -106.7987,-35.19846 c -0.63097,-0.50884 -1.4707,-0.55974 -2.17286,-0.55974 -0.77344,0 -1.68435,0 -2.31533,0.55974 -1.11947,0.76333 -2.17286,1.62844 -2.73265,2.79883 -1.54188,3.15496 -2.38661,6.66109 -3.4349,10.09594 -0.83964,2.95139 -1.26195,5.95881 -2.17276,8.90519 -0.63107,1.88281 -1.75564,3.71473 -2.31542,5.6128 -0.35612,1.47574 -0.50888,2.95139 -0.50888,4.47803 0,1.47576 0.20357,3.0023 0.50888,4.47805 0.0509,0 0.35622,0.50885 0.55978,0.55974 5.11866,0.50886 10.09755,0.55974 15.14647,0.55974 5.04789,0 10.09798,0 15.14697,-0.55974 1.11954,0 2.24409,-0.66153 3.36363,-1.11948 0.15268,0 0.40714,-0.50885 0.50883,-0.61064 0.7023,-1.98461 1.89303,-4.02009 1.68436,-6.10136 -0.15258,-2.23897 -1.68436,-4.22356 -2.80391,-6.17253 -0.20347,-0.50885 -0.83958,-0.61063 -1.05325,-1.11948 -0.55982,-1.06869 -0.7024,-2.23908 -1.19073,-3.35857 -0.63111,-1.52664 -1.4046,-3.00239 -2.24419,-4.42715 -0.20357,-0.50885 -0.83968,-0.71243 -1.05325,-1.11958 -0.50903,-0.71233 -0.63111,-1.62833 -1.19083,-2.23898 -0.63101,-0.86511 -1.54188,-1.42485 -2.24408,-2.23896 -0.40715,-0.71242 -0.55983,-1.62843 -1.05346,-2.23908 -0.83958,-1.06859 -1.68426,-2.03548 -2.8038,-2.79881 -1.4045,-0.91591 -3.01758,-1.42475 -4.48817,-2.23897 -0.50893,-0.50886 -0.7023,-0.86512 -1.11958,-1.11949 m 196.34734,-9.53615 c -1.33331,0 -2.66642,0.5089 -3.92845,0.5597 -1.19073,0.5088 -2.24418,0.7124 -3.36362,1.1703 -0.30526,0 -0.40705,0.5089 -0.55973,0.5598 -0.63111,1.4758 -1.89303,2.84976 -1.75055,4.42713 0.63111,4.98702 2.52395,9.81611 3.99974,14.58426 0.98206,3.00229 2.03541,6.0301 3.36353,8.9052 2.38666,5.32779 4.9768,10.58953 7.7837,15.70873 0.50893,0.91592 1.89294,1.27218 2.24409,2.18809 0.55982,1.42485 0.55982,3.00239 0.55982,4.57982 0,1.47576 -0.051,3.0024 -0.55982,4.42715 -0.25437,0.76333 -0.91078,1.32307 -1.68437,1.67934 -0.98206,0.50883 -2.24408,0.55974 -3.36362,0.55974 -1.11945,0 -2.24399,-0.50884 -3.36353,-0.55974 -0.77359,-0.50895 -1.54198,-0.61065 -2.1729,-1.11959 -0.7022,-0.50885 -1.26202,-0.9668 -1.68436,-1.67923 -0.50893,-0.61064 -0.7022,-1.52665 -1.11954,-2.23898 -0.35615,-0.50893 -0.91087,-0.61063 -1.11944,-1.06869 -2.31528,-4.47804 -4.63075,-8.90518 -6.73196,-13.46464 -1.33311,-2.84961 -2.24398,-5.95882 -3.36353,-8.97647 -1.47059,-4.07089 -3.15495,-8.13163 -4.41697,-12.27389 -0.55983,-1.83191 -0.50883,-3.76561 -1.19074,-5.60767 -0.20347,-0.71242 -0.98216,-1.17037 -1.61307,-1.67932 -0.55982,-0.50885 -1.11944,-0.66154 -1.68436,-0.55974 -1.40451,0.50883 -2.80391,0.8651 -3.92855,1.67932 -2.66643,2.18808 -4.9766,4.68152 -7.22279,7.29202 -0.63111,0.61064 -0.7024,1.52665 -1.19073,2.23907 -0.30546,0.50885 -0.83968,0.71243 -1.12474,1.11948 -0.50873,0.61065 -0.63091,1.52666 -1.11944,2.23908 -0.25447,0.50885 -0.7734,0.61064 -1.05326,1.11948 -0.50902,0.61064 -0.7024,1.52656 -1.19083,2.18808 -0.20357,0.50895 -0.83968,0.71242 -1.05345,1.11959 -0.55972,1.0686 -0.7021,2.28986 -1.12454,3.35845 -0.7022,1.52665 -1.68437,2.90061 -2.31528,4.47804 -0.50893,1.47577 -0.77359,2.95151 -1.05345,4.47805 -0.7022,3.51124 -1.75555,7.01225 -1.75555,10.58955 0,4.78341 0.91087,9.39376 1.75555,14.02439 0.15268,0.81421 0.83978,1.47574 1.05345,2.23907 0.91077,2.54433 1.33322,5.25662 2.31528,7.78571 0.83968,2.39165 2.1017,4.52893 3.36362,6.72725 0.20368,0.50885 0.7735,0.61064 1.05336,1.11948 0.50892,0.71243 0.63101,1.52655 1.12454,2.23898 1.05345,1.27216 2.38676,2.08639 3.36363,3.35856 0.7023,0.76332 0.91097,2.03549 1.68446,2.7988 0.55972,0.55976 1.68436,0.55976 2.24408,1.1195 1.61308,1.32306 2.80381,3.10408 4.41688,4.42714 0.7024,0.55975 1.54189,0.71243 2.31548,1.11949 0.40714,0.50885 0.63091,0.81422 1.11944,1.11948 2.1016,1.27218 4.41698,2.39176 6.73185,3.35856 1.05336,0.50886 2.1728,0.91601 3.29744,1.11949 2.59524,0.55984 5.18947,0.86511 7.8539,1.11958 3.15505,0.50885 6.31151,0.55975 9.53726,0.55975 3.15495,0 6.31091,0 9.46647,-0.55975 2.73251,-0.50894 5.25956,-1.27216 7.85379,-2.23907 0.50883,0 0.63111,-0.86511 1.12464,-1.11948 3.64859,-1.98461 7.50385,-3.56214 11.14974,-5.5365 0.50893,-0.50885 0.7023,-0.86511 1.11954,-1.22128 0.7022,-0.50883 1.61317,-0.55974 2.24418,-1.11948 1.82165,-1.52664 3.50601,-3.15498 5.0479,-4.98699 0.50892,-0.71233 0.63111,-1.52654 1.11944,-2.23897 0.25456,-0.50885 0.77359,-0.71243 1.11964,-1.11948 0.40704,-0.71243 0.63091,-1.52665 1.12464,-2.23908 0.25437,-0.50885 0.83958,-0.61063 1.05325,-1.11948 0.83969,-1.42486 1.61308,-2.95141 2.24419,-4.47805 0.55972,-1.06859 0.63101,-2.23898 1.19073,-3.35856 0.63101,-1.47564 1.68436,-2.84961 2.24409,-4.42715 0.98216,-3.30766 1.61307,-6.73227 2.24408,-10.09595 0.35625,-2.59524 0.50883,-5.19047 0.50883,-7.78561 0,-2.64612 -0.15258,-5.32789 -0.50883,-7.92313 -0.55972,-3.00229 -1.33321,-6.03008 -2.24408,-8.90519 -0.20358,-0.50885 -0.91098,-0.61065 -1.19074,-1.11949 -0.83968,-1.47575 -1.61307,-2.9515 -2.24408,-4.47803 -0.40714,-1.0686 -0.63111,-2.23908 -1.05335,-3.30767 -0.63101,-1.52666 -1.33332,-3.15498 -2.24409,-4.47804 -0.91087,-1.32307 -2.38666,-2.18809 -3.36372,-3.35857 -0.50883,-0.61063 -0.55973,-1.62833 -1.12455,-2.23896 -1.54178,-1.83193 -3.22624,-3.51125 -5.04799,-5.0378 -0.63101,-0.50884 -1.54188,-0.55974 -2.24408,-1.11949 -0.83968,-0.66153 -1.4045,-1.52664 -2.24419,-2.23909 -0.63091,-0.50883 -1.54178,-0.66151 -2.24408,-1.11945 -0.40704,-0.50882 -0.7022,-0.76329 -1.05335,-1.11954 -0.7023,-0.50893 -1.4706,-0.86508 -2.24409,-1.06865 -3.71468,-1.27226 -7.36276,-2.64606 -11.14993,-3.35846 -4.62555,-0.916 -9.39618,-1.3739 -14.02483,-1.7302 m -227.62231,1.1704 c -1.26204,0 -2.24424,-0.9669 -3.36372,-1.1704 -0.40703,0 -0.77344,0.5088 -1.11947,0.5598 -3.01749,0.8651 -6.03058,1.323 -8.97598,2.239 -1.54179,0.5597 -2.9462,1.6284 -4.48819,2.28986 -1.05328,0.50883 -2.24404,0.55972 -3.36352,1.06865 -0.40714,0.50893 -0.70236,0.81419 -1.05349,1.11954 -0.70215,0.50883 -1.61307,0.61062 -2.24404,1.11945 -0.83963,0.71245 -1.40451,1.67926 -2.31543,2.23909 -1.9642,1.47566 -4.27952,2.39167 -6.10076,3.91821 -0.63097,0.55984 -0.55969,1.62844 -1.19076,2.23908 -0.70225,0.8651 -1.89302,1.42485 -2.73265,2.23896 -0.70216,0.61065 -1.05328,1.52665 -1.68435,2.23908 -1.05329,1.17037 -2.45261,2.08638 -3.36862,3.35855 -0.9821,1.32307 -1.33322,3.00229 -2.17285,4.42715 -0.35622,0.50885 -0.83974,0.71242 -1.19076,1.1195 -0.50897,0.71242 -0.77355,1.47574 -1.12458,2.23896 -1.19076,3.71482 -2.59527,7.36339 -3.36371,11.22055 -0.55969,2.74793 -0.55969,5.6129 -0.55969,8.34546 0,2.79882 0.15264,5.60776 0.55969,8.41672 0.55978,3.35846 1.33332,6.72725 2.24414,10.09596 0.63097,1.88279 1.4706,3.71472 2.24415,5.54151 0.70215,1.52664 1.39931,3.10408 2.24404,4.47804 0.3053,0.50885 0.83963,0.71243 1.12466,1.11949 0.40705,0.71243 0.63097,1.52664 1.11948,2.23907 0.35612,0.50885 0.83964,0.71243 1.12457,1.11949 0.40714,0.71243 0.55979,1.62842 1.11948,2.23907 1.40451,1.62833 3.15506,2.79871 4.417,4.47804 0.63107,0.66152 0.70226,1.52655 1.19076,2.23897 0.77354,1.0686 1.75564,1.98459 2.80384,2.79882 0.63107,0.50885 1.4707,0.61063 2.17295,1.06859 0.50887,0.50885 0.70216,0.91601 1.11948,1.11948 1.47061,0.81422 3.01758,1.62844 4.55947,2.23908 1.05329,0.50885 2.24405,0.61063 3.29743,1.11948 1.54189,0.71243 2.94641,1.62834 4.48829,2.23908 2.17276,0.865 4.41691,1.73012 6.73173,2.23897 1.82184,0.50884 3.71475,0.55974 5.61027,0.55974 1.82173,0 3.71484,0 5.53957,-0.55974 3.4349,-0.55975 6.66155,-1.62834 10.09795,-2.23897 2.52399,-0.50895 5.32942,0 7.78372,-1.11959 3.99968,-1.32306 7.78362,-3.20588 11.22005,-5.61279 2.38646,-1.62833 4.2796,-3.91831 6.10074,-6.10136 0.55992,-0.71243 0.7023,-1.62833 1.19073,-2.23897 0.25457,-0.50885 0.83978,-0.71243 1.05355,-1.11949 0.50873,-0.71243 0.63082,-1.62843 1.19074,-2.23906 0.63091,-0.86512 1.61307,-1.42485 2.24398,-2.23898 0.40704,-0.61063 0.55982,-1.62843 1.05345,-2.23907 0.63091,-0.81422 1.75046,-1.32307 2.24399,-2.23898 1.33331,-2.08638 2.52404,-4.32545 3.36372,-6.73237 0.83959,-2.34076 1.68427,-4.78331 1.68427,-7.22085 0,-1.42485 -0.91077,-2.64613 -1.68427,-3.9183 -0.40724,-0.71243 -0.98216,-1.32306 -1.68446,-1.67922 -0.83958,-0.50885 -1.82164,-0.55974 -2.73261,-0.55974 -0.98207,0 -1.89304,0.50884 -2.80381,0.55974 -4.06583,0.50885 -8.27474,0.55974 -12.34212,0.55974 -4.13705,0 -8.20443,0 -12.34159,-0.55974 -1.11948,0 -2.24405,-0.71243 -3.29743,-0.55974 -3.99969,0.50884 -7.78362,2.08638 -11.71062,2.23896 -1.82174,0 -3.57738,-0.86501 -5.11916,-1.67922 -1.11959,-0.61065 -2.10169,-1.67924 -2.80394,-2.79882 -0.50887,-0.96679 -0.50887,-2.18807 -0.50887,-3.35846 0,-1.11958 0.20356,-2.23907 0.50887,-3.30766 0.25449,-0.86511 0.70225,-1.62842 1.19076,-2.28996 0.3054,-0.50885 0.77355,-0.61064 1.05339,-1.0686 0.50886,-0.71242 0.70225,-1.62833 1.19076,-2.28986 0.20346,-0.50895 0.77354,-0.61064 1.05338,-1.0687 0.91091,-1.47564 1.82173,-2.95139 2.24405,-4.47803 1.05338,-3.30757 1.33322,-6.73228 2.24414,-10.10098 0.63097,-2.23907 1.68435,-4.42715 2.24404,-6.66109 1.47071,-5.95883 2.87512,-11.92286 3.9286,-17.95289 0.15255,-0.7123 -0.30539,-1.4757 -0.55989,-2.1882 -0.0509,-0.5088 -0.35612,-0.5597 -0.55968,-0.5597 -2.59528,-0.5597 -5.25913,-0.9668 -7.78373,-1.1703 -0.77344,0 -1.4706,0.7124 -2.24404,0.6106 m 45.86066,-57.6446 c -0.55962,-0.509 -1.11944,-0.7125 -1.68426,-0.5599 -0.7023,0 -1.47069,0.509 -1.68426,1.1195 -1.75056,4.3254 -2.52405,8.9715 -3.99984,13.4596 -0.20357,0.7634 -0.91077,1.4249 -1.05325,2.1882 -1.33332,5.1853 -2.03552,10.5182 -3.36373,15.7036 -0.50893,1.8828 -1.68436,3.6638 -2.24408,5.5416 -0.77343,2.7478 -1.40451,5.6077 -1.68435,8.4166 -0.0509,0.967 0.0509,2.0356 0.55969,2.7989 0.70231,1.1195 1.68438,2.0355 2.80382,2.7989 1.33331,0.9158 3.08387,1.2721 4.48827,2.2388 0.83968,0.5598 1.33331,1.6284 2.24418,2.2391 0.83959,0.7124 1.96423,0.9159 2.73762,1.6793 0.63111,0.5598 0.63111,1.5265 1.19083,2.1881 0.40704,0.7124 0.98216,1.27213 1.68426,1.73017 0.83969,0.61071 2.03552,0.86508 2.80401,1.62837 0.55972,0.61061 0.55972,1.62847 1.05335,2.23907 2.10161,2.39166 4.63065,4.32536 6.73176,6.73228 0.55972,0.61063 0.63101,1.52664 1.11944,2.23907 0.30546,0.50885 0.83978,0.71243 1.12464,1.11949 0.83958,1.37396 1.33331,3.00228 2.24409,4.47805 0.25446,0.50883 0.91087,0.61063 1.11954,1.11948 0.91097,2.54433 1.68436,5.1192 2.24418,7.7857 0.50873,2.59524 0.35615,5.3278 1.05325,7.85186 0.63112,1.83192 1.19084,4.0709 2.8751,5.03779 2.24419,1.32307 5.18947,1.22128 7.78421,1.11949 1.11954,0 2.17289,-0.76332 2.8039,-1.73012 1.11945,-1.62844 1.39941,-3.71473 2.24409,-5.54162 1.4045,-3.0023 2.87519,-6.03009 4.41708,-8.97134 0.25436,-0.50886 0.98196,-0.66154 1.19063,-1.11949 0.35625,-1.17038 0.50883,-2.59524 0.50883,-3.86741 0,-1.32306 -0.20357,-2.64613 -0.50883,-3.9183 -0.25436,-1.17039 -0.63101,-2.28987 -1.19063,-3.35856 -0.20357,-0.50885 -0.77359,-0.61064 -1.05356,-1.11948 -0.91077,-1.83192 -1.33321,-3.76562 -2.24398,-5.54152 -0.25436,-0.55984 -0.91097,-0.71242 -1.12464,-1.17048 -1.61308,-2.84964 -2.8752,-6.0301 -4.48827,-8.9102 -0.20357,-0.509 -0.83948,-0.7125 -1.05325,-1.1705 -0.55992,-0.9668 -0.7023,-2.2389 -1.19074,-3.3077 -1.4045,-3.1039 -2.87509,-6.0351 -4.48826,-8.9763 -0.20348,-0.5088 -0.83969,-0.6107 -1.11955,-1.1196 -0.50883,-1.0686 -0.55972,-2.239 -1.12454,-3.3585 -0.20367,-0.5089 -0.83968,-0.6106 -1.05335,-1.0685 -0.55972,-1.1197 -0.63101,-2.341 -1.19083,-3.4604 -1.68437,-3.7657 -3.78597,-7.3633 -5.54003,-11.1493 -0.50882,-1.0686 -0.50882,-2.2899 -1.11944,-3.3586 -0.55982,-0.9159 -1.68436,-1.323 -2.24418,-2.239 -0.91087,-1.3739 -1.39931,-3.0024 -2.24419,-4.4272 -0.30515,-0.5088 -0.91077,-0.7123 -1.12454,-1.1702 -0.50883,-1.0688 -0.63091,-2.2392 -1.11944,-3.3077 -0.7022,-1.5266 -1.4045,-3.1041 -2.24419,-4.478 -0.20357,-0.5089 -0.83948,-0.7125 -1.05325,-1.1197 -0.55982,-0.7123 -0.63101,-1.5265 -1.19073,-2.2389 -0.40714,-0.6107 -0.98226,-1.1705 -1.61317,-1.6792 m 33.51968,-11.7804 c -0.77349,0 -1.47069,-0.5089 -2.17289,-0.5089 -2.66643,-0.5089 -5.25976,-0.5597 -7.92409,-0.5597 -2.59513,0 -5.25966,0 -7.7842,0.5597 -1.05335,0 -1.96423,0.9669 -2.80391,1.6794 -0.35605,0 -0.63091,0.7124 -0.55962,1.0685 0.35615,1.9846 0.91077,3.8674 1.68436,5.6077 0.20357,0.509 0.83949,0.6107 1.11945,1.1195 1.26202,2.1883 2.1016,4.5798 3.36362,6.7323 0.20347,0.509 0.83969,0.6108 1.05336,1.1197 0.55972,1.0685 0.7022,2.2389 1.19083,3.3584 1.75045,3.7148 3.5772,7.5007 5.53992,11.1493 0.25436,0.5089 0.83968,0.7124 1.19073,1.1196 0.50893,1.0685 0.55982,2.239 1.05345,3.3585 1.05326,2.2899 2.31528,4.4271 3.36353,6.7272 0.50893,1.0686 0.55982,2.2391 1.12464,3.3585 0.20357,0.5088 0.77349,0.6107 1.11955,1.0688 0.91087,1.4755 1.61307,2.9513 2.24408,4.4778 0.40714,1.1197 0.55982,2.29 1.05335,3.3585 0.25447,0.509 0.91097,0.6108 1.19074,1.1196 1.19083,2.1882 2.1016,4.5798 3.29743,6.7272 0.25457,0.5089 0.91087,0.6617 1.19083,1.1197 0.50883,1.0685 0.55963,2.239 1.05336,3.3584 0.30525,0.5088 0.91077,0.6615 1.12454,1.0687 0.63101,1.4757 0.55982,3.1041 1.11964,4.4781 0.20347,0.50879 0.91077,0.71226 1.19073,1.17029 1.19074,2.54434 1.82165,5.39911 3.29744,7.78565 0.98206,1.52664 2.45266,2.79882 3.92835,3.9183 0.50903,0.50895 1.11964,0.71243 1.68436,0.55975 1.82175,-0.50886 3.50611,-1.22129 4.9768,-2.23898 0.7023,-0.50884 1.05325,-1.47574 1.19073,-2.23907 0.051,-0.76322 -0.25446,-1.52655 -0.55972,-2.18807 -0.83968,-1.98461 -2.73271,-3.56206 -2.8038,-5.61278 -0.15268,-1.17049 1.33321,-2.03549 2.17279,-2.84979 0.7023,-0.5088 1.4706,-0.8141 2.31538,-1.0686 0.83958,-0.5087 1.82174,-0.6105 2.73261,-0.5596 3.92845,0.5087 7.99378,0.7631 11.78085,1.6282 1.05325,0.5089 2.1016,0.9161 2.8038,1.6793 0.50883,0.61077 0.55972,1.47575 0.55972,2.23904 0,0.7633 -0.20347,1.52669 -0.55972,2.239 -0.63111,1.42486 -2.1017,2.44265 -2.24418,3.9183 -0.15258,0.9669 0.98216,1.67933 1.68436,2.23907 0.40714,0.50885 1.05345,0.55975 1.68436,0.55975 0.63112,0 1.19074,0 1.68437,-0.55975 1.05335,-0.76332 2.03551,-1.73022 2.8038,-2.79881 0.50903,-0.61064 0.63112,-1.52655 1.05356,-2.23898 0.35605,-0.50895 0.98196,-0.61063 1.19073,-1.11958 0.83948,-1.73017 1.54178,-3.6638 2.24408,-5.60774 0.50883,-1.4247 0.55972,-2.9515 1.05336,-4.4272 0.25446,-0.8142 0.7021,-1.5266 1.19073,-2.239 0.20357,-0.5089 0.83958,-0.7125 1.05335,-1.1195 0.91087,-1.8319 1.3993,-3.7656 2.24408,-5.6127 0.70231,-1.5266 1.39941,-3.0025 2.24419,-4.4782 0.35605,-0.5087 0.98206,-0.6105 1.12444,-1.1194 0.91087,-2.5444 1.26202,-5.2567 2.24429,-7.7857 1.19073,-3.1041 3.08366,-5.8876 4.48816,-8.9713 0.50883,-1.1195 0.63092,-2.2391 1.11945,-3.3585 0.63101,-1.4758 1.33331,-3.0024 2.24408,-4.4782 0.25447,-0.5088 0.91087,-0.6106 1.11954,-1.1194 0.55983,-1.4249 0.63102,-3.0023 1.05336,-4.4272 0.63101,-1.8827 1.4045,-3.8165 2.24408,-5.6128 1.82185,-3.7657 3.85736,-7.3634 5.60971,-11.2205 0.25457,-0.7124 0.55982,-1.4758 0.55982,-2.1882 0,-0.7633 -0.30525,-1.5266 -0.55982,-2.239 -0.051,-0.5089 -0.35605,-0.5089 -0.55962,-0.5597 -0.7023,-0.509 -1.4045,-1.1196 -2.24418,-1.1196 -6.66157,-0.5088 -13.46361,-0.5597 -20.12567,-0.5597 -6.73186,0 -13.39342,0 -20.12538,0.5597 -0.77339,0 -1.47059,0.6106 -2.24398,0.5089 -2.24419,0 -4.48817,-1.0686 -6.73185,-1.0686 -3.92845,0 -7.78411,0.9669 -11.71106,1.0686 -2.8038,0 -5.60971,-0.5089 -8.41472,-0.5089 -1.11944,0 -2.17279,0.6106 -3.29733,0.5089 -2.10171,0 -4.13722,-0.916 -6.17114,-1.0686 -0.98216,0 -1.89293,0.5088 -2.8039,0.5597 -0.7021,0 -1.47059,0.5089 -2.24399,0.5089 m 65.98633,-93.3365 c 3.08377,-0.5091 6.3818,-0.6107 9.53726,-0.5599 4.83932,0 9.67714,1.0686 14.51546,1.0686 2.94629,0 5.96096,-1.1194 8.90575,-1.0686 3.64849,0 7.15259,0.9669 10.6587,1.6793 1.19073,0 2.24418,0.6106 3.36873,1.1196 1.54188,0.6105 3.08376,1.323 4.48817,2.2389 0.7024,0.509 1.19073,0.9669 1.61317,1.6793 0.55982,0.6106 0.7023,1.4757 1.19073,2.239 0.25447,0.5089 0.91087,0.6106 1.05345,1.0686 0.55963,1.0686 0.91078,2.239 1.19074,3.3585 0.20347,1.2722 0.55972,2.5952 0.55972,3.9183 0,1.323 -0.15268,2.6461 -0.55972,3.9183 -0.91088,2.2899 -2.10171,4.5289 -3.43492,6.6611 -0.35625,0.7124 -0.98206,1.2722 -1.61317,1.6792 -0.63092,0.509 -1.54179,0.7125 -2.24399,1.1196 -0.50893,0.5089 -0.63111,0.8141 -1.11954,1.1704 -0.7023,0.5089 -1.47069,0.8142 -2.24409,1.0686 -1.47059,0.5089 -3.01767,0.6106 -4.48836,1.1196 -0.7734,0.5088 -1.54179,0.6106 -2.24399,1.1195 -0.63111,0.5087 -1.26192,1.0686 -1.61307,1.6792 -0.40715,0.7124 -0.77349,1.4758 -0.63111,2.2391 0.63111,3.7655 1.75565,7.5057 2.8039,11.2205 0.30536,0.7633 0.91087,1.3739 1.19073,2.1881 0.40725,1.8828 0.55973,3.7656 1.05336,5.6128 0.20357,0.8142 0.91087,1.374 1.11954,2.2391 0.55972,2.5952 0.55972,5.2565 1.12464,7.8517 0.63091,2.6462 1.3994,5.2617 2.24409,7.7857 1.05335,3.0024 2.52394,5.8877 3.36352,8.9714 2.94639,10.7321 5.04809,21.6727 7.78411,32.3997 0.20367,0.865 0.91097,1.4758 1.19083,2.3408 2.31538,7.7805 4.2796,15.7087 6.66167,23.418 0.63091,1.9847 1.26202,3.8675 2.31527,5.6129 0.30546,0.7124 0.98216,1.2722 1.68436,1.6793 0.40715,0.5088 0.98217,0.6615 1.61318,0.5596 2.17289,-0.5087 4.06583,-1.323 6.17043,-1.6791 2.17299,-0.509 4.41698,-0.5598 6.66226,-0.5598 2.24409,0 4.48817,0 6.73176,0.5598 3.43491,0.5597 6.73185,1.2721 10.09798,2.239 4.13712,1.2721 8.27463,2.7988 12.27137,4.4779 0.50883,0 0.7021,0.8143 1.19074,1.1196 1.4045,0.8651 3.01757,1.2722 4.41687,2.2391 0.91098,0.5597 1.40451,1.6282 2.24429,2.2389 0.7021,0.5089 1.54178,0.5599 2.24408,1.0687 0.83959,0.7124 1.33322,1.6793 2.24409,2.2391 0.7023,0.5087 1.54188,0.6105 2.24408,1.1193 0.55972,0.509 1.19074,1.06879 1.68437,1.7303 0.40714,0.61061 0.55962,1.52658 1.05325,2.18809 1.75565,2.03549 3.92855,3.56214 5.6805,5.60777 0.50893,0.61064 0.63111,1.52655 1.05355,2.23898 0.35605,0.50885 0.83948,0.61063 1.11944,1.11948 0.50883,1.06869 0.50883,2.28998 1.12455,3.35856 0.55982,0.91601 1.75555,1.32307 2.24418,2.23907 1.75555,2.79872 3.15496,5.82139 4.41698,8.9052 1.33311,2.95139 2.875,5.82138 3.43482,8.97637 0.77349,4.42715 0.55982,8.97645 0.55982,13.39347 0,4.47804 0.051,9.04764 -0.55982,13.46464 -0.7022,4.57983 -2.03552,8.97647 -3.43482,13.39337 -0.15278,0.50886 -0.83968,0.71243 -1.05345,1.1195 -0.55972,1.06869 -0.63101,2.28996 -1.12454,3.35855 -0.20347,0.50885 -0.91098,0.61065 -1.11955,1.11949 -0.55972,1.06869 -0.50882,2.39175 -1.11944,3.35855 -0.91097,1.32307 -2.38676,2.0864 -3.36873,3.35856 -0.50882,0.61064 -0.55982,1.62834 -1.11944,2.23898 -4.06593,4.42714 -8.27483,8.83903 -12.90298,12.83373 -1.19074,1.11949 -2.8751,1.62832 -4.41688,2.23898 -1.05356,0.50884 -2.31538,0.55973 -3.36373,1.06858 -0.40704,0.50896 -0.63101,0.91601 -1.12464,1.17048 -1.4706,0.86502 -2.94629,1.62834 -4.48817,2.23898 -3.22625,1.27217 -6.66157,2.44255 -10.02779,3.30766 -2.1728,0.61064 -4.41698,0.91591 -6.73176,1.17037 -2.59533,0.50886 -5.18937,0.61065 -7.85379,0.50886 -5.18957,0 -10.44863,-0.86502 -15.63821,-1.67923 -3.08366,-0.50885 -6.03055,-1.17038 -8.97583,-2.18818 -1.54189,-0.55974 -3.01758,-1.42476 -4.41698,-2.28987 -0.50883,0 -0.7023,-0.81421 -1.11955,-1.06859 -1.75565,-0.916 -3.78586,-1.32306 -5.60971,-2.23906 -0.40714,-0.50886 -0.63101,-0.86512 -1.12464,-1.11949 -1.47069,-0.81423 -3.22615,-1.11949 -4.48827,-2.23908 -4.55946,-3.96909 -8.90565,-8.27418 -12.83259,-12.83363 -1.11945,-1.27217 -1.39941,-3.10408 -2.24409,-4.47805 -0.30536,-0.50884 -0.83968,-0.71243 -1.12464,-1.11948 -0.91087,-1.47574 -1.3994,-3.00229 -2.31538,-4.47805 -0.20347,-0.50884 -0.91077,-0.61063 -1.05325,-1.11948 -1.75565,-5.88764 -3.29743,-11.84646 -4.48827,-17.88165 -0.83968,-4.42716 -1.82164,-8.9052 -1.68436,-13.39339 0.25446,-6.09623 1.47069,-12.06017 2.80391,-17.9478 0.40704,-1.62844 1.54188,-2.9515 2.24408,-4.47806 0.50883,-1.06858 0.55972,-2.23906 1.11954,-3.30765 0.20357,-0.50885 0.84468,-0.71242 1.05335,-1.11949 0.91078,-1.47575 1.39941,-3.10409 2.31538,-4.47803 0.25436,-0.50886 0.83958,-0.71243 1.11954,-1.1195 1.19073,-2.18818 1.96423,-4.63073 3.29744,-6.73238 0.77339,-1.06859 1.82174,-1.98459 2.87509,-2.79881 0.63102,-0.50885 1.54189,-0.61063 2.24409,-1.11951 0.63091,-0.50883 1.19073,-0.96676 1.61317,-1.67916 0.55972,-0.61072 0.63081,-1.52669 1.19074,-2.23905 1.12444,-1.4248 2.38646,-2.7479 3.85715,-3.9183 0.7023,-0.5088 1.61308,-0.5598 2.24409,-1.0687 2.03551,-1.6283 4.13712,-3.0022 5.61041,-5.0377 0.91077,-1.2723 1.19073,-2.9514 1.12454,-4.4781 -0.15268,-3.0023 -0.98226,-6.0302 -1.68436,-8.9714 -0.20357,-0.7633 -0.91097,-1.4249 -1.11954,-2.2388 -2.03542,-7.7859 -3.50601,-15.709 -5.54013,-23.4946 -0.55972,-1.8828 -1.75555,-3.6639 -2.31537,-5.5365 -0.91087,-2.9515 -1.26192,-6.0352 -2.1728,-8.9765 -0.40704,-0.9667 -1.05335,-1.9845 -1.75555,-2.7987 -0.30536,-0.5089 -0.7023,-0.7123 -1.05335,-0.5598 -1.19083,0.509 -2.24409,1.2722 -2.8752,2.2391 -2.94638,5.0377 -5.32925,10.3809 -7.7836,15.6375 -0.50883,1.1195 -0.63091,2.3407 -1.19074,3.3585 -1.68436,4.2235 -3.5061,8.2742 -5.53962,12.3399 -0.25446,0.509 -0.83948,0.6108 -1.11944,1.1197 -0.91077,1.8319 -1.4044,3.7657 -2.24398,5.6077 -0.70241,1.5267 -1.54199,2.9514 -2.24429,4.4781 -1.19073,2.8496 -2.1015,5.9587 -3.29744,8.9051 -1.33311,3.1041 -3.08366,5.8927 -4.48816,8.9053 -0.50893,1.1194 -0.63102,2.3916 -1.11965,3.3585 -0.20337,0.5089 -0.91077,0.7124 -1.11944,1.1195 -0.55972,1.11951 -0.63091,2.34073 -1.12454,3.35859 -0.63111,1.52651 -1.61308,2.95137 -2.24419,4.47801 -0.40704,1.06859 -0.7021,2.28987 -1.11944,3.35846 -0.63101,1.52664 -1.61317,2.95149 -2.17289,4.47804 -0.40715,1.06869 -0.63102,2.18818 -0.63102,3.35857 0,1.11948 0.15268,2.23905 0.63102,3.35855 0.15267,0.50884 0.77349,0.61064 1.05345,1.0686 0.50883,0.71242 0.63091,1.62842 1.11944,2.23906 0.25437,0.50885 0.91087,0.71242 1.11944,1.11949 0.91098,1.47575 1.61308,2.95139 2.24419,4.47803 1.26202,2.95141 2.66642,5.89267 3.36363,8.9052 0.63091,2.79872 0.55972,5.67894 0.55972,8.41663 0,2.79881 -0.051,5.67904 -0.55972,8.4116 -0.50893,2.64613 -1.33322,5.26175 -2.24419,7.7857 -0.63091,1.62844 -1.33321,3.15498 -2.24408,4.47804 -0.63102,0.91602 -1.61308,1.42486 -2.24409,2.23908 -1.4045,1.9845 -2.31537,4.27447 -3.85726,6.17253 -0.55972,0.61065 -1.61317,0.61065 -2.24408,1.11949 -0.50893,0.50884 -0.7022,0.86511 -1.19073,1.11949 -0.63091,0.50894 -1.54179,0.61073 -2.24409,1.11957 -0.40714,0.50886 -0.63111,0.86503 -1.05335,1.11949 -1.47059,0.81423 -2.94639,1.52666 -4.48827,2.23898 -1.11954,0.50895 -2.24408,0.61064 -3.36353,1.11958 -0.98216,0.50885 -2.1017,0.81413 -2.8039,1.67923 -0.50883,0.55975 -0.55972,1.47575 -0.55972,2.23908 0,0.71233 0.20347,1.52655 0.55972,2.23897 0.40704,0.66153 0.98206,1.27217 1.68426,1.62833 0.7023,0.50895 2.03561,0 2.24419,0.55985 0.40714,1.52654 -0.30536,3.76561 -0.55983,5.61278 -0.051,0.50886 -0.30515,0.50886 -0.55972,0.55974 -1.82174,0.55975 -3.71468,0.81423 -5.54002,1.11948 -2.24408,0.50886 -4.48827,0.55975 -6.73185,0.55975 -2.24409,0 -4.55946,0 -6.73186,-0.55975 -0.83958,0 -1.54188,-0.61063 -2.24398,-1.11948 -0.63111,-0.50884 -1.33321,-0.96679 -1.68436,-1.67922 -0.55983,-1.06869 -1.05346,-2.18818 -1.11955,-3.35856 -0.051,-0.50885 0.20347,-0.76332 0.55972,-1.11948 0.83969,-0.76333 2.10171,-1.27218 2.80381,-2.18819 0.63111,-0.9668 1.19083,-2.23897 1.12474,-3.35855 -0.051,-0.96681 -0.91097,-1.83192 -1.68436,-2.23898 -3.15496,-1.98459 -6.80215,-3.15498 -10.09808,-5.03778 -0.91087,-0.55974 -1.39931,-1.67934 -2.24409,-2.23907 -0.98206,-0.71243 -2.38656,-0.91591 -3.29743,-1.67924 -0.77349,-0.55973 -1.12465,-1.52664 -1.68427,-2.23906 -1.11964,-1.11949 -2.52414,-2.03539 -3.43491,-3.35845 -0.63102,-0.96691 -0.55983,-2.34088 -1.05346,-3.35856 -0.25436,-0.50886 -0.91087,-0.61065 -1.19073,-1.1195 -1.75555,-3.66382 -3.29743,-9.88735 -4.9767,-11.14928 -1.75565,-1.27217 -6.03065,0 -8.97594,0.55974 -0.77349,0 -1.47059,0.91591 -1.68436,1.67923 -1.75555,5.54162 -2.66643,11.29183 -4.41698,16.76217 -0.20347,0.55974 -0.91087,0.61065 -1.12464,1.11949 -0.50883,1.06859 -0.63091,2.28987 -1.11944,3.35856 -0.25437,0.50884 -0.91088,0.71233 -1.11945,1.11948 -0.50893,1.06859 -0.55982,2.34077 -1.12474,3.35846 -0.20357,0.50895 -0.83948,0.61074 -1.11944,1.1196 -1.75566,2.59522 -3.15496,5.32779 -5.04799,7.85185 -0.55972,0.71232 -1.54179,0.9668 -2.1728,1.62833 -2.73271,2.59524 -5.11868,5.39907 -7.85399,7.85688 -0.63091,0.55985 -1.61308,0.71243 -2.24409,1.11959 -0.40704,0.50885 -0.7022,0.86501 -1.12454,1.11948 -0.7022,0.50885 -1.61307,0.61064 -2.24408,1.11949 -0.83969,0.61063 -1.33322,1.78102 -2.24419,2.23907 -2.1016,1.06859 -4.48816,1.32307 -6.7317,2.23898 -1.54189,0.55973 -2.9464,1.67922 -4.48829,2.23906 -1.40451,0.50886 -2.9464,0.86502 -4.48819,1.06859 -3.64855,0.55975 -7.50328,0.55975 -11.14993,1.17039 -1.68436,0.50885 -3.29743,1.42485 -5.04789,1.62843 -0.91091,0 -1.82182,-0.55984 -2.73264,-0.55984 -0.63097,0 -1.11947,0.55984 -1.75553,0.55984 -0.5599,0 -1.0535,-0.50894 -1.61318,-0.55984 -3.78604,-0.76322 -7.57346,-1.27217 -11.21952,-2.23898 -0.83953,0 -1.47061,-0.76331 -2.24405,-1.06859 -3.29753,-1.27216 -6.80212,-2.08638 -10.09805,-3.40945 -1.4706,-0.55974 -2.9464,-1.32306 -4.41701,-2.23907 -0.50886,0 -0.70215,-0.76322 -1.11947,-1.06859 -0.70226,-0.50885 -1.61307,-0.61064 -2.24404,-1.11949 -0.40725,-0.50884 -0.70236,-0.81421 -1.11949,-1.11948 -2.03558,-1.42485 -4.20843,-2.44266 -6.17114,-3.9183 -0.35622,-0.50886 -0.25438,-0.86511 -0.50887,-1.11949 -0.70226,-0.61064 -1.54179,-1.06869 -2.31533,-1.67933 -2.10158,-1.9846 -4.417,-3.76562 -6.10086,-6.10135 -1.47061,-2.0354 -2.10158,-4.57974 -3.36355,-6.73228 -0.25448,-0.50885 -0.83966,-0.61065 -1.12463,-1.11949 -0.83965,-1.47575 -1.68436,-2.95149 -2.24412,-4.47803 -0.55975,-1.42486 -0.63099,-3.0024 -1.12459,-4.47805 -0.25443,-0.76333 -0.83963,-1.47576 -1.1195,-2.23907 -0.50888,-1.47566 -0.63101,-3.00231 -1.11952,-4.47805 -0.20356,-0.76322 -0.98212,-1.42476 -1.05336,-2.23898 -0.83963,-4.02008 -1.61311,-8.13683 -1.7556,-12.27388 -0.0509,-2.08639 1.12461,-4.07099 1.12461,-6.17263 0,-1.32307 -1.33324,-2.59524 -1.12461,-3.8674 1.12461,-6.87482 3.22624,-13.46466 5.04798,-20.12576 0.20355,-0.86501 0.63099,-1.52654 1.12459,-2.23897 0.25445,-0.50886 0.83964,-0.71243 1.11953,-1.11949 0.83963,-1.47574 1.40447,-3.10408 2.24411,-4.47804 0.25446,-0.50885 0.83961,-0.71243 1.11948,-1.11949 0.83957,-1.42485 1.1908,-3.15507 2.24409,-4.47804 0.91092,-1.32307 2.31533,-2.08638 3.29752,-3.35856 0.55979,-0.61064 0.63097,-1.62844 1.11949,-2.23906 2.31532,-2.54434 4.63075,-5.11918 7.29311,-7.29198 1.26204,-0.967 3.01759,-1.3231 4.48819,-2.1883 0.40714,-0.5087 0.63097,-0.9159 1.11957,-1.1194 1.75555,-0.916 3.78594,-1.4249 5.54008,-2.2391 0.5597,0 0.70216,-0.9159 1.11948,-1.1195 1.82173,-0.9158 3.85712,-1.4249 5.60966,-2.239 0.50888,0 0.63107,-0.9668 1.19076,-1.1195 2.87512,-0.9669 5.82042,-1.9846 8.90569,-2.2391 8.20454,-0.8651 16.47926,-0.5087 24.61351,-1.1194 1.05338,0 2.31533,-0.7125 2.73265,-1.6793 1.75564,-3.5112 2.17286,-7.4346 3.4348,-11.1493 0.20358,-0.7633 0.91092,-1.4757 1.05339,-2.239 0.55979,-2.5952 0.55979,-5.2618 1.19076,-7.857 0.50897,-2.2899 1.61317,-4.4271 2.24404,-6.6611 0.83974,-3.3585 1.19077,-6.8036 2.24425,-10.0959 0.83963,-2.7479 2.4527,-5.1192 3.29742,-7.857 0.63098,-2.188 0.63098,-4.4779 1.11948,-6.661 0.25448,-1.1703 0.83976,-2.239 1.11962,-3.3585 0.50883,-2.239 0.63081,-4.4781 1.12454,-6.7323 0.051,-0.5089 0.63091,-0.7125 0.55982,-1.1195 -0.7024,-3.4095 -1.61317,-6.7985 -2.80398,-10.0959 -0.83964,-2.29 -2.03539,-4.5799 -3.36362,-6.7325 -0.55969,-0.8142 -1.61307,-1.4249 -2.24404,-2.188 -0.70237,-0.8651 -0.63108,-2.4426 -1.68436,-2.7989 -3.85732,-1.2721 -8.97598,-1.1194 -13.39349,-2.2391 -0.77344,0 -1.33322,-0.9667 -1.68435,-1.6792 -0.77344,-1.4248 -1.40451,-2.9004 -1.68435,-4.4271 -0.0509,-0.8652 0.20356,-1.6283 0.55978,-2.239 0.40714,-0.7124 1.05339,-1.2721 1.68426,-1.7302 0.70235,-0.5089 1.47071,-0.9159 2.24425,-1.1195 1.96419,-0.5088 4.06577,-0.7124 6.17094,-0.5088 6.8718,0.5597 13.74401,1.6283 20.68663,2.7479 1.12454,0 2.24399,0.7123 3.36353,1.1194 0.98216,0.509 2.03541,0.916 2.80391,1.7302 0.35625,0.5088 0.55982,0.9669 0.55982,1.6284 0,0.6107 -0.30546,1.1704 -0.55982,1.7301 -0.63102,0.8651 -1.82175,1.2721 -2.24419,2.1881 -0.50883,0.8143 -0.55972,1.832 -0.55972,2.7988 0,0.9669 0.20357,1.8829 0.55972,2.7989 0.55972,1.5265 1.61317,2.9514 2.24419,4.478 0.40714,1.0687 0.55982,2.239 1.05335,3.3076 0.25436,0.5089 0.83968,0.7124 1.19083,1.1196 0.98196,1.6791 1.54178,3.562 2.73252,5.1192 0.50892,0.6107 1.4045,0.9667 2.24398,1.0686 5.46943,0.5087 24.61364,0.5597 36.95511,0.5597 12.27197,0 28.04995,-0.5089 36.88541,-0.5597 0.55972,0 1.11955,-0.5598 1.68427,-0.5598 0.55982,0 1.11964,0.5089 1.68436,0.5598 5.53962,0.5087 11.22012,0.6106 16.75964,1.1195 0.40715,0 0.70221,0.5597 1.12455,0.5597 0.40714,0 0.7023,-0.509 1.11954,-0.5597 2.03541,-0.5089 4.13712,-0.5598 6.17113,-0.5598 2.03532,0 4.13702,0.5089 6.17093,0.5598 0.55983,0 1.05346,0.5597 1.68447,0.5597 0.55972,0 1.05335,-0.509 1.61307,-0.5597 3.01248,-0.5089 6.03055,-0.6108 8.97584,-1.1195 1.19073,0 2.24428,-0.6107 3.36373,-1.0686 0.20347,0 0.50873,-0.509 0.55972,-0.6107 0.35615,-1.2722 0.55972,-2.5443 0.55972,-3.9183 0,-1.2721 -0.25446,-2.5952 -0.55972,-3.9183 -1.05335,-4.8343 -2.10171,-9.6786 -3.36363,-14.5179 -1.33331,-4.8853 -3.15506,-9.6075 -4.41698,-14.513 -0.77349,-2.7989 -1.47069,-5.5416 -1.75055,-8.4166 -0.051,-0.916 0.25446,-1.8829 0.55982,-2.7988 0.55972,-1.5268 1.33311,-3.0024 2.24408,-4.4782 0.40705,-0.6106 0.98217,-1.323 1.67927,-1.6283 2.87509,-1.4247 6.10034,-2.0354 8.90575,-3.3586 2.59523,-1.1194 4.9766,-2.4424 7.29247,-3.9182 0.40724,0 0.63101,-0.7124 0.63101,-1.1196 -0.15268,-0.6105 -0.63101,-1.2721 -1.19073,-1.6792 -0.55982,-0.5597 -1.3993,-0.9668 -2.24418,-1.1195 -7.57344,-0.8142 -15.21717,-1.5266 -22.86029,-1.6792 -3.43482,0 -6.73176,1.0685 -10.09798,1.1704 -2.03552,0 -4.13702,0 -6.17104,-0.6107 -0.77359,0 -1.61317,-0.6106 -2.24418,-1.1195 -0.63091,-0.5089 -1.26192,-0.9668 -1.61307,-1.6284 -0.77339,-1.2721 -1.40451,-2.5953 -1.68437,-3.9183 -0.15258,-0.6107 0.20357,-1.2722 0.50893,-1.6792 0.50883,-0.7124 1.05325,-1.323 1.75565,-1.6793 0.98197,-0.6106 2.1727,-0.9669 3.29734,-1.1195"
       style="fill:#ffffff;fill-opacity:1;fill-rule:nonzero;stroke:none;stroke-width:0.35277781"
       inkscape:connector-curvature="0" />
    <path
       id="path974"
       d="m 562.53861,-941.34291 c -0.35625,0.50884 -0.55982,0.8142 -1.05345,1.11948 -0.7021,0.50884 -1.54189,0.61064 -2.24399,1.11948 -0.50893,0.50895 -0.7024,0.86512 -1.11954,1.11959 -0.63101,0.50885 -1.54188,0.61064 -2.17289,1.11948 -0.50893,0.50885 -0.70221,0.76332 -1.19084,1.11948 -0.7021,0.50886 -1.4045,0.91601 -2.24398,1.1195 -1.47069,0.50894 -2.94639,0.55975 -4.48817,0.55975 -1.47069,0 -3.01768,0 -4.48827,-0.55975 -2.24418,-0.61064 -4.48827,-1.32307 -6.66216,-2.23898 -0.50883,0 -0.7022,-0.81422 -1.11955,-1.11948 -0.7022,-0.50894 -1.61307,-0.61064 -2.24398,-1.11959 -0.83968,-0.61064 -1.26202,-1.83191 -2.24419,-2.23896 -1.19073,-0.50886 -2.59513,-0.55975 -3.92844,-0.55975 -1.26203,0 -2.66653,0 -3.92845,0.55975 -0.7022,0.50884 -1.47069,0.91589 -1.61307,1.67922 -0.63112,1.98459 -0.63112,4.12187 -0.63112,6.17264 0,2.03539 0.20358,4.12177 0.63112,6.10125 0.50882,2.74792 1.33311,5.3279 2.24408,7.85185 0.35605,1.17039 0.98216,2.34078 1.61307,3.35856 0.35615,0.50885 0.7022,0.86511 1.19074,1.1195 2.17299,1.06859 4.27959,2.18817 6.66206,2.79881 2.17289,0.55974 4.48827,0.61064 6.73195,0.55974 9.74733,-0.50886 19.915,-0.91601 29.03132,-1.73012 0.91098,0 1.61308,-0.55984 2.24419,-1.06869 0.91087,-0.61064 1.4044,-1.62833 2.24408,-2.23898 0.7022,-0.50885 1.61318,-0.61063 2.24409,-1.11948 1.47059,-1.17049 2.73271,-2.44265 3.92855,-3.91831 0.50882,-0.71242 0.63081,-1.52664 1.11944,-2.23906 0.35615,-0.50885 0.83968,-0.61064 1.11944,-1.11949 1.19083,-2.18817 2.10171,-4.57984 3.36373,-6.73237 0.20347,-0.50885 0.91077,-0.55974 1.12454,-1.11949 0.77349,-1.73013 1.3994,-3.66383 1.68446,-5.54152 0.051,-0.76332 -0.25456,-1.52664 -0.63101,-2.23907 -0.051,0 -0.30536,-0.50884 -0.55982,-0.55974 -1.05335,-0.50885 -2.17289,-0.96691 -3.29754,-1.11949 -3.15495,-0.50884 -6.3817,-0.55975 -9.53716,-0.55975 -3.15495,0 -6.31091,0 -9.46657,0.55975 -0.83948,0 -1.61307,0.71243 -2.31527,1.11949"
       style="fill:#ffffff;fill-opacity:1;fill-rule:nonzero;stroke:none;stroke-width:0.35277781"
       inkscape:connector-curvature="0" />
    <path
       style="fill:#ffffff;fill-opacity:1;fill-rule:nonzero;stroke:none;stroke-width:0.35277787"
       d="m 242.33874,-1029.9222 c 1.76531,0 3.70783,-1.3579 4.27492,-2.9998 l 7.58556,-21.0757 c 1.19819,-3.2791 -0.66923,-5.9245 -4.13578,-5.9245 H 209.7825 c -1.76532,0 -3.70784,1.358 -4.27493,2.9999 l -7.58556,21.0757 c -1.19818,3.279 0.66922,5.9244 4.13578,5.9244 z"
       id="path1005"
       inkscape:connector-curvature="0"
       sodipodi:nodetypes="sccssccss" />
    <path
       sodipodi:nodetypes="sccssccss"
       inkscape:connector-curvature="0"
       id="path1007"
       d="m 548.77929,-1029.9222 c -1.76531,0 -3.70783,-1.3579 -4.27492,-2.9997 l -7.58556,-21.0757 c -1.19819,-3.2791 0.66923,-5.9245 4.13578,-5.9245 h 25.28094 c 1.76532,0 3.70784,1.358 4.27493,2.9999 l 7.58557,21.0757 c 1.19818,3.2789 -0.66922,5.9243 -4.13578,5.9243 z"
       style="fill:#ffffff;fill-opacity:1;fill-rule:nonzero;stroke:none;stroke-width:0.35277787" />
  </g>
</svg>
