<?xml version="1.0" encoding="UTF-8" standalone="no"?>
<!-- Created with Inkscape (http://www.inkscape.org/) -->

<svg
   xmlns:dc="http://purl.org/dc/elements/1.1/"
   xmlns:cc="http://creativecommons.org/ns#"
   xmlns:rdf="http://www.w3.org/1999/02/22-rdf-syntax-ns#"
   xmlns:svg="http://www.w3.org/2000/svg"
   xmlns="http://www.w3.org/2000/svg"
   xmlns:sodipodi="http://sodipodi.sourceforge.net/DTD/sodipodi-0.dtd"
   xmlns:inkscape="http://www.inkscape.org/namespaces/inkscape"
   version="1.1"
   width="1005.4"
   height="1005.4"
   id="svg2"
   xml:space="preserve"
   inkscape:version="0.48.4 r9939"
   sodipodi:docname="AJAX1.svg"><sodipodi:namedview
     pagecolor="#ffffff"
     bordercolor="#666666"
     borderopacity="1"
     objecttolerance="10"
     gridtolerance="10"
     guidetolerance="10"
     inkscape:pageopacity="0"
     inkscape:pageshadow="2"
     inkscape:window-width="1280"
     inkscape:window-height="1004"
     id="namedview28"
     showgrid="false"
     fit-margin-top="2.7"
     fit-margin-left="2.7"
     fit-margin-right="2.7"
     fit-margin-bottom="2.7"
     inkscape:zoom="0.56300792"
     inkscape:cx="426.5787"
     inkscape:cy="584.13899"
     inkscape:window-x="-8"
     inkscape:window-y="-8"
     inkscape:window-maximized="1"
     inkscape:current-layer="svg2"
     showguides="true"
     inkscape:guide-bbox="true" /><metadata
     id="metadata8"><rdf:RDF><cc:Work
         rdf:about=""><dc:format>image/svg+xml</dc:format><dc:type
           rdf:resource="http://purl.org/dc/dcmitype/StillImage" /><dc:title /></cc:Work></rdf:RDF></metadata><defs
     id="defs6" /><path
     inkscape:connector-curvature="0"
     style="fill:#ffffff;fill-opacity:1;stroke:#ed1c23;stroke-opacity:1;stroke-width:5;stroke-miterlimit:4;stroke-dasharray:none"
     d="M 2.7,502.70001 C 2.7,226.55763 226.55764,2.7 502.7,2.7 c 276.14238,0 500,223.85763 500,500.00001 0,276.14237 -223.85762,499.99999 -500,499.99999 -276.14236,0 -500,-223.85762 -500,-499.99999 z"
     id="path3854" /><path
     style="fill:#0066b3;fill-opacity:1;stroke:none"
     d="m 222.7,716.71489 560,0 0,31.2 -560,0 z"
     id="rect15217"
     inkscape:connector-curvature="0"
     sodipodi:nodetypes="ccccc" /><path
     sodipodi:nodetypes="ssssssssss"
     inkscape:connector-curvature="0"
     id="path15323"
     d="m 502.7,37.325 c -257.01952,0 -465.375,208.35548 -465.375,465.375 0,257.01952 208.35548,465.375 465.375,465.375 257.01952,0 465.375,-208.35548 465.375,-465.375 C 968.075,245.68048 759.71952,37.325 502.7,37.325 z m 0,132.525 c 183.82796,0 332.85,149.02201 332.85,332.85 0,183.82797 -149.02204,332.85 -332.85,332.85 -183.82797,0 -332.85,-149.02203 -332.85,-332.85 0,-183.82799 149.02203,-332.85 332.85,-332.85 z"
     style="fill:#ed1c23;fill-opacity:1;stroke:none" /><path
     inkscape:connector-curvature="0"
     d="m 570.07402,558.68749 -3.46221,-135.5835 c 0,-40.1538 29.88646,-73.2636 66.53817,-73.2636 36.73128,0 66.57795,33.1098 66.57795,73.8604 0,0 3.50202,133.952 3.50202,135.0663 0,40.671 -29.80688,73.7013 -66.53817,73.7013 -36.7313,0 -66.61776,-33.0303 -66.61776,-73.7809 m -50.30158,-134.9867 3.5418,135.5836 c 0,65.1453 50.85872,118.6305 113.37754,118.6305 62.55862,0 113.37752,-53.4852 113.37752,-119.2274 l -3.54181,-135.5835 c 0.0791,-65.2248 -50.85871,-118.6704 -113.37751,-118.6704 -62.47902,0 -113.37754,53.4456 -113.37754,119.2672"
     style="fill:#0066b3;fill-opacity:1;fill-rule:nonzero;stroke:none"
     id="path4770" /><path
     inkscape:connector-curvature="0"
     d="m 457.96994,304.19479 0,48.2322 -137.17527,0 -4.17853,86.3166 c 15.44069,-10.2275 32.314,-15.361 50.58017,-15.361 36.13435,0 63.4341,10.9836 81.74006,32.7516 18.66411,21.4498 28.01605,52.9281 28.01605,94.4749 0,41.8249 -9.35194,73.3828 -28.01605,94.4746 -18.30596,21.8875 -45.60571,32.7516 -81.74006,32.7516 -31.99564,0 -58.3801,-8.7947 -79.15336,-26.4242 -21.88756,-19.659 -32.71195,-47.1577 -32.71195,-82.3369 l 57.02702,0 c 0,17.9078 4.73567,32.5528 14.24682,43.8147 10.18766,11.5806 23.71815,17.3909 40.59147,17.3909 17.90798,0 31.08031,-6.6857 39.51697,-20.0173 8.75503,-12.9734 13.21213,-32.9507 13.21213,-59.6534 0,-26.4642 -4.4571,-46.1631 -13.21213,-59.1762 -8.43666,-13.6896 -21.60899,-20.5343 -39.51697,-20.5343 -27.10079,0 -45.36695,14.7243 -54.83829,44.2924 l -52.8087,0 10.54582,-210.9962 187.8748,0"
     style="fill:#0066b3;fill-opacity:1;fill-rule:nonzero;stroke:none"
     id="path4774" /></svg>