<?xml version="1.0" encoding="UTF-8" standalone="no"?>
<svg
   xmlns:dc="http://purl.org/dc/elements/1.1/"
   xmlns:cc="http://creativecommons.org/ns#"
   xmlns:rdf="http://www.w3.org/1999/02/22-rdf-syntax-ns#"
   xmlns:svg="http://www.w3.org/2000/svg"
   xmlns="http://www.w3.org/2000/svg"
   xmlns:xlink="http://www.w3.org/1999/xlink"
   xmlns:sodipodi="http://sodipodi.sourceforge.net/DTD/sodipodi-0.dtd"
   xmlns:inkscape="http://www.inkscape.org/namespaces/inkscape"
   width="1000.4"
   height="1000.4"
   viewBox="-505.2 -505.2 1000.4 1000.4"
   id="svg2"
   version="1.1"
   inkscape:version="0.91 r13725"
   sodipodi:docname="33.svg">
  <sodipodi:namedview
     pagecolor="#ffffff"
     bordercolor="#666666"
     borderopacity="1"
     objecttolerance="10"
     gridtolerance="10"
     guidetolerance="10"
     inkscape:pageopacity="0"
     inkscape:pageshadow="2"
     inkscape:window-width="1920"
     inkscape:window-height="1057"
     id="namedview21"
     showgrid="false"
     inkscape:showpageshadow="true"
     showborder="false"
     borderlayer="false"
     inkscape:zoom="0.26874226"
     inkscape:cx="798.15971"
     inkscape:cy="-166.11708"
     inkscape:window-x="-8"
     inkscape:window-y="-8"
     inkscape:window-maximized="1"
     inkscape:current-layer="svg2"
     fit-margin-top="0"
     fit-margin-left="0"
     fit-margin-right="0"
     fit-margin-bottom="0" />
  <metadata
     id="metadata4">
    <rdf:RDF>
      <cc:Work
         rdf:about="">
        <dc:format>image/svg+xml</dc:format>
        <dc:type
           rdf:resource="http://purl.org/dc/dcmitype/StillImage" />
        <dc:title></dc:title>
      </cc:Work>
    </rdf:RDF>
  </metadata>
  <defs
     id="defs6">
    <path
       id="Oct"
       d="M 500,-207.10678 500,207.10678 207.10678,500 -207.10678,500 -500,207.10678 -500,-207.10678 -207.10678,-500 l 414.21356,0 z"
       inkscape:connector-curvature="0" />
  </defs>
  <use
     xlink:href="#Oct"
     style="fill:#fcdc0f;fill-opacity:1"
     id="use11"
     transform="translate(-5.0000122,-5.000021)"
     x="0"
     y="0"
     width="100%"
     height="100%" />
  <use
     xlink:href="#Oct"
     style="fill:#000000"
     transform="matrix(0.95,0,0,0.95,-5.0000122,-5.000021)"
     id="use13"
     x="0"
     y="0"
     width="100%"
     height="100%" />
  <use
     height="100%"
     width="100%"
     y="0"
     x="0"
     transform="matrix(0.9,0,0,0.9,-5.0000122,-5.000021)"
     id="use4163"
     style="fill:#fcdc0f;fill-opacity:1"
     xlink:href="#Oct" />
  <path
     inkscape:connector-curvature="0"
     d="m -319.63001,61.12045 0,16.94748 c 0,0.69541 0,1.38898 0,1.73012 0.35242,6.2258 2.77796,12.4518 6.57915,17.28862 3.46024,4.4957 7.60276,7.60278 12.79294,9.68607 5.5315,2.4124 11.7573,3.10689 17.98311,2.4124 6.22599,-0.34077 12.4518,-2.07126 17.28863,-5.87246 5.17815,-3.1191 8.99155,-8.29727 11.06281,-14.18193 0.69542,-1.73013 1.38898,-3.80139 1.73012,-5.53132 0,-0.69394 0.34077,-1.73012 0.34077,-2.42461 l 0,-37.00186 c 0,-1.03563 0,-1.71791 0,-2.76575 -0.34077,-3.44803 -1.73012,-7.24941 -3.46024,-10.36832 -1.71772,-3.46024 -3.80119,-6.56695 -6.90808,-9.3327 -1.72994,-1.73012 -3.80138,-3.1191 -6.22581,-4.15473 -0.69393,-0.34058 -1.73012,-1.03544 -2.76575,-1.37677 l -42.87431,-16.60634097 c -0.69394,-0.34077 -1.38898,-0.34077 -2.08347,-0.68209993 -5.53132,-2.0834601 -10.36833,-4.4958601 -14.86421,-7.9559201 -8.6382,-5.884849 -15.91185,-13.146289 -21.44335,-21.784499 -6.21359,-9.68604 -10.36832,-20.74886 -11.06263,-32.16502 0,-0.6821 -0.34151,-1.71773 -0.34151,-2.76557 l 0,-26.96264 c 0,-1.38889 0,-2.76568 0.34151,-4.1546 0.35243,-8.29703 2.76557,-15.91185 6.22581,-23.5145 5.19017,-11.41612 13.13407,-21.78444 23.17347,-29.38709 10.70947,-8.6504 23.85557,-14.1818 37.68414,-15.9119 11.41616,-2.0713 23.51443,-1.389 34.9306,2.0713 14.1697,3.8013 27.3158,11.7572 37.34299,22.83218 7.95611,8.63822 13.82856,18.66542 16.93545,29.72822 1.38898,4.49578 2.42461,9.34489 2.77778,13.84063 0,1.03565 0,2.07126 0.34077,3.10687 l 0,20.39542 -47.37018,0 0,-16.93529 c 0,-0.69394 0,-1.03561 -0.35242,-1.73005 -0.34077,-3.8013 -1.03563,-7.26147 -2.4124,-10.72167 -2.42461,-5.19023 -6.9203,-9.68597 -11.75731,-12.79282 -4.84903,-3.10689 -10.38054,-4.83696 -16.253,-5.19024 -7.95592,-0.6822 -16.25299,1.7301 -22.82012,7.26143 -5.19017,3.46015 -8.99155,8.99154 -10.38053,14.52293 -0.69394,2.08342 -1.03563,4.49584 -1.03563,6.57918 0,0.34073 -0.34077,1.03563 -0.34077,1.73017 l 0,20.39546 c 0,0.34077 0,1.03563 0.34077,1.73012 0.34077,4.15473 1.37677,7.95593 3.46024,11.75731 1.73012,3.46005 4.15454,6.90808 6.92029,9.33269 1.71791,1.73012 3.80138,3.10671 5.5315,4.15455 0.6821,0.34077 1.37677,0.68228 2.07126,1.03563 l 35.95402,13.48742 c 0.69394,0.34077 1.38898,0.69468 2.08347,1.03563 5.17797,2.4124 10.36833,4.14234 15.5585,6.56695 6.56695,3.46024 12.4518,7.95593 17.62976,13.146289 6.57916,5.87246 11.75731,12.79275 15.5709,21.089821 3.80119,7.95611 6.21359,16.59413 6.90808,25.58587 0,0.69541 0,1.38898 0.35243,2.07107 l 0,40.12096 c -0.35243,0.34077 -0.35243,1.03563 -0.35243,1.73012 -0.69541,5.87264 -1.37677,11.7451 -3.10689,17.629943 -3.1191,12.098467 -10.38035,23.173307 -19.71323,31.811517 -8.29706,8.65041 -18.66539,14.87622 -30.08155,18.32425 -11.75712,4.49587 -24.55007,5.88466 -37.343,4.49587 -16.25299,-1.73012 -32.85952,-7.9439 -45.29893,-19.01893 -10.38053,-8.29688 -18.67778,-19.70083 -22.47916,-32.50598 -2.42443,-6.22583 -3.46006,-12.79277 -4.15436,-19.70104 0,-0.69394 0,-1.38898 0,-2.08329 l 0,-20.05455 47.37,0"
     style="fill:#000000;fill-opacity:1;fill-rule:evenodd;stroke:none"
     id="path4165" />
  <path
     inkscape:connector-curvature="0"
     d="m -124.59337,151.71848 0,-273.17066 -56.36192,0 0,-42.19222 159.752688,0 0,42.19222 -56.02077,0 0,273.17066 -47.369998,0"
     style="fill:#000000;fill-opacity:1;fill-rule:evenodd;stroke:none"
     id="path4167" />
  <path
     inkscape:connector-curvature="0"
     d="m 54.519018,-90.6762 0,168.74413 c 0,0.69541 0.35392,1.73012 0.35392,2.42461 0.68228,5.87245 2.76575,11.75731 6.21378,16.59413 4.15454,5.53133 10.03921,9.33272 16.60634,11.06284 6.56694,2.08328 13.82837,2.08328 20.39551,-0.34077 5.884662,-2.08329 11.075022,-5.53132 14.876222,-10.38056 2.76574,-3.46005 4.837,-7.26125 5.87263,-11.75712 0.69394,-1.71791 1.03563,-3.80138 1.03563,-5.5315 0,-0.6821 0,-1.37677 0,-2.07108 l 0,-169.08543 c 0,-0.69469 0,-1.38891 0,-2.42454 -0.69393,-4.84911 -2.4124,-9.68599 -5.17814,-13.84064 -3.81341,-5.53146 -9.68605,-9.67385 -16.252992,-11.74511 -6.92049,-2.76568 -14.18192,-2.76568 -21.10221,-0.69392 -6.21378,1.73012 -11.75731,5.5314 -15.5585,10.36832 -2.76575,3.11907 -4.83701,7.26146 -5.87264,11.06278 -0.69394,2.08343 -1.03563,3.81348 -1.03563,5.8847 -0.35392,0.69396 -0.35392,1.38898 -0.35392,1.7301 z M 7.1488478,-93.10081 c 0.34077,-0.68222 0.34077,-1.7301 0.34077,-2.41238 1.03544,-11.41609 4.4956802,-22.47885 10.3803502,-32.1649 6.56713,-11.75722 16.93545,-21.4433 28.70478,-28.0103 9.33271,-5.5314 20.05438,-8.9916 30.76385,-10.0272 13.48742,-1.7301 27.328012,-0.3407 39.767592,4.8369 14.18193,5.1903 26.28037,14.523 35.27174,26.63357 8.6506,11.06287 14.18192,24.19687 14.87641,37.68413 0,0.69469 0,1.73008 0,2.42463 l 0,174.97004 c 0,1.03563 0,2.07126 -0.35243,2.76575 -1.03581,9.3327 -3.10707,18.32427 -7.26162,26.63336 -6.92029,15.20552 -19.71323,28.35162 -35.27173,35.61306 -11.40396,5.87264 -24.19689,8.99155 -37.002042,8.63839 -13.13389,0.35242 -26.28017,-2.4124 -37.68414,-8.63839 -10.38035,-5.19018 -19.37209,-12.45161 -26.62131,-21.78431 -7.61479,-9.34509 -13.1461002,-20.74886 -14.5350802,-32.50618 -0.68228,-2.76575 -0.68228,-5.88467 -1.03563,-8.65042 0,-0.68228 0,-1.73012 -0.34151,-2.4124 l 0,-173.59335"
     style="fill:#000000;fill-opacity:1;fill-rule:evenodd;stroke:none"
     id="path4169" />
  <path
     inkscape:connector-curvature="0"
     d="m 266.49094,-121.1111 0,106.50993 29.7405,0 c 0.68218,0 1.73007,0 2.76562,0 5.19029,-0.35409 10.3684,-2.08348 14.86416,-4.84923 4.49575,-2.76575 7.95589,-6.2258 10.38051,-10.36832 2.41232,-3.8012 4.14237,-8.29707 4.49571,-12.79275 0,-0.69468 0,-1.38898 0,-1.73012 l 0,-47.72361 c 0,-1.03561 -0.35396,-2.41236 -0.35396,-3.44799 -0.69394,-5.19016 -3.1068,-10.38044 -6.9081,-14.53506 -3.81352,-4.48366 -9.34501,-7.94379 -14.8763,-9.67387 -2.41246,-0.69466 -4.83701,-1.03559 -7.60261,-1.38898 -0.69394,0 -1.73014,0 -2.76577,0 l -29.74031,0 z m -47.02904,272.82959 0,-315.36288 80.22968,0 c 1.37672,0 2.41233,0 3.44793,0.354 8.65039,0.6822 16.94755,2.7657 24.90344,6.2259 11.06285,4.4957 21.44335,12.4395 29.046,22.12554 5.53139,6.56701 9.68597,14.52298 12.45171,22.47887 1.37675,4.83696 2.4124,10.02724 3.10683,14.86416 0.3525,1.38892 0.3525,2.4245 0.3525,3.46015 l 0,51.86599 c 0,0.35317 0,1.03563 0,1.73012 0,8.65042 -2.76573,17.28862 -6.9203,25.24456 -5.53148,11.062809 -13.48739,21.089989 -23.85575,28.01029 -9.34486,6.9203 -20.74883,11.41617 -32.50612,13.48743 -2.42447,0.69393 -5.19022,1.03563 -7.95589,1.37677 -1.38898,0 -2.76568,0 -4.15466,0 l -31.11707,0 0,124.13965 -47.02923,0"
     style="fill:#000000;fill-opacity:1;fill-rule:evenodd;stroke:none"
     id="path4171" />
  <path
     style="font-style:normal;font-weight:normal;font-size:250px;font-family:'Rounded M+ 1m medium';-inkscape-font-specification:'Rounded M+ 1m medium';text-align:center;text-anchor:middle;fill:#000000;fill-opacity:1;stroke:none"
     d="m 147.47069,-398.7031 c -2.4723,1e-4 -4.60762,0.8987 -6.40429,2.6953 -1.7968,1.7968 -2.69539,3.9302 -2.69532,6.4023 l 0,6.4043 c -7e-5,0.8985 -0.44935,1.3478 -1.34765,1.3477 l -22.41797,0 c -2.01968,10e-5 -3.73287,0.7308 -5.13867,2.1914 -1.40586,1.4608 -2.10945,3.2017 -2.10938,5.2246 -7e-5,2.0231 0.70352,3.766 2.10938,5.2265 1.4058,1.4609 3.11899,2.1915 5.13867,2.1915 l 22.41797,0 c 0.8983,0 1.34758,0.4493 1.34765,1.3476 l 0,15.6758 c -7e-5,1.0082 -0.44935,1.5118 -1.34765,1.5117 l -29.32617,0 c -2.13623,10e-5 -3.93394,0.7036 -5.39454,2.1094 -1.46081,1.4059 -2.19146,3.1761 -2.1914,5.3105 -6e-5,2.1346 0.73059,3.9614 2.1914,5.4785 1.4606,1.5174 3.25831,2.2755 5.39454,2.2754 l 79.54687,0 c 2.1361,1e-4 3.96303,-0.758 5.48047,-2.2754 1.5171,-1.5171 2.27518,-3.3439 2.27539,-5.4785 -2.1e-4,-2.1344 -0.75829,-3.9046 -2.27539,-5.3105 -1.51744,-1.4058 -3.34437,-2.1093 -5.48047,-2.1094 l -29.32226,0 c -0.89851,10e-5 -1.3478,-0.5035 -1.34766,-1.5117 l 0,-15.6758 c -1.4e-4,-0.8983 0.44915,-1.3476 1.34766,-1.3476 l 23.76171,0 c 2.02284,0 3.73631,-0.7306 5.14063,-2.1915 1.40391,-1.4605 2.10729,-3.2034 2.10742,-5.2265 -1.3e-4,-2.0229 -0.70351,-3.7638 -2.10742,-5.2246 -1.40432,-1.4606 -3.11779,-2.1913 -5.14063,-2.1914 l -23.76171,0 c -0.89851,10e-5 -1.3478,-0.4492 -1.34766,-1.3477 l 0,-6.4043 c -1.4e-4,-2.4721 -0.89899,-4.6055 -2.69727,-6.4023 -1.79862,-1.7966 -3.9341,-2.6952 -6.40625,-2.6953 z m -93.033202,10.1113 c -2.58198,10e-5 -4.79926,0.9554 -6.6543,2.8652 -1.85505,1.91 -2.7832,4.1565 -2.7832,6.7383 l 0,121.8555 c 0,2.359 0.81463,4.3517 2.44336,5.9805 1.62867,1.6286 3.62358,2.4433 5.98437,2.4433 2.36073,0 4.35565,-0.8147 5.98438,-2.4433 1.62867,-1.6288 2.44336,-3.6215 2.44336,-5.9805 l 0,-0.3399 c 0,-0.8983 0.39248,-1.3476 1.17773,-1.3476 l 22.41992,0 c 2.58192,0 4.82641,-0.9554 6.73633,-2.8653 1.90987,-1.9099 2.86517,-4.1567 2.86524,-6.7421 l 0,-110.5606 c -7e-5,-2.5818 -0.95537,-4.8283 -2.86524,-6.7383 -1.90992,-1.9098 -4.15442,-2.8651 -6.73633,-2.8652 z m 8.76562,15.5019 13.98829,0 c 1.01149,2e-4 1.5175,0.5062 1.51757,1.5176 l 0,36.7442 c -7e-5,1.0116 -0.50608,1.5176 -1.51757,1.5175 l -13.98829,0 c -0.89836,1e-4 -1.34765,-0.5059 -1.34765,-1.5175 l 0,-36.7442 c 0,-1.0114 0.44929,-1.5174 1.34765,-1.5176 z M 160.7871,-331 l 0,11.8437 c -7e-5,0.8985 -0.50623,1.3478 -1.51758,1.3477 l -51.57226,0 c -2.13623,1e-4 -3.93394,0.7308 -5.39454,2.1914 -1.46081,1.4608 -2.19146,3.2581 -2.1914,5.3926 -6e-5,2.1345 0.73059,3.9319 2.1914,5.3926 1.4606,1.4607 3.25831,2.1914 5.39454,2.1914 l 51.57226,0 c 1.01135,0 1.51751,0.4493 1.51758,1.3476 l 0,31.5176 c -7e-5,4.7181 -0.39484,7.4983 -1.18164,8.3418 -0.78706,0.8435 -3.37,1.2656 -7.75195,1.2656 -3.93304,0 -7.64135,-0.1135 -11.125,-0.3398 -2.01974,-0.1098 -3.78949,0.5373 -5.30664,1.9414 -1.51738,1.4041 -2.21866,3.1195 -2.10547,5.1426 0.10968,2.2459 0.92208,4.1272 2.43945,5.6445 1.51717,1.5173 3.4009,2.3297 5.65039,2.4395 4.04252,0.2263 8.53594,0.3398 13.48047,0.3398 3.93283,0 7.05089,-0.057 9.35351,-0.1699 2.30235,-0.1132 4.4651,-0.5353 6.48829,-1.2657 2.0229,-0.7303 3.4843,-1.545 4.38281,-2.4433 0.89823,-0.8985 1.68347,-2.4144 2.35742,-4.5488 0.67361,-2.1345 1.06643,-4.4087 1.17969,-6.8243 0.11315,-2.4156 0.16978,-5.7583 0.16992,-10.0273 l 0,-31.0137 c -1.4e-4,-0.8983 0.50589,-1.3476 1.51758,-1.3476 l 6.9082,0 c 2.1361,0 3.96303,-0.7307 5.48047,-2.1914 1.5171,-1.4607 2.27518,-3.2581 2.27539,-5.3926 -2.1e-4,-2.1345 -0.75829,-3.9318 -2.27539,-5.3926 -1.51744,-1.4606 -3.34437,-2.1913 -5.48047,-2.1914 l -6.9082,0 c -1.01169,1e-4 -1.51772,-0.4492 -1.51758,-1.3477 l 0,-11.8437 z m -97.583992,12.8574 13.98829,0 c 1.01149,1e-4 1.5175,0.4494 1.51757,1.3477 l 0,41.4589 c -7e-5,0.8984 -0.50608,1.3477 -1.51757,1.3477 l -13.98829,0 c -0.89836,0 -1.34765,-0.4493 -1.34765,-1.3477 l 0,-41.4589 c 0,-0.8983 0.44929,-1.3476 1.34765,-1.3477 z m 54.865242,21.0625 c -0.27819,-0.012 -0.55985,-0.012 -0.84766,0 -2.30261,0.1114 -4.29745,0.9535 -5.98437,2.5273 -1.57399,1.574 -2.3046,3.4281 -2.19141,5.5625 0.11312,2.1346 0.95732,3.9887 2.53125,5.5625 4.1557,3.8198 8.81698,8.5378 13.98438,14.1543 1.57379,1.5739 3.48468,2.3888 5.73242,2.4454 2.24754,0.057 4.15654,-0.6448 5.73047,-2.1055 1.68348,-1.5739 2.55473,-3.4848 2.61133,-5.7324 0.0564,-2.2476 -0.70168,-4.2129 -2.27539,-5.8965 -5.2806,-5.7297 -9.99859,-10.5044 -14.1543,-14.3242 -1.47622,-1.3771 -3.18941,-2.1085 -5.13672,-2.1954 z"
     id="path2845"
     inkscape:connector-curvature="0"
     sodipodi:nodetypes="ccccccccccccccccccccccccccccccccccccccccsssscssssccccccccccccsscccccscccccccscccccscccccccccccccccccccccssssccccccccccccc" />
  <path
     inkscape:connector-curvature="0"
     style="font-style:normal;font-weight:normal;font-size:203.70500183px;font-family:'Rounded M+ 1m medium';-inkscape-font-specification:'Rounded M+ 1m medium';text-align:center;text-anchor:middle;fill:#000000;fill-opacity:1;stroke:none"
     d="m -28.295922,-330.7898 c 2.19705,2.402 3.29564,5.3653 3.2959,8.8898 -2.6e-4,3.5247 -1.09766,6.4892 -3.29259,8.8934 -2.1952,2.4045 -4.90259,3.6067 -8.12232,3.6066 l -157.170158,0 c -3.22,10e-5 -5.92739,-1.2021 -8.12246,-3.6066 -2.19493,-2.4042 -3.29246,-5.3687 -3.29246,-8.8934 0,-3.5245 1.09753,-6.489 3.29246,-8.8935 2.19507,-2.4042 4.90246,-3.6064 8.12246,-3.6065 l 157.170158,0 c 3.21973,10e-5 5.92606,1.2035 8.11901,3.6102 z"
     id="path2822" />
  <path
     inkscape:connector-curvature="0"
     d="m 178.83522,363.59852 c 1.17607,1.17624 1.76416,2.54824 1.76429,4.116 -1.3e-4,1.56773 -0.58822,2.94059 -1.76429,4.11855 -1.17647,1.17794 -2.54931,1.76691 -4.11865,1.76692 l -136.132634,0 c -1.56947,-10e-6 -2.94244,-0.58898 -4.11864,-1.76692 -1.1762,-1.17796 -1.7643,-2.55082 -1.7643,-4.11855 0,-1.56776 0.5881,-2.93976 1.7643,-4.116 1.1762,-1.17624 2.54917,-1.76435 4.11864,-1.76435 l 15.96637,0 c 0.89579,0 1.34375,-0.50436 1.34375,-1.51305 l 0,-96.30129 c 0,-1.7916 0.64459,-3.30379 1.93366,-4.53655 1.28906,-1.23256 2.82944,-1.84888 4.62115,-1.849 1.79171,1.2e-4 3.30392,0.61644 4.53661,1.849 1.23257,1.23276 1.84898,2.74495 1.84898,4.53655 l 0,96.30129 c 0,1.00869 0.50433,1.51305 1.51311,1.51305 l 33.107374,0 c 0.89915,0 1.34879,-0.50436 1.34892,-1.51305 l 0,-120.16632 c -1.3e-4,-1.90442 0.64356,-3.47303 1.93107,-4.70581 1.28726,-1.23253 2.82842,-1.84885 4.62375,-1.849 1.90444,1.5e-4 3.50041,0.64382 4.7878,1.93107 1.28725,1.28749 1.93094,2.82874 1.93107,4.62374 l 0,33.10741 c -1.3e-4,1.00879 0.44783,1.51314 1.34375,1.51305 l 49.2431,0 c 1.56935,9e-5 2.91491,0.55999 4.03655,1.67972 1.12139,1.11992 1.68208,2.46456 1.68233,4.03394 -2.5e-4,1.56955 -0.56094,2.91419 -1.68233,4.03392 -1.12164,1.11991 -2.4672,1.67981 -4.03655,1.67973 l -49.2431,0 c -0.89592,8e-5 -1.34388,0.50443 -1.34375,1.51305 l 0,72.6055 c -1.3e-4,1.00869 0.44783,1.51305 1.34375,1.51305 l 55.29527,0 c 1.56934,0 2.94218,0.58811 4.11865,1.76435 z"
     id="path2827"
     style="font-style:normal;font-weight:normal;font-size:130px;font-family:'Rounded M+ 1m regular';-inkscape-font-specification:'Rounded M+ 1m regular';text-align:center;text-anchor:middle;fill:#000000;fill-opacity:1;stroke:#000000;stroke-width:2.79999995;stroke-miterlimit:4;stroke-dasharray:none;stroke-opacity:1" />
  <path
     inkscape:connector-curvature="0"
     d="m -164.35409,298.7494 c -2.25929,4.10488 -5.28772,8.93041 -9.08551,14.4766 -0.82103,1.23148 -1.97638,1.82136 -3.46643,1.76962 -1.48993,-0.0517 -2.59375,-0.74494 -3.31123,-2.07985 -2.05244,-3.59402 -1.8989,-7.033 0.46063,-10.31692 12.83462,-17.86694 22.025,-38.35193 27.57135,-61.45504 0.41039,-1.64182 1.25725,-2.89912 2.54044,-3.77192 1.28307,-0.87254 2.74563,-1.20547 4.38755,-0.99878 1.5417,0.2038 2.77466,0.94721 3.69911,2.23024 0.92434,1.28326 1.23142,2.69568 0.92125,4.23722 -0.1007,0.20378 -0.20211,0.61427 -0.30554,1.23145 -0.10308,0.61741 -0.20686,1.0279 -0.31017,1.23145 -0.20376,0.82109 0.10544,1.23157 0.92588,1.23146 l 42.508654,0 c 0.820792,1.1e-4 1.231302,-0.46207 1.231422,-1.38656 l 0,-5.39113 c -1.2e-4,-1.64181 0.59059,-3.07851 1.7719,-4.31008 1.1813,-1.23131 2.64457,-1.84705 4.39004,-1.84717 1.74524,1.2e-4 3.20851,0.61586 4.38993,1.84717 1.18131,1.23157 1.7719,2.66827 1.77202,4.31008 l 0,5.39113 c -1.2e-4,0.92449 0.4605,1.38667 1.38188,1.38656 l 41.58727,0 c 1.43816,1.1e-4 2.64458,0.514 3.61914,1.54166 0.97445,1.02788 1.46161,2.2092 1.46185,3.54395 -2.4e-4,1.33496 -0.4874,2.51549 -1.46185,3.5416 -0.97456,1.02631 -2.18098,1.53941 -3.61914,1.5393 l -101.651146,0 c -0.82091,1.1e-4 -1.33485,0.4106 -1.54159,1.23145 -2.05244,6.77778 -4.46527,13.50376 -7.23828,20.17795 -0.3072,0.71764 -0.46074,1.5903 -0.46062,2.61801 l 0,87.01939 c -1.2e-4,1.64194 -0.56488,3.02772 -1.69441,4.15733 -1.12965,1.12961 -2.51627,1.69441 -4.15974,1.69442 -1.64347,-10e-6 -3.00425,-0.56481 -4.08214,-1.69442 -1.07787,-1.12961 -1.61681,-2.51539 -1.61681,-4.15733 l 0,-68.84844 c 0,-0.20361 -0.077,-0.30545 -0.23031,-0.30552 -0.15354,7e-5 -0.28208,0.0518 -0.3854,0.15512 z m 116.592966,-25.10845 0,13.24515 c -1.2e-4,2.3627 -0.87351,4.41668 -2.62029,6.16195 -1.74701,1.74541 -3.80028,2.61808 -6.15957,2.61802 l -66.225826,0 -3.08328,0 c -2.36272,6e-5 -4.39088,-0.87261 -6.08446,-2.61802 -1.6937,-1.74527 -2.54043,-3.79925 -2.54043,-6.16195 l 0,-13.24515 c 0,-2.3594 0.84673,-4.41183 2.54043,-6.15725 1.69358,-1.74525 3.72174,-2.61792 6.08446,-2.61801 l 69.309106,0 c 2.35929,9e-5 4.41256,0.87276 6.15957,2.61801 1.74678,1.74542 2.62017,3.79785 2.62029,6.15725 z m -12.01361,12.0137 0,-10.62715 c -1.1e-4,-0.92428 -0.4624,-1.38646 -1.38661,-1.38655 l -60.223586,0 c -0.92137,9e-5 -1.38188,0.46227 -1.38188,1.38655 l 0,10.62715 c 0,0.92445 0.46051,1.38663 1.38188,1.38655 l 60.223586,0 c 0.92421,8e-5 1.3865,-0.4621 1.38661,-1.38655 z m 21.32944,48.67051 c -1.18142,1.12808 -2.59304,1.69209 -4.23485,1.69207 -1.64204,2e-5 -3.02783,-0.56399 -4.15736,-1.69207 -1.12977,-1.12801 -1.69453,-2.51458 -1.69441,-4.15967 l 0,-15.40253 c -1.2e-4,-0.82094 -0.46229,-1.23141 -1.3865,-1.23146 l -82.859786,0 c -0.82422,5e-5 -1.23627,0.41052 -1.23616,1.23146 l 0,15.55764 c -1.1e-4,1.64196 -0.56405,3.00188 -1.69204,4.07977 -1.12811,1.07794 -2.5139,1.61688 -4.15736,1.61686 -1.6436,2e-5 -3.00426,-0.53892 -4.08214,-1.61686 -1.07787,-1.07789 -1.61693,-2.43781 -1.61681,-4.07977 l 0,-17.86544 c -1.2e-4,-2.36259 0.87256,-4.41656 2.61792,-6.16196 1.74535,-1.74529 3.79933,-2.61795 6.16206,-2.618 l 91.329476,0 c 2.36248,5e-5 4.41647,0.87271 6.16194,2.618 1.74512,1.7454 2.6178,3.79937 2.61803,6.16196 l 0,17.71033 c -2.3e-4,1.64509 -0.59082,3.03166 -1.77201,4.15967 z m -61.375146,26.95092 c 3.797696,0 6.056156,-0.41049 6.775296,-1.23145 0.71902,-0.82097 1.07859,-3.43897 1.0787,-7.85402 l 0,-16.63399 c -1.1e-4,-0.82094 -0.41051,-1.23143 -1.23141,-1.23146 l -30.805106,0 c -1.33497,3e-5 -2.51544,-0.51307 -3.54154,-1.53931 -1.02634,-1.02617 -1.53945,-2.25841 -1.53933,-3.6967 -1.2e-4,-1.43823 0.51299,-2.64461 1.53933,-3.61916 1.0261,-0.97446 2.20657,-1.46171 3.54154,-1.46175 l 65.459646,0 c 1.43816,4e-5 2.64446,0.48729 3.61914,1.46175 0.97433,0.97455 1.46161,2.18093 1.46173,3.61916 -1.2e-4,1.43829 -0.51323,2.67053 -1.53933,3.6967 -1.02634,1.02624 -2.20681,1.53934 -3.54154,1.53931 l -19.71736,0 c -0.92137,3e-5 -1.38188,0.41052 -1.38188,1.23146 l 0,16.47889 c 0,8.72982 -1.00122,14.14679 -3.00343,16.25092 -2.00233,2.1041 -7.16317,3.15616 -15.482402,3.15618 -3.283984,-2e-5 -8.161204,-0.15356 -14.631644,-0.46062 -1.43532,-0.10342 -2.66673,-0.66823 -3.69437,-1.69442 -1.02788,-1.02623 -1.59194,-2.25846 -1.69216,-3.69671 -0.10308,-1.33485 0.30707,-2.49032 1.23153,-3.46639 0.92421,-0.97608 2.10398,-1.41241 3.53917,-1.309 5.95663,0.30707 10.47511,0.46061 13.55542,0.46061 z"
     id="path2825"
     style="font-style:normal;font-weight:normal;font-size:130px;font-family:'Rounded M+ 1m regular';-inkscape-font-specification:'Rounded M+ 1m regular';text-align:center;text-anchor:middle;fill:#000000;fill-opacity:1;stroke:#000000;stroke-width:2.79999995;stroke-miterlimit:4;stroke-dasharray:none;stroke-opacity:1" />
</svg>
