<?xml version="1.0" encoding="UTF-8" standalone="no"?>
<!-- Created with Inkscape (http://www.inkscape.org/) -->

<svg
   xmlns:dc="http://purl.org/dc/elements/1.1/"
   xmlns:cc="http://creativecommons.org/ns#"
   xmlns:rdf="http://www.w3.org/1999/02/22-rdf-syntax-ns#"
   xmlns:svg="http://www.w3.org/2000/svg"
   xmlns="http://www.w3.org/2000/svg"
   xmlns:sodipodi="http://sodipodi.sourceforge.net/DTD/sodipodi-0.dtd"
   xmlns:inkscape="http://www.inkscape.org/namespaces/inkscape"
   width="73.578003cm"
   height="65.181cm"
   viewBox="0 0 735.78002 651.80997"
   version="1.1"
   id="svg8"
   inkscape:version="0.92.2 (5c3e80d, 2017-08-06)"
   sodipodi:docname="99.svg">
  <defs
     id="defs2" />
  <sodipodi:namedview
     id="base"
     pagecolor="#ffffff"
     bordercolor="#666666"
     borderopacity="1.0"
     inkscape:pageopacity="0.0"
     inkscape:pageshadow="2"
     inkscape:zoom="0.13399312"
     inkscape:cx="890.04668"
     inkscape:cy="1829.7314"
     inkscape:document-units="cm"
     inkscape:current-layer="layer1"
     showgrid="false"
     units="cm"
     fit-margin-top="0"
     fit-margin-left="0"
     fit-margin-right="0"
     fit-margin-bottom="0"
     inkscape:snap-global="false"
     inkscape:window-width="1920"
     inkscape:window-height="1057"
     inkscape:window-x="-8"
     inkscape:window-y="-8"
     inkscape:window-maximized="1" />
  <metadata
     id="metadata5">
    <rdf:RDF>
      <cc:Work
         rdf:about="">
        <dc:format>image/svg+xml</dc:format>
        <dc:type
           rdf:resource="http://purl.org/dc/dcmitype/StillImage" />
        <dc:title></dc:title>
      </cc:Work>
    </rdf:RDF>
  </metadata>
  <g
     inkscape:label="Layer 1"
     inkscape:groupmode="layer"
     id="layer1"
     transform="translate(-36.609764,354.80997)">
    <path
       sodipodi:nodetypes="cccc"
       inkscape:connector-curvature="0"
       id="path997"
       d="M 91.105922,-300.3084 404.4995,242.50525 717.89324,-300.308 Z"
       style="fill:none;fill-opacity:1;stroke:#000000;stroke-width:105;stroke-linecap:butt;stroke-linejoin:round;stroke-miterlimit:4;stroke-dasharray:none;stroke-opacity:1" />
    <path
       style="fill:none;fill-opacity:1;stroke:#ffffff;stroke-width:100;stroke-linecap:butt;stroke-linejoin:round;stroke-miterlimit:4;stroke-dasharray:none;stroke-opacity:1"
       d="M 91.105922,-300.3084 404.4995,242.50525 717.89324,-300.308 Z"
       id="path1110"
       inkscape:connector-curvature="0"
       sodipodi:nodetypes="cccc" />
    <path
       style="fill:none;fill-opacity:1;stroke:#be121e;stroke-width:70;stroke-linecap:butt;stroke-linejoin:round;stroke-miterlimit:4;stroke-dasharray:none;stroke-opacity:1"
       d="M 91.105922,-300.3084 404.49841,242.50341 717.89105,-300.308 Z"
       id="path1112"
       inkscape:connector-curvature="0"
       sodipodi:nodetypes="cccc" />
    <path
       sodipodi:nodetypes="cccc"
       inkscape:connector-curvature="0"
       id="path1114"
       d="m 404.50099,212.50293 287.40819,-497.81158 -574.82005,10e-6 z"
       style="opacity:1;fill:#ffffff;fill-opacity:1;fill-rule:nonzero;stroke:none;stroke-width:70;stroke-linecap:butt;stroke-linejoin:round;stroke-miterlimit:4;stroke-dasharray:none;stroke-opacity:1;paint-order:fill markers stroke" />
    <path
       style="fill:#0064b4;fill-opacity:1;fill-rule:nonzero;stroke:none;stroke-width:0.35277814"
       d="m 452.23123,-110.11695 c 0.74124,-0.0529 1.1648,-0.15883 1.69426,-0.15883 3.22967,-0.053 6.49641,-0.053 9.70491,0 2.17077,0 2.48844,0.37062 2.70023,2.40902 0.5824,4.66979 6.35345,55.743154 6.56524,57.858323 0,0.730652 0,1.530128 1.11185,2.0437 0,-0.582402 0.63535,-1.164805 0.74124,-1.752499 1.00597,-5.618045 10.48321,-58.221004 10.53616,-59.391094 0,-0.58241 0.52946,-1.09598 1.1648,-1.09598 2.91201,-0.15884 5.8346,-0.21178 8.82602,0 1.11186,2.18665 10.53615,57.128741 11.33034,61.65241 0,0.730645 0,1.530121 1.00596,1.969572 0.90008,-0.656524 0.90008,-1.604249 0.95302,-2.551975 0.63535,-6.274575 5.18866,-49.977922 5.87695,-56.325557 0,-1.456 0.52946,-2.9173 0.74125,-4.59567 2.32959,-0.52946 4.50036,-0.21179 6.63936,-0.21179 2.17077,0 4.39448,-0.21178 6.42227,0.15884 0.90009,0.65653 0.63538,1.4613 0.5824,2.18666 -0.90003,5.69058 -13.8717,92.005008 -14.18938,94.119117 0,0.423569 0,0.873603 -0.52945,1.238926 -2.27666,0.529454 -9.41371,0.582403 -12.11394,0.05291 -0.58239,-0.947725 -0.74123,-2.0437 -0.84712,-3.208499 -1.53542,-8.755598 -9.26547,-55.158639 -9.84787,-58.587924 0,-0.656524 0,-1.313048 -1.00597,-1.530121 -0.74123,0.582396 -0.79418,1.461291 -0.95301,2.334895 -1.58837,9.557726 -9.68904,57.786857 -9.95376,59.465228 0,1.455999 -0.5824,1.82662 -1.95898,1.89545 h -9.19134 c -1.37659,-0.05298 -1.80015,-0.529453 -2.06488,-1.89545 -0.79418,-5.471917 -13.50111,-90.909572 -13.97762,-94.703112 v -1.38717"
       id="path23447"
       inkscape:connector-curvature="0"
       sodipodi:nodetypes="cccccccccccccccsccccccccccccccc" />
    <path
       style="fill:#0064b4;fill-opacity:1;fill-rule:nonzero;stroke:none;stroke-width:0.35277814"
       d="m 406.84633,-34.019946 c 0.58241,5.325789 3.49441,8.755068 9.0484,9.411598 4.28858,0.423563 9.63078,-1.752499 10.72676,-7.660691 0,-1.313048 0.52945,-2.626096 0.52945,-4.013273 v -50.050982 c 0,-1.170097 0,-2.260774 -0.52945,-3.356742 -0.90008,-4.669797 -3.4944,-7.295892 -8.10067,-8.098551 -5.32631,-1.021847 -10.21319,2.117822 -11.45211,7.44202 m 32.88446,54.433815 c 0,2.626104 0,5.2522 -0.79418,7.879887 -2.48844,9.265995 -10.50439,15.905893 -20.06106,16.562417 -5.76577,0.423563 -11.16621,-0.582402 -16.05308,-3.93915 -5.40044,-3.722071 -8.46599,-8.901196 -9.41371,-15.394436 -0.52946,-2.483145 -0.52946,-55.450371 -0.52946,-55.450371 0,-2.477846 0,-4.960998 0.79419,-7.36896 2.17076,-9.265995 8.24361,-14.884035 17.36612,-17.000265 6.7135,-1.60425 13.13049,-0.37062 18.82214,3.49969 5.83459,3.93915 8.90014,9.557724 9.55666,16.489355 z"
       id="path23449"
       inkscape:connector-curvature="0"
       sodipodi:nodetypes="cccsscccsccccsccccs" />
    <path
       style="fill:#0064b4;fill-opacity:1;fill-rule:nonzero;stroke:none;stroke-width:0.35277814"
       d="m 323.0304,-82.68376 c -1.53541,0 -3.07082,0.05298 -4.60623,0 -1.3766,-0.05292 -1.6943,-0.370615 -1.80019,-1.678371 0,-1.604249 -0.52942,-3.208498 -0.52942,-4.812748 0,-0.211781 0,-0.370621 0,-0.582403 -1.74721,-7.879879 -8.90016,-9.339061 -13.86116,-7.515087 -1.7472,0.582403 -3.1238,1.752499 -4.07681,3.356748 -0.90003,1.38717 -1.48243,2.917298 -1.74721,4.521547 -0.5824,3.4997 -0.5824,7.004161 0,10.506506 0.52949,2.409023 1.58839,4.378595 3.65329,5.617522 1.48243,0.873603 2.96493,1.67837 4.50034,2.334894 3.44144,1.456006 6.93055,2.774345 10.35613,4.161521 1.4825,0.582403 2.8591,1.170097 4.23563,1.826621 5.32637,2.774346 8.53485,7.149758 9.70496,13.060072 0.52942,1.752492 0.52942,3.573821 0.74122,5.39885 0,1.678377 0.52949,3.356748 0.52949,5.10924 0,2.186652 0,4.378595 -0.52949,6.56684 0,3.28262 -0.84711,6.420173 -1.90602,9.484659 0,0.529454 -0.52949,1.095968 -0.5824,1.604249 -3.12381,7.150288 -8.75719,11.090493 -16.48724,12.111816 -3.70621,0.423563 -7.58708,0.529454 -11.3092,-0.529454 -8.75719,-2.409023 -14.37466,-7.952416 -16.63544,-16.781081 -0.74128,-2.917304 -0.5824,-5.909253 -0.52949,-8.828137 0,-0.947725 0.52949,-1.456006 1.4825,-1.456006 3.28262,0 6.63937,0 9.99613,0 1.11182,0 1.48243,0.423563 1.53541,1.678377 0,0.730646 0,1.530121 0,2.260775 0,1.752492 0.52942,3.43087 1.00593,5.035119 1.11189,2.409016 2.85909,4.013265 5.24162,4.886869 3.12381,1.170097 6.19994,1.021847 9.26546,0 3.1238,-1.095975 4.65922,-3.573821 5.1887,-6.639368 0.95301,-5.109242 0.90003,-10.287843 0,-15.394968 -0.52948,-2.551974 -1.7472,-4.595675 -4.0239,-5.982844 -1.11182,-0.582402 -2.17073,-1.170096 -3.33553,-1.604249 -3.70621,-1.604249 -7.36475,-3.065547 -11.0868,-4.595675 -1.5884,-0.730645 -3.28262,-1.530121 -4.81804,-2.483144 -4.6063,-2.848468 -7.73004,-6.785496 -8.90015,-12.111816 -1.74721,-7.879879 -1.80012,-15.686168 1.21772,-23.347383 2.8591,-6.858031 7.88362,-11.308631 15.17946,-13.060071 5.98291,-1.38717 11.81748,-0.8736 17.29205,1.96957 5.83456,3.06555 9.77372,7.80682 11.52623,14.227524 0.84712,3.356748 1.006,6.785496 0.7942,10.214251 0,0.947725 -0.52949,1.387169 -1.4825,1.461297 -1.80012,0 -3.65322,0 -5.40043,0 z m 0,0"
       id="path23451"
       inkscape:connector-curvature="0" />
    <path
       style="fill:#0064b4;fill-opacity:1;fill-rule:nonzero;stroke:none;stroke-width:0.35277814"
       d="m 358.63627,-25.555019 c 1.11185,0 2.17077,0.05298 3.22967,0.05298 h 20.57463 2.06488 c 1.32364,0.05291 1.69425,0.423563 1.69425,1.826621 v 9.996109 c 0,0.370621 0,0.730652 -0.52945,1.238927 -0.79418,0.05298 -1.53542,0.211781 -2.27665,0.317672 h -35.16642 c -1.00596,0 -2.06488,-0.05291 -3.22967,-0.05291 0,-0.730652 -0.52949,-1.238926 -0.52949,-1.752499 v -92.442341 c 0,-4.01327 -0.52941,-3.93914 3.86505,-3.93914 2.54139,0 5.13572,0 7.73534,0.0529 1.32364,0 1.58837,0.37062 1.69426,1.75249 v 2.55198 76.098588 c 0,1.313048 0,2.700224 0.5824,4.304473"
       id="path23457"
       inkscape:connector-curvature="0"
       sodipodi:nodetypes="csccssccscssscccsc" />
    <path
       inkscape:connector-curvature="0"
       style="fill:#0064b4;fill-opacity:1;fill-rule:nonzero;stroke:none;stroke-width:0.35277769"
       d="m 360.46357,-198.9476 c 1.1152,0.73285 2.2835,0.58416 3.4519,0.58416 3.08,0.0531 6.1442,0 9.219,0 0.7965,0 1.6994,0 2.549,0.0531 4.4078,0.31863 7.3922,3.51025 7.3922,7.90309 0,4.24308 -3.1331,7.611 -7.4666,7.90361 -0.6372,0.0531 -1.3276,0.0531 -1.9648,0.0531 -3.6112,0 -7.0948,-0.0531 -10.6104,0 -2.7084,0 -2.8677,0.15931 -2.9208,3.00043 0,0.73284 0,1.53473 0,2.26758 0,9.29443 0,18.58833 0,27.80895 0,1.39134 0,2.70835 -0.5841,3.95101 -1.1683,2.92608 -4.036,5.78153 -9.2934,4.97593 -3.45178,-0.58415 -6.44163,-4.24308 -6.36724,-7.53772 0,-0.87623 0,-1.75777 0,-2.55966 0,-9.2939 0,-18.5878 0,-27.8817 0,-0.95058 0,-1.90116 0,-2.85705 0,-0.58415 -0.53108,-1.02492 -1.16835,-1.09927 -0.74348,-0.0531 -1.43382,-0.0531 -2.2835,-0.0531 -4.2484,-0.0531 -8.41185,0 -12.66022,-0.0531 -2.65524,0 -4.83254,-1.02493 -6.43632,-3.07478 -1.91183,-2.41628 -2.0711,-5.12463 -1.11522,-7.83033 1.00902,-2.85173 3.23938,-4.46613 6.29293,-4.83255 0.84968,-0.15931 1.91174,-0.0531 2.86769,-0.15931 3.61112,0 7.2488,0.0531 10.90774,0 1.11522,0 2.2835,0.15931 3.34565,-0.65851 0,-0.26552 0.53101,-0.6585 0.53101,-1.02492 0,-3.29251 0,-6.51333 0,-9.73308 0,-1.53474 -0.53101,-1.90116 -1.91176,-1.90116 -1.80556,-0.0531 -3.66426,0 -5.48576,-0.0531 -3.66425,-0.15931 -6.36731,-2.19324 -7.54091,-5.56222 -1.48693,-4.16874 0.90275,-8.78143 5.09808,-10.02515 1.16835,-0.37174 2.49597,-0.53105 3.66425,-0.53105 8.41716,-0.0531 16.82903,-0.0531 25.24613,0 1.1683,0 2.2835,0.15931 3.4518,0.42484 3.4519,0.87623 5.7088,3.73328 5.8522,7.24511 0,3.73328 -1.9118,6.73265 -5.4114,7.90362 -1.009,0.31862 -2.0711,0.37173 -3.0801,0.53104 -0.7435,0.0531 -1.5401,0.0531 -2.2836,0.15932 -0.6903,0 -1.1151,0.42484 -1.2744,1.02493 0,0.21241 0,0.37173 0,0.58415 0,3.4412 0,6.87921 0,10.31882 0,0.15932 0,0.37174 0.531,0.73285"
       id="path23453" />
    <path
       inkscape:connector-curvature="0"
       style="fill:#0064b4;fill-opacity:1;fill-rule:nonzero;stroke:none;stroke-width:0.35277769"
       d="m 496.95439,-158.03925 c 0.7966,-1.53473 0.6373,-2.85704 0.6373,-4.24308 v -48.22622 c 0,-1.17362 0,-2.49062 -0.6373,-3.51555 -0.9558,-0.6585 -2.0711,-0.53105 -3.0801,-0.53105 h -10.0262 c -1.5931,0 -3.0801,-0.37173 -4.4077,-1.24266 -2.8676,-1.83212 -3.8766,-4.53516 -3.5049,-7.83032 0.531,-3.07478 2.0711,-5.12463 4.8325,-6.22019 0.5311,-0.21242 1.1152,-0.37173 1.5932,-0.42484 0.5841,-0.0531 1.1683,-0.0531 1.7524,-0.0531 h 47.6405 c 1.009,0 2.1242,0.0531 3.1332,0.42484 3.6643,1.17362 5.6397,4.75821 4.9919,8.92801 -0.5311,3.4412 -3.4519,6.14743 -7.0258,6.36675 -0.9028,0.0531 -1.7525,0.0531 -2.6553,0.0531 h -12.5911 c -0.7967,0 -1.5401,0 -2.2835,0.0531 -1.3808,0.0531 -1.7525,0.53105 -1.8056,1.75777 v 2.85174 57.44684 2.55965 c 0,3.44121 -2.496,7.02579 -6.362,7.75705 -2.3897,0.42484 -12.2991,0.53105 -14.5667,-0.0531 -3.2394,-0.80719 -5.4114,-3.4412 -5.7778,-6.73211 -0.6904,-5.63497 3.6642,-8.70868 7.5356,-9.00129 0.7966,0 1.6993,-0.0531 2.6552,-0.15932"
       id="path23455"
       sodipodi:nodetypes="csscssccccsscccssccccsccccc" />
    <path
       inkscape:connector-curvature="0"
       style="fill:#0064b4;fill-opacity:1;fill-rule:nonzero;stroke:none;stroke-width:0.35277769"
       d="m 436.13859,-183.65284 c -0.9027,0.8072 -1.487,1.39136 -2.0711,1.97551 -0.7435,0.8072 -1.3807,1.60908 -2.1242,2.34193 -1.3276,1.317 -2.9207,2.04985 -4.8325,2.19324 -3.3456,0.21241 -6.07,-0.95058 -7.6843,-3.95101 -1.5932,-3.07478 -1.3808,-6.1469 0.7435,-8.92802 1.54,-1.9755 18.3105,-21.44165 24.9699,-29.19923 1.009,-1.16831 1.9649,-2.41628 3.0801,-3.36686 4.3015,-3.73328 10.9768,-2.04985 12.7346,3.21816 0.9558,2.92609 0.531,5.70826 -1.5401,8.12294 -1.54,1.83212 -2.9739,3.65894 -4.6732,5.41511 -1.487,1.53474 -2.0711,3.29251 -2.0711,5.41565 v 48.22622 3.73327 c -0.531,4.02536 -3.7173,7.31787 -7.833,7.31787 -4.036,0.0531 -7.61,-3.14381 -7.902,-7.24458 v -3.14912 -28.39417 c 0,-1.09927 0,-2.26758 -0.7435,-3.73328"
       id="path23459"
       sodipodi:nodetypes="cccccccccccscccccsc" />
    <path
       inkscape:connector-curvature="0"
       style="fill:#0064b4;fill-opacity:1;fill-rule:nonzero;stroke:none;stroke-width:0.35277769"
       d="m 289.1861,-181.75008 c -1.00902,0.73285 -1.59316,1.09927 -2.0711,1.53473 -1.59316,1.60908 -3.08004,3.36686 -4.6732,5.05028 -0.63728,0.6585 -1.38076,1.31701 -2.1773,1.83212 -3.82359,2.26759 -7.10016,1.02493 -9.36772,-1.24265 -2.49597,-2.55966 -2.33664,-7.1713 -0.63728,-9.36719 0.53108,-0.53105 0.79655,-1.02492 1.32762,-1.53473 9.0703,-9.95293 18.22031,-19.90534 27.365,-29.78446 0.58415,-0.6585 1.16829,-1.24265 1.75243,-1.83212 2.33663,-2.12419 5.04501,-2.26758 7.83301,-1.24266 4.40773,1.68344 6.0699,7.61048 2.86764,11.56202 -1.16828,1.4657 -2.4959,2.85174 -3.82352,4.24309 -3.29251,3.73328 -3.08011,2.49062 -3.08011,7.83033 0,14.63626 0,29.27199 0,43.90825 0,1.09927 0,2.1242 0,3.21816 0,3.65893 -2.92078,6.58608 -6.73367,7.02526 -2.65531,0.26552 -6.44163,-1.24266 -7.83301,-5.05029 -0.53108,-1.317 -0.53108,-2.634 -0.53108,-3.951 0,-9.51323 0,-18.9537 0,-28.46746 0,-1.02492 0,-2.04985 0,-3.73328"
       id="path23461" />
    <path
       inkscape:connector-curvature="0"
       style="fill:#0064b4;fill-opacity:1;fill-rule:nonzero;stroke:none;stroke-width:0.35277769"
       d="m 350.28871,-251.27193 c -1.59316,0.8072 -2.33664,1.97551 -3.29252,2.92609 -5.20427,5.70825 -10.46168,11.4165 -15.72972,17.12476 -0.58414,0.73285 -1.27455,1.46038 -1.9649,2.04985 -2.33661,1.90116 -4.99185,2.34193 -7.75329,1.17362 -2.86771,-1.24266 -4.30153,-3.51024 -4.62013,-6.44004 0,-1.90116 0.58414,-3.65893 1.69936,-5.12463 0.79654,-0.95058 1.69936,-1.82681 2.4959,-2.7827 7.39225,-8.05018 14.78445,-16.09984 22.17133,-24.07673 0.53108,-0.58416 1.00902,-1.17362 1.54009,-1.68343 2.70831,-2.55966 6.65935,-3.00043 10.02614,-0.73284 0.7435,0.53104 1.3808,1.09926 1.9649,1.68342 8.7783,7.9769 17.4875,16.02655 26.2711,24.0762 0.531,0.42484 1.009,0.87623 1.3807,1.31701 3.0801,3.65893 2.3897,7.83032 0,10.53815 -2.7083,3.14381 -7.1745,3.73327 -10.6104,1.317 -1.2745,-0.8072 -2.2835,-1.83212 -3.2925,-2.7827 -5.9265,-5.48893 -11.853,-10.90405 -17.77953,-16.31969 -0.79655,-0.8072 -1.75243,-1.4657 -2.65524,-2.26758"
       id="path23463" />
    <path
       inkscape:connector-curvature="0"
       style="fill:#0064b4;fill-opacity:1;fill-rule:nonzero;stroke:none;stroke-width:0.35277769"
       d="m 270.30725,-231.22002 c 0,-2.1242 0.74348,-3.95101 2.17737,-5.63497 1.38069,-1.60908 17.36001,-19.39128 23.87065,-26.63639 1.16835,-1.317 2.49597,-2.41628 4.19532,-3.07477 4.08906,-1.46039 8.7782,0.87623 10.09526,5.05027 1.00895,3.00043 0.53101,5.63497 -1.69935,7.97637 -2.33664,2.63401 -18.2947,20.4178 -23.93441,26.71127 -1.22142,1.31701 -2.54911,2.48531 -4.30153,3.14381 -4.30153,1.68343 -10.46168,-1.68342 -10.38736,-7.53719"
       id="path23465"
       sodipodi:nodetypes="ccccccccc" />
    <path
       inkscape:connector-curvature="0"
       style="fill:#0064b4;fill-opacity:1;fill-rule:nonzero;stroke:none;stroke-width:0.35277769"
       d="m 426.47879,-223.17037 c -3.6111,0 -5.7778,-1.317 -7.2435,-3.80763 -1.4338,-2.634 -1.3807,-5.34182 0,-7.9036 0.5311,-0.87624 1.2214,-1.68344 1.9649,-2.48532 7.1745,-8.34226 14.3436,-16.68505 21.5181,-25.02784 0.7966,-0.95058 1.5932,-1.90116 2.549,-2.70836 4.6733,-3.95101 10.3927,-0.95058 11.8531,2.55967 1.009,2.41627 1.009,4.82723 0,7.17129 -0.5311,0.73285 -1.009,1.46038 -1.5401,2.1242 -7.5356,8.70815 -15.1508,17.49012 -22.6864,26.27156 -0.5311,0.58415 -1.009,1.17362 -1.54,1.68343 -1.5401,1.46038 -3.2925,2.26758 -4.8326,2.1242"
       id="path23467" />
    <path
       inkscape:connector-curvature="0"
       style="fill:#0064b4;fill-opacity:1;fill-rule:nonzero;stroke:none;stroke-width:0.35277769"
       d="m 491.53769,-251.71057 c -1.009,0 -2.0711,-0.0531 -3.1332,-0.0531 -3.5049,-0.21242 -6.4363,-3.58459 -6.6593,-7.09854 -0.5311,-5.26802 3.8236,-8.70869 7.833,-8.70869 h 1.1683 31.6187 c 1.3807,0 2.7614,0.0531 4.1422,0.6585 3.2925,1.39136 5.3423,4.90159 4.7794,8.63487 -0.5842,3.80763 -3.7174,6.44004 -6.9514,6.51333 -0.956,0 -1.9118,0.0531 -2.9208,0.0531"
       id="path23469"
       sodipodi:nodetypes="cccscscccc" />
    <path
       inkscape:connector-curvature="0"
       style="fill:#0064b4;fill-opacity:1;fill-rule:nonzero;stroke:none;stroke-width:0.35277769"
       d="m 384.83347,-152.03892 c 0,4.24309 -2.2835,7.17183 -5.7088,7.9769 -3.3456,0.73285 -6.808,-0.88154 -8.3428,-4.0997 -0.531,-0.53105 -0.531,-1.02492 -0.5841,-1.60908 -1.5932,-5.48893 -3.1332,-10.97733 -4.7795,-16.46573 -0.531,-1.24265 -0.531,-2.49062 0,-3.73328 0.7435,-3.21816 3.4519,-5.56168 6.6594,-5.78154 3.558,-0.21241 6.3673,1.4657 7.6099,4.83256 0.7435,1.8268 1.1683,3.80762 1.7525,5.70772 1.009,3.58458 2.0711,7.17182 3.027,10.75747 0.531,1.02493 0.531,2.04985 0.531,2.41628"
       id="path23471" />
    <path
       inkscape:connector-curvature="0"
       style="fill:#0064b4;fill-opacity:1;fill-rule:nonzero;stroke:none;stroke-width:0.35277769"
       d="m 325.409,-143.84269 c -3.66425,0.21241 -7.02578,-2.63401 -7.02578,-6.73265 0,-1.09928 0,-2.34193 0.53108,-3.36686 1.54002,-5.05028 3.23938,-10.02621 4.7794,-15.07544 0.74348,-2.34193 2.1773,-4.02536 4.46085,-4.90158 2.65523,-0.95058 5.09807,-0.42484 7.24349,1.39134 2.12423,1.90117 2.7615,4.24309 2.17729,7.02526 0,0.58416 0,1.09928 -0.531,1.68343 -1.43382,4.68386 -2.97391,9.44047 -4.46087,14.19708 0,0.53105 -0.53107,1.09928 -0.69034,1.60908 -1.22142,2.70836 -3.45185,4.24309 -6.51069,4.17406"
       id="path23473" />
  </g>
</svg>
