<?xml version="1.0" encoding="UTF-8" standalone="no"?>
<!-- Created with Inkscape (http://www.inkscape.org/) -->

<svg
   xmlns:osb="http://www.openswatchbook.org/uri/2009/osb"
   xmlns:dc="http://purl.org/dc/elements/1.1/"
   xmlns:cc="http://creativecommons.org/ns#"
   xmlns:rdf="http://www.w3.org/1999/02/22-rdf-syntax-ns#"
   xmlns:svg="http://www.w3.org/2000/svg"
   xmlns="http://www.w3.org/2000/svg"
   xmlns:xlink="http://www.w3.org/1999/xlink"
   xmlns:sodipodi="http://sodipodi.sourceforge.net/DTD/sodipodi-0.dtd"
   xmlns:inkscape="http://www.inkscape.org/namespaces/inkscape"
   id="svg1890"
   sodipodi:version="0.32"
   inkscape:version="0.92.2 (5c3e80d, 2017-08-06)"
   width="470"
   height="620"
   version="1.0"
   sodipodi:docname="Japan_road_sign_323_(40)_and_507-A.svg">
  <metadata
     id="metadata1895">
    <rdf:RDF>
      <cc:Work
         rdf:about="">
        <dc:format>image/svg+xml</dc:format>
        <dc:type
           rdf:resource="http://purl.org/dc/dcmitype/StillImage" />
        <dc:title />
      </cc:Work>
    </rdf:RDF>
  </metadata>
  <defs
     id="defs1893">
    <linearGradient
       osb:paint="solid"
       id="linearGradient15703">
      <stop
         id="stop15705"
         offset="0"
         style="stop-color:#ffffff;stop-opacity:1;" />
    </linearGradient>
    <linearGradient
       gradientTransform="translate(961.6578,56.04101)"
       gradientUnits="userSpaceOnUse"
       y2="465.375"
       x2="967.87512"
       y1="465.375"
       x1="-37.125"
       id="linearGradient15707"
       xlink:href="#linearGradient15703"
       inkscape:collect="always" />
  </defs>
  <sodipodi:namedview
     inkscape:window-height="1057"
     inkscape:window-width="1858"
     inkscape:pageshadow="2"
     inkscape:pageopacity="0.0"
     guidetolerance="10.0"
     gridtolerance="10.0"
     objecttolerance="10.0"
     borderopacity="1.0"
     bordercolor="#666666"
     pagecolor="#ffffff"
     id="base"
     inkscape:zoom="0.96176273"
     inkscape:cx="137.22416"
     inkscape:cy="171.42504"
     inkscape:window-x="1912"
     inkscape:window-y="-8"
     inkscape:current-layer="svg1890"
     showgrid="false"
     inkscape:snap-bbox="true"
     inkscape:bbox-paths="true"
     inkscape:bbox-nodes="true"
     inkscape:snap-bbox-edge-midpoints="true"
     inkscape:snap-bbox-midpoints="true"
     inkscape:window-maximized="1" />
  <ellipse
     style="color:#000000;display:inline;overflow:visible;visibility:visible;opacity:1;fill:#ed1c23;fill-opacity:1;fill-rule:evenodd;stroke:#ed1c23;stroke-width:1.25;stroke-linecap:round;stroke-linejoin:miter;stroke-miterlimit:4;stroke-dasharray:none;stroke-dashoffset:0;stroke-opacity:1;marker:none;marker-start:none;marker-mid:none;marker-end:none"
     id="path1926"
     cx="236.21138"
     cy="235.25894"
     rx="225.02652"
     ry="224.29105" />
  <ellipse
     style="color:#000000;display:inline;overflow:visible;visibility:visible;opacity:1;fill:#ffffff;fill-opacity:1;fill-rule:evenodd;stroke:#ffffff;stroke-width:1.25;stroke-linecap:round;stroke-linejoin:miter;stroke-miterlimit:4;stroke-dasharray:none;stroke-dashoffset:0;stroke-opacity:1;marker:none;marker-start:none;marker-mid:none;marker-end:none"
     id="path9909"
     cx="236.21144"
     cy="235.25909"
     rx="222.77628"
     ry="222.04817" />
  <ellipse
     style="color:#000000;display:inline;overflow:visible;visibility:visible;opacity:1;fill:#ed1c23;fill-opacity:1;fill-rule:evenodd;stroke:#ed1c23;stroke-width:1.25;stroke-linecap:round;stroke-linejoin:miter;stroke-miterlimit:4;stroke-dasharray:none;stroke-dashoffset:0;stroke-opacity:1;marker:none;marker-start:none;marker-mid:none;marker-end:none"
     id="path9911"
     cx="236.21155"
     cy="235.25885"
     rx="207.64207"
     ry="206.96332" />
  <ellipse
     style="fill:#ffffff;fill-rule:evenodd;stroke:#ffffff;stroke-width:1.25;stroke-linecap:butt;stroke-linejoin:miter;stroke-miterlimit:4;stroke-dasharray:none;stroke-opacity:1"
     id="path2817"
     cx="236.21094"
     cy="235.62747"
     rx="148.59827"
     ry="148.96599" />
  <path
     style="fill:none;fill-rule:evenodd;stroke:#0066b3;stroke-width:18.60618973;stroke-linecap:butt;stroke-linejoin:miter;stroke-miterlimit:4;stroke-dasharray:none;stroke-opacity:1"
     d="m 255.60637,190.24085 c 0.90977,-10.114 8.87227,-20.80665 21.31231,-26.80391 9.35561,-3.55956 25.73569,-3.75445 37.57497,0.60918 10.63908,5.85749 18.75576,13.93061 20.22511,26.29925 l 0.79141,88.22652 c -0.81933,11.70527 -9.75768,17.87936 -17.83216,22.53965 -13.50923,5.54913 -29.72037,5.03522 -44.58051,-0.60918 -8.80389,-4.28909 -15.50473,-9.60844 -17.19536,-20.42911 z"
     id="path8243"
     sodipodi:nodetypes="ccccccccc"
     inkscape:connector-curvature="0" />
  <path
     style="fill:none;fill-rule:evenodd;stroke:#0066b3;stroke-width:18.59108543;stroke-linecap:butt;stroke-linejoin:miter;stroke-miterlimit:4;stroke-dasharray:none;stroke-opacity:1"
     d="m 224.11749,284.00859 -88.21882,0.29902 -0.0761,-11.26944 50.48652,-112.40187 8.63413,-0.0259 -0.1413,151.40817"
     id="path10025"
     sodipodi:nodetypes="cccccc"
     inkscape:connector-curvature="0" />
  <g
     id="g924"
     transform="matrix(0.24875065,0,0,0.24875065,12.79266,467.08302)">
    <g
       transform="matrix(34.167339,0,0,34.167339,14.96955,-0.98972)"
       id="g2991" />
    <path
       sodipodi:nodetypes="sssssssss"
       inkscape:connector-curvature="0"
       id="path14428"
       d="m 1739.4708,565.2 c 31.1186,0 56.6564,-25.53771 56.6564,-56.65625 V 56.85625 C 1796.1272,25.73644 1770.5886,0.2 1739.4708,0.2 H 56.8563 C 25.7386,0.2 0.2,25.73645 0.2,56.85625 v 451.6875 C 0.2,539.66228 25.7377,565.2 56.8563,565.2 Z"
       style="color:#000000;font-style:normal;font-variant:normal;font-weight:normal;font-stretch:normal;font-size:medium;line-height:normal;font-family:Sans;-inkscape-font-specification:Sans;text-indent:0;text-align:start;text-decoration:none;text-decoration-line:none;letter-spacing:normal;word-spacing:normal;text-transform:none;writing-mode:lr-tb;direction:ltr;baseline-shift:baseline;text-anchor:start;display:inline;overflow:visible;visibility:visible;fill:#000000;fill-opacity:1;fill-rule:nonzero;stroke:none;stroke-width:30;marker:none;enable-background:accumulate" />
    <path
       sodipodi:nodetypes="sssssssss"
       id="path14430"
       style="fill:#ffffff;fill-opacity:1;fill-rule:nonzero;stroke:none"
       d="M 56.8668,550.2 C 33.8548,550.2 15.2,531.5452 15.2,508.53324 V 56.86636 c 0,-23.01392 18.6548,-41.66674 41.6668,-41.66674 h 1682.5937 c 23.0119,0 41.6667,18.65282 41.6667,41.66674 v 451.66688 c 0,23.01196 -18.6548,41.66676 -41.6667,41.66676 z"
       inkscape:connector-curvature="0" />
    <path
       inkscape:connector-curvature="0"
       id="path13506"
       d="m 218.816,282.70001 c 0.0127,2.03241 1.34198,4.07336 4.03118,5.62489 l 229.0585,133.12269 c 3.92312,3.35615 9.11973,5.43741 14.62473,5.43741 12.46529,0 22.59335,-10.12801 22.59335,-22.59336 0,-5.06207 -1.65476,-9.67352 -4.31242,-13.34352 0.051,-0.17718 0.0625,-0.4225 0.0625,-0.62499 L 465.78043,357.54245 H 1558.4801 c 10.4404,0 19.0309,-8.62165 19.0309,-19.06217 v -55.78027 -55.7803 c 0,-10.44052 -8.5905,-19.06216 -19.0309,-19.06216 H 465.78043 l 19.09341,-32.78069 c 0,-0.20249 -0.0115,-0.44781 -0.0625,-0.62499 2.65766,-3.66999 4.31242,-8.28144 4.31242,-13.34352 0,-12.46534 -10.12806,-22.59335 -22.59335,-22.59335 -5.505,0 -10.70161,2.08125 -14.62473,5.4374 l -229.0585,133.1227 c -2.6892,1.55153 -4.01853,3.59247 -4.03118,5.62491 z"
       style="fill:#ed1c23;fill-opacity:1;fill-rule:nonzero;stroke:none" />
  </g>
</svg>
