<?xml version="1.0" encoding="UTF-8" standalone="no"?>
<svg
   xmlns:dc="http://purl.org/dc/elements/1.1/"
   xmlns:cc="http://creativecommons.org/ns#"
   xmlns:rdf="http://www.w3.org/1999/02/22-rdf-syntax-ns#"
   xmlns:svg="http://www.w3.org/2000/svg"
   xmlns="http://www.w3.org/2000/svg"
   xmlns:xlink="http://www.w3.org/1999/xlink"
   xmlns:sodipodi="http://sodipodi.sourceforge.net/DTD/sodipodi-0.dtd"
   xmlns:inkscape="http://www.inkscape.org/namespaces/inkscape"
   width="1010.4"
   height="1010.4"
   viewBox="-505.2 -505.2 1010.4 1010.4"
   id="svg2"
   version="1.1"
   inkscape:version="0.91 r13725"
   sodipodi:docname="33.svg">
  <sodipodi:namedview
     pagecolor="#ffffff"
     bordercolor="#666666"
     borderopacity="1"
     objecttolerance="10"
     gridtolerance="10"
     guidetolerance="10"
     inkscape:pageopacity="0"
     inkscape:pageshadow="2"
     inkscape:window-width="1920"
     inkscape:window-height="1057"
     id="namedview21"
     showgrid="false"
     inkscape:showpageshadow="true"
     showborder="true"
     borderlayer="false"
     inkscape:zoom="0.19002948"
     inkscape:cx="648.98146"
     inkscape:cy="361.7161"
     inkscape:window-x="-8"
     inkscape:window-y="-8"
     inkscape:window-maximized="1"
     inkscape:current-layer="svg2"
     fit-margin-top="0"
     fit-margin-left="0"
     fit-margin-right="0"
     fit-margin-bottom="0"
     showguides="false" />
  <metadata
     id="metadata4">
    <rdf:RDF>
      <cc:Work
         rdf:about="">
        <dc:format>image/svg+xml</dc:format>
        <dc:type
           rdf:resource="http://purl.org/dc/dcmitype/StillImage" />
        <dc:title></dc:title>
      </cc:Work>
    </rdf:RDF>
  </metadata>
  <defs
     id="defs6">
    <path
       id="Oct"
       d="M 500,-207.10678 500,207.10678 207.10678,500 -207.10678,500 -500,207.10678 -500,-207.10678 -207.10678,-500 l 414.21356,0 z"
       inkscape:connector-curvature="0" />
  </defs>
  <use
     xlink:href="#Oct"
     transform="matrix(1.01,0,0,1.01,-1.2207031e-5,-2.1035156e-5)"
     id="use9"
     x="0"
     y="0"
     width="100%"
     height="100%" />
  <use
     xlink:href="#Oct"
     style="fill:#ffffff"
     id="use11"
     transform="translate(-1.2207031e-5,-2.1035156e-5)"
     x="0"
     y="0"
     width="100%"
     height="100%" />
  <use
     xlink:href="#Oct"
     style="fill:#c0111e"
     transform="matrix(0.95,0,0,0.95,-1.2207031e-5,-2.1035156e-5)"
     id="use13"
     x="0"
     y="0"
     width="100%"
     height="100%" />
  <path
     id="path18"
     d="m -148.46165,71.747489 -88.64731,0 0,-97.670519 c 0.20139,-0.10039 0.40802,-0.1898 0.60473,-0.3004 l 55.55885,-30.90766 c 8.03003,-4.47046 10.92623,-14.6016 6.46249,-22.62765 -4.45932,-8.03146 -14.58328,-10.92188 -22.61331,-6.4625 l -40.01249,22.23782 0,-79.61343 c 0,-9.18409 -7.44599,-16.63009 -16.63003,-16.63009 -9.18404,0 -16.62589,7.446 -16.62589,16.63009 l 0,215.343629 -38.65322,0 0,-99.326379 c 0,-9.19232 -7.446,-16.65262 -16.63003,-16.65262 -9.18432,0 -16.63031,7.45995 -16.63031,16.65262 l 0,99.326379 -38.09181,0 c -9.18542,0 -16.63003,7.4435 -16.63003,16.627236 0,9.183757 7.44461,16.625805 16.63003,16.625805 l 231.90944,0 c 9.18404,0 16.62561,-7.442048 16.62561,-16.625805 0,-9.183736 -7.44157,-16.627236 -16.62561,-16.627236"
     inkscape:connector-curvature="0"
     style="fill:#ffffff;stroke:none" />
  <path
     id="path20"
     d="M 87.688888,61.665026 C 66.926468,48.76221 46.421438,40.63563 27.516778,35.59403 l 0,-46.54639 51.39224,0 c 9.18404,0 16.62727,-7.44599 16.62727,-16.62581 0,-9.19231 -7.44351,-16.65262 -16.62727,-16.65262 l -51.39224,0 0,-34.19614 51.39224,0 c 9.18404,0 16.62727,-7.44597 16.62727,-16.627188 0,-9.186602 -7.44351,-16.630092 -16.62727,-16.630092 l -51.39224,0 0,-31.91192 c 0,-9.1841 -7.44352,-16.63009 -16.63307,-16.63009 -9.1840402,0 -16.62589,7.44599 -16.62589,16.63009 l 0,31.91192 -66.6277,0 c -9.18404,0 -16.62562,7.44349 -16.62562,16.630092 0,9.181218 7.44185,16.627188 16.62562,16.627188 l 66.6277,0 0,34.19614 -66.6277,0 c -9.18404,0 -16.62562,7.45996 -16.62562,16.65262 0,9.17982 7.44185,16.62581 16.62562,16.62581 l 66.6277,0 0,40.31993 c -8.57627,-0.93057 -16.47636,-1.28392 -23.48233,-1.28392 -18.81251,0 -30.55285,1.84398 -39.25767,6.17891 -8.27613,4.11998 -18.13909,12.79265 -18.13909,30.742789 0,39.994471 40.22353,39.994471 57.39704,39.994471 36.5612298,0 52.18623,-21.516823 55.96302,-35.020441 13.85275,4.34883 28.54086,10.704048 43.39202,19.935334 7.80105,4.84492 18.05246,2.45304 22.9027,-5.347726 1.69887,-2.7327 2.50637,-5.768318 2.50637,-8.762108 0,-5.55732 -2.78252,-10.990162 -7.85099,-14.140571 z m -98.37152,10.204073 -38.25265,0 c -3.34476,0 -6.05197,-2.70478 -6.05197,-6.051919 0,-3.336047 2.70721,-6.04334 6.05197,-6.04334 l 38.27058,0 c 3.34036,0 6.0436998,2.707293 6.0436998,6.04334 0,3.347139 -2.7036198,6.051919 -6.0439698,6.051919"
     inkscape:connector-curvature="0"
     style="fill:#ffffff;stroke:none" />
  <path
     id="path22"
     d="m 400.33482,48.41248 c -4.98185,-7.71031 -15.27795,-9.92441 -22.99209,-4.93863 0,0 -6.16647,3.98014 -10.48895,6.77687 l 0,-120.23739 c 0,-9.53457 -3.78866,-18.19332 -9.9325,-24.56637 -0.15449,-0.16774 -0.28802,-0.339418 -0.44693,-0.499978 -2.87218,-2.87217 -6.12177,-5.135312 -9.58378,-6.813312 -0.0607,-0.0278 -0.12414,-0.0602 -0.18208,-0.0893 -0.3774,-0.1818 -0.75426,-0.34656 -1.13718,-0.51143 -0.18759,-0.0853 -0.37464,-0.16773 -0.56169,-0.24304 -0.25932,-0.11064 -0.51947,-0.21106 -0.77964,-0.30722 -0.32388,-0.1283 -0.63397,-0.24719 -0.95537,-0.36193 -0.13793,-0.0505 -0.2767,-0.0924 -0.41078,-0.14235 -0.44417,-0.15091 -0.89109,-0.29613 -1.34684,-0.42881 0,-0.006 -0.0276,-0.008 -0.0331,-0.011 -3.19359,-0.95132 -6.57146,-1.46561 -10.06409,-1.46561 -0.20415,0 -0.39672,0.0221 -0.60087,0.0309 -8.87395,0.14815 -17.70872,3.58746 -24.46446,10.346082 l -45.25889,45.287398 0,-93.50402 c 0,-9.18803 -7.446,-16.63439 -16.627,-16.63439 -9.18706,0 -16.62451,7.44599 -16.62451,16.63439 l 0,126.79283 -29.01895,29.01181 22.49468,-72.21038 c 1.42215,-4.57091 0.81025,-9.53026 -1.6768,-13.61522 -2.48375,-4.08061 -6.60209,-6.89555 -11.313,-7.72134 l -38.13486,-6.72393 c -9.04416,-1.59541 -17.66651,4.44541 -19.26468,13.48682 -0.16829,0.97633 -0.25381,1.94876 -0.25381,2.90722 0,7.92522 5.68037,14.95386 13.74682,16.38011 0,0 9.76807,1.72811 19.52482,3.448 -8.47171,27.21682 -36.94746,118.570774 -36.94746,118.570774 0,0.02483 -0.0276,0.05049 -0.0276,0.07835 -0.0524,0.17877 -0.091,0.35765 -0.14346,0.536476 -0.08,0.311499 -0.16276,0.618689 -0.22622,0.937359 -0.0304,0.15366 -0.0635,0.31864 -0.0937,0.47923 -0.0607,0.37158 -0.11587,0.74032 -0.15725,1.11188 0,0.10483 -0.0276,0.20801 -0.0414,0.31149 -0.0387,0.50141 -0.069,1.00175 -0.069,1.50172 0,0.50856 0.0304,1.01999 0.0773,1.52424 0,0.085 0.0276,0.16498 0.0276,0.24719 0.0442,0.40808 0.1048,0.80468 0.17656,1.20846 0.0276,0.14953 0.0552,0.29613 0.0882,0.44704 0.0717,0.32832 0.15449,0.65378 0.23449,0.97636 0.0497,0.17877 0.0965,0.35048 0.15174,0.52536 0.0965,0.30722 0.20691,0.61477 0.32692,0.91664 0.058,0.16332 0.11587,0.3326 0.18207,0.49998 0.17106,0.42201 0.37162,0.84115 0.57825,1.25459 0.0938,0.17159 0.19864,0.343688 0.29326,0.519638 0.15174,0.26402 0.30484,0.52536 0.46955,0.78643 0.1048,0.16773 0.21794,0.33547 0.32416,0.49319 0.2014,0.28934 0.40802,0.56864 0.6199,0.84797 0.0938,0.11063 0.18208,0.23174 0.27313,0.34653 0.66789,0.80041 1.40864,1.54501 2.21862,2.216998 0.0965,0.0753 0.19035,0.1509 0.28498,0.22208 0.30181,0.24305 0.61769,0.47206 0.93882,0.69022 0.13518,0.0966 0.27036,0.18595 0.41051,0.27533 0.29078,0.18594 0.5868,0.35476 0.88584,0.51821 0.15726,0.0894 0.31009,0.18319 0.46955,0.26099 0.31312,0.16194 0.63977,0.30719 0.96669,0.45134 0.29629,0.12828 0.58955,0.24718 0.88585,0.35334 0.26485,0.0965 0.53078,0.20388 0.80198,0.28217 0,0.008 0.0386,0.0166 0.0607,0.0221 0.39947,0.11725 0.80473,0.21767 1.21277,0.3115 0.13793,0.0279 0.28194,0.0739 0.42181,0.10345 0.31313,0.0601 0.62873,0.0966 0.93882,0.13987 0.23726,0.035 0.48086,0.0822 0.71535,0.10346 l 0.0331,0 c 1.53968,0.14677 3.06779,0.0684 4.54871,-0.20001 0.0663,-0.0166 0.13794,-0.0193 0.19588,-0.0292 0.25105,-0.0505 0.49465,-0.11863 0.73797,-0.18319 0.28195,-0.0643 0.56997,-0.12442 0.8522,-0.20967 0,-0.005 0.0331,-0.011 0.0525,-0.0166 1.73528,-0.5293 3.39469,-1.35509 4.91755,-2.46018 0.24001,-0.1716 0.47782,-0.33655 0.70709,-0.51819 0.1269,-0.10041 0.23725,-0.219318 0.36333,-0.322578 0.3018,-0.25988 0.60362,-0.52536 0.89412,-0.80469 0.0276,-0.0221 0.0387,-0.0323 0.0552,-0.0505 l 53.20533,-53.205577 0,57.811915 c 0,9.184117 7.438,16.627245 16.62451,16.627245 9.18128,0 16.62728,-7.443488 16.62728,-16.627245 l 0,-91.022036 68.77349,-68.834269 c 0.43314,-0.42881 0.99455,-0.63983 1.55652,-0.63552 0.14346,0.002 0.28774,0.0138 0.41906,0.0389 0.0414,0.011 0.0882,0.0278 0.13242,0.0389 0.0965,0.0249 0.1876,0.0505 0.28223,0.0893 0.0331,0.011 0.0635,0.0364 0.0993,0.053 0.0938,0.0433 0.19036,0.0893 0.27311,0.14676 0,0.008 0.0276,0.0193 0.0276,0.0249 0.56722,0.39413 0.93883,1.04358 0.93883,1.78817 l 0,150.811737 c 0,6.086948 3.33317,11.687556 8.68358,14.601595 5.34794,2.91152 11.85511,2.66831 16.97102,-0.63554 l 36.1426,-23.354043 c 7.71414,-4.981149 9.92974,-15.274309 4.94266,-22.993169"
     inkscape:connector-curvature="0"
     style="fill:#ffffff;stroke:none" />
  <path
     id="path4558"
     style="fill:#ffffff;fill-opacity:1;fill-rule:evenodd;stroke:none"
     d="m -164.39456,349.25429 0,9.16082 c 0,0.3759 0,0.7508 0,0.93518 0.19051,3.36534 1.50155,6.73072 3.55631,9.34524 1.87039,2.43011 4.10954,4.10954 6.91506,5.2357 2.98998,1.30397 6.35529,1.67935 9.72061,1.30397 3.36537,-0.18416 6.73067,-1.11959 9.34523,-3.17435 2.79899,-1.68593 4.8603,-4.48497 5.97988,-7.66586 0.37591,-0.93519 0.7508,-2.05476 0.93522,-2.98992 0,-0.37512 0.18417,-0.93519 0.18417,-1.31058 l 0,-20.00101 c 0,-0.5598 0,-0.9286 0,-1.49499 -0.18417,-1.8638 -0.93514,-3.91855 -1.87034,-5.60448 -0.92859,-1.87038 -2.05475,-3.54974 -3.73414,-5.04472 -0.93515,-0.93521 -2.05476,-1.68595 -3.36529,-2.24576 -0.3751,-0.18416 -0.93522,-0.55975 -1.49502,-0.74419 l -23.17533,-8.97642 c -0.37511,-0.18418 -0.7508,-0.18418 -1.12618,-0.36875 -2.98993,-1.12618 -5.6045,-2.43014 -8.03469,-4.30049 -4.66926,-3.18095 -8.60104,-7.10605 -11.59096,-11.77539 -3.35872,-5.23571 -5.60453,-11.21559 -5.97988,-17.38647 0,-0.36874 -0.18458,-0.92857 -0.18458,-1.49495 l 0,-14.57437 c 0,-0.75075 0,-1.49496 0.18458,-2.24573 0.19053,-4.48489 1.49499,-8.60101 3.36534,-12.71055 2.80555,-6.17087 7.09946,-11.77537 12.52616,-15.88491 5.7889,-4.6759 12.89498,-7.66584 20.36981,-8.60102 6.17089,-1.11961 12.71057,-0.7508 18.88145,1.11959 7.65927,2.05477 14.76532,6.35527 20.1854,12.34174 4.30054,4.66931 7.47484,10.08942 9.15424,16.06931 0.7508,2.43015 1.3106,5.05129 1.50155,7.48143 0,0.55981 0,1.1196 0.18417,1.67939 l 0,11.02457 -25.60548,0 0,-9.15423 c 0,-0.3751 0,-0.55979 -0.19053,-0.93516 -0.18417,-2.05476 -0.55977,-3.92512 -1.30396,-5.79551 -1.31058,-2.80553 -3.74075,-5.23566 -6.35531,-6.91504 -2.62113,-1.6794 -5.61111,-2.61457 -8.78544,-2.80553 -4.30049,-0.36876 -8.78539,0.93519 -12.33517,3.9251 -2.80551,1.87035 -4.86028,4.86029 -5.61107,7.85024 -0.37511,1.12617 -0.55982,2.43018 -0.55982,3.55631 0,0.18418 -0.18415,0.5598 -0.18415,0.93523 l 0,11.02457 c 0,0.18418 0,0.55979 0.18415,0.93518 0.18419,2.24577 0.74423,4.30053 1.87041,6.35529 0.93521,1.87035 2.24571,3.73412 3.7407,5.04471 0.92857,0.93518 2.05476,1.67935 2.98996,2.24573 0.36876,0.18418 0.74419,0.36874 1.1196,0.55979 l 19.43459,7.29047 c 0.3751,0.18419 0.7508,0.37551 1.1262,0.55981 2.79896,1.30397 5.6045,2.23912 8.41006,3.54972 3.54973,1.87036 6.73067,4.30048 9.52959,7.10605 3.55629,3.17438 6.35531,6.91505 8.41666,11.39997 2.05472,4.30053 3.35873,8.96982 3.7341,13.83014 0,0.3759 0,0.7508 0.19055,1.11958 l 0,21.68697 c -0.19055,0.18417 -0.19055,0.55983 -0.19055,0.93522 -0.37589,3.17432 -0.74421,6.34871 -1.67938,9.52965 -1.68598,6.53967 -5.61103,12.52609 -10.65579,17.19539 -4.48489,4.67592 -10.08941,8.04121 -16.26027,9.905 -6.35527,2.43019 -13.27037,3.18095 -20.1854,2.43019 -8.78547,-0.93516 -17.76191,-4.29398 -24.48594,-10.28042 -5.6111,-4.48489 -10.09604,-10.64914 -12.15084,-17.57082 -1.31053,-3.36535 -1.8703,-6.91504 -2.24569,-10.64921 0,-0.37509 0,-0.7508 0,-1.12616 l 0,-10.84022 25.60549,0"
     inkscape:connector-curvature="0" />
  <path
     id="path4560"
     style="fill:#ffffff;fill-opacity:1;fill-rule:evenodd;stroke:none"
     d="m -58.969372,398.22618 0,-147.65978 -30.4659,0 0,-22.8066 86.3527998,0 0,22.8066 -30.2814498,0 0,147.65978 -25.60545,0"
     inkscape:connector-curvature="0" />
  <path
     id="path4562"
     style="fill:#ffffff;fill-opacity:1;fill-rule:evenodd;stroke:none"
     d="m 37.848158,267.20207 0,91.21304 c 0,0.3759 0.19131,0.93518 0.19131,1.31056 0.36875,3.17436 1.49493,6.35534 3.35873,8.96986 2.24574,2.9899 5.42667,5.0447 8.97645,5.97988 3.54974,1.12613 7.4748,1.12613 11.02459,-0.18418 3.1809,-1.12618 5.98646,-2.98997 8.04123,-5.61109 1.49496,-1.87031 2.61455,-3.92507 3.17435,-6.35526 0.3751,-0.92861 0.5598,-2.05477 0.5598,-2.98994 0,-0.36875 0,-0.74421 0,-1.11959 l 0,-91.39747 c 0,-0.37551 0,-0.75076 0,-1.31056 -0.3751,-2.62114 -1.30397,-5.23568 -2.79894,-7.48144 -2.06136,-2.98998 -5.23574,-5.22911 -8.78548,-6.34871 -3.74075,-1.49496 -7.66581,-1.49496 -11.40655,-0.37509 -3.35878,0.9352 -6.3553,2.98995 -8.41006,5.6045 -1.49497,1.68598 -2.61452,3.92511 -3.17432,5.97989 -0.3751,1.12618 -0.5598,2.06134 -0.5598,3.18092 -0.19131,0.37511 -0.19131,0.7508 -0.19131,0.93519 z m -25.60554,-1.3106 c 0.18419,-0.36877 0.18419,-0.93519 0.18419,-1.30399 0.55975,-6.17087 2.43015,-12.15074 5.61105,-17.38644 3.54976,-6.35526 9.15423,-11.59097 15.51611,-15.14072 5.0447,-2.98992 10.8402,-4.8603 16.62908,-5.42007 7.29047,-0.93522 14.7719,-0.18417 21.496,2.61451 7.66585,2.80556 14.20556,7.85028 19.06581,14.39653 4.67595,5.97993 7.66585,13.07939 8.04126,20.36981 0,0.37551 0,0.93518 0,1.31061 l 0,94.57837 c 0,0.5598 0,1.1196 -0.19052,1.49499 -0.55984,5.0447 -1.67942,9.90501 -3.92519,14.39647 -3.74069,8.21913 -10.6558,15.32514 -19.06578,19.2503 -6.16433,3.17434 -13.07941,4.86029 -20.00106,4.66932 -7.09943,0.19052 -14.20552,-1.304 -20.36981,-4.66932 -5.61105,-2.80556 -10.47139,-6.73069 -14.3899,-11.77537 -4.11617,-5.05133 -7.10605,-11.21562 -7.85685,-17.57088 -0.36877,-1.49501 -0.36877,-3.18094 -0.55977,-4.67591 0,-0.36875 0,-0.93519 -0.18456,-1.30401 l 0,-93.8342"
     inkscape:connector-curvature="0" />
  <path
     id="path4564"
     style="fill:#ffffff;fill-opacity:1;fill-rule:evenodd;stroke:none"
     d="m 152.42756,250.75076 0,57.5729 16.07592,0 c 0.36875,0 0.93517,0 1.49493,0 2.80556,-0.19133 5.60454,-1.12618 8.03468,-2.62117 2.43014,-1.49496 4.30048,-3.3653 5.61109,-5.60446 1.30396,-2.05477 2.23912,-4.48493 2.43011,-6.91507 0,-0.3755 0,-0.7508 0,-0.93517 l 0,-25.79653 c 0,-0.55979 -0.19133,-1.30398 -0.19133,-1.86378 -0.3751,-2.8055 -1.67935,-5.61106 -3.73411,-7.8568 -2.06136,-2.4236 -5.05135,-4.29394 -8.04124,-5.22912 -1.30403,-0.37549 -2.6146,-0.55978 -4.10952,-0.7508 -0.3751,0 -0.93521,0 -1.49501,0 l -16.07587,0 z m -25.4211,147.47542 0,-170.46638 43.36737,0 c 0.74417,0 1.30396,0 1.86374,0.19132 4.67589,0.36876 9.16084,1.49497 13.46132,3.36536 5.97992,2.43015 11.591,6.72408 15.70054,11.95977 2.98994,3.54973 5.23566,7.85026 6.73065,12.15074 0.74419,2.61457 1.304,5.42013 1.67937,8.03469 0.19054,0.75077 0.19054,1.31054 0.19054,1.87035 l 0,28.03566 c 0,0.19094 0,0.55979 0,0.93519 0,4.67591 -1.49499,9.34522 -3.7407,13.64572 -2.98999,5.97991 -7.29048,11.4 -12.895,15.14073 -5.05127,3.74071 -11.21558,6.17089 -17.57087,7.29045 -1.31053,0.3751 -2.80553,0.55978 -4.30048,0.7442 -0.7508,0 -1.49497,0 -2.24577,0 l -16.82008,0 0,67.1025 -25.42111,0"
     inkscape:connector-curvature="0" />
  <path
     style="font-style:normal;font-weight:normal;font-size:250px;font-family:'Rounded M+ 1m medium';-inkscape-font-specification:'Rounded M+ 1m medium';text-align:center;text-anchor:middle;fill:#ffffff;fill-opacity:1;stroke:none"
     d="m 152.47069,-393.70315 c -2.4723,1.3e-4 -4.60762,0.89871 -6.40429,2.69532 -1.7968,1.79686 -2.69539,3.93025 -2.69532,6.40234 l 0,6.4043 c -7e-5,0.8985 -0.44935,1.34779 -1.34765,1.34765 l -22.41797,0 c -2.01968,1.4e-4 -3.73287,0.7308 -5.13867,2.19141 -1.40586,1.4608 -2.10945,3.2017 -2.10938,5.22461 -7e-5,2.02311 0.70352,3.76603 2.10938,5.22656 1.4058,1.46088 3.11899,2.19148 5.13867,2.19141 l 22.41797,0 c 0.8983,7e-5 1.34758,0.44935 1.34765,1.34765 l 0,15.67579 c -7e-5,1.00818 -0.44935,1.51178 -1.34765,1.51171 l -29.32617,0 c -2.13623,7e-5 -3.93394,0.70359 -5.39454,2.10938 -1.46081,1.40594 -2.19146,3.17614 -2.1914,5.31055 -6e-5,2.13455 0.73059,3.96134 2.1914,5.47851 1.4606,1.51737 3.25831,2.27546 5.39454,2.27539 l 79.54687,0 c 2.1361,7e-5 3.96303,-0.75802 5.48047,-2.27539 1.5171,-1.51717 2.27518,-3.34396 2.27539,-5.47851 -2.1e-4,-2.13441 -0.75829,-3.90461 -2.27539,-5.31055 -1.51744,-1.40579 -3.34437,-2.10931 -5.48047,-2.10938 l -29.32226,0 c -0.89851,8e-5 -1.3478,-0.50353 -1.34766,-1.51171 l 0,-15.67579 c -1.4e-4,-0.8983 0.44915,-1.34758 1.34766,-1.34765 l 23.76171,0 c 2.02284,7e-5 3.73631,-0.73053 5.14063,-2.19141 1.40391,-1.46053 2.10729,-3.20345 2.10742,-5.22656 -1.3e-4,-2.02291 -0.70351,-3.76381 -2.10742,-5.22461 -1.40432,-1.46061 -3.11779,-2.19127 -5.14063,-2.19141 l -23.76171,0 c -0.89851,1.4e-4 -1.3478,-0.44915 -1.34766,-1.34765 l 0,-6.4043 c -1.4e-4,-2.47209 -0.89899,-4.60548 -2.69727,-6.40234 -1.79862,-1.79661 -3.9341,-2.69519 -6.40625,-2.69532 z m -93.0332,10.11133 c -2.58198,1.4e-4 -4.79926,0.95546 -6.6543,2.86524 -1.85505,1.91 -2.7832,4.15644 -2.7832,6.73828 l 0,121.85547 c 0,2.35904 0.81463,4.35173 2.44336,5.98047 1.62867,1.62867 3.62358,2.44336 5.98437,2.44336 2.36073,0 4.35565,-0.81469 5.98438,-2.44336 1.62867,-1.62874 2.44336,-3.62143 2.44336,-5.98047 l 0,-0.33985 c 0,-0.89837 0.39248,-1.34765 1.17773,-1.34765 l 22.41992,0 c 2.58192,0 4.82641,-0.95539 6.73633,-2.86524 1.90987,-1.90993 2.86517,-4.15677 2.86524,-6.74218 l 0,-110.56055 c -7e-5,-2.58184 -0.95537,-4.82828 -2.86524,-6.73828 -1.90992,-1.90978 -4.15442,-2.8651 -6.73633,-2.86524 z m 8.76562,15.50196 13.98829,0 c 1.01149,1.4e-4 1.5175,0.50615 1.51757,1.51757 l 0,36.74415 c -7e-5,1.01161 -0.50608,1.51764 -1.51757,1.51757 l -13.98829,0 c -0.89836,7e-5 -1.34765,-0.50596 -1.34765,-1.51757 l 0,-36.74415 c 0,-1.01142 0.44929,-1.51743 1.34765,-1.51757 z m 97.58399,42.08984 0,11.84375 c -7e-5,0.89843 -0.50623,1.34773 -1.51758,1.34766 l -51.57226,0 c -2.13623,7e-5 -3.93394,0.73079 -5.39454,2.1914 -1.46081,1.46081 -2.19146,3.2581 -2.1914,5.39258 -6e-5,2.13448 0.73059,3.93191 2.1914,5.39258 1.4606,1.46073 3.25831,2.19147 5.39454,2.19141 l 51.57226,0 c 1.01135,7e-5 1.51751,0.44935 1.51758,1.34765 l 0,31.51758 c -7e-5,4.71815 -0.39484,7.49831 -1.18164,8.3418 -0.78706,0.8435 -3.37,1.26562 -7.75195,1.26562 -3.93304,0 -7.64135,-0.11353 -11.125,-0.33984 -2.01974,-0.10975 -3.78949,0.53728 -5.30664,1.9414 -1.51738,1.40411 -2.21866,3.11953 -2.10547,5.14258 0.10968,2.24592 0.92208,4.12723 2.43945,5.64453 1.51717,1.51729 3.4009,2.32971 5.65039,2.43946 4.04252,0.22631 8.53594,0.33984 13.48047,0.33984 3.93283,0 7.05089,-0.0568 9.35351,-0.16992 2.30235,-0.11319 4.4651,-0.53526 6.48829,-1.26563 2.0229,-0.73036 3.4843,-1.54507 4.38281,-2.44336 0.89823,-0.89844 1.68347,-2.4144 2.35742,-4.54882 0.67361,-2.13448 1.06643,-4.40862 1.17969,-6.82422 0.11315,-2.41566 0.16978,-5.75832 0.16992,-10.02735 l 0,-31.01367 c -1.4e-4,-0.8983 0.50589,-1.34759 1.51758,-1.34765 l 6.9082,0 c 2.1361,7e-5 3.96303,-0.73068 5.48047,-2.19141 1.5171,-1.46067 2.27518,-3.2581 2.27539,-5.39258 -2.1e-4,-2.13448 -0.75829,-3.93177 -2.27539,-5.39258 -1.51744,-1.46061 -3.34437,-2.19133 -5.48047,-2.1914 l -6.9082,0 c -1.01169,7e-5 -1.51772,-0.44923 -1.51758,-1.34766 l 0,-11.84375 z m -97.58399,12.85742 13.98829,0 c 1.01149,7e-5 1.5175,0.44936 1.51757,1.34766 l 0,41.45898 c -7e-5,0.89837 -0.50608,1.34766 -1.51757,1.34766 l -13.98829,0 c -0.89836,0 -1.34765,-0.44929 -1.34765,-1.34766 l 0,-41.45898 c 0,-0.8983 0.44929,-1.34759 1.34765,-1.34766 z m 54.86524,21.0625 c -0.27819,-0.0124 -0.55985,-0.012 -0.84766,0.002 -2.30261,0.11143 -4.29745,0.95354 -5.98437,2.52734 -1.57399,1.57393 -2.3046,3.42809 -2.19141,5.5625 0.11312,2.13455 0.95732,3.9887 2.53125,5.5625 4.1557,3.81978 8.81698,8.53779 13.98438,14.1543 1.57379,1.57386 3.48468,2.38871 5.73242,2.44531 2.24754,0.0566 4.15654,-0.6448 5.73047,-2.10547 1.68348,-1.57386 2.55473,-3.48475 2.61133,-5.73242 0.0564,-2.2476 -0.70168,-4.21288 -2.27539,-5.89649 -5.2806,-5.72964 -9.99859,-10.50438 -14.1543,-14.32422 -1.47622,-1.37707 -3.18941,-2.10849 -5.13672,-2.19531 z"
     id="path2845"
     inkscape:connector-curvature="0"
     sodipodi:nodetypes="ccccccccccccccccccccccccccccccccccccccccsssscssssccccccccccccsscccccscccccccscccccscccccccccccccccccccccssssccccccccccccc" />
  <path
     inkscape:connector-curvature="0"
     style="font-style:normal;font-weight:normal;font-size:203.70500183px;font-family:'Rounded M+ 1m medium';-inkscape-font-specification:'Rounded M+ 1m medium';text-align:center;text-anchor:middle;fill:#ffffff;fill-opacity:1;stroke:none"
     d="m -23.295924,-325.78981 c 2.19705,2.40202 3.29564,5.36528 3.2959,8.88979 -2.6e-4,3.5247 -1.09766,6.48917 -3.29259,8.89346 -2.1952,2.40443 -4.90259,3.60663 -8.12232,3.60654 l -157.170156,0 c -3.22,9e-5 -5.92739,-1.20211 -8.12246,-3.60654 -2.19493,-2.40429 -3.29246,-5.36876 -3.29246,-8.89346 0,-3.52451 1.09753,-6.48901 3.29246,-8.89346 2.19507,-2.40427 4.90246,-3.60644 8.12246,-3.60654 l 157.170156,0 c 3.21973,10e-5 5.92606,1.2035 8.11901,3.61021 z"
     id="path2822" />
</svg>
