<?xml version="1.0" encoding="UTF-8" standalone="no"?>
<!-- Created with Inkscape (http://www.inkscape.org/) -->
<svg
   xmlns:svg="http://www.w3.org/2000/svg"
   xmlns="http://www.w3.org/2000/svg"
   version="1.0"
   width="920"
   height="920"
   id="svg2">
  <defs
     id="defs4" />
  <path
     d="M 103.29548,20.227024 C 57.441852,20.227024 20.227277,57.441579 20.227277,103.29522 L 20.227277,459.99987 C 20.227276,702.75447 217.24551,899.77272 460.00012,899.77272 C 702.75474,899.7727 899.77294,702.75451 899.77297,459.99987 L 899.77297,103.29522 C 899.77297,57.44157 862.55842,20.227026 816.70477,20.227024 L 460.00012,20.227024 L 103.29548,20.227024 z "
     style="opacity:1;fill:#007f1f;fill-opacity:1;stroke:white;stroke-width:20.4545536;stroke-linecap:butt;stroke-linejoin:round;stroke-miterlimit:4;stroke-dasharray:none;stroke-dashoffset:0;stroke-opacity:1"
     id="plate" />
  <text
     x="482.79523"
     y="742.57684"
     transform="scale(0.964401,1.036913)"
     style="font-size:494.76171875px;font-style:normal;font-variant:normal;font-weight:bold;font-stretch:normal;text-align:center;line-height:125%;writing-mode:lr-tb;text-anchor:middle;fill:white;fill-opacity:1;stroke:none;stroke-width:1px;stroke-linecap:butt;stroke-linejoin:miter;stroke-opacity:1;font-family:Arial"
     id="number"
     xml:space="preserve"><tspan
       x="482.79523"
       y="742.57684"
       style="font-size:494.76171875px;font-style:normal;font-variant:normal;font-weight:bold;font-stretch:normal;text-align:center;line-height:125%;writing-mode:lr-tb;text-anchor:middle;font-family:Arial"
       id="number-tspan">C1</tspan></text>
  <path
     d="M 421.65637,105.96899 L 421.62512,107.00024 L 421.62512,108.00024 C 422.68034,115.4502 421.46688,120.48065 413.28137,118.09399 C 392.96925,118.09399 372.65598,118.09399 352.34387,118.09399 C 352.34387,124.51287 352.34387,130.92511 352.34387,137.34399 C 360.43412,137.34399 368.53488,137.34399 376.62512,137.34399 C 376.62512,154.88398 376.62512,172.42901 376.62512,189.96899 C 369.72552,189.96899 362.83723,189.96899 355.93762,189.96899 C 355.93762,196.38788 355.93762,202.83135 355.93762,209.25024 C 362.83723,209.25024 369.72552,209.25024 376.62512,209.25024 C 376.62512,227.47262 376.62512,245.6841 376.62512,263.90649 C 369.55366,265.62472 362.33084,266.99248 355.09387,268.06274 C 357.85473,275.6423 358.85551,285.67139 366.09387,290.12524 C 369.5158,291.62122 372.37407,287.96573 373.03137,284.81274 C 391.69145,281.21211 410.00127,275.74674 427.75012,268.81274 C 427.63815,261.99972 427.54998,255.18877 427.46887,248.37524 C 416.9465,252.51692 406.33657,256.17653 395.46887,259.12524 C 395.46887,242.49158 395.46887,225.8839 395.46887,209.25024 C 404.23076,209.25024 412.98823,209.25024 421.75012,209.25024 C 421.75012,202.83135 421.75012,196.38788 421.75012,189.96899 C 412.98823,189.96899 404.23076,189.96899 395.46887,189.96899 C 395.46887,172.42901 395.46887,154.88398 395.46887,137.34399 C 404.05776,137.34399 412.62998,137.34399 421.21887,137.34399 C 421.11691,144.42395 421.00951,151.51404 420.90637,158.59399 C 467.19883,158.59399 513.48889,158.59399 559.78137,158.59399 C 559.78137,141.054 559.78137,123.50898 559.78137,105.96899 C 513.73312,105.96899 467.70461,105.96899 421.65637,105.96899 z M 483.28137,125.06274 C 484.18134,125.02775 485.31208,125.22445 486.68762,125.68774 C 491.57229,125.68774 496.4592,125.68774 501.34387,125.68774 C 500.1646,130.71108 504.80213,141.84918 496.43762,139.34399 C 491.39134,138.14851 481.69397,141.82585 479.84387,137.28149 C 479.80645,131.96129 478.42153,125.2517 483.28137,125.06274 z M 523.37512,125.06274 C 524.27509,125.02775 525.37459,125.22445 526.75012,125.68774 C 531.48216,125.68774 536.23684,125.68774 540.96887,125.68774 C 539.78959,130.71108 544.42714,141.84918 536.06262,139.34399 C 531.23967,138.07445 521.53081,141.93509 519.93762,137.28149 C 519.90019,131.96129 518.51528,125.2517 523.37512,125.06274 z M 443.09387,125.15649 C 443.83816,125.15388 444.75048,125.31939 445.84387,125.68774 C 451.05419,125.68774 456.25855,125.68774 461.46887,125.68774 C 460.28959,130.71108 464.92713,141.84918 456.56262,139.34399 C 451.36553,138.59436 443.33267,140.79502 439.81262,138.31274 C 440.45271,133.43842 437.88386,125.17478 443.09387,125.15649 z M 418.46887,168.50024 L 418.46887,169.53149 L 418.46887,170.56274 C 419.60856,175.7875 416.10155,185.90584 420.43762,187.78149 C 467.93091,187.78148 515.41308,187.78149 562.90637,187.78149 C 562.90637,181.3626 562.90637,174.91913 562.90637,168.50024 C 514.76179,168.50024 466.61345,168.50024 418.46887,168.50024 z M 443.93762,197.90649 L 443.90637,198.93774 L 443.87512,199.90649 C 443.4062,216.71072 442.9417,233.50862 442.46887,250.31274 C 448.74982,250.39693 455.69372,250.13768 461.56262,250.43774 C 445.07282,270.27298 425.86549,287.16737 405.34387,302.34399 C 410.52573,306.39279 415.71426,310.42217 420.87512,314.50024 C 438.24368,301.36788 454.83263,286.85089 469.28137,270.34399 C 469.28137,286.92434 469.28137,303.48238 469.28137,320.06274 C 475.55004,320.06273 481.8252,320.06274 488.09387,320.06274 C 488.09387,299.35595 488.09387,278.64452 488.09387,257.93774 C 504.93653,282.31466 528.55237,300.33911 552.43762,316.59399 C 557.50645,312.15958 562.59449,307.72461 567.65637,303.28149 C 554.2908,294.68989 541.32394,285.62964 529.25012,275.15649 C 534.9205,272.69803 540.29295,269.47841 545.56262,266.37524 C 548.77478,268.28562 555.91102,267.40719 553.93762,262.03149 C 551.04956,255.69149 546.02495,250.71711 541.59387,245.53149 C 535.81845,251.76867 539.591,237.72541 538.28137,234.46899 C 537.93589,222.27978 537.60461,210.09541 537.25012,197.90649 C 506.15103,197.90649 475.03671,197.90649 443.93762,197.90649 z M 464.84387,217.03149 C 465.41438,217.04262 466.09671,217.17184 466.87512,217.40649 C 484.32767,217.40649 501.76634,217.40649 519.21887,217.40649 C 518.15176,222.42957 523.07689,233.56605 514.65637,231.06274 C 496.99012,231.06273 479.32261,231.06274 461.65637,231.06274 C 462.83715,226.51062 459.32892,216.92386 464.84387,217.03149 z M 505.65637,250.31274 C 515.40537,250.31274 525.15737,250.31274 534.90637,250.31274 C 528.36161,254.50485 521.34463,257.82636 514.06262,260.37524 C 511.0491,257.24047 508.20187,254.00576 505.65637,250.31274 z "
     style="font-size:227.9535675px;font-style:normal;font-variant:normal;font-weight:normal;font-stretch:normal;text-align:start;line-height:100%;writing-mode:lr-tb;text-anchor:start;fill:white;fill-opacity:1;stroke:none;stroke-width:1px;stroke-linecap:butt;stroke-linejoin:miter;stroke-opacity:1;font-family:VL Gothic"
     id="line-name" />
  <path
     d="M 96.622293,11.999805 C 49.910839,11.999805 12.000058,49.910568 12.000058,96.62204 L 12.000058,459.99987 C 12.000057,707.2959 212.70408,907.99994 460.00012,907.99994 C 707.29616,907.99992 908.00016,707.29594 908.00019,459.99987 L 908.00019,96.62204 C 908.00019,49.910558 870.08943,11.999807 823.37795,11.999805 L 460.00012,11.999805 L 96.622293,11.999805 z "
     style="opacity:1;fill:none;fill-opacity:1;stroke:gray;stroke-width:4.00000095;stroke-linecap:butt;stroke-linejoin:round;stroke-miterlimit:4;stroke-dasharray:none;stroke-dashoffset:0;stroke-opacity:1"
     id="plate-shadow" />
</svg>
