<?xml version="1.0" encoding="UTF-8" standalone="no"?>
<!-- Created with Inkscape (http://www.inkscape.org/) -->
<svg
   xmlns:dc="http://purl.org/dc/elements/1.1/"
   xmlns:cc="http://web.resource.org/cc/"
   xmlns:rdf="http://www.w3.org/1999/02/22-rdf-syntax-ns#"
   xmlns:svg="http://www.w3.org/2000/svg"
   xmlns="http://www.w3.org/2000/svg"
   xmlns:sodipodi="http://sodipodi.sourceforge.net/DTD/sodipodi-0.dtd"
   xmlns:inkscape="http://www.inkscape.org/namespaces/inkscape"
   width="1500"
   height="630"
   id="svg4203"
   sodipodi:version="0.32"
   inkscape:version="0.45.1"
   version="1.0"
   sodipodi:docbase="D:\Documents and Settings\Administrator\デスクトップ\看板\sign\中日本\svg"
   sodipodi:docname="東名高速.svg"
   inkscape:output_extension="org.inkscape.output.svg.inkscape">
  <defs
     id="defs4205" />
  <sodipodi:namedview
     id="base"
     pagecolor="#ffffff"
     bordercolor="#666666"
     borderopacity="1.0"
     gridtolerance="10000"
     guidetolerance="10"
     objecttolerance="10"
     inkscape:pageopacity="0.0"
     inkscape:pageshadow="2"
     inkscape:zoom="0.5"
     inkscape:cx="729.73822"
     inkscape:cy="300.95122"
     inkscape:document-units="px"
     inkscape:current-layer="layer1"
     width="1500px"
     height="630px"
     inkscape:window-width="1152"
     inkscape:window-height="817"
     inkscape:window-x="-4"
     inkscape:window-y="-4" />
  <metadata
     id="metadata4208">
    <rdf:RDF>
      <cc:Work
         rdf:about="">
        <dc:format>image/svg+xml</dc:format>
        <dc:type
           rdf:resource="http://purl.org/dc/dcmitype/StillImage" />
      </cc:Work>
    </rdf:RDF>
  </metadata>
  <g
     inkscape:label="sign"
     inkscape:groupmode="layer"
     id="layer1">
    <rect
       style="fill:#005d35;fill-opacity:1;stroke:none;stroke-width:1;stroke-linecap:butt;stroke-linejoin:round;stroke-miterlimit:4;stroke-dasharray:none;stroke-opacity:1"
       id="rect_bg"
       width="1500"
       height="630"
       x="0"
       y="0"
       rx="55"
       ry="55" />
    <path
       style="fill:#ffffff"
       d="M 386.75,483.83768 C 380.30012,484.0866 377.87806,483.7428 374.25,482.06336 C 371.775,480.91767 368.02306,478.3174 365.91236,476.285 C 363.80166,474.25259 360.75768,470.00222 359.14797,466.83973 C 357.53826,463.67723 355.53395,458.12627 354.69395,454.50424 C 353.85068,450.86816 353.1711,443.3664 353.17656,437.75423 C 353.182,432.16374 353.62412,425.33971 354.15905,422.58971 C 354.69398,419.83971 355.84781,415.57945 356.72311,413.12248 C 357.59841,410.6655 359.42187,406.76578 360.77524,404.45643 C 362.12861,402.14709 365.1024,398.65997 367.38366,396.7073 C 369.66493,394.75462 373.77829,392.41068 376.52447,391.49854 C 379.9907,390.34725 383.54071,389.98536 388.13377,390.31508 C 392.02228,390.59422 396.3991,391.64143 398.75,392.85514 C 400.95,393.99095 404.39094,396.64587 406.39654,398.75498 C 408.40214,400.86408 411.22572,404.95912 412.67117,407.85506 C 414.11661,410.751 416.03701,415.926 416.93871,419.35506 C 418.00152,423.39679 418.57817,429.63462 418.57817,437.08971 C 418.57817,444.72406 418.00457,450.77465 416.87176,455.08971 C 415.93324,458.66471 414.12817,463.83971 412.8605,466.58971 C 411.59283,469.33971 408.78003,473.40673 406.60985,475.62753 C 404.43966,477.84833 400.88339,480.53465 398.70703,481.59714 C 396.06252,482.88817 392.09646,483.63134 386.75,483.83768 z M 385.53212,471.08816 C 387.06228,471.08901 389.76228,470.47271 391.53212,469.71859 C 393.30195,468.96447 395.74052,467.27137 396.95115,465.95613 C 398.16179,464.6409 400.07629,461.47598 401.2056,458.92298 C 402.33492,456.36998 403.65064,450.41628 404.12944,445.69255 C 404.60824,440.96881 404.6253,433.61323 404.16735,429.34682 C 403.70941,425.08041 402.86161,419.96413 402.28335,417.97731 C 401.7051,415.99049 399.871,412.48614 398.20759,410.18986 C 396.54417,407.89358 393.96073,405.52688 392.4666,404.93053 C 390.97247,404.33418 387.89947,403.82603 385.63771,403.80131 C 383.11385,403.77373 380.18696,404.58359 378.0603,405.89793 C 376.14537,407.08142 373.44806,410.17572 372.03102,412.8146 C 370.62072,415.44091 368.96806,419.97436 368.35842,422.88893 C 367.74879,425.8035 367.25,432.57146 367.25,437.92883 C 367.25,443.38525 367.92067,450.29095 368.77483,453.62961 C 369.61349,456.90767 371.53746,461.38971 373.05032,463.58971 C 374.56319,465.78971 377.36451,468.37651 379.27549,469.33816 C 381.18647,470.2998 384.00195,471.0873 385.53212,471.08816 z M 292.75,482.08971 L 286.25,482.08971 L 286.25,444.08971 L 286.25,406.08971 L 275.25,406.08971 L 264.25,406.08971 L 264.25,399.08971 L 264.25,392.08971 L 292.75,392.08971 L 321.25,392.08971 L 321.25,399.08971 L 321.25,406.08971 L 310.25,406.08971 L 299.25,406.08971 L 299.25,444.08971 L 299.25,482.08971 L 292.75,482.08971 z M 459.75,482.08971 L 453.25,482.08971 L 453.25,437.08971 L 453.25,392.08971 L 461.51512,392.08971 L 469.78023,392.08971 L 478.15399,425.83971 C 482.75955,444.40221 486.81327,460.13904 487.16224,460.81044 C 487.51122,461.48184 491.3474,447.75684 495.68709,430.31044 C 500.02679,412.86404 503.97492,397.12721 504.46073,395.33971 L 505.34401,392.08971 L 513.797,392.08971 L 522.25,392.08971 L 522.25,437.08971 L 522.25,482.08971 L 515.25,482.08971 L 508.25,482.08971 L 508.13409,453.33971 L 508.01819,424.58971 L 500.89827,453.33971 L 493.77835,482.08971 L 487.63567,482.08971 L 481.49299,482.08971 L 473.9641,452.33971 L 466.43522,422.58971 L 466.34261,452.33971 L 466.25,482.08971 L 459.75,482.08971 z M 583.75,482.08971 L 558.25,482.08971 L 558.25,437.08971 L 558.25,392.08971 L 582.75,392.08971 L 607.25,392.08971 L 607.25,399.08971 L 607.25,406.08971 L 589.25,406.08971 L 571.25,406.08971 L 571.25,417.08971 L 571.25,428.08971 L 587.25,428.08971 L 603.25,428.08971 L 603.25,435.08971 L 603.25,442.08971 L 587.25,442.08971 L 571.25,442.08971 L 571.25,455.08971 L 571.25,468.08971 L 590.25,468.08971 L 609.25,468.08971 L 609.25,475.08971 L 609.25,482.08971 L 583.75,482.08971 z M 648.75,482.08971 L 642.25,482.08971 L 642.25,437.08971 L 642.25,392.08971 L 648.75,392.08971 L 655.25,392.08971 L 655.25,437.08971 L 655.25,482.08971 L 648.75,482.08971 z M 821.75,482.08971 L 796.25,482.08971 L 796.25,437.08971 L 796.25,392.08971 L 820.75,392.08971 L 845.25,392.08971 L 845.25,399.08971 L 845.25,406.08971 L 827.25,406.08971 L 809.25,406.08971 L 809.25,417.08971 L 809.25,428.08971 L 825.25,428.08971 L 841.25,428.08971 L 841.25,435.08971 L 841.25,442.08971 L 825.25,442.08971 L 809.25,442.08971 L 809.25,455.08971 L 809.25,468.08971 L 828.25,468.08971 L 847.25,468.08971 L 847.25,475.08971 L 847.25,482.08971 L 821.75,482.08971 z M 884.97957,482.08971 L 877.06646,482.08971 L 880.49747,475.83971 C 882.38453,472.40221 887.89462,462.22635 892.74212,453.22668 L 901.55577,436.86365 L 899.03536,431.72668 C 897.64914,428.90135 892.45671,418.82721 887.49664,409.33971 L 878.47832,392.08971 L 886.23241,392.08971 L 893.9865,392.08971 L 900.69529,406.83971 C 904.38512,414.95221 907.721,421.9188 908.10835,422.32102 C 908.49569,422.72324 911.94853,416.09412 915.78131,407.58964 L 922.75,392.12696 L 930.55888,392.10834 L 938.36776,392.08971 L 926.84586,414.38298 L 915.32395,436.67624 L 927.28697,458.90986 C 933.86664,471.13835 939.25,481.35638 939.25,481.6166 C 939.25,481.87681 935.84191,482.08971 931.67647,482.08971 L 924.10294,482.08971 L 916.2544,465.83971 L 908.40586,449.58971 L 900.64927,465.83971 L 892.89269,482.08971 L 884.97957,482.08971 z M 978.75,482.08971 L 972.25,482.08971 L 972.25,437.08971 L 972.25,392.08971 L 987.20078,392.08971 C 995.42371,392.08971 1004.3463,392.56039 1007.0287,393.13567 C 1009.7902,393.72791 1013.5136,395.50692 1015.6123,397.23685 C 1017.6509,398.91722 1020.502,402.60904 1021.9482,405.44089 C 1023.8827,409.22919 1024.6984,412.60496 1025.0351,418.21634 C 1025.3703,423.80324 1025.0255,427.24961 1023.7458,431.10246 C 1022.785,433.99518 1020.3679,438.17103 1018.3744,440.38213 C 1016.381,442.59323 1012.95,445.22209 1010.75,446.22405 C 1007.6864,447.61933 1004.2335,448.05093 996,448.06775 L 985.25,448.08971 L 985.25,465.08971 L 985.25,482.08971 L 978.75,482.08971 z M 995.02749,434.08971 C 1002.0953,434.08971 1005.3978,433.67447 1006.9441,432.59138 C 1008.1207,431.76731 1009.8497,429.08619 1010.7865,426.63334 C 1012.027,423.38513 1012.2969,420.88823 1011.7801,417.44194 C 1011.2626,413.99074 1010.1747,411.81445 1007.7603,409.39999 L 1004.45,406.08971 L 994.85,406.08971 L 985.25,406.08971 L 985.25,420.08971 L 985.25,434.08971 L 995.02749,434.08971 z M 1081.8235,482.08971 L 1075.6109,482.08971 L 1066.764,438.83971 C 1061.8982,415.05221 1057.7145,394.80221 1057.4669,393.83971 C 1057.07,392.29666 1057.8457,392.08971 1064.0264,392.08971 C 1068.7218,392.08971 1071.1881,392.5024 1071.4966,393.33971 C 1071.7499,394.02721 1074.3718,408.01852 1077.323,424.43151 C 1080.6096,442.70957 1082.9699,453.55961 1083.4142,452.43151 C 1083.8132,451.41852 1086.4948,437.42721 1089.3733,421.33971 L 1094.607,392.08971 L 1100.4285,392.08971 C 1103.6303,392.08971 1106.25,392.4456 1106.25,392.88058 C 1106.25,393.31555 1108.725,407.23813 1111.75,423.81965 C 1114.775,440.40116 1117.2874,454.33277 1117.3332,454.77878 C 1117.379,455.22479 1120.0695,441.41471 1123.3121,424.08971 C 1126.5547,406.76471 1129.2173,392.47721 1129.2289,392.33971 C 1129.2405,392.20221 1132.4,392.08971 1136.25,392.08971 C 1140.1,392.08971 1143.25,392.2789 1143.25,392.51013 C 1143.25,392.74136 1139.2,412.70322 1134.25,436.86982 C 1129.3,461.03641 1125.25,481.09722 1125.25,481.4494 C 1125.25,481.80157 1122.3553,482.08971 1118.8174,482.08971 C 1113.5357,482.08971 1112.3012,481.77661 1111.9178,480.33971 C 1111.661,479.37721 1109.0537,466.32721 1106.1239,451.33971 C 1103.1941,436.35221 1100.5614,424.09176 1100.2735,424.09426 C 1099.9856,424.09676 1097.3223,436.58426 1094.3551,451.84426 C 1091.3878,467.10426 1088.7522,480.15221 1088.4981,480.83971 C 1088.1963,481.65599 1085.8804,482.08971 1081.8235,482.08971 z M 1204.25,482.08971 L 1197.25,482.08971 L 1197.25,463.65659 L 1197.25,445.22347 L 1186.6302,421.90659 C 1180.7893,409.08231 1175.3833,397.12721 1174.6168,395.33971 L 1173.2232,392.08971 L 1180.9866,392.09184 L 1188.75,392.09396 L 1195.1948,408.84184 C 1198.7395,418.05317 1202.2693,427.13895 1203.0388,429.03248 L 1204.4379,432.47524 L 1212.2195,412.53248 L 1220.001,392.58971 L 1227.6255,392.29765 C 1231.819,392.13701 1235.25,392.31413 1235.25,392.69124 C 1235.25,393.06835 1229.85,405.26501 1223.25,419.79493 L 1211.25,446.21298 L 1211.25,464.15134 L 1211.25,482.08971 L 1204.25,482.08971 z M 326.26747,332.08971 L 317.28494,332.08971 L 317.01747,307.47627 L 316.75,282.86283 L 313.48011,287.41745 C 311.68166,289.92249 307.85666,294.55314 304.98011,297.70777 C 302.10355,300.86241 296.58487,305.96307 292.71637,309.04259 C 288.84788,312.1221 282.09788,316.50064 277.71637,318.77267 C 273.33487,321.04471 266.6,323.83942 262.75,324.98315 C 258.9,326.12689 251.64145,327.64657 246.61988,328.36022 L 237.48977,329.65777 L 236.86988,323.72705 C 236.52895,320.46515 236.25,316.35196 236.25,314.58662 L 236.25,311.37691 L 243.13166,310.73733 C 246.91657,310.38556 253.10407,309.15786 256.88166,308.00911 C 260.65925,306.86036 266.64342,304.34759 270.17982,302.42518 C 273.71621,300.50276 279.11621,296.98575 282.17982,294.60959 C 285.24342,292.23343 289.30078,288.66939 291.19617,286.68951 L 294.64233,283.08971 L 272.44617,283.08971 L 250.25,283.08971 L 250.25,239.58971 L 250.25,196.08971 L 283.75,196.08971 L 317.25,196.08971 L 317.25,188.58971 L 317.25,181.08971 L 276.25,181.08971 L 235.25,181.08971 L 235.25,172.08971 L 235.25,163.08971 L 276.25,163.08971 L 317.25,163.08971 L 317.25,154.58971 L 317.25,146.08971 L 326.25,146.08971 L 335.25,146.08971 L 335.25,154.58971 L 335.25,163.08971 L 376.25,163.08971 L 417.25,163.08971 L 417.25,172.08971 L 417.25,181.08971 L 376.25,181.08971 L 335.25,181.08971 L 335.25,188.58971 L 335.25,196.08971 L 368.75,196.08971 L 402.25,196.08971 L 402.25,239.58971 L 402.25,283.08971 L 380.04705,283.08971 L 357.8441,283.08971 L 361.79705,287.16906 C 363.97117,289.41271 368.45,293.30253 371.75,295.81311 C 375.05,298.3237 380.9,301.88083 384.75,303.71786 C 388.6,305.55489 395.30948,307.96507 399.65996,309.07381 C 404.01044,310.18256 409.58411,311.08971 412.04589,311.08971 L 416.52185,311.08971 L 415.88592,315.72928 C 415.53617,318.28105 415.25,322.47228 415.25,325.04313 L 415.25,329.7174 L 406.16261,328.47441 C 401.16455,327.79077 393.85205,326.25659 389.91261,325.06513 C 385.97318,323.87366 379.6631,321.35441 375.89022,319.46678 C 372.11734,317.57916 366.94234,314.6104 364.39022,312.86956 C 361.8381,311.12871 356.87156,306.97858 353.35348,303.64704 C 349.83539,300.31551 344.32289,294.29773 341.10348,290.2742 L 335.25,282.95869 L 335.25,307.5242 L 335.25,332.08971 L 326.26747,332.08971 z M 292.75,266.08971 L 317.25,266.08971 L 317.25,257.08971 L 317.25,248.08971 L 292.75,248.08971 L 268.25,248.08971 L 268.25,257.08971 L 268.25,266.08971 L 292.75,266.08971 z M 359.75,266.08971 L 384.25,266.08971 L 384.25,257.08971 L 384.25,248.08971 L 359.75,248.08971 L 335.25,248.08971 L 335.25,257.08971 L 335.25,266.08971 L 359.75,266.08971 z M 292.75,230.08971 L 317.25,230.08971 L 317.25,221.58971 L 317.25,213.08971 L 292.75,213.08971 L 268.25,213.08971 L 268.25,221.58971 L 268.25,230.08971 L 292.75,230.08971 z M 359.75,230.08971 L 384.25,230.08971 L 384.25,221.58971 L 384.25,213.08971 L 359.75,213.08971 L 335.25,213.08971 L 335.25,221.58971 L 335.25,230.08971 L 359.75,230.08971 z M 726.75,331.08971 L 721.25,331.08971 L 721.25,305.08971 L 721.25,279.08971 L 776.75,279.08971 L 832.25,279.08971 L 832.25,305.08971 L 832.25,331.08971 L 826.75,331.08971 L 821.25,331.08971 L 821.25,310.58971 L 821.25,290.08971 L 776.75,290.08971 L 732.25,290.08971 L 732.25,310.58971 L 732.25,331.08971 L 726.75,331.08971 z M 1016.5162,325.28627 L 1010.75,330.95222 L 1007.5236,326.28311 L 1004.2971,321.614 L 1008.9088,317.10186 C 1011.4452,314.62018 1014.1346,311.14166 1014.8852,309.37183 C 1015.8688,307.05266 1016.25,301.11783 1016.25,288.12183 L 1016.25,270.08971 L 1010.75,270.08971 L 1005.25,270.08971 L 1005.25,264.58971 L 1005.25,259.08971 L 1016.2328,259.08971 L 1027.2157,259.08971 L 1027.4828,284.29283 L 1027.75,309.49595 L 1031.75,312.268 C 1033.95,313.79262 1038.432,315.72622 1041.7101,316.56488 C 1046.521,317.79569 1054.7642,318.08971 1084.4601,318.08971 L 1121.25,318.08971 L 1121.25,323.58971 L 1121.25,329.08971 L 1083.8865,329.08971 C 1062.9703,329.08971 1044.1841,328.64614 1041.2097,328.08206 C 1038.2873,327.52785 1033.6134,325.96437 1030.8232,324.60766 C 1028.0329,323.25095 1024.9698,321.57378 1024.0162,320.88062 C 1022.5096,319.78552 1021.5265,320.36298 1016.5162,325.28627 z M 870.113,325.906 L 865.47599,330.13612 L 862.04206,325.50017 L 858.60813,320.86423 L 864.02562,315.7406 C 867.00524,312.9226 870.07466,309.39568 870.84655,307.903 C 871.89474,305.87603 872.25,300.7466 872.25,287.63937 L 872.25,270.08971 L 866.75,270.08971 L 861.25,270.08971 L 861.25,264.58971 L 861.25,259.08971 L 872.85428,259.08971 L 884.45856,259.08971 L 884.10983,283.4427 C 883.84449,301.9717 884.06214,308.15843 885.01994,309.31251 C 885.71231,310.14676 889.30982,312.35042 893.0144,314.20952 L 899.75,317.58971 L 939.5,317.89258 L 979.25,318.19544 L 979.25,324.14258 L 979.25,330.08971 L 944,330.08216 C 924.56035,330.07799 905.83462,329.60969 902.25,329.03805 C 898.675,328.46794 892.90883,326.68157 889.43628,325.06832 C 885.96373,323.45508 881.83258,321.2166 880.25594,320.09394 L 877.38931,318.05272 L 876.06966,319.86431 C 875.34385,320.86068 872.66335,323.57944 870.113,325.906 z M 591.25,329.08971 L 537.25,329.08971 L 537.25,295.58971 C 537.25,277.16471 537.0123,262.08971 536.72178,262.08971 C 536.43126,262.08971 532.26876,265.2721 527.47178,269.16168 C 522.6748,273.05127 513.125,279.9506 506.25,284.49353 C 499.375,289.03646 490.3196,294.62907 486.12689,296.92156 C 481.93418,299.21404 478.22734,301.08971 477.88946,301.08971 C 477.55159,301.08971 475.69449,297.95094 473.76257,294.11467 C 471.83066,290.2784 470.25,286.92325 470.25,286.65878 C 470.25,286.39431 473.5125,284.30675 477.5,282.01975 C 481.4875,279.73274 489.025,275.11655 494.25,271.76153 C 499.475,268.40651 507.8,262.5272 512.75,258.69638 C 517.7,254.86557 524.57734,249.26894 528.03298,246.25942 C 531.48861,243.2499 534.18861,240.43881 534.03298,240.01255 C 533.87734,239.58629 527.73514,232.24141 520.38364,223.6906 L 507.01729,208.14367 L 499.88364,214.00168 C 495.96014,217.22358 489.62501,221.93895 485.80558,224.48027 C 481.69648,227.21433 478.49413,228.73384 477.96222,228.20193 C 477.46781,227.70752 475.3695,224.48686 473.29931,221.0449 L 469.53533,214.7868 L 476.64266,210.02461 C 480.5517,207.4054 487.37836,202.10181 491.81303,198.23887 C 496.24769,194.37592 502.91255,187.69956 506.62383,183.40252 C 510.33511,179.10547 515.98427,171.76471 519.17752,167.08971 C 522.37077,162.41471 525.95255,156.67721 527.13704,154.33971 L 529.29065,150.08971 L 538.87731,150.08971 C 546.98795,150.08971 548.37535,150.32066 547.88837,151.58971 C 547.3839,152.90435 551.38679,153.08971 580.28138,153.08971 C 598.41412,153.08971 613.25,153.23713 613.25,153.4173 C 613.25,153.59748 612.07974,156.63498 610.64941,160.1673 C 609.21909,163.69963 605.14762,172.30391 601.60169,179.28794 C 598.05576,186.27197 591.16286,197.97197 586.28413,205.28794 C 581.40541,212.60391 575.15735,221.28971 572.39956,224.58971 L 567.38541,230.58971 L 606.3177,230.85132 L 645.25,231.11292 L 645.25,280.10132 L 645.25,329.08971 L 591.25,329.08971 z M 591.25,312.08971 L 628.25,312.08971 L 628.25,280.08971 L 628.25,248.08971 L 591.25,248.08971 L 554.25,248.08971 L 554.25,280.08971 L 554.25,312.08971 L 591.25,312.08971 z M 547.19966,227.08129 C 547.50235,227.07666 550.9,223.21859 554.75,218.50779 C 558.6,213.79699 564.54529,206.03828 567.96175,201.2662 C 571.37821,196.49413 576.89071,187.85097 580.21175,182.05918 C 583.53279,176.26739 586.25,171.19689 586.25,170.7914 C 586.25,170.38591 575.34323,170.17465 562.01272,170.32193 L 537.77545,170.58971 L 533.16333,177.30555 C 530.62666,180.99926 526.46069,186.56071 523.90562,189.66433 L 519.26004,195.30727 L 525.42795,202.44849 C 528.8203,206.37616 534.98288,213.52721 539.12259,218.33971 C 543.26229,223.15221 546.89697,227.08592 547.19966,227.08129 z M 776.75,329.08971 L 741.25,329.08971 L 741.25,312.58971 L 741.25,296.08971 L 776.75,296.08971 L 812.25,296.08971 L 812.25,312.58971 L 812.25,329.08971 L 776.75,329.08971 z M 776.25,318.08971 L 800.25,318.08971 L 800.25,312.58971 L 800.25,307.08971 L 776.25,307.08971 L 752.25,307.08971 L 752.25,312.58971 L 752.25,318.08971 L 776.25,318.08971 z M 1173.75,329.08971 L 1151.25,329.08971 L 1151.25,305.58971 L 1151.25,282.08971 L 1156.75,282.08971 L 1162.25,282.08971 L 1162.25,300.08971 L 1162.25,318.08971 L 1165.25,318.08971 L 1168.25,318.08971 L 1168.25,289.58971 L 1168.25,261.08971 L 1159.75,261.08971 L 1151.25,261.08971 L 1151.25,239.08971 L 1151.25,217.08971 L 1173.75,217.08971 L 1196.25,217.08971 L 1196.25,239.08971 L 1196.25,261.08971 L 1187.75,261.08971 L 1179.25,261.08971 L 1179.25,269.08971 L 1179.25,277.08971 L 1187.75,277.08971 L 1196.25,277.08971 L 1196.25,282.58971 L 1196.25,288.08971 L 1187.75,288.08971 L 1179.25,288.08971 L 1179.25,303.08971 L 1179.25,318.08971 L 1187.75,318.08971 L 1196.25,318.08971 L 1196.25,323.58971 L 1196.25,329.08971 L 1173.75,329.08971 z M 1173.75,250.08971 L 1185.25,250.08971 L 1185.25,239.08971 L 1185.25,228.08971 L 1173.75,228.08971 L 1162.25,228.08971 L 1162.25,239.08971 L 1162.25,250.08971 L 1173.75,250.08971 z M 1231.75,329.08971 L 1208.25,329.08971 L 1208.25,308.02162 L 1208.25,286.95352 L 1205.4755,288.92917 L 1202.7009,290.90483 L 1200.1328,286.08876 L 1197.5647,281.27269 L 1205.1575,275.71918 C 1209.3336,272.66475 1214.9032,267.97992 1217.5346,265.30845 L 1222.3187,260.45122 L 1219.155,256.52047 C 1217.415,254.35855 1214.6427,250.42251 1212.9943,247.77371 L 1209.9972,242.9577 L 1207.2563,245.58364 L 1204.5154,248.20958 L 1200.9858,243.96031 L 1197.4561,239.71103 L 1201.8468,235.4437 C 1204.2618,233.09666 1208.0161,228.42463 1210.1899,225.06142 C 1212.3636,221.6982 1214.6513,217.4037 1215.2736,215.51809 C 1215.8959,213.63248 1216.5731,212.08971 1216.7783,212.08971 C 1216.9836,212.08971 1219.3746,212.56646 1222.0916,213.14916 C 1226.2605,214.04323 1226.9525,214.51154 1226.5242,216.14916 L 1226.0167,218.08971 L 1243.2008,218.08971 L 1260.3848,218.08971 L 1259.7182,220.33971 C 1259.3516,221.57721 1257.5289,226.38021 1255.6678,231.01305 C 1253.8067,235.64588 1250.8139,241.86259 1249.017,244.82796 C 1247.2202,247.79333 1244.0277,252.49547 1241.9226,255.27717 L 1238.0952,260.33479 L 1241.4226,263.79994 C 1243.2527,265.70576 1249.25,270.28245 1254.75,273.97035 L 1264.75,280.67563 L 1262.6717,285.86843 C 1260.7253,290.73144 1260.4713,290.96889 1258.6717,289.60728 C 1257.6147,288.8076 1256.4125,288.13901 1256,288.12151 C 1255.5875,288.10402 1255.25,297.31471 1255.25,308.58971 L 1255.25,329.08971 L 1231.75,329.08971 z M 1231.75,318.08971 L 1244.25,318.08971 L 1244.25,303.58971 L 1244.25,289.08971 L 1231.75,289.08971 L 1219.25,289.08971 L 1219.25,303.58971 L 1219.25,318.08971 L 1231.75,318.08971 z M 1230.7918,278.06914 L 1240.75,278.04858 L 1235.75,273.60756 C 1233,271.16501 1230.5062,269.14926 1230.2082,269.12813 C 1229.9102,269.107 1227.679,271.11471 1225.25,273.58971 L 1220.8336,278.08971 L 1230.7918,278.06914 z M 1230.069,252.08971 C 1230.4638,252.08971 1233.1039,248.60221 1235.9359,244.33971 C 1238.7679,240.07721 1241.7971,235.14956 1242.6675,233.38937 C 1243.5379,231.62918 1244.25,229.94168 1244.25,229.63937 C 1244.25,229.33706 1238.926,229.08971 1232.419,229.08971 L 1220.588,229.08971 L 1219.2546,231.58117 C 1218.1724,233.60331 1218.1578,234.59225 1219.1772,236.83117 C 1219.8681,238.34837 1222.4398,242.40221 1224.8922,245.83971 C 1227.3446,249.27721 1229.6741,252.08971 1230.069,252.08971 z M 897.07472,310.64839 C 894.53773,311.23694 894.36395,311.0324 893.71302,306.69165 C 893.33548,304.17409 893.27146,301.47618 893.57073,300.69629 C 893.87,299.9164 895.49864,298.97437 897.18993,298.6029 C 898.88122,298.23143 902.94395,296.13857 906.21824,293.95209 C 909.49252,291.7656 913.53914,288.24984 915.21074,286.13928 C 916.88233,284.02872 918.25,282.02916 918.25,281.69581 C 918.25,281.36245 913.75,281.08971 908.25,281.08971 L 898.25,281.08971 L 898.25,262.58971 L 898.25,244.08971 L 913.25,244.08971 L 928.25,244.08971 L 928.25,238.58971 L 928.25,233.08971 L 910.75,233.08971 L 893.25,233.08971 L 893.25,227.58971 L 893.25,222.08971 L 910.75,222.08971 L 928.25,222.08971 L 928.25,217.08971 L 928.25,212.08971 L 934.25,212.08971 L 940.25,212.08971 L 940.25,217.08971 L 940.25,222.08971 L 958.25,222.08971 L 976.25,222.08971 L 976.25,227.58971 L 976.25,233.08971 L 958.25,233.08971 L 940.25,233.08971 L 940.25,238.58971 L 940.25,244.08971 L 955.75,244.08971 L 971.25,244.08971 L 971.25,262.55588 L 971.25,281.02205 L 960.5,281.30588 L 949.75,281.58971 L 955.75,287.64942 C 959.33839,291.27351 964.31202,294.98428 968.12421,296.88167 C 971.63002,298.62657 974.78002,299.87889 975.12421,299.66461 C 975.46839,299.45032 975.59619,301.95999 975.40819,305.24164 L 975.06638,311.20829 L 971.90819,310.54509 C 970.17119,310.18034 965.98674,308.57917 962.60942,306.98694 C 959.2321,305.39472 954.09107,301.95417 951.1849,299.34127 C 948.27873,296.72837 944.62949,292.83534 943.07548,290.69009 L 940.25,286.78963 L 940.25,298.93967 L 940.25,311.08971 L 934.25,311.08971 L 928.25,311.08971 L 928.25,300.12419 L 928.25,289.15868 L 921.42618,295.98249 C 916.64084,300.76784 912.38395,303.88494 907.17618,306.41704 C 903.09178,308.40294 898.54612,310.30705 897.07472,310.64839 z M 918.75,270.08971 L 928.25,270.08971 L 928.25,262.58971 L 928.25,255.08971 L 918.75,255.08971 L 909.25,255.08971 L 909.25,262.58971 L 909.25,270.08971 L 918.75,270.08971 z M 949.75,270.08971 L 959.25,270.08971 L 959.25,262.58971 L 959.25,255.08971 L 949.75,255.08971 L 940.25,255.08971 L 940.25,262.58971 L 940.25,270.08971 L 949.75,270.08971 z M 1078.75,311.08971 L 1044.25,311.08971 L 1044.25,277.08971 L 1044.25,243.08971 L 1058.75,243.08971 L 1073.25,243.08971 L 1073.25,238.08971 L 1073.25,233.08971 L 1054.75,233.08971 L 1036.25,233.08971 L 1036.25,227.58971 L 1036.25,222.08971 L 1045.75,222.08971 L 1055.25,222.08971 L 1055.25,217.08971 L 1055.25,212.08971 L 1060.75,212.08971 L 1066.25,212.08971 L 1066.25,217.08971 L 1066.25,222.08971 L 1079.25,222.08971 L 1092.25,222.08971 L 1092.25,217.08971 L 1092.25,212.08971 L 1097.75,212.08971 L 1103.25,212.08971 L 1103.25,217.08971 L 1103.25,222.08971 L 1112.25,222.08971 L 1121.25,222.08971 L 1121.25,227.58971 L 1121.25,233.08971 L 1102.75,233.08971 L 1084.25,233.08971 L 1084.25,238.08971 L 1084.25,243.08971 L 1098.75,243.08971 L 1113.25,243.08971 L 1113.25,277.08971 L 1113.25,311.08971 L 1078.75,311.08971 z M 1078.75,300.08971 L 1102.25,300.08971 L 1102.25,296.08971 L 1102.25,292.08971 L 1078.75,292.08971 L 1055.25,292.08971 L 1055.25,296.08971 L 1055.25,300.08971 L 1078.75,300.08971 z M 1078.75,281.08971 L 1102.25,281.08971 L 1102.25,277.08971 L 1102.25,273.08971 L 1078.75,273.08971 L 1055.25,273.08971 L 1055.25,277.08971 L 1055.25,281.08971 L 1078.75,281.08971 z M 1078.75,262.08971 L 1102.25,262.08971 L 1102.25,258.08971 L 1102.25,254.08971 L 1078.75,254.08971 L 1055.25,254.08971 L 1055.25,258.08971 L 1055.25,262.08971 L 1078.75,262.08971 z M 776.75,274.08971 L 735.25,274.08971 L 735.25,256.08971 L 735.25,238.08971 L 776.75,238.08971 L 818.25,238.08971 L 818.25,256.08971 L 818.25,274.08971 L 776.75,274.08971 z M 776.75,263.08971 L 806.25,263.08971 L 806.25,256.08971 L 806.25,249.08971 L 776.75,249.08971 L 747.25,249.08971 L 747.25,256.08971 L 747.25,263.08971 L 776.75,263.08971 z M 881.98713,232.34153 L 879.75,237.09334 L 871.11916,230.68883 C 866.37219,227.16635 862.19716,223.81322 861.8413,223.23743 C 861.48544,222.66164 862.42171,219.99212 863.9219,217.30515 L 866.64951,212.41976 L 872.69976,217.32303 C 876.02739,220.01983 879.9875,222.9676 881.5,223.87362 C 883.0125,224.77964 884.24421,225.9864 884.23713,226.55532 C 884.23006,227.12423 883.21756,229.72803 881.98713,232.34153 z M 1022.8537,234.68279 C 1022.7966,234.73398 1019.15,232.61264 1014.75,229.9687 C 1010.35,227.32475 1006.1876,225.14537 1005.5003,225.12562 C 1004.6925,225.10241 1005.2228,223.3269 1007.0003,220.10412 C 1008.5126,217.36204 1010.0452,215.11204 1010.406,215.10412 C 1010.7668,215.09619 1014.9497,217.37788 1019.7013,220.17453 L 1028.3406,225.25934 L 1025.649,229.92453 C 1024.1686,232.49038 1022.9107,234.6316 1022.8537,234.68279 z M 776.75,234.08971 L 719.25,234.08971 L 719.25,228.58971 L 719.25,223.08971 L 745.25,223.08971 L 771.25,223.08971 L 771.25,217.58971 L 771.25,212.08971 L 776.75,212.08971 L 782.25,212.08971 L 782.25,217.58971 L 782.25,223.08971 L 808.25,223.08971 L 834.25,223.08971 L 834.25,228.58971 L 834.25,234.08971 L 776.75,234.08971 z "
       id="path2271" />
  </g>
</svg>
