<?xml version="1.0" encoding="UTF-8" standalone="no"?>
<!-- Created with Inkscape (http://www.inkscape.org/) -->

<svg
   xmlns:dc="http://purl.org/dc/elements/1.1/"
   xmlns:cc="http://creativecommons.org/ns#"
   xmlns:rdf="http://www.w3.org/1999/02/22-rdf-syntax-ns#"
   xmlns:svg="http://www.w3.org/2000/svg"
   xmlns="http://www.w3.org/2000/svg"
   xmlns:sodipodi="http://sodipodi.sourceforge.net/DTD/sodipodi-0.dtd"
   xmlns:inkscape="http://www.inkscape.org/namespaces/inkscape"
   width="157.95345mm"
   height="174.61447mm"
   viewBox="0 0 157.95344 174.61447"
   version="1.1"
   id="svg8"
   inkscape:version="0.92.4 (5da689c313, 2019-01-14)"
   sodipodi:docname="Cambodia_road_sign_P1-10.svg">
  <defs
     id="defs2">
    <path
       id="Oct"
       d="M 500,-207.10678 V 207.10678 L 207.10678,500 H -207.10678 L -500,207.10678 V -207.10678 L -207.10678,-500 h 414.21356 z"
       inkscape:connector-curvature="0" />
    <marker
       id="DefaultArrow2"
       markerUnits="strokeWidth"
       viewBox="0 0 1 1"
       markerWidth="1"
       markerHeight="1"
       overflow="visible"
       orient="auto"
       style="overflow:visible">
      <!-- REF_ARROW_STRAIGHT (-2) -->
      <g
         transform="scale(0.00925926)"
         id="g7">
        <!-- 1/108 -->
        <path
           d="M -9,54 V -54 L 117,0 Z"
           id="path9"
           inkscape:connector-curvature="0" />
      </g>
    </marker>
    <marker
       id="DefaultArrow3"
       markerUnits="strokeWidth"
       viewBox="0 0 1 1"
       markerWidth="1"
       markerHeight="1"
       overflow="visible"
       orient="auto"
       style="overflow:visible">
      <!-- REF_ARROW_ANGLED -->
      <g
         transform="scale(0.00925926)"
         id="g12">
        <path
           d="M -27,54 -9,0 -27,-54 135,0 Z"
           id="path14"
           inkscape:connector-curvature="0" />
      </g>
    </marker>
    <marker
       id="DefaultArrow4"
       markerUnits="strokeWidth"
       viewBox="0 0 1 1"
       markerWidth="1"
       markerHeight="1"
       overflow="visible"
       orient="auto"
       style="overflow:visible">
      <!-- REF_ARROW_ROUNDED -->
      <g
         transform="scale(0.00925926)"
         id="g17">
        <path
           d="m -9,0 v -45 c 0,-6.708 11.808,-11.58 18,-9 l 108,45 c 3.916,1.631 9,4.758 9,9 0,4.242 -5.084,7.369 -9,9 L 9,54 C 2.808,56.58 -9,51.708 -9,45 Z"
           id="path19"
           inkscape:connector-curvature="0" />
      </g>
    </marker>
    <marker
       id="DefaultArrow5"
       markerUnits="strokeWidth"
       viewBox="0 0 1 1"
       markerWidth="1"
       markerHeight="1"
       overflow="visible"
       orient="auto"
       style="overflow:visible">
      <!-- REF_ARROW_SPOT -->
      <g
         transform="scale(0.00925926)"
         id="g22">
        <path
           d="M -54,0 C -54,29.807 -29.807,54 0,54 29.807,54 54,29.807 54,0 54,-29.807 29.807,-54 0,-54 -29.807,-54 -54,-29.807 -54,0 Z"
           id="path24"
           inkscape:connector-curvature="0" />
      </g>
    </marker>
    <marker
       id="DefaultArrow6"
       markerUnits="strokeWidth"
       viewBox="0 0 1 1"
       markerWidth="1"
       markerHeight="1"
       overflow="visible"
       orient="auto"
       style="overflow:visible">
      <!-- REF_ARROW_DIAMOND -->
      <g
         transform="scale(0.00925926)"
         id="g27">
        <path
           d="M -63,0 0,63 63,0 0,-63 Z"
           id="path29"
           inkscape:connector-curvature="0" />
      </g>
    </marker>
    <marker
       id="DefaultArrow7"
       markerUnits="strokeWidth"
       viewBox="0 0 1 1"
       markerWidth="1"
       markerHeight="1"
       overflow="visible"
       orient="auto"
       style="overflow:visible">
      <!-- REF_ARROW_FEATHER -->
      <g
         transform="scale(0.00925926)"
         id="g32">
        <path
           d="m 18,-54 h 90 L 63,0 108,54 H 18 L -36,0 Z"
           id="path34"
           inkscape:connector-curvature="0" />
      </g>
    </marker>
    <marker
       id="DefaultArrow8"
       markerUnits="strokeWidth"
       viewBox="0 0 1 1"
       markerWidth="1"
       markerHeight="1"
       overflow="visible"
       orient="auto"
       style="overflow:visible">
      <!-- REF_ARROW_FEATHER2 -->
      <g
         transform="scale(0.00925926)"
         id="g37">
        <path
           d="m -36,0 54,-54 h 36 l -36,36 h 9 l 36,-36 h 36 l -36,36 h 9 l 36,-36 h 36 L 90,0 144,54 H 108 L 72,18 H 63 L 99,54 H 63 L 27,18 H 18 L 54,54 H 18 Z"
           id="path39"
           inkscape:connector-curvature="0" />
      </g>
    </marker>
    <marker
       id="DefaultArrow9"
       markerUnits="strokeWidth"
       viewBox="0 0 1 1"
       markerWidth="1"
       markerHeight="1"
       overflow="visible"
       orient="auto"
       style="overflow:visible">
      <!-- REF_ARROW_HOLLOWDIAMOND -->
      <g
         transform="scale(0.00925926)"
         id="g42">
        <path
           d="M 0,45 -45,0 0,-45 45,0 Z M 0,63 -63,0 0,-63 63,0 Z"
           id="path44"
           inkscape:connector-curvature="0" />
      </g>
    </marker>
    <filter
       id="StainedFilter"
       style="color-interpolation-filters:sRGB">
      <feBlend
         mode="multiply"
         in2="BackgroundImage"
         in="SourceGraphic"
         result="blend"
         id="feBlend47" />
      <feComposite
         in="blend"
         in2="SourceAlpha"
         operator="in"
         result="comp"
         id="feComposite49" />
    </filter>
    <filter
       id="BleachFilter"
       style="color-interpolation-filters:sRGB">
      <feBlend
         mode="screen"
         in2="BackgroundImage"
         in="SourceGraphic"
         result="blend"
         id="feBlend52" />
      <feComposite
         in="blend"
         in2="SourceAlpha"
         operator="in"
         result="comp"
         id="feComposite54" />
    </filter>
    <filter
       id="InvertTransparencyBitmapFilter"
       style="color-interpolation-filters:sRGB">
      <feComponentTransfer
         id="feComponentTransfer57">
        <feFuncR
           type="gamma"
           amplitude="1.055"
           exponent=".416666666"
           offset="-0.055"
           id="feFuncR59" />
        <feFuncG
           type="gamma"
           amplitude="1.055"
           exponent=".416666666"
           offset="-0.055"
           id="feFuncG61" />
        <feFuncB
           type="gamma"
           amplitude="1.055"
           exponent=".416666666"
           offset="-0.055"
           id="feFuncB63" />
      </feComponentTransfer>
      <feComponentTransfer
         id="feComponentTransfer65">
        <feFuncR
           type="linear"
           slope="-1"
           intercept="1"
           id="feFuncR67" />
        <feFuncG
           type="linear"
           slope="-1"
           intercept="1"
           id="feFuncG69" />
        <feFuncB
           type="linear"
           slope="-1"
           intercept="1"
           id="feFuncB71" />
        <feFuncA
           type="linear"
           slope="1"
           intercept="0"
           id="feFuncA73" />
      </feComponentTransfer>
      <feComponentTransfer
         id="feComponentTransfer75">
        <feFuncR
           type="gamma"
           amplitude="1"
           exponent="2.4"
           offset="0"
           id="feFuncR77" />
        <feFuncG
           type="gamma"
           amplitude="1"
           exponent="2.4"
           offset="0"
           id="feFuncG79" />
        <feFuncB
           type="gamma"
           amplitude="1"
           exponent="2.4"
           offset="0"
           id="feFuncB81" />
      </feComponentTransfer>
    </filter>
    <path
       inkscape:connector-curvature="0"
       d="M 500,-207.10678 V 207.10678 L 207.10678,500 H -207.10678 L -500,207.10678 V -207.10678 L -207.10678,-500 h 414.21356 z"
       id="Oct-9" />
    <path
       inkscape:connector-curvature="0"
       d="M 500,-207.10678 V 207.10678 L 207.10678,500 H -207.10678 L -500,207.10678 V -207.10678 L -207.10678,-500 h 414.21356 z"
       id="Oct-8" />
  </defs>
  <sodipodi:namedview
     id="base"
     pagecolor="#ffffff"
     bordercolor="#666666"
     borderopacity="1.0"
     inkscape:pageopacity="0.0"
     inkscape:pageshadow="2"
     inkscape:zoom="0.64246298"
     inkscape:cx="298.49469"
     inkscape:cy="285.95534"
     inkscape:document-units="mm"
     inkscape:current-layer="g5029"
     showgrid="false"
     inkscape:measure-start="0,0"
     inkscape:measure-end="0,0"
     inkscape:window-width="1920"
     inkscape:window-height="1017"
     inkscape:window-x="-8"
     inkscape:window-y="-8"
     inkscape:window-maximized="1" />
  <metadata
     id="metadata5">
    <rdf:RDF>
      <cc:Work
         rdf:about="">
        <dc:format>image/svg+xml</dc:format>
        <dc:type
           rdf:resource="http://purl.org/dc/dcmitype/StillImage" />
        <dc:title />
      </cc:Work>
    </rdf:RDF>
  </metadata>
  <g
     inkscape:label="Layer 1"
     inkscape:groupmode="layer"
     id="layer1"
     transform="translate(91.071876,-147.30807)">
    <path
       id="rect4545"
       transform="matrix(0.26458333,0,0,0.26458333,-94.259201,144.17513)"
       style="fill:#ffffff;fill-opacity:1;stroke:#000000;stroke-width:3.2692914;stroke-miterlimit:4;stroke-dasharray:none;stroke-opacity:1"
       d="m 115.88086,509.41992 -40.406102,12.04101 356.365862,0.50508 91.41881,-42.34559 -43.87794,-1.2252 z"
       inkscape:connector-curvature="0"
       sodipodi:nodetypes="cccccc" />
    <path
       sodipodi:nodetypes="cccccczcc"
       inkscape:connector-curvature="0"
       d="m -63.461199,191.42859 v 0 l -0.038,4.00904 85.276163,-5e-5 10.167369,-4.65151 v 0 c 0,0 -1.168436,-42.3257 -45.735577,-43.26115 -44.567142,-0.93544 -49.669957,43.90367 -49.669957,43.90367 z"
       style="fill:#ed1c24;fill-opacity:1;fill-rule:evenodd;stroke:#000000;stroke-width:0.40487695;stroke-opacity:1"
       id="path833" />
    <path
       id="rect824"
       transform="scale(0.26458333)"
       style="fill:#ed1c24;fill-opacity:1;fill-rule:evenodd;stroke:#000000;stroke-width:1.00157475;stroke-miterlimit:4;stroke-dasharray:none;stroke-opacity:1"
       d="m -239.61873,738.99037 v 0 l -6.1e-4,-0.32793 321.925981,-0.32844 v 0 l 37.902299,-17.3121 v 0 l -37.902299,17.63981 v 0 c 0,0 9.869582,-153.54261 -158.573159,-157.07814 -168.442742,-3.53552 -163.352212,157.4068 -163.352212,157.4068 z"
       inkscape:connector-curvature="0"
       sodipodi:nodetypes="ccccccccczc" />
    <path
       id="rect3731"
       transform="matrix(0.26458333,0,0,0.26458333,-94.259201,144.17513)"
       style="fill:#ffffff;fill-opacity:1;stroke:#000000;stroke-width:1.75748038;stroke-miterlimit:4;stroke-dasharray:none;stroke-opacity:1"
       d="m 115.88086,193.74805 v 315.67187 h 321.06055 l 38.25507,-18.01129 1.79325,-315.2413 -40.04832,17.58072 z"
       inkscape:connector-curvature="0"
       sodipodi:nodetypes="ccccccc" />
    <path
       id="rect835"
       transform="scale(0.26458333)"
       style="fill:#000000;fill-opacity:1;fill-rule:evenodd;stroke:none;stroke-width:1.28841746;stroke-opacity:1"
       d="M 80.685547,737.04688 V 1054.334 h 1.621094 V 737.04688 Z"
       inkscape:connector-curvature="0"
       sodipodi:nodetypes="ccccc" />
    <path
       id="rect4560"
       transform="matrix(0.26458333,0,0,0.26458333,-94.259201,144.17513)"
       style="fill:#ffffff;fill-opacity:1;stroke:#000000;stroke-width:3.2692914;stroke-miterlimit:4;stroke-dasharray:none;stroke-opacity:1"
       d="m 75.474609,521.46094 v 32.32422 H 433.35547 v -32.32422 z"
       inkscape:connector-curvature="0"
       sodipodi:nodetypes="ccccc" />
    <path
       id="rect4569"
       transform="matrix(0.26458333,0,0,0.26458333,-94.259201,144.17513)"
       style="fill:#ffffff;fill-opacity:1;stroke:#000000;stroke-width:3.2692914;stroke-miterlimit:4;stroke-dasharray:none;stroke-opacity:1"
       d="m 433.35547,553.78516 v -32.32422 l 89.90396,-41.84052 3.4e-4,32.32555 z"
       inkscape:connector-curvature="0"
       sodipodi:nodetypes="ccccc" />
    <path
       id="rect4578"
       transform="matrix(0.26458333,0,0,0.26458333,-94.259201,144.17513)"
       style="fill:#ffffff;fill-opacity:1;stroke:#000000;stroke-width:3.2692914;stroke-miterlimit:4;stroke-dasharray:none;stroke-opacity:1"
       d="M 75.474609,553.78516 14.760322,670.13421 495,664.41992 433.35547,553.78516 Z"
       inkscape:connector-curvature="0"
       sodipodi:nodetypes="ccccc" />
    <path
       id="rect4587"
       transform="matrix(0.26458333,0,0,0.26458333,-94.259201,144.17513)"
       style="fill:#ffffff;fill-opacity:1;stroke:#000000;stroke-width:3.2692914;stroke-miterlimit:4;stroke-dasharray:none;stroke-opacity:1"
       d="M 433.35547,553.78516 495,664.41992 l 111.42773,-65 -83.16796,-87.47395 z"
       inkscape:connector-curvature="0"
       sodipodi:nodetypes="ccccc" />
    <g
       aria-label="Prey Toteung"
       style="font-style:normal;font-variant:normal;font-weight:normal;font-stretch:normal;font-size:10.90058613px;line-height:1.25;font-family:'Arial Black';-inkscape-font-specification:'Arial Black, ';letter-spacing:0px;word-spacing:0px;fill:#000000;fill-opacity:1;stroke:none;stroke-width:0.27251461"
       id="text4857"
       transform="translate(-165.62964,-3.0994048)">
      <path
         d="m 105.48643,232.86985 h 4.00788 q 1.30935,0 1.9587,0.62274 0.65467,0.62274 0.65467,1.77241 0,1.18161 -0.71322,1.84693 -0.7079,0.66532 -2.16628,0.66532 h -1.31999 v 2.89546 h -2.42176 z m 2.42176,3.3266 h 0.5908 q 0.69726,0 0.97935,-0.23952 0.2821,-0.24483 0.2821,-0.62274 0,-0.36725 -0.24484,-0.62273 -0.24484,-0.25549 -0.9208,-0.25549 h -0.68661 z"
         style="stroke-width:0.27251461"
         id="path4859"
         inkscape:connector-curvature="0" />
      <path
         d="m 113.25203,235.02016 h 2.0279 v 0.92613 q 0.29274,-0.60145 0.60144,-0.825 0.31403,-0.22887 0.77177,-0.22887 0.47903,0 1.04855,0.29807 l -0.67065,1.54354 q -0.38322,-0.15968 -0.60677,-0.15968 -0.4258,0 -0.65999,0.35129 -0.33532,0.495 -0.33532,1.85225 v 1.89482 h -2.17693 z"
         style="stroke-width:0.27251461"
         id="path4861"
         inkscape:connector-curvature="0" />
      <path
         d="m 124.50923,238.38402 h -4.3432 q 0.0585,0.52161 0.28209,0.77709 0.31403,0.36726 0.81968,0.36726 0.31935,0 0.60677,-0.15968 0.17564,-0.10113 0.3779,-0.35661 l 2.13434,0.19693 q -0.48967,0.85161 -1.18161,1.22419 -0.69193,0.36726 -1.98531,0.36726 -1.12306,0 -1.76708,-0.31404 -0.64403,-0.31935 -1.06984,-1.00596 -0.42048,-0.69193 -0.42048,-1.62338 0,-1.32531 0.84629,-2.14498 0.85161,-0.81968 2.34724,-0.81968 1.21354,0 1.91612,0.36726 0.70258,0.36726 1.06983,1.06451 0.36726,0.69725 0.36726,1.81499 z m -2.20354,-1.0379 q -0.0639,-0.62806 -0.34064,-0.89951 -0.27145,-0.27145 -0.71854,-0.27145 -0.51629,0 -0.825,0.40983 -0.19693,0.25549 -0.25016,0.76113 z"
         style="stroke-width:0.27251461"
         id="path4863"
         inkscape:connector-curvature="0" />
      <path
         d="m 124.88713,235.02016 h 2.2887 l 1.16564,3.76305 1.08048,-3.76305 h 2.13434 l -2.24079,6.0411 q -0.38323,1.03258 -0.78242,1.39451 -0.56419,0.51096 -1.71918,0.51096 -0.46839,0 -1.44774,-0.12774 l -0.17032,-1.5116 q 0.46838,0.14903 1.04322,0.14903 0.38322,0 0.61742,-0.17564 0.23951,-0.17565 0.40451,-0.62807 z"
         style="stroke-width:0.27251461"
         id="path4865"
         inkscape:connector-curvature="0" />
      <path
         d="m 135.41514,232.86985 h 7.32915 v 1.92677 h -2.45902 v 5.87609 h -2.41111 v -5.87609 h -2.45902 z"
         style="stroke-width:0.27251461"
         id="path4867"
         inkscape:connector-curvature="0" />
      <path
         d="m 142.68575,237.86241 q 0,-1.29338 0.87289,-2.12902 0.8729,-0.84097 2.35789,-0.84097 1.6979,0 2.56547,0.98468 0.69726,0.79306 0.69726,1.95337 0,1.30403 -0.86758,2.13967 -0.86225,0.83032 -2.38982,0.83032 -1.36258,0 -2.20354,-0.69194 -1.03257,-0.85693 -1.03257,-2.24611 z m 2.1716,-0.005 q 0,0.75581 0.30338,1.11774 0.30871,0.36193 0.77177,0.36193 0.46839,0 0.76645,-0.35661 0.30339,-0.35661 0.30339,-1.14435 0,-0.73451 -0.30339,-1.09112 -0.30339,-0.36193 -0.75048,-0.36193 -0.47371,0 -0.78242,0.36725 -0.3087,0.36194 -0.3087,1.10709 z"
         style="stroke-width:0.27251461"
         id="path4869"
         inkscape:connector-curvature="0" />
      <path
         d="m 152.8465,232.86985 v 2.15031 h 1.19225 v 1.5808 h -1.19225 v 2.0066 q 0,0.36194 0.0692,0.47903 0.10645,0.18097 0.37258,0.18097 0.23951,0 0.67064,-0.13839 l 0.15968,1.49564 q -0.80371,0.17565 -1.50096,0.17565 -0.80903,0 -1.19226,-0.20758 -0.38322,-0.20758 -0.56951,-0.62807 -0.18097,-0.4258 -0.18097,-1.37321 v -1.99064 h -0.79838 v -1.5808 h 0.79838 v -1.03789 z"
         style="stroke-width:0.27251461"
         id="path4871"
         inkscape:connector-curvature="0" />
      <path
         d="m 161.34129,238.38402 h -4.3432 q 0.0585,0.52161 0.28209,0.77709 0.31403,0.36726 0.81968,0.36726 0.31935,0 0.60677,-0.15968 0.17564,-0.10113 0.3779,-0.35661 l 2.13434,0.19693 q -0.48967,0.85161 -1.18161,1.22419 -0.69193,0.36726 -1.98531,0.36726 -1.12306,0 -1.76708,-0.31404 -0.64403,-0.31935 -1.06984,-1.00596 -0.42048,-0.69193 -0.42048,-1.62338 0,-1.32531 0.84629,-2.14498 0.85161,-0.81968 2.34724,-0.81968 1.21354,0 1.91612,0.36726 0.70258,0.36726 1.06983,1.06451 0.36726,0.69725 0.36726,1.81499 z m -2.20354,-1.0379 q -0.0639,-0.62806 -0.34064,-0.89951 -0.27145,-0.27145 -0.71854,-0.27145 -0.51629,0 -0.825,0.40983 -0.19693,0.25549 -0.25016,0.76113 z"
         style="stroke-width:0.27251461"
         id="path4873"
         inkscape:connector-curvature="0" />
      <path
         d="m 168.30319,240.67271 h -2.02257 v -0.91547 q -0.45242,0.56419 -0.91548,0.8037 -0.45774,0.23952 -1.12838,0.23952 -0.89419,0 -1.40516,-0.53226 -0.50564,-0.53758 -0.50564,-1.64999 v -3.59805 h 2.17692 v 3.10837 q 0,0.53226 0.19694,0.75581 0.19693,0.22354 0.55354,0.22354 0.38855,0 0.63339,-0.29806 0.25016,-0.29806 0.25016,-1.06983 v -2.71983 h 2.16628 z"
         style="stroke-width:0.27251461"
         id="path4875"
         inkscape:connector-curvature="0" />
      <path
         d="m 169.62851,235.02016 h 2.01724 v 0.92081 q 0.45242,-0.56419 0.91548,-0.80371 0.46306,-0.24484 1.12838,-0.24484 0.89951,0 1.40516,0.53758 0.51096,0.53226 0.51096,1.64999 v 3.59272 h -2.17692 v -3.10837 q 0,-0.53225 -0.19694,-0.75048 -0.19693,-0.22354 -0.55354,-0.22354 -0.39387,0 -0.63871,0.29806 -0.24484,0.29806 -0.24484,1.06983 v 2.7145 h -2.16627 z"
         style="stroke-width:0.27251461"
         id="path4877"
         inkscape:connector-curvature="0" />
      <path
         d="m 180.84312,235.02016 h 2.02789 v 5.33852 l 0.005,0.25016 q 0,0.53226 -0.22887,1.01129 -0.22355,0.48435 -0.60145,0.78241 -0.37258,0.29807 -0.95274,0.43113 -0.57483,0.13306 -1.31999,0.13306 -1.70322,0 -2.34192,-0.51096 -0.63339,-0.51097 -0.63339,-1.3679 0,-0.10645 0.0106,-0.28741 l 2.1024,0.23951 q 0.0798,0.29274 0.24484,0.40451 0.23952,0.165 0.60145,0.165 0.46838,0 0.69725,-0.25016 0.2342,-0.25016 0.2342,-0.8729 v -0.85693 q -0.31936,0.37791 -0.63871,0.54823 -0.50032,0.26612 -1.08048,0.26612 -1.1337,0 -1.83096,-0.98999 -0.49499,-0.70258 -0.49499,-1.85757 0,-1.31999 0.6387,-2.01193 0.63871,-0.69193 1.67128,-0.69193 0.66,0 1.08581,0.22355 0.43112,0.22355 0.8037,0.73983 z m -2.03854,2.74112 q 0,0.61209 0.26081,0.91015 0.2608,0.29275 0.68661,0.29275 0.40451,0 0.67596,-0.30339 0.27677,-0.30871 0.27677,-0.92612 0,-0.61742 -0.28741,-0.9421 -0.28742,-0.32999 -0.70258,-0.32999 -0.41516,0 -0.66532,0.30338 -0.24484,0.29806 -0.24484,0.99532 z"
         style="stroke-width:0.27251461"
         id="path4879"
         inkscape:connector-curvature="0" />
    </g>
    <g
       aria-label="25 Km"
       transform="matrix(1,-0.00683852,0,1,-165.62964,-1.5875)"
       style="font-style:normal;font-variant:normal;font-weight:normal;font-stretch:normal;font-size:16.16628265px;line-height:1.25;font-family:'Arial Black';-inkscape-font-specification:'Arial Black, ';letter-spacing:0px;word-spacing:0px;fill:#000000;fill-opacity:1;stroke:none;stroke-width:0.40415704"
       id="text4884">
      <path
         d="m 126.19868,264.00223 h -9.64609 q 0.16576,-1.42876 1.0025,-2.68386 0.84462,-1.26299 3.15747,-2.97592 1.41297,-1.04986 1.80766,-1.59453 0.39468,-0.54466 0.39468,-1.03407 0,-0.52888 -0.39468,-0.89988 -0.38679,-0.3789 -0.97882,-0.3789 -0.61571,0 -1.01039,0.38679 -0.38679,0.38679 -0.52099,1.36561 l -3.22062,-0.26049 q 0.18945,-1.35771 0.69464,-2.11551 0.5052,-0.76569 1.42087,-1.16827 0.92356,-0.41047 2.54966,-0.41047 1.69714,0 2.63649,0.38679 0.94725,0.38679 1.48402,1.19195 0.54466,0.79726 0.54466,1.79187 0,1.05775 -0.6236,2.02078 -0.61571,0.96303 -2.2497,2.11551 -0.97093,0.67097 -1.30246,0.93935 -0.32364,0.26839 -0.76569,0.70254 h 5.02039 z"
         style="stroke-width:0.40415704"
         id="path930"
         inkscape:connector-curvature="0" />
      <path
         d="m 128.89043,252.43007 h 7.6332 v 2.56545 h -5.17037 l -0.27628,1.73662 q 0.53677,-0.2526 1.05776,-0.3789 0.52887,-0.1263 1.04196,-0.1263 1.73662,0 2.81805,1.04986 1.08144,1.04986 1.08144,2.64439 0,1.1209 -0.56045,2.15498 -0.55256,1.03407 -1.57874,1.57874 -1.01829,0.54466 -2.61282,0.54466 -1.14458,0 -1.96552,-0.21313 -0.81305,-0.22102 -1.38929,-0.64728 -0.56835,-0.43416 -0.92357,-0.97882 -0.35521,-0.54467 -0.59202,-1.35772 l 3.2522,-0.35521 q 0.1184,0.78147 0.55256,1.19195 0.43415,0.40257 1.03407,0.40257 0.67096,0 1.10512,-0.50519 0.44204,-0.51309 0.44204,-1.52348 0,-1.03408 -0.44204,-1.51559 -0.44205,-0.48152 -1.17616,-0.48152 -0.46573,0 -0.89988,0.22892 -0.32365,0.16577 -0.71044,0.59992 l -2.73911,-0.39469 z"
         style="stroke-width:0.40415704"
         id="path932"
         inkscape:connector-curvature="0" />
      <path
         d="m 144.3226,252.43007 h 3.57584 v 4.37311 l 3.74951,-4.37311 h 4.752 l -4.21523,4.36522 4.40468,7.20694 h -4.40468 l -2.43915,-4.7599 -1.84713,1.93396 v 2.82594 h -3.57584 z"
         style="stroke-width:0.40415704"
         id="path934"
         inkscape:connector-curvature="0" />
      <path
         d="m 157.59979,255.61913 h 2.9996 v 1.22352 q 0.64728,-0.76569 1.30246,-1.08933 0.66307,-0.32364 1.59453,-0.32364 1.0025,0 1.58663,0.35521 0.58413,0.35522 0.95514,1.05776 0.75779,-0.82095 1.38139,-1.11301 0.6236,-0.29996 1.53927,-0.29996 1.34982,0 2.10762,0.80515 0.75779,0.79727 0.75779,2.5023 v 5.2651 h -3.22062 v -4.77569 q 0,-0.56834 -0.22103,-0.84462 -0.32364,-0.43415 -0.80515,-0.43415 -0.56835,0 -0.91567,0.41047 -0.34733,0.41047 -0.34733,1.31824 v 4.32575 h -3.22062 v -4.61781 q 0,-0.55256 -0.0631,-0.7499 -0.10262,-0.31575 -0.35522,-0.5052 -0.2526,-0.19734 -0.59202,-0.19734 -0.55256,0 -0.90778,0.41836 -0.35522,0.41837 -0.35522,1.37351 v 4.27838 h -3.22062 z"
         style="stroke-width:0.40415704"
         id="path936"
         inkscape:connector-curvature="0" />
    </g>
    <g
       id="g5029"
       transform="matrix(0.07675202,0,0,0.07675202,-36.195414,162.36023)">
      <g
         transform="matrix(0.99421809,0,0,1,14.703078,0.23655264)"
         id="g2045"
         style="stroke:#000000;stroke-opacity:1">
        <path
           inkscape:connector-curvature="0"
           id="path2047"
           style="fill:#ffffff;fill-rule:evenodd;stroke:none;stroke-opacity:1"
           d="M 192,0.003418 C 177.13184,14.054688 157.07227,22.669922 135,22.669922 112.92676,22.669922 92.868164,14.052246 78,0 L 0,80.771484 c 19.416016,14.393067 32,37.479006 32,63.504396 0,16.48779 -5.051758,31.79736 -13.690918,44.46289 C 6.793457,205.58789 0,226.05078 0,248 c 0,57.78711 46.680176,104.66992 104.39014,104.99805 33.27832,0 63.58545,11.61133 87.60986,31.00195 24.02344,-19.39062 54.33203,-31.00195 87.60938,-31.00195 C 337.31934,352.66992 384,305.78711 384,248 384,226.05078 377.20703,205.58789 365.69043,188.73877 357.05078,176.07324 352,160.76367 352,144.27588 352,118.25049 364.58398,95.164551 384,80.771484 L 306,0 c -14.86816,14.052246 -34.92773,22.669922 -57,22.669922 -22.07227,0 -42.13281,-8.615234 -57,-22.666504 z" />
      </g>
      <g
         id="g2051"
         style="stroke:none;stroke-opacity:1"
         transform="translate(13.788996)">
        <path
           id="path2053"
           style="fill-rule:evenodd;stroke:none;stroke-opacity:1"
           d="m 303.87109,28.027344 50.36719,52.155761 C 339.74805,97.525391 331,119.88574 331,144.27588 c 0,20.84326 6.40527,40.26269 17.34766,56.3042 C 357.56543,214.06836 363,230.43164 363,248 c 0,46.22949 -37.34375,83.73633 -83.50977,83.99902 C 247.12109,332.02148 217.1582,341.61621 192,358.06055 166.81104,341.5957 136.80469,331.99805 104.39014,331.99805 58.279785,331.67285 21,294.19043 21,248 21,230.43262 26.434082,214.06836 35.652344,200.58008 46.594238,184.53857 53,165.11914 53,144.27588 53,119.88525 44.251953,97.525391 29.761231,80.183106 L 80.12793,28.027344 C 96.056152,37.936523 114.87451,43.669922 135,43.669922 c 21.02832,0 40.62988,-6.258789 57,-17 16.36914,10.741211 35.97168,17 57,17 20.125,0 38.94336,-5.733399 54.87109,-15.642578 z M 249,31.669922 c 21.25488,0 40.83789,-7.217773 56.41211,-19.322266 l 65.40234,67.726563 C 353.70605,96.120117 343,118.94775 343,144.27588 c 0,18.35449 5.63086,35.42529 15.25781,49.5376 C 368.78906,209.22266 375,227.92773 375,248 c 0,52.83398 -42.67969,95.69922 -95.44141,95.99805 C 246.71582,344.00977 216.57617,354.6543 192,372.65039 167.41064,354.64551 137.25244,343.99805 104.39014,343.99805 51.651367,343.67188 9,300.81641 9,248 9,227.92773 15.210938,209.22266 25.742188,193.81348 35.368164,179.70117 41,162.63037 41,144.27588 41,118.94775 30.293457,96.120117 13.18457,80.074219 L 78.587891,12.347656 C 94.162598,24.452148 113.74463,31.669922 135,31.669922 c 21.52197,0 41.33105,-7.398926 57,-19.780273 15.66992,12.381347 35.47754,19.780273 57,19.780273 z"
           inkscape:connector-curvature="0" />
      </g>
      <rect
         ry="0"
         y="67.533745"
         x="286.69324"
         height="0"
         width="0"
         id="rect4615"
         style="fill:#ffffff" />
      <rect
         ry="0"
         y="146.84663"
         x="147.6319"
         height="0"
         width="14.202519"
         id="rect4634"
         style="fill:#ffffff" />
      <rect
         y="268.59348"
         x="148.08531"
         height="0"
         width="0.33192843"
         id="rect4636"
         style="fill:#ffffff" />
      <g
         aria-label="7"
         style="font-style:normal;font-variant:normal;font-weight:bold;font-stretch:normal;font-size:137.88996887px;line-height:1.25;font-family:Helvetica;-inkscape-font-specification:'Helvetica Bold';letter-spacing:0px;word-spacing:0px;fill:#000000;fill-opacity:1;stroke:none;stroke-width:3.44724917"
         id="text5047"
         transform="matrix(2.0754717,0,0,2.0754717,-886.88425,-76.424639)">
        <path
           d="M 493.52069,96.902807 V 79.329916 h 64.70325 v 13.735133 q -8.01216,7.877501 -16.29364,22.622571 -8.28148,14.74507 -12.65787,31.37536 -4.30906,16.56295 -4.24173,29.62479 h -18.24618 q 0.4713,-20.46804 8.41613,-41.74403 8.01216,-21.27599 21.34332,-38.040933 z"
           style="font-style:normal;font-variant:normal;font-weight:bold;font-stretch:normal;font-family:Helvetica;-inkscape-font-specification:'Helvetica Bold';stroke-width:3.44724917"
           id="path5049"
           inkscape:connector-curvature="0" />
      </g>
    </g>
    <path
       style="fill:#000000;stroke-width:0.01318215"
       d="m -35.934917,225.59296 c -1.386161,-0.11883 -2.694355,-0.69255 -4.020536,-1.76314 -1.107004,-0.8936 -1.712351,-1.55595 -1.838011,-2.01094 -0.0453,-0.16389 -0.0547,-0.14891 0.17909,-0.2825 0.410887,-0.23472 0.936894,-0.57097 1.230474,-0.78657 0.685014,-0.50307 1.029994,-1.00724 1.164134,-1.70125 0.0278,-0.1448 0.0282,-0.16001 0.0323,-2.40399 l 0.004,-2.25832 -0.0754,-0.10752 c -0.2985,-0.42554 -0.683967,-0.66643 -1.210424,-0.75643 -0.19579,-0.0336 -0.477827,-0.0379 -0.644297,-0.009 -0.320967,0.054 -0.770104,0.2304 -1.277001,0.50153 l -0.20762,0.11104 v -2.34825 -2.34824 l 0.0802,-0.0512 c 0.343167,-0.21882 0.982774,-0.75969 1.396201,-1.18055 0.29757,-0.30295 0.561767,-0.63479 0.719427,-0.90361 0.0133,-0.0229 0.0254,-0.0163 0.15162,0.0797 0.306967,0.23381 0.596624,0.40987 0.941214,0.57204 0.788554,0.37112 1.424001,0.42787 1.922248,0.17174 0.0495,-0.0256 0.0926,-0.0436 0.0959,-0.0403 0.01,0.0101 -0.12203,0.37852 -0.21409,0.59958 -0.503007,1.2077 -1.223961,1.80533 -2.128618,1.76442 -0.207587,-0.009 -0.419967,-0.0553 -0.739334,-0.15959 -0.29386,-0.0959 -0.416967,-0.12875 -0.559947,-0.1489 -0.496797,-0.0702 -0.996744,0.30101 -1.165024,0.86497 -0.015,0.0504 -0.025,0.0938 -0.0226,0.0965 0.004,0.004 0.0383,-0.0151 0.0795,-0.0394 0.355717,-0.21192 0.851474,-0.29055 1.690431,-0.26812 0.383997,0.0105 0.402207,0.0117 0.626167,0.0585 0.296157,0.0615 0.517217,0.14309 0.742914,0.27428 0.429527,0.2497 0.649817,0.6265 0.720317,1.23224 0.0104,0.0895 0.0133,1.10233 0.0101,3.53948 l -0.004,3.41415 -0.0343,0.11841 c -0.0447,0.15422 -0.11586,0.30346 -0.19971,0.41929 -0.0371,0.0512 -0.229777,0.25807 -0.428237,0.45975 -0.19842,0.20169 -0.366007,0.37628 -0.372377,0.38799 -0.0222,0.0405 0.678664,0.75343 1.122524,1.14224 0.275417,0.24125 0.560237,0.45964 0.790164,0.60587 0.434777,0.27652 1.023864,0.47502 1.686711,0.56828 0.257547,0.0364 0.353017,0.0432 0.725007,0.0528 0.456727,0.012 0.729914,8.4e-4 1.054564,-0.0419 0.564994,-0.0746 1.011844,-0.22396 1.369211,-0.4579 0.299217,-0.19588 0.516287,-0.54782 0.646437,-1.04808 0.0638,-0.24529 0.0655,-0.21977 -0.015,-0.22003 -0.0954,-6.3e-4 -0.32328,0.0302 -0.458337,0.0609 -0.13301,0.0306 -0.31493,0.0971 -0.457297,0.16751 -0.24765,0.12249 -0.37344,0.21177 -0.709307,0.50348 -0.412487,0.35826 -0.664457,0.51818 -0.814907,0.51718 -0.227787,-0.002 -0.600014,-0.16975 -1.037254,-0.46885 -0.319957,-0.21895 -0.524567,-0.43987 -0.582507,-0.62903 -0.0419,-0.13667 -0.0335,-0.32883 0.0218,-0.50259 0.0802,-0.25233 0.27961,-0.48547 0.580617,-0.6789 0.13333,-0.0856 0.461847,-0.22591 0.685447,-0.29263 0.332807,-0.0993 0.613867,-0.14011 1.016924,-0.14764 0.332997,-0.007 0.474487,0.003 0.716647,0.0479 0.815834,0.15037 1.462141,0.65508 1.720648,1.34362 0.10141,0.27012 0.14523,0.61475 0.12389,0.97401 -0.0492,0.82758 -0.390147,1.53473 -1.049084,2.17608 -0.697154,0.67857 -1.535431,1.06812 -2.588215,1.20274 -0.210207,0.0269 -0.304837,0.0315 -0.685457,0.0326 -0.242897,0.002 -0.471257,-0.003 -0.507537,-0.003 z m 8.838322,-6.15775 c -0.052,-0.0298 -0.0847,-0.0609 -0.11445,-0.10898 -0.11957,-0.19312 -0.668337,-0.821 -1.524721,-1.74462 -0.32441,-0.34984 -0.451767,-0.5013 -0.565687,-0.6727 -0.25827,-0.38868 -0.352207,-0.81818 -0.23531,-1.07615 0.0747,-0.16489 0.23696,-0.33414 0.476257,-0.49688 0.2554,-0.17364 0.510517,-0.30197 1.047994,-0.52714 0.41573,-0.17415 0.655437,-0.29475 0.856837,-0.43106 0.374167,-0.25332 0.596067,-0.51941 0.706924,-0.84773 l 0.0444,-0.13153 v -0.27025 c 0,-0.3002 -0.021,-0.44441 -0.0998,-0.70964 -0.13947,-0.46997 -0.44414,-0.91589 -0.873677,-1.27854 -0.582747,-0.49198 -1.180034,-0.75695 -1.907278,-0.84612 -0.27316,-0.0337 -0.494537,-0.0243 -0.644657,0.0263 -0.19148,0.0649 -0.430097,0.1959 -0.592807,0.32536 -0.0327,0.026 -0.17933,0.16487 -0.325527,0.30828 -0.1849,0.18146 -0.27118,0.25765 -0.28341,0.25034 -0.01,-0.005 -0.08,-0.0596 -0.156127,-0.11951 -0.32243,-0.25374 -0.716567,-0.48202 -0.962927,-0.55771 -0.266697,-0.0819 -0.519067,-0.1174 -0.858204,-0.12054 -0.424357,-0.003 -0.726047,0.0735 -1.022894,0.26234 -0.11731,0.0746 -0.346037,0.29774 -0.429927,0.41929 -0.28733,0.41654 -0.448457,0.92942 -0.531547,1.69232 -0.0339,0.31325 -0.0343,1.21831 0,1.4764 0.0908,0.68905 0.286757,1.15151 0.622617,1.46891 0.231587,0.21887 0.520807,0.34973 0.884844,0.40033 0.15411,0.0215 0.556207,0.0127 0.683677,-0.0149 0.225817,-0.0486 0.432797,-0.16461 0.536827,-0.30075 0.107137,-0.14017 0.229817,-0.41284 0.319567,-0.71018 0.0262,-0.0866 0.0509,-0.16854 0.0551,-0.18212 0.007,-0.0237 0,-0.0242 -0.16194,-0.0164 -0.442127,0.0213 -0.855224,0.21721 -1.023944,0.48513 l -0.0538,0.0854 -0.158837,-0.0101 c -0.766967,-0.045 -1.213684,-0.51106 -1.311664,-1.36851 -0.0202,-0.17773 -0.0169,-0.53465 0.006,-0.66568 0.0707,-0.40138 0.26331,-0.67987 0.639817,-0.92492 0.201967,-0.13143 0.417587,-0.2266 0.633237,-0.27965 0.212057,-0.0521 0.512607,-0.0647 0.684514,-0.0286 0.40447,0.0848 0.725927,0.35998 0.955987,0.81839 0.226957,0.45227 0.364637,0.91507 0.443897,1.4917 0.027,0.19699 0.0222,1.16916 -0.007,1.45657 -0.10387,1.01474 -0.30846,1.77575 -0.636217,2.36643 -0.2914,0.52509 -0.643767,0.83598 -1.092304,0.96368 -0.12574,0.0359 -0.16832,0.0413 -0.355077,0.0462 -0.23861,0.006 -0.38824,-0.0127 -0.576297,-0.0734 -0.602647,-0.19439 -1.088344,-0.74034 -1.437974,-1.61647 -0.452277,-1.13332 -0.682744,-2.65145 -0.682744,-4.49753 0,-0.56273 0.0161,-0.83773 0.0732,-1.25603 0.239457,-1.75244 1.050584,-3.14045 2.441575,-4.17834 0.17812,-0.13291 0.572337,-0.39357 0.594987,-0.39342 0.0173,1.1e-4 0.685247,0.29651 0.975264,0.43265 0.11316,0.053 0.371817,0.18454 0.574847,0.29206 0.20298,0.10752 0.503527,0.26327 0.667857,0.34611 l 0.298777,0.15064 0.10327,-0.0636 c 0.642877,-0.39633 1.952678,-1.13638 1.987348,-1.12287 0.056,0.0217 2.250988,1.514 2.348718,1.59665 0.22853,0.19327 0.39132,0.39048 0.42553,0.51557 0.0121,0.0438 0.0145,1.06548 0.0117,4.34133 l -0.004,4.28418 -0.0295,0.10033 c -0.0937,0.32131 -0.23821,0.55168 -0.52235,0.83278 -0.19615,0.19406 -0.305307,0.27615 -0.476007,0.35778 -0.2194,0.10496 -0.32259,0.11615 -0.441837,0.0479 z m 0.737144,-4.61445 v -0.0807 l -0.148297,0.0627 c -0.17829,0.0754 -0.31376,0.17266 -0.37134,0.26658 -0.0711,0.11599 -0.0461,0.26349 0.0715,0.42157 0.094,0.12633 0.18781,0.20108 0.32739,0.26097 l 0.0878,0.0377 0.0153,-0.44404 c 0.009,-0.24424 0.0158,-0.4804 0.0166,-0.52478 z m -20.672923,4.41203 c -0.478307,-0.0941 -0.906914,-0.4284 -1.264081,-0.98597 -0.15355,-0.23966 -0.33531,-0.61084 -0.448907,-0.91666 -0.13595,-0.36611 -0.2968,-1.00994 -0.43691,-1.74911 l -0.06,-0.31633 v -2.93456 -2.93459 l 0.0755,-0.0511 c 0.30802,-0.20869 0.887957,-0.71354 1.315904,-1.14552 0.322587,-0.32565 0.527907,-0.5698 0.703887,-0.83707 0.0452,-0.0686 0.0839,-0.12648 0.0861,-0.12869 0.004,-0.004 0.0654,0.0432 0.14051,0.10093 0.531624,0.40819 1.153161,0.71562 1.711858,0.84664 0.16137,0.0379 0.20068,0.042 0.421857,0.0452 0.19463,0.001 0.2638,-0.002 0.342727,-0.0195 0.13865,-0.0326 0.26925,-0.0802 0.36678,-0.13393 0.0459,-0.0251 0.0855,-0.0438 0.0883,-0.0411 0.005,0.005 -0.0644,0.23588 -0.12937,0.42511 -0.14258,0.41511 -0.357817,0.83688 -0.576347,1.12933 -0.379167,0.50743 -0.851624,0.77891 -1.416861,0.81407 -0.25608,0.016 -0.42735,-0.0153 -0.817294,-0.14944 -0.10876,-0.0375 -0.245197,-0.0805 -0.303177,-0.0958 -0.26501,-0.0701 -0.509997,-0.0871 -0.609637,-0.0423 -0.22695,0.10152 -0.371327,0.37331 -0.478107,0.90019 -0.0985,0.48578 -0.13164,0.87425 -0.13156,1.54111 0,0.76705 0.0339,1.26976 0.11974,1.77892 0.0536,0.31786 0.11174,0.51969 0.211567,0.73358 0.24281,0.52024 0.611487,0.82341 1.151624,0.94696 0.11646,0.0267 0.17021,0.0306 0.461374,0.0329 0.28575,0.002 0.34971,-0.002 0.481137,-0.0255 0.45492,-0.0839 0.738647,-0.30175 0.849697,-0.65254 0.0679,-0.21435 0.0583,-0.44751 -0.0331,-0.80435 -0.0461,-0.18001 -0.0489,-0.1835 -0.22344,-0.27478 -0.160687,-0.0841 -0.272787,-0.11611 -0.410027,-0.11723 -0.300647,-0.002 -0.473727,0.16731 -0.535097,0.52501 l -0.0238,0.13826 -0.0989,0.003 c -0.241364,0.008 -0.551154,-0.0701 -0.746721,-0.18885 -0.099,-0.0601 -0.24571,-0.19814 -0.30701,-0.28894 -0.120617,-0.1786 -0.181747,-0.34349 -0.233887,-0.63076 -0.0327,-0.17983 -0.0355,-0.22509 -0.0363,-0.54542 0,-0.44435 0.0242,-0.5824 0.15811,-0.8633 0.197527,-0.41466 0.629354,-0.72862 1.114458,-0.81023 0.17517,-0.0294 0.508467,-0.0152 0.684167,0.0296 0.510597,0.12974 0.879584,0.50308 1.104644,1.11772 0.1161,0.31707 0.17881,0.67921 0.22945,1.32574 0.0113,0.14591 0.0166,0.46298 0.0158,0.96239 v 0.74478 l -0.0424,0.34906 c -0.12244,1.0076 -0.40403,1.88658 -0.777387,2.42651 -0.269117,0.38925 -0.585367,0.62854 -0.970514,0.7345 -0.14543,0.04 -0.17682,0.0439 -0.388894,0.048 -0.17106,0.003 -0.25746,-0.002 -0.33429,-0.0159 z m 25.808646,0.16614 c -0.845777,-0.11117 -1.457824,-0.395 -1.979281,-0.91781 -0.380617,-0.38159 -0.597847,-0.77954 -0.692664,-1.26878 -0.0267,-0.13694 -0.0283,-0.19388 -0.0335,-1.00282 l -0.005,-0.85768 0.195437,-0.0148 c 0.28389,-0.0219 0.988064,-0.0845 1.263194,-0.11264 0.686587,-0.0701 1.338831,-0.24692 1.819201,-0.49328 0.116377,-0.0597 0.337927,-0.19832 0.426377,-0.26683 l 0.0311,-0.024 -0.1299,-0.0937 c -0.815667,-0.58852 -1.677221,-0.78669 -2.575025,-0.59225 -0.27873,0.0605 -0.641387,0.18872 -0.912967,0.32312 l -0.115327,0.057 v -2.00798 -2.00799 l 0.392157,-0.24614 c 1.633811,-1.0255 1.878308,-1.16976 2.640485,-1.5578 0.542637,-0.27634 1.701841,-0.82323 1.875528,-0.88487 0.0399,-0.0142 0.0729,-0.0108 0.26113,0.0275 1.646601,0.33505 3.150422,1.01784 4.109966,1.86616 0.527347,0.46619 0.858377,0.98827 0.977324,1.54131 0.0359,0.16638 0.0492,0.5637 0.0259,0.76508 -0.0744,0.64066 -0.332187,1.24571 -0.785084,1.84229 -0.406447,0.53543 -0.902357,0.86861 -1.456291,0.97842 -0.17522,0.0348 -0.51815,0.0463 -0.710557,0.024 -0.30169,-0.0351 -0.563297,-0.11047 -0.830767,-0.23916 -0.660674,-0.31785 -0.984714,-0.82245 -0.959774,-1.4945 0.0137,-0.36766 0.15056,-0.65254 0.495417,-1.03083 0.432077,-0.47393 0.962974,-0.66326 1.537731,-0.54835 0.19245,0.0384 0.29334,0.10974 0.35581,0.25142 0.0637,0.14462 0.0786,0.25524 0.0992,0.73785 0.0142,0.32757 0.0405,0.49942 0.0941,0.60993 0.0347,0.0718 0.17901,0.22382 0.29068,0.30637 0.081,0.0598 0.133691,0.07 0.222715,0.0425 0.14273,-0.044 0.22937,-0.13181 0.28332,-0.28721 0.021,-0.0605 0.0251,-0.1092 0.0246,-0.29644 0,-0.19249 -0.004,-0.23994 -0.0311,-0.33636 -0.13398,-0.49062 -0.477925,-0.89887 -1.086742,-1.28982 -0.624157,-0.40082 -1.392371,-0.67904 -2.209988,-0.80036 -0.344707,-0.0512 -0.638957,-0.0714 -1.078294,-0.0743 -1.024954,-0.007 -1.893528,0.1226 -2.599475,0.38715 -0.22845,0.0856 -0.575777,0.25712 -0.757977,0.37431 l -0.131837,0.0847 0.212957,0.001 c 0.40003,0.003 0.950617,0.0666 1.343424,0.1547 1.149964,0.25779 1.927428,0.85692 2.164948,1.66823 0.0863,0.29484 0.0982,0.72469 0.0286,1.03637 -0.0706,0.31623 -0.39797,1.03066 -0.636937,1.38977 -0.19726,0.29642 -0.405317,0.47773 -0.989154,0.86203 -0.14589,0.096 -0.26735,0.18057 -0.26997,0.18795 -0.009,0.0241 0.0396,0.17463 0.0802,0.25214 0.10961,0.20807 0.388047,0.3869 0.658057,0.42259 0.0535,0.007 0.11194,0.007 0.14552,9.7e-4 0.204187,-0.0445 0.593114,-0.32395 1.131191,-0.8127 0.713827,-0.6484 0.950707,-0.82649 1.382854,-1.03959 0.460807,-0.22729 0.873224,-0.33044 1.372191,-0.34324 0.847477,-0.0219 1.551589,0.22825 2.017876,0.71631 0.1648,0.17248 0.24438,0.28624 0.35309,0.50476 0.150077,0.30163 0.212097,0.59803 0.212507,1.01558 0,0.79426 -0.207047,1.40474 -0.628144,1.84479 -0.30351,0.31722 -0.596477,0.48719 -0.999617,0.57996 -0.219205,0.0504 -0.362785,0.0613 -0.682662,0.0517 -0.432517,-0.013 -0.694177,-0.0695 -0.963174,-0.20788 -0.20383,-0.10485 -0.32865,-0.21856 -0.47465,-0.43223 -0.322217,-0.47182 -0.417827,-1.28737 -0.202247,-1.72539 0.0486,-0.0988 0.171017,-0.22965 0.259757,-0.27781 0.2115,-0.11469 0.578917,-0.18849 1.044314,-0.20974 l 0.15452,-0.007 0.11247,0.10082 c 0.16678,0.14949 0.359587,0.28826 0.502157,0.3614 0.11001,0.0564 0.13882,0.0655 0.222275,0.0703 0.11073,0.006 0.15884,-0.0119 0.21001,-0.0788 0.0568,-0.0744 0.0575,-0.12605 0.004,-0.23015 -0.0813,-0.15517 -0.278804,-0.32715 -0.499105,-0.43454 -0.350787,-0.17104 -0.928584,-0.25789 -1.232614,-0.18533 -0.515267,0.12301 -1.004044,0.54111 -1.384131,1.18405 -0.0506,0.0856 -0.17942,0.32992 -0.28632,0.54309 -0.113467,0.22632 -0.240187,0.45732 -0.304467,0.55516 -0.352087,0.5359 -0.792914,0.86203 -1.336601,0.98885 -0.17288,0.0404 -0.18769,0.0416 -0.520687,0.0439 -0.27716,0.002 -0.38058,-0.003 -0.540467,-0.0238 z m 11.8770103,0.0788 c -0.8457733,-0.11116 -1.4577803,-0.395 -1.9792373,-0.91781 -0.380617,-0.38159 -0.597837,-0.77954 -0.692677,-1.26877 -0.0266,-0.13695 -0.0287,-0.1939 -0.0335,-1.00283 l -0.005,-0.85768 0.19543,-0.0148 c 0.283887,-0.0219 0.988024,-0.0846 1.263204,-0.11265 0.6865837,-0.07 1.3388103,-0.24692 1.819197,-0.49328 0.11638,-0.0597 0.3379166,-0.19832 0.4263667,-0.26683 l 0.0311,-0.024 -0.1299001,-0.0937 c -0.8156733,-0.58852 -1.6772666,-0.78669 -2.5750236,-0.59225 -0.278727,0.0605 -0.641384,0.18872 -0.912964,0.32312 l -0.11538,0.057 v -2.00798 -2.00799 l 0.3922,-0.24614 c 1.633808,-1.0255 1.8783177,-1.16976 2.6404439,-1.5578 0.5426767,-0.27634 1.7018872,-0.82323 1.8755672,-0.88487 0.0399,-0.0142 0.0729,-0.0108 0.2611266,0.0275 1.6466001,0.33505 3.1504332,1.01784 4.109927,1.86616 0.5273867,0.46619 0.8584134,0.98827 0.9773734,1.54131 0.0359,0.16638 0.0492,0.56371 0.0259,0.76508 -0.0744,0.64066 -0.3322301,1.24571 -0.7850867,1.84229 -0.4064367,0.53543 -0.9023934,0.86861 -1.4562901,0.97842 -0.1752201,0.0348 -0.5181367,0.0463 -0.7105968,0.024 -0.3016366,-0.0351 -0.5632967,-0.11048 -0.8307633,-0.23917 -0.6606267,-0.31784 -0.9847134,-0.82245 -0.9597334,-1.4945 0.0137,-0.36766 0.1505596,-0.65254 0.4954267,-1.03083 0.4320267,-0.47393 0.9629134,-0.66326 1.5376801,-0.54835 0.1924899,0.0384 0.2933366,0.10974 0.3557967,0.25142 0.0638,0.14462 0.0787,0.25525 0.0993,0.73785 0.0142,0.32758 0.0405,0.49942 0.0941,0.60994 0.0347,0.0718 0.1790096,0.22381 0.2906667,0.30636 0.081,0.0598 0.13366,0.07 0.22271,0.0425 0.14274,-0.044 0.2293796,-0.13181 0.2833366,-0.28721 0.021,-0.0605 0.0251,-0.10919 0.0246,-0.29644 0,-0.19249 -0.004,-0.23993 -0.0311,-0.33635 -0.1339666,-0.49063 -0.4779466,-0.89888 -1.0867334,-1.28983 -0.6241533,-0.40082 -1.39237,-0.67903 -2.2099734,-0.80036 -0.34471,-0.0512 -0.6389767,-0.0714 -1.0783034,-0.0742 -1.0249834,-0.007 -1.8935701,0.1226 -2.5994734,0.38716 -0.22845,0.0856 -0.575777,0.25711 -0.757977,0.3743 l -0.13183,0.0847 0.21294,0.001 c 0.400027,0.003 0.9506237,0.0666 1.3434203,0.15471 1.1499734,0.25778 1.9274301,0.85691 2.1649568,1.66822 0.0863,0.29484 0.0982,0.72469 0.0287,1.03637 -0.0706,0.31623 -0.3979767,1.03066 -0.6369068,1.38977 -0.1972966,0.29642 -0.4053166,0.47773 -0.9891533,0.86203 -0.1458871,0.096 -0.2673967,0.18058 -0.2699667,0.18795 -0.009,0.0241 0.0396,0.17463 0.0802,0.25214 0.1096066,0.20807 0.3880467,0.3869 0.6580533,0.4226 0.0535,0.007 0.1119101,0.007 0.1455201,9.6e-4 0.20419,-0.0446 0.5931167,-0.32395 1.1312034,-0.8127 0.7137767,-0.6484 0.9506934,-0.82648 1.3828501,-1.03959 0.4607966,-0.22729 0.8732167,-0.33044 1.3721934,-0.34324 0.8474734,-0.0219 1.5515701,0.22825 2.0178568,0.71631 0.1648,0.17249 0.2443766,0.28624 0.3530867,0.50476 0.15009,0.30163 0.21211,0.59803 0.21251,1.01558 0,0.79426 -0.20705,1.40474 -0.6281467,1.84479 -0.3035467,0.31722 -0.5964767,0.48719 -0.9996134,0.57996 -0.2191901,0.0504 -0.3627767,0.0613 -0.6826567,0.0517 -0.4325167,-0.013 -0.6941738,-0.0695 -0.9632134,-0.20788 -0.2037901,-0.10485 -0.3286367,-0.21855 -0.4746067,-0.43222 -0.3222171,-0.47183 -0.4178267,-1.28737 -0.20225,-1.72539 0.0486,-0.0988 0.17098,-0.22966 0.25976,-0.27782 0.2114466,-0.11469 0.5789167,-0.18849 1.0443234,-0.20974 l 0.1545099,-0.007 0.1124667,0.10082 c 0.1667801,0.14949 0.3595901,0.28826 0.5021667,0.3614 0.1100001,0.0564 0.1388101,0.0655 0.2222601,0.0703 0.1107,0.006 0.15884,-0.0119 0.21001,-0.0788 0.0568,-0.0744 0.0575,-0.12605 0.004,-0.23015 -0.0813,-0.15517 -0.27881,-0.32715 -0.4991071,-0.43454 -0.3507896,-0.17104 -0.9285863,-0.25789 -1.232603,-0.18533 -0.5152767,0.12302 -1.0040834,0.54112 -1.3841435,1.18406 -0.0506,0.0856 -0.1794166,0.32992 -0.2863066,0.54309 -0.11348,0.22631 -0.2402001,0.45731 -0.3044667,0.55515 -0.35209,0.5359 -0.7929267,0.86203 -1.3366034,0.98885 -0.1729201,0.0404 -0.1877401,0.0416 -0.5206867,0.044 -0.2771567,0.002 -0.3805867,-0.003 -0.5404667,-0.0238 z m 13.4058573,-0.002 c -0.5954667,-0.0679 -1.1193834,-0.20863 -1.5898701,-0.42691 -1.0603734,-0.49189 -1.89764007,-1.37538 -2.40767674,-2.54045 -0.089,-0.20325 -0.22016667,-0.55314 -0.21088667,-0.56235 0.004,-0.004 0.18954667,-0.0577 0.41358667,-0.12054 0.81685334,-0.22934 1.36957004,-0.40157 1.64471004,-0.51242 0.3951467,-0.15919 0.7605434,-0.44393 1.0544134,-0.82163 l 0.1119,-0.14381 -0.1209,-0.0813 c -0.3698467,-0.24874 -0.7961867,-0.45068 -1.1409734,-0.54041 -0.3626967,-0.0945 -0.7367067,-0.0943 -1.09564337,7.4e-4 -0.1703,0.0449 -0.44264667,0.15561 -0.66890667,0.27186 -0.1032667,0.0531 -0.19079667,0.0964 -0.19442667,0.0964 -0.004,-3e-5 -0.007,-0.81758 -0.007,-1.81684 v -1.81674 l 0.91284334,-0.61446 c 0.98689337,-0.66427 1.22260337,-0.8192 1.65766007,-1.08959 0.5798767,-0.36039 1.2630831,-0.72421 1.9744668,-1.05146 l 0.29379,-0.13513 0.2268967,0.0445 c 1.4183631,0.27844 2.7989635,0.85902 3.7605969,1.58142 0.7484767,0.56235 1.1814334,1.15899 1.3248934,1.82587 0.0359,0.16637 0.0491,0.56371 0.0259,0.76508 -0.0744,0.64053 -0.3357081,1.25574 -0.7806552,1.83775 -0.3484567,0.45579 -0.7457867,0.7626 -1.1791734,0.91061 -0.2560967,0.0874 -0.3811867,0.10498 -0.7297734,0.10239 -0.24095,-0.002 -0.33759,-0.007 -0.43501,-0.0267 -0.414557,-0.0806 -0.7641837,-0.23529 -1.0826937,-0.47889 -0.356457,-0.27252 -0.557494,-0.73943 -0.535137,-1.24242 0.0158,-0.35129 0.1439,-0.62061 0.47432,-0.99593 0.2807467,-0.31892 0.6217734,-0.52214 0.9772534,-0.58237 0.1553967,-0.0264 0.4501867,-0.0213 0.5814967,0.01 0.2004067,0.0477 0.2721467,0.0956 0.3414767,0.22764 0.0719,0.13684 0.0942,0.28286 0.11307,0.73896 0.0218,0.52449 0.056,0.63909 0.2458767,0.81924 0.12917,0.12257 0.20544,0.17238 0.26457,0.17277 0.1649197,0.001 0.3158067,-0.11219 0.3741467,-0.281 0.0291,-0.0837 0.0319,-0.11209 0.0311,-0.3161 0,-0.20317 -0.004,-0.23626 -0.0375,-0.35452 -0.0838,-0.29892 -0.227637,-0.53386 -0.4879567,-0.79651 -0.5371467,-0.54201 -1.4315101,-0.98958 -2.3868938,-1.19457 -0.5057167,-0.10852 -0.8758864,-0.14512 -1.4830131,-0.14672 -0.4170067,-0.003 -0.4987667,0.002 -0.7513434,0.0313 -0.6475567,0.0748 -1.1224834,0.21474 -1.7729901,0.52261 -0.3673767,0.17388 -1.09028337,0.58682 -1.02749337,0.58696 0.0142,9e-5 0.17397,-0.0166 0.35519667,-0.0372 0.37097,-0.0417 0.5692667,-0.0454 0.8044167,-0.0149 0.7011464,0.0918 1.2703001,0.37072 1.7177401,0.8424 0.3954367,0.41674 0.5947864,0.91224 0.5974864,1.48496 0,0.15605 -0.004,0.19453 -0.0331,0.29267 -0.081,0.27126 -0.1778397,0.44417 -0.5277467,0.9424 -0.3275097,0.46627 -0.6673764,0.96703 -0.6673764,0.98326 0,0.0173 0.1924067,0.20158 0.3361567,0.32203 0.4759267,0.3987 1.0572634,0.69843 1.6081801,0.82921 0.29555,0.0702 0.5070067,0.0956 0.8766864,0.10572 0.298457,0.008 0.356937,0.006 0.5208967,-0.0175 0.6595737,-0.0955 1.2648404,-0.39527 1.8913871,-0.93666 0.4348467,-0.37576 0.9962034,-1.01444 1.5216198,-1.73127 0.0715,-0.0974 0.13422,-0.18201 0.13958,-0.18801 0.005,-0.006 -0.0129,0.12145 -0.041,0.28317 -0.23575,1.36547 -0.7442064,2.50078 -1.5089498,3.36897 -0.8102267,0.91991 -1.7261001,1.42814 -2.8770435,1.59662 -0.2417467,0.0355 -0.2906567,0.038 -0.7142937,0.0406 -0.3781597,0.002 -0.4926097,-0.003 -0.6791964,-0.0231 z M -47.520291,206.36547 c -0.257977,-0.0438 -0.531417,-0.13725 -0.799204,-0.27333 -0.524397,-0.26651 -0.870317,-0.56827 -1.027374,-0.8963 -0.077,-0.16104 -0.0977,-0.25335 -0.0979,-0.43809 0,-0.13705 0.004,-0.17224 0.0355,-0.26341 0.1,-0.29657 0.395137,-0.55119 0.753804,-0.65022 0.13559,-0.0374 0.44583,-0.0441 0.627297,-0.0136 0.25545,0.0431 0.437317,0.11941 0.557007,0.23381 0.14269,0.13629 0.20363,0.28309 0.21468,0.51674 0.006,0.13426 0.004,0.16528 -0.0254,0.27008 -0.0177,0.0652 -0.0606,0.18539 -0.0946,0.2672 -0.0457,0.10983 -0.0597,0.15808 -0.0531,0.18423 0.015,0.0604 0.11767,0.14137 0.28776,0.22716 0.180457,0.0911 0.217427,0.0971 0.384697,0.063 0.307777,-0.0629 0.459227,-0.25749 0.566167,-0.72771 0.0534,-0.23475 0.0646,-0.36067 0.0558,-0.62952 -0.0125,-0.38882 -0.0842,-0.63903 -0.23797,-0.83279 -0.232357,-0.29274 -0.579487,-0.42704 -1.008324,-0.39014 -0.277877,0.0241 -0.430497,0.07 -0.576247,0.17354 -0.216187,0.15365 -0.402907,0.24115 -0.511857,0.23987 -0.0606,-4.1e-4 -0.14838,-0.0369 -0.18107,-0.0749 -0.0121,-0.0138 -0.0615,-0.12325 -0.110037,-0.24317 -0.19798,-0.48864 -0.30855,-0.68097 -0.510967,-0.88897 -0.0743,-0.0763 -0.23091,-0.22944 -0.34805,-0.34031 -0.220577,-0.20872 -0.315087,-0.32218 -0.384897,-0.46194 -0.0525,-0.10515 -0.0942,-0.25643 -0.0942,-0.34207 0,-0.0593 0.008,-0.0784 0.0642,-0.15837 0.20112,-0.28505 0.458907,-0.45961 0.770197,-0.5216 0.0855,-0.0171 0.148137,-0.0195 0.299307,-0.0125 0.17255,0.008 0.20278,0.013 0.310797,0.0533 0.16025,0.0593 0.27232,0.14576 0.35169,0.27137 0.137317,0.21741 0.217787,0.55479 0.240507,1.00856 0.008,0.15522 -0.0145,0.52786 -0.0502,0.84403 l -0.004,0.0335 0.19176,-0.0277 c 0.10549,-0.0154 0.292606,-0.0555 0.415887,-0.089 0.397649,-0.10838 0.501517,-0.13214 0.640867,-0.14663 0.15241,-0.0159 0.415717,-0.006 0.697107,0.0252 1.122724,0.12617 1.770607,0.64114 1.953128,1.5525 0.0396,0.1967 0.0488,0.61626 0.0178,0.79429 -0.0944,0.54286 -0.385147,0.93863 -0.910104,1.23882 -0.370211,0.21169 -0.800147,0.34387 -1.348914,0.41464 -0.260487,0.0338 -0.888924,0.0399 -1.061474,0.0107 z m 37.6580167,-0.24268 c -0.2126667,-0.0802 -0.4241267,-0.28081 -0.6384867,-0.60587 -0.390337,-0.5918 -0.415917,-1.29667 -0.0705,-1.94232 0.26375,-0.49303 0.7904464,-0.99892 1.4029426,-1.3476 0.5457467,-0.31066 1.2575001,-0.48946 1.9636969,-0.49334 0.3997867,-10e-4 0.7145967,0.0446 1.0698234,0.15955 0.5431267,0.17547 1.2349934,0.5608 1.7083101,0.95138 0.0743,0.0613 0.1350999,0.10595 0.1350999,0.0991 0,-0.007 -0.0125,-0.10363 -0.0275,-0.2151 -0.0355,-0.26033 -0.0274,-0.4344 0.0278,-0.62027 0.1227168,-0.41257 0.4352968,-0.69072 0.9040435,-0.80449 0.13176,-0.0318 0.1658196,-0.0348 0.4074167,-0.0336 0.25181,0.002 0.26985,0.002 0.4020467,0.0406 0.18946,0.0539 0.37908,0.1463 0.5277867,0.25736 0.3851,0.28763 0.5532167,0.59785 0.5530867,1.02056 0,0.53259 -0.1938167,0.91067 -0.6063168,1.18409 -0.2796466,0.1853 -0.6212833,0.28739 -1.0183234,0.3043 -0.106937,0.004 -0.1944266,0.0104 -0.1944266,0.0132 0,0.004 0.036,0.0507 0.0802,0.10651 0.0441,0.0558 0.1308367,0.17935 0.1927267,0.27459 0.0619,0.0952 0.13814,0.21185 0.16937,0.25918 0.0311,0.0473 0.0765,0.12694 0.10057,0.17686 l 0.0437,0.0908 -0.11202,0.10502 c -0.3313101,0.31055 -0.5713267,0.50992 -0.8203968,0.68143 -0.3767466,0.2594 -0.6986033,0.37885 -1.0580734,0.39265 -0.1706166,0.007 -0.1719566,0.007 -0.3114566,-0.0412 -0.077,-0.0264 -0.2579901,-0.10207 -0.4020467,-0.16823 -0.6043067,-0.27762 -1.0034334,-0.40322 -1.5340101,-0.48277 -0.12853,-0.0195 -0.246,-0.025 -0.5338867,-0.0265 -0.3464,-0.002 -0.3804601,0.001 -0.5536568,0.033 -0.3591101,0.0677 -0.5106767,0.12483 -1.0629934,0.40106 -0.4847362,0.24238 -0.4997462,0.24882 -0.5872362,0.25212 -0.0637,0.004 -0.1094,-0.005 -0.15718,-0.022 z m 5.8200436,-0.77724 c -0.2138771,-0.35577 -0.5677767,-0.71869 -0.9592934,-0.98378 -0.5427967,-0.36751 -1.3846205,-0.71106 -1.8793702,-0.76692 -0.4210466,-0.0475 -1.0925804,0.0723 -1.44418,0.25769 -0.2504267,0.13206 -0.4723467,0.35485 -0.6471568,0.64965 -0.0355,0.06 -0.0646,0.11147 -0.0646,0.11437 0,0.004 0.049,-0.0126 0.1087471,-0.0348 0.3719,-0.13639 0.6968797,-0.2365 0.9326196,-0.28736 0.3597268,-0.0776 0.4811468,-0.0884 0.8547035,-0.0761 0.5135067,0.0167 0.9310434,0.0999 1.32695,0.264 0.2162201,0.0896 0.2797001,0.12703 0.9214868,0.54367 l 0.4848167,0.31471 0.1602796,0.0257 c 0.0881,0.0139 0.1770371,0.0262 0.1975671,0.0271 l 0.0371,2.5e-4 z m 1.2870834,-2.12435 c 0.1148166,-0.029 0.2027767,-0.0829 0.2524967,-0.15481 0.0528,-0.0762 0.07,-0.1313 0.0793,-0.25419 0.0189,-0.25105 -0.0846,-0.44697 -0.2754071,-0.52066 -0.0711,-0.0275 -0.1064896,-0.0322 -0.2414796,-0.0331 -0.1385,-9.2e-4 -0.16686,0.003 -0.2278001,0.03 -0.0847,0.0377 -0.1716566,0.13037 -0.2055166,0.21892 -0.0315,0.0827 -0.0438,0.3127 -0.0222,0.41724 0.029,0.14099 0.13554,0.2563 0.2716166,0.29453 0.0897,0.0252 0.2738501,0.0264 0.3688801,0.002 z"
       id="path928"
       inkscape:connector-curvature="0" />
  </g>
</svg>
