<?xml version="1.0" encoding="UTF-8" standalone="no"?>
<!-- Created with Inkscape (http://www.inkscape.org/) -->

<svg
   xmlns:dc="http://purl.org/dc/elements/1.1/"
   xmlns:cc="http://creativecommons.org/ns#"
   xmlns:rdf="http://www.w3.org/1999/02/22-rdf-syntax-ns#"
   xmlns:svg="http://www.w3.org/2000/svg"
   xmlns="http://www.w3.org/2000/svg"
   version="1.1"
   width="90"
   height="90"
   id="svg6792">
  <defs
     id="defs6794" />
  <rect
     width="60"
     height="60"
     rx="0"
     ry="0"
     x="33.6393"
     y="-30.0003"
     transform="matrix(0.707107,0.707107,-0.707107,0.707107,0,0)"
     id="rect6763"
     style="fill:#ffdd00;stroke:#231f20;stroke-width:0.7" />
  <rect
     width="51.25"
     height="51.25"
     x="-25.6255"
     y="38.0155"
     transform="matrix(0.707107,-0.707107,0.707107,0.707107,0,0)"
     id="rect6769"
     style="fill:none;stroke:#231f20;stroke-width:0.7" />
  <path
     d="M 47.6453,72.5981 47.6453,74 42.3547,74 C 42.412,73.4701 42.5839,72.9679 42.8704,72.4934 43.1568,72.019 43.7226,71.3897 44.5676,70.6055 45.248,69.9717 45.6651,69.542 45.8191,69.3164 46.0268,69.0049 46.1306,68.6969 46.1306,68.3926 46.1306,68.056 46.0402,67.7973 45.8594,67.6165 45.6785,67.4356 45.4288,67.3452 45.1101,67.3452 44.795,67.3452 44.5443,67.4401 44.3582,67.6299 44.172,67.8197 44.0645,68.1348 44.0359,68.5752 L 42.532,68.4248 C 42.6215,67.5941 42.9026,66.9979 43.3752,66.6362 43.8479,66.2746 44.4387,66.0938 45.1477,66.0938 45.9247,66.0938 46.5352,66.3032 46.9792,66.7222 47.4233,67.1411 47.6453,67.6621 47.6453,68.2852 47.6453,68.6397 47.5817,68.9771 47.4546,69.2976 47.3275,69.6181 47.1261,69.9538 46.8503,70.3047 46.6677,70.5374 46.3383,70.8722 45.8621,71.3091 45.3858,71.7459 45.0841,72.036 44.957,72.1792 44.8299,72.3224 44.727,72.4621 44.6482,72.5981 z"
     id="path3233"
     style="fill:#231f20;stroke:none;" />
  <path
     d="M 44.872,13.281 44.298,13.912 C 42.713,15.875 44.958,18.072 43.983,20.075 43.551,19.102 42.568,18.037 41.488,17.982 L 41.488,18.126 C 41.525,18.106 41.537,18.136 41.575,18.155 42.656,19.759 42.008,21.873 41.001,23.315 40.602,22.793 40.078,21.999 39.396,21.91 L 39.396,22.054 C 40.259,23.171 39.833,24.759 39.253,25.895 39.02,26.343 39.096,26.982 38.823,27.414 38.391,27.144 37.917,26.796 37.303,26.812 L 37.303,26.984 C 38.674,28.643 37.281,30.693 37.533,32.603 37.691,33.065 37.866,33.791 38.422,33.864 38.619,36.129 39.958,38.078 41.862,39.108 L 37.246,39.108 37.246,41.028 52.754,41.028 52.754,39.108 48.168,39.108 C 50.144,38.048 51.511,36.001 51.637,33.635 51.714,33.637 51.786,33.635 51.866,33.635 53.687,31.327 50.621,28.615 52.64,26.382 52.191,26.292 51.765,26.506 51.35,26.669 L 51.264,26.583 C 51.441,25.807 51.596,25.049 51.579,24.203 51.432,22.868 51.11,21.587 50.461,20.505 50.39,21.12 50.459,21.786 50.117,22.254 50.28,20.489 49.37,18.916 47.91,17.926 47.839,18.484 48.327,19.096 47.968,19.674 47.859,19.077 47.511,18.592 47.222,18.069 46.373,16.863 44.854,15.895 44.872,14.256 44.817,13.894 45.016,13.552 44.872,13.281 z M 45.817,20.878 C 46.393,21.997 45.469,23.084 45.703,24.289 46.044,25.066 46.72,25.881 46.448,26.783 46.444,26.795 46.45,26.801 46.448,26.812 45.988,26.711 45.505,26.64 45.015,26.64 44.891,26.64 44.764,26.662 44.642,26.669 L 44.728,26.152 C 43.286,24.315 44.896,22.445 45.817,20.878 z M 42.664,24.863 C 42.845,25.566 43.329,26.12 43.438,26.84 43.039,26.938 42.658,27.047 42.291,27.214 42.511,26.658 42.416,25.926 42.377,25.321 42.472,25.177 42.413,24.916 42.664,24.863 z M 47.968,24.949 C 48.56,25.49 48.459,26.605 48.225,27.328 48.204,27.367 48.207,27.405 48.197,27.443 47.867,27.261 47.525,27.108 47.165,26.984 47.172,26.964 47.189,26.95 47.193,26.927 47.41,26.261 47.822,25.651 47.968,24.949 z M 40.571,26.611 C 40.788,27.025 40.808,27.593 41.259,27.844 40.932,28.072 40.622,28.307 40.342,28.59 40.338,27.874 40.138,27.234 40.571,26.611 z M 49.888,27.07 C 49.922,27.075 49.967,27.098 50.002,27.156 L 49.917,28.733 C 49.918,28.757 49.916,28.794 49.917,28.819 49.633,28.509 49.308,28.239 48.97,27.987 49.001,27.969 49.032,27.958 49.057,27.93 49.325,27.749 49.367,27.46 49.601,27.242 49.696,27.216 49.786,27.054 49.888,27.07 z M 45.015,28.417 C 47.7,28.417 49.888,30.605 49.888,33.291 49.888,35.973 47.7,38.138 45.015,38.138 42.329,38.138 40.17,35.973 40.17,33.291 40.17,30.605 42.329,28.417 45.015,28.417 z M 38.823,29.592 C 39.059,29.61 39.045,29.938 39.281,29.994 39.155,30.215 39.031,30.44 38.922,30.671 L 38.909,30.654 C 38.818,30.312 38.733,29.953 38.823,29.592 z"
     id="path1360"
     style="fill:#231f20;stroke:none" />
  <path
     d="M 27.75,48.2188 C 27.0478,48.2188 26.4785,48.3242 26.0625,48.5625 25.6466,48.8008 25.3461,49.1379 25.125,49.5625 24.9039,49.9872 24.7524,50.5001 24.6875,51.0938 24.6225,51.6876 24.5938,52.3293 24.5938,53.0312 24.5938,53.7332 24.6225,54.3751 24.6875,54.9688 24.7524,55.5624 24.9039,56.0752 25.125,56.5 25.3461,56.9248 25.6466,57.2617 26.0625,57.5 26.4785,57.7383 27.0478,57.8438 27.75,57.8438 28.452,57.8438 29.0216,57.7383 29.4375,57.5 29.8534,57.2617 30.1539,56.9248 30.375,56.5 30.5961,56.0752 30.7475,55.5624 30.8125,54.9688 30.8774,54.3751 30.9062,53.7332 30.9062,53.0312 30.9062,52.3293 30.8774,51.6876 30.8125,51.0938 30.7475,50.5001 30.5961,49.9872 30.375,49.5625 30.1539,49.1379 29.8534,48.8008 29.4375,48.5625 29.0216,48.3242 28.452,48.2188 27.75,48.2188 z M 48.7812,48.2188 C 48.1833,48.2188 47.6798,48.3007 47.2812,48.5 46.8827,48.6993 46.5865,49.0119 46.3438,49.4062 46.1011,49.8006 45.9122,50.2856 45.8125,50.875 45.7128,51.4644 45.6562,52.1575 45.6562,52.9375 45.6562,53.7434 45.712,54.4516 45.7812,55.0625 45.8505,55.6735 45.9839,56.1778 46.1875,56.5938 46.3912,57.0099 46.6716,57.3188 47.0312,57.5312 47.391,57.7435 47.8655,57.8438 48.4375,57.8438 48.8795,57.8438 49.2461,57.7584 49.5625,57.5938 49.8788,57.4291 50.1496,57.1767 50.375,56.8125 L 50.4062,56.8125 50.4062,57.6875 51.7812,57.6875 51.7812,52.6562 48.75,52.6562 48.75,54.0312 50,54.0312 50,55 C 50,55.2513 49.9531,55.4699 49.875,55.6562 49.797,55.8426 49.6795,56.0036 49.5625,56.125 49.4454,56.2464 49.3217,56.3144 49.1875,56.375 49.0532,56.4355 48.9565,56.4688 48.8438,56.4688 48.5751,56.4688 48.3565,56.3878 48.1875,56.2188 48.0185,56.0498 47.8723,55.8163 47.7812,55.5 47.6904,55.1837 47.6283,54.7901 47.5938,54.3438 47.5592,53.8974 47.5312,53.4072 47.5312,52.8438 47.5312,51.6824 47.6444,50.8465 47.8438,50.3438 48.0431,49.8411 48.3618,49.5938 48.8125,49.5938 49.0032,49.5938 49.1781,49.6503 49.3125,49.75 49.4469,49.8497 49.5383,49.9733 49.625,50.125 49.7116,50.2767 49.7735,50.4387 49.8125,50.625 49.8515,50.8113 49.875,50.9918 49.875,51.1562 L 51.6875,51.1562 C 51.6875,50.2118 51.4507,49.4757 51,48.9688 50.5493,48.4618 49.804,48.2188 48.7812,48.2188 z M 31.625,48.375 33.7812,52.9688 31.4688,57.6875 33.5,57.6875 34.8438,54.5312 36.1875,57.6875 38.2812,57.6875 35.9688,52.9688 38.125,48.375 36.0938,48.375 34.9062,51.4062 33.6875,48.375 31.625,48.375 z M 38.4062,48.375 40.8125,54.0312 40.8125,57.6875 42.6875,57.6875 42.6875,54.0312 45.0938,48.375 43.0625,48.375 41.75,51.9688 41.7188,51.9688 40.5,48.375 38.4062,48.375 z M 53,48.375 53,57.6875 58.3125,57.6875 58.3125,56.125 54.875,56.125 54.875,53.6562 58,53.6562 58,52.0938 54.875,52.0938 54.875,49.9375 58.1875,49.9375 58.1875,48.375 53,48.375 z M 59.25,48.375 59.25,57.6875 60.9688,57.6875 60.9688,51.1875 61,51.1875 63.2812,57.6875 65.4062,57.6875 65.4062,48.375 63.6875,48.375 63.6875,54.75 63.6562,54.75 61.4062,48.375 59.25,48.375 z M 27.75,49.5938 C 28.0272,49.5938 28.2685,49.6555 28.4375,49.7812 28.6065,49.907 28.7215,50.0977 28.8125,50.375 28.9035,50.6523 28.9696,51.0041 29,51.4375 29.0304,51.8709 29.0312,52.4074 29.0312,53.0312 29.0312,53.6551 29.0304,54.1873 29,54.625 28.9696,55.0627 28.9035,55.4145 28.8125,55.6875 28.7215,55.9604 28.6065,56.1555 28.4375,56.2812 28.2685,56.4068 28.0272,56.4688 27.75,56.4688 27.4726,56.4688 27.2628,56.4068 27.0938,56.2812 26.9247,56.1555 26.7784,55.9604 26.6875,55.6875 26.5965,55.4145 26.5304,55.0627 26.5,54.625 26.4695,54.1873 26.4688,53.6551 26.4688,53.0312 26.4688,52.4074 26.4695,51.8709 26.5,51.4375 26.5304,51.0041 26.5965,50.6523 26.6875,50.375 26.7784,50.0977 26.9247,49.907 27.0938,49.7812 27.2628,49.6555 27.4726,49.5938 27.75,49.5938 z"
     id="path3220"
     style="fill:#231f20;stroke:none;" />
</svg>
