<?xml version="1.0" standalone="no"?>
<!DOCTYPE svg PUBLIC "-//W3C//DTD SVG 20010904//EN"
 "http://www.w3.org/TR/2001/REC-SVG-20010904/DTD/svg10.dtd">
<svg version="1.0" xmlns="http://www.w3.org/2000/svg"
 width="144.000000pt" height="147.000000pt" viewBox="0 0 144.000000 147.000000"
 preserveAspectRatio="xMidYMid meet">
<metadata>
Created by potrace 1.15, written by Peter Selinger 2001-2017
</metadata>
<g transform="translate(0.000000,147.000000) scale(0.100000,-0.100000)"
fill="#000000" stroke="none">
<path d="M768 1373 c-16 -4 -18 -18 -18 -111 0 -59 -4 -112 -8 -118 -8 -13
-66 -44 -82 -44 -6 0 -10 28 -10 70 0 58 -3 71 -19 80 -25 13 -191 13 -225 0
-26 -9 -26 -11 -26 -119 0 -126 -2 -129 -97 -157 -97 -28 -93 -6 -93 -475 l0
-409 325 0 325 0 0 60 0 60 180 0 180 0 0 413 c0 471 9 426 -95 472 -97 43
-97 43 -93 164 3 96 1 105 -17 112 -21 8 -198 10 -227 2z m222 -158 l5 -99 75
-37 c121 -59 111 -17 108 -460 l-3 -384 -167 -3 -168 -2 -2 347 -3 347 -34 23
c-19 13 -46 26 -60 30 -37 8 -91 51 -91 72 0 12 13 22 43 31 73 23 77 31 77
140 l0 96 108 -1 107 -2 5 -98z m-370 -111 c0 -89 1 -93 28 -116 16 -13 48
-30 71 -38 24 -8 56 -26 72 -41 l29 -27 -2 -376 c-2 -249 -7 -379 -14 -386 -7
-7 -103 -9 -295 -8 l-284 3 -3 384 c-3 424 -3 417 60 440 82 31 110 46 119 62
5 10 9 58 9 106 l0 89 105 0 105 0 0 -92z"/>
</g>
</svg>
