<?xml version="1.0" standalone="no"?>
<!DOCTYPE svg PUBLIC "-//W3C//DTD SVG 20010904//EN"
 "http://www.w3.org/TR/2001/REC-SVG-20010904/DTD/svg10.dtd">
<svg version="1.0" xmlns="http://www.w3.org/2000/svg"
 width="132.000000pt" height="157.000000pt" viewBox="0 0 132.000000 157.000000"
 preserveAspectRatio="xMidYMid meet">
<metadata>
Created by potrace 1.15, written by Peter Selinger 2001-2017
</metadata>
<g transform="translate(0.000000,157.000000) scale(0.100000,-0.100000)"
fill="#000000" stroke="none">
<path d="M97 1333 c-17 -277 8 -355 139 -419 l54 -26 0 -282 0 -281 -105 -53
c-58 -28 -105 -56 -105 -62 0 -6 96 -10 270 -10 149 0 270 3 270 8 0 4 -47 31
-105 60 l-105 52 0 282 0 283 55 24 c64 27 119 83 135 138 7 21 14 118 17 216
l5 177 -259 0 -260 0 -6 -107z m501 -80 c-6 -207 -17 -243 -100 -297 -29 -19
-65 -38 -80 -42 l-28 -6 0 -293 c0 -333 -9 -300 100 -355 36 -17 67 -34 69
-36 2 -2 -90 -4 -205 -4 l-209 1 77 39 77 40 1 304 1 304 -34 11 c-43 14 -113
74 -133 112 -21 41 -28 136 -19 272 l7 117 240 0 241 0 -5 -167z"/>
<path d="M682 1258 c6 -242 24 -285 151 -349 l57 -29 0 -280 0 -280 -105 -52
c-58 -29 -105 -56 -105 -60 0 -5 122 -8 270 -8 174 0 270 4 270 10 0 6 -47 34
-105 62 l-105 53 0 281 0 282 56 28 c70 35 109 79 129 146 17 57 18 99 8 266
l-6 112 -260 0 -259 0 4 -182z m501 65 c18 -266 -4 -329 -140 -397 l-53 -26 0
-285 c0 -181 4 -286 10 -290 6 -4 8 -10 5 -15 -3 -5 29 -27 72 -49 l78 -40
-215 0 -215 0 90 47 90 47 3 292 2 292 -62 31 c-80 40 -96 55 -122 110 -17 38
-21 69 -24 213 l-4 167 239 0 240 0 6 -97z"/>
</g>
</svg>
