<?xml version="1.0" standalone="no"?>
<!DOCTYPE svg PUBLIC "-//W3C//DTD SVG 20010904//EN"
 "http://www.w3.org/TR/2001/REC-SVG-20010904/DTD/svg10.dtd">
<svg version="1.0" xmlns="http://www.w3.org/2000/svg"
 width="282.000000pt" height="256.000000pt" viewBox="0 0 282.000000 256.000000"
 preserveAspectRatio="xMidYMid meet">
<metadata>
Created by potrace 1.15, written by Peter Selinger 2001-2017
</metadata>
<g transform="translate(0.000000,256.000000) scale(0.100000,-0.100000)"
fill="#000000" stroke="none">
<path d="M1016 2303 c-42 -60 -96 -136 -121 -170 l-44 -63 26 -17 c29 -19 20
-27 96 79 21 29 67 93 102 143 36 49 65 95 65 102 0 10 -29 33 -43 33 -2 0
-39 -48 -81 -107z"/>
<path d="M1492 2397 c-11 -13 -63 -88 -160 -231 -26 -38 -51 -75 -57 -83 -7
-10 -5 -18 9 -29 28 -20 33 -18 62 24 14 20 66 94 115 165 49 70 89 132 89
137 0 8 -31 30 -43 30 -3 0 -9 -6 -15 -13z"/>
<path d="M1802 2246 c-62 -91 -112 -169 -112 -175 0 -15 41 -34 50 -24 5 4 35
47 67 94 32 47 82 120 111 163 30 43 52 79 50 80 -6 6 -47 26 -51 26 -2 0 -54
-74 -115 -164z"/>
<path d="M2258 2308 c-177 -245 -174 -239 -153 -254 32 -23 32 -23 123 106 34
47 64 90 69 95 31 37 83 115 83 123 0 10 -30 32 -43 32 -3 0 -39 -46 -79 -102z"/>
<path d="M1060 1855 c-69 -13 -138 -28 -155 -33 -21 -7 -41 -5 -69 6 l-38 15
-32 -36 c-19 -22 -52 -45 -86 -58 -156 -59 -319 -168 -416 -276 -61 -67 -154
-203 -154 -223 0 -4 9 -15 20 -25 19 -17 24 -17 92 -3 173 37 380 16 532 -53
20 -10 44 -7 128 14 157 39 234 43 368 17 63 -12 122 -26 132 -31 17 -9 18
-36 18 -464 l0 -454 -29 -20 c-64 -46 -179 -35 -201 19 -16 39 -23 42 -54 30
-33 -12 -33 -24 5 -71 49 -62 151 -77 251 -38 96 38 88 -10 88 514 0 358 3
465 13 472 20 16 96 34 187 45 106 12 283 -4 365 -32 l58 -20 63 25 c87 35
174 53 279 58 81 4 117 -1 241 -30 15 -3 23 3 32 22 11 24 8 34 -25 97 -45 84
-110 158 -207 237 -118 94 -291 193 -379 215 -21 5 -27 11 -23 23 4 8 1 22 -5
29 -15 18 -45 18 -53 -1 -6 -18 -39 -20 -68 -4 -12 7 -85 22 -162 35 -121 20
-173 24 -366 23 -191 -1 -244 -5 -350 -24z m75 -104 c-20 -28 -60 -67 -89 -86
-54 -36 -170 -166 -205 -232 -36 -65 -71 -151 -71 -172 0 -26 -25 -27 -96 -7
-132 38 -239 47 -396 31 -38 -4 -68 -3 -68 2 0 38 165 221 254 281 56 38 206
115 206 106 0 -3 -28 -44 -62 -91 -59 -81 -61 -86 -43 -99 31 -23 42 -17 86
49 24 34 66 94 94 133 50 67 55 71 117 88 117 32 293 64 302 56 5 -5 -8 -31
-29 -59z m698 38 c60 -12 111 -27 113 -34 5 -13 -66 -124 -79 -125 -5 0 -32
19 -60 43 -66 54 -114 87 -125 87 -5 0 -16 7 -23 16 -11 14 -10 18 5 30 11 7
29 12 40 9 12 -2 70 -14 129 -26z m-433 -119 c0 -81 -5 -139 -12 -156 -10 -22
-10 -28 0 -32 9 -3 12 -38 12 -126 0 -68 -3 -125 -6 -128 -3 -3 -17 -2 -32 3
-136 42 -313 49 -443 16 -44 -11 -82 -18 -84 -15 -11 11 28 108 71 181 36 60
50 77 63 71 49 -21 54 -17 121 82 36 54 74 106 85 117 24 22 195 117 213 117
9 0 12 -32 12 -130z m291 15 c38 -25 69 -49 69 -53 0 -4 13 -16 30 -27 41 -28
43 -40 13 -76 -26 -30 -26 -32 -8 -45 26 -20 48 -17 63 6 7 11 18 20 26 20 15
0 72 -74 101 -130 20 -39 56 -142 52 -147 -2 -1 -39 4 -83 13 -121 23 -315 20
-403 -6 -39 -11 -76 -18 -81 -15 -6 4 -10 63 -10 139 l0 133 76 117 c42 64 79
116 81 116 2 0 35 -20 74 -45z m444 12 c28 -11 74 -36 103 -54 29 -18 56 -33
61 -33 5 0 14 -7 22 -16 7 -8 36 -31 65 -50 102 -68 254 -251 224 -269 -5 -3
-27 -1 -47 4 -80 23 -270 3 -430 -45 -15 -4 -24 -2 -27 7 -47 152 -53 166
-119 251 l-68 88 52 76 c59 84 59 85 164 41z"/>
</g>
</svg>
