<?xml version="1.0" standalone="no"?>
<!DOCTYPE svg PUBLIC "-//W3C//DTD SVG 20010904//EN"
 "http://www.w3.org/TR/2001/REC-SVG-20010904/DTD/svg10.dtd">
<svg version="1.0" xmlns="http://www.w3.org/2000/svg"
 width="214.000000pt" height="232.000000pt" viewBox="0 0 214.000000 232.000000"
 preserveAspectRatio="xMidYMid meet">
<metadata>
Created by potrace 1.15, written by Peter Selinger 2001-2017
</metadata>
<g transform="translate(0.000000,232.000000) scale(0.100000,-0.100000)"
fill="#000000" stroke="none">
<path d="M829 1852 c-62 -32 -89 -74 -89 -138 0 -80 80 -150 184 -161 60 -7
141 21 182 64 141 145 -84 336 -277 235z m184 -43 c47 -24 67 -52 67 -90 0
-75 -97 -134 -178 -108 -146 47 -118 209 36 209 29 0 63 -5 75 -11z"/>
<path d="M404 1735 c-4 -8 -4 -22 0 -30 5 -13 27 -15 143 -13 l138 3 0 25 0
25 -138 3 c-116 2 -138 0 -143 -13z"/>
<path d="M670 1540 c-30 -21 -73 -54 -95 -73 -35 -30 -38 -36 -26 -51 23 -28
44 -19 140 61 86 70 92 77 75 90 -25 18 -32 17 -94 -27z"/>
<path d="M1115 1564 c-19 -14 -18 -16 25 -54 112 -99 148 -122 169 -110 24 12
25 19 8 40 -18 23 -164 140 -174 140 -4 0 -17 -7 -28 -16z"/>
<path d="M900 1395 l0 -116 33 3 32 3 0 110 0 110 -32 3 -33 3 0 -116z"/>
<path d="M695 1100 c-115 -38 -317 -104 -447 -147 -131 -43 -238 -82 -238 -88
0 -6 6 -18 13 -27 11 -14 60 0 447 128 239 79 441 144 448 144 7 0 194 -54
415 -120 221 -67 410 -122 421 -123 11 -1 22 7 27 20 8 21 3 24 -89 52 -155
48 -735 219 -762 225 -16 4 -101 -19 -235 -64z"/>
<path d="M406 873 c-3 -3 -6 -74 -6 -157 l0 -151 83 -48 c45 -26 125 -72 177
-103 77 -45 98 -54 112 -45 23 15 764 15 773 1 3 -6 15 -10 26 -10 18 0 19 8
19 155 l0 155 -24 10 c-28 10 -263 145 -286 164 -27 22 -69 36 -75 26 -8 -13
-750 -13 -774 0 -10 5 -21 6 -25 3z m802 -130 l3 -63 -232 0 -233 0 -93 56
c-51 31 -93 61 -93 66 0 4 142 7 323 6 l322 -3 3 -62z m-613 -40 c63 -38 114
-74 115 -80 0 -10 -30 -13 -120 -13 l-120 0 0 80 c0 44 3 80 6 80 3 0 57 -30
119 -67z m925 -163 c0 -44 -3 -80 -6 -80 -15 0 -244 141 -244 150 0 6 51 10
125 10 l125 0 0 -80z m-198 -40 c54 -30 98 -58 98 -62 0 -5 -144 -8 -319 -8
-282 0 -320 2 -325 16 -9 23 -7 59 4 88 l10 26 217 -2 218 -3 97 -55z"/>
</g>
</svg>
