<?xml version="1.0" encoding="UTF-8" standalone="no"?>
<!-- Created with Inkscape (http://www.inkscape.org/) -->

<svg
   xmlns:dc="http://purl.org/dc/elements/1.1/"
   xmlns:cc="http://creativecommons.org/ns#"
   xmlns:rdf="http://www.w3.org/1999/02/22-rdf-syntax-ns#"
   xmlns:svg="http://www.w3.org/2000/svg"
   xmlns="http://www.w3.org/2000/svg"
   xmlns:sodipodi="http://sodipodi.sourceforge.net/DTD/sodipodi-0.dtd"
   xmlns:inkscape="http://www.inkscape.org/namespaces/inkscape"
   width="90.400002cm"
   height="90.400002cm"
   viewBox="0 0 904.00002 903.99999"
   version="1.1"
   id="svg8"
   inkscape:version="0.92.2 (5c3e80d, 2017-08-06)"
   sodipodi:docname="66.svg">
  <defs
     id="defs2" />
  <sodipodi:namedview
     id="base"
     pagecolor="#ffffff"
     bordercolor="#666666"
     borderopacity="1.0"
     inkscape:pageopacity="0.0"
     inkscape:pageshadow="2"
     inkscape:zoom="0.175"
     inkscape:cx="1266.9893"
     inkscape:cy="1173.0034"
     inkscape:document-units="cm"
     inkscape:current-layer="layer1"
     showgrid="false"
     units="cm"
     inkscape:window-width="1920"
     inkscape:window-height="1057"
     inkscape:window-x="-8"
     inkscape:window-y="-8"
     inkscape:window-maximized="1" />
  <metadata
     id="metadata5">
    <rdf:RDF>
      <cc:Work
         rdf:about="">
        <dc:format>image/svg+xml</dc:format>
        <dc:type
           rdf:resource="http://purl.org/dc/dcmitype/StillImage" />
        <dc:title></dc:title>
      </cc:Work>
    </rdf:RDF>
  </metadata>
  <g
     inkscape:label="Layer 1"
     inkscape:groupmode="layer"
     id="layer1"
     transform="translate(0,607.00001)">
    <rect
       style="opacity:1;fill:#203e6e;fill-opacity:1;stroke:none;stroke-width:140.97337341;stroke-linejoin:round;stroke-miterlimit:4;stroke-dasharray:none;stroke-opacity:1"
       id="rect815"
       width="900"
       height="900"
       x="2"
       y="-605"
       rx="45"
       ry="45" />
    <rect
       y="-587"
       x="20"
       height="864"
       width="864"
       id="rect817"
       style="opacity:1;fill:#ffffff;fill-opacity:1;stroke:none;stroke-width:135.33444214;stroke-linejoin:round;stroke-miterlimit:4;stroke-dasharray:none;stroke-opacity:1"
       rx="27"
       ry="27" />
    <rect
       y="-569"
       x="38"
       height="828"
       width="828"
       id="rect819"
       style="opacity:1;fill:#203e6e;fill-opacity:1;stroke:none;stroke-width:129.69551086;stroke-linejoin:round;stroke-miterlimit:4;stroke-dasharray:none;stroke-opacity:1"
       rx="9"
       ry="9" />
    <path
       d="m 298.55281,-371.22287 c 4.33604,-15.01076 9.45688,-29.44411 15.48882,-43.08971 h -49.09456 c -6.34466,12.90583 -12.18718,27.29716 -17.40424,43.08971 z m 74.359,0 c 4.33604,-15.01076 9.4569,-29.44411 15.48583,-43.08971 h -53.86059 c -6.03194,13.8921 -11.11069,28.30449 -15.37457,43.08971 z m 75.84444,0 c 4.321,-15.01374 9.43281,-29.44113 15.44373,-43.08971 h -55.30393 c -6.03497,13.8921 -11.11371,28.30449 -15.37755,43.08971 z m -164.29704,66.9498 c 2.51682,-17.30498 5.72224,-34.30336 9.7696,-50.72733 h -51.67754 c -4.50142,15.74139 -8.40442,32.70364 -11.60083,50.80856 z m 74.37406,-0.11422 c 2.51681,-17.26593 5.71321,-34.22511 9.75455,-50.61303 h -53.75535 c -4.08043,16.58337 -7.24676,33.54859 -9.69443,50.69426 z m 75.89253,-0.12018 c 2.50779,-17.22383 5.69517,-34.1409 9.71247,-50.49276 h -55.24679 c -4.07141,16.54731 -7.23474,33.47043 -9.68239,50.57697 z m -156.87888,67.87299 c 0.96525,-17.03732 2.38451,-34.0958 4.40219,-50.94681 h -53.97787 c -2.37848,16.16238 -4.20071,33.1577 -5.40349,50.94681 z m 74.35601,0 c 0.96822,-17.03732 2.38751,-34.0958 4.40518,-50.94681 h -53.62904 c -1.97257,16.93216 -3.31366,33.9816 -4.22178,50.94681 z m 75.89254,0 c 0.96222,-17.03732 2.3785,-34.0958 4.39315,-50.94681 h -55.15355 c -1.96656,16.93216 -3.31068,33.9816 -4.21878,50.94681 z m -152.00762,67.54519 c -0.002,-16.71864 0.26765,-33.78009 0.95622,-50.94681 h -55.11148 c -0.73074,16.37283 -0.94719,33.36217 -0.60135,50.94681 z m 74.35901,0 c -0.002,-16.71864 0.26457,-33.78009 0.95621,-50.94681 h -53.40353 c -0.65248,17.20278 -0.92312,34.24922 -1.00131,50.94681 z m 75.89255,0 c -0.007,-16.71864 0.26456,-33.78009 0.95018,-50.94681 h -54.93106 c -0.65248,17.20278 -0.92311,34.24922 -1.00131,50.94681 z M 278.737,-92.796801 c -1.30203,-15.891759 -2.09888,-31.741399 -2.38152,-47.269369 -0.0725,-4.15554 -0.12922,-8.34125 -0.17431,-12.54801 h -54.36282 c 0.081,2.10492 0.17141,4.2158 0.27062,6.33572 0.863,18.36344 2.26123,36.20976 4.14058,53.481659 z m 74.359,0 c -1.29901,-15.891759 -2.09886,-31.741399 -2.37851,-47.269369 -0.075,-4.15554 -0.13238,-8.34125 -0.17431,-12.54801 h -53.57493 c 0.002,4.72398 0.0162,9.41778 0.0358,14.06659 0.0844,14.37019 0.77583,29.79289 2.05676,45.750789 z m 75.88952,0 c -1.296,-15.891759 -2.09585,-31.741399 -2.37548,-47.269369 -0.075,-4.15554 -0.12922,-8.34125 -0.17431,-12.54801 h -55.11147 c 0.007,4.72398 0.0205,9.41778 0.0392,14.06659 0.0844,14.37019 0.77275,29.79289 2.05373,45.750789 z m -141.53437,68.306003 c -2.96188,-16.805826 -5.34338,-34.032725 -7.14154,-51.325686 h -52.05039 c 2.32135,17.813156 5.17497,34.943824 8.50065,51.325686 z m 74.35899,0 c -2.96185,-16.805826 -5.34636,-34.032725 -7.14151,-51.325686 h -54.038 c 1.76809,16.914077 4.18569,34.213087 7.24976,51.325686 z m 75.88654,0 c -2.95885,-16.805826 -5.33735,-34.032725 -7.1355,-51.325686 h -55.57457 c 1.77112,16.914077 4.18872,34.213087 7.24979,51.325686 z M 301.60789,37.308078 C 297.49137,23.136311 293.86499,8.2007394 290.72872,-7.2129236 l -50.21014,0.085241 c 3.60233,15.573055 7.65872,30.3882726 12.11203,44.3646776 z m 74.39208,0.117627 C 371.86239,23.184726 368.21195,8.1650254 365.06367,-7.3267997 l -53.86057,0.085241 c 3.16932,15.3143621 6.85885,30.3190607 11.08062,44.5840767 z m 75.90758,0.117626 C 447.74893,23.230242 444.08646,8.1322954 440.92313,-7.4437438 l -55.3851,0.085241 C 388.7194,8.0401584 392.42998,23.123018 396.6788,37.460229 Z M 325.0441,98.359001 C 318.47991,85.543349 312.54418,71.049813 307.25496,55.350521 h -48.4631 c 5.6711,15.624113 11.87446,30.021417 18.53186,43.08059 z m 74.30188,-0.11763 C 392.80585,85.452742 386.88816,71.001313 381.61394,55.350095 h -53.57492 c 5.45763,15.801576 11.6249,30.352219 18.51382,42.975406 z m 75.77826,-0.12018 C 468.61721,85.36563 462.72958,70.953325 457.47945,55.350266 h -55.08142 c 5.43958,15.753417 11.58579,30.261953 18.44768,42.858125 z m 55.97748,-379.492911 c -7.39708,82.50181 -2.64916,174.25306 12.83373,256.75793 23.85719,-3.172331 28.59915,-77.81703 26.92425,-125.72083 -3.06706,-74.38907 -17.29603,-131.0371 -39.75798,-131.0371 m 31.10997,355.350005 c 42.68978,39.667715 82.45075,-70.3357387 73.79975,-228.113675 -8.64801,-157.77795 -50.92278,-275.89123 -96.67664,-217.84797 37.52375,-19.13321 76.02784,98.21321 80.77287,223.29952 5.15988,125.588535 -18.13799,233.180398 -57.89598,222.662125 M 521.89446,-492.12323 c 54.54618,-2.66117 153.45696,113.54862 160.43604,336.0874 6.83486,222.535802 -56.64198,334.43961 -137.55915,338.3697 -4.74197,0.3793 -163.22657,0 -168.80447,0 -32.98028,0 -64.00005,-24.46758 -89.49601,-67.28666 l 48.15638,0.0767 c 8.61795,13.45612 18.12895,24.18799 28.50594,31.34454 8.64801,5.95675 23.85419,-3.04302 13.94626,-10.13649 -7.16557,-5.29226 -13.85303,-12.4789 -20.06541,-21.17191 l 52.05041,0.0852 c 8.59385,13.40199 18.07781,24.08265 28.42474,31.22419 8.65101,5.95675 23.85715,-3.04303 13.95226,-10.13641 -7.1385,-5.26524 -13.7959,-12.41573 -19.98122,-21.05471 l 53.49681,0.0869 c 8.56073,13.34787 17.99956,23.9865 28.28633,31.10393 8.65109,5.95683 23.86027,-3.04303 13.9493,-10.13642 -7.10242,-5.24112 -13.72674,-12.34959 -19.88192,-20.93145 l 12.89679,0.017 c 15.7143,-1.64482 13.16444,-17.359099 -2.69424,-17.359099 l -20.96452,0.0341 c -6.82873,-12.566128 -12.9389,-27.03861 -18.35143,-42.740884 h 17.71096 C 513.484,55.730847 509.09082,37.61135 492.93142,37.61135 L 472.52324,37.57726 C 468.25937,23.167849 464.53676,8.0038434 461.35539,-7.4729801 l 20.74503,-0.03409 c 18.40257,-0.8840737 13.5914,-16.9803179 -1.69594,-16.9803179 h -22.31764 c -3.04906,-17.112769 -5.45762,-34.411779 -7.2197,-51.325856 h 19.63242 c 15.90378,0 14.05747,-16.980317 -1.70191,-16.980317 h -19.49413 c -1.27796,-15.957899 -1.96353,-31.380599 -2.04773,-45.750789 -0.0179,-4.64881 -0.0332,-9.34261 -0.0392,-14.06659 h 18.60103 c 13.15849,0 12.31046,-16.47511 -1.84026,-16.47511 h -16.73052 c 0.0844,-16.69759 0.34879,-33.74404 1.00132,-50.94681 h 17.85228 c 14.19291,0 12.90591,-16.59838 -1.8643,-16.59838 H 449.0059 c 0.90211,-16.9653 2.24321,-34.01474 4.20975,-50.9469 h 18.13799 c 10.53337,0 13.6636,-16.98328 -0.9953,-16.98328 l -14.95662,0.0256 c 2.43563,-17.06743 5.58692,-33.95449 9.63726,-50.45969 h 20.95549 c 11.08971,0 15.06786,-16.22256 0.42959,-16.22256 h -17.07048 c 4.25185,-14.78522 9.31856,-29.20051 15.33848,-43.08962 h 27.20691 c 11.56183,0 15.13409,-16.21958 0.42704,-16.21958 h -20.04739 c 2.1379,-4.24282 4.38414,-8.42547 6.73258,-12.54503 6.1402,-10.52126 -7.24979,-20.40512 -16.87803,-5.07268 -3.60541,5.66508 -6.97619,11.54674 -10.14255,17.61771 h -55.48733 c 2.14999,-4.24282 4.3992,-8.42547 6.75664,-12.54503 6.13721,-10.52126 -7.25578,-20.40512 -16.88105,-5.07268 -3.61436,5.66508 -6.99117,11.54674 -10.17251,17.61771 h -54.0587 c 2.14697,-4.24282 4.39616,-8.42547 6.75364,-12.54503 6.13718,-10.52126 -7.25278,-20.40512 -16.88107,-5.07268 -3.61134,5.66508 -6.99118,11.54674 -10.16952,17.61771 h -48.22254 c 23.44222,-40.13678 52.17971,-61.97028 80.71571,-61.97028 4.32398,0 162.80555,0.75774 167.55059,0.37844"
       style="fill:#ffffff;fill-opacity:1;fill-rule:evenodd;stroke:none;stroke-width:3.00695515"
       id="path1439"
       inkscape:connector-curvature="0" />
  </g>
</svg>
